<svg xmlns="http://www.w3.org/2000/svg" xmlns:xlink="http://www.w3.org/1999/xlink" width="450" height="300" viewBox="-0.75 -0.5 1.5 1.0"><style>svg {
  color-scheme: light dark;
}
{
  .canvas g, .title g, .axisbar g, .ticktext g, .tickglyph g, .ticklines g, .legendContent g text {
    fill: rgb(5%, 5%, 5%);
  }
  .ticklines g, .tickglyph g, .legendBorder g {
    stroke: rgb(5%, 5%, 5%);
  }
  .legendBorder g {
    fill: rgb(94%, 94%, 94%);
  }
}
@media (prefers-color-scheme:dark) {
  .canvas g, .title g, .axisbar g, .ticktext g, .tickglyph g, .ticklines g, .legendContent g text {
    fill: rgb(94%, 94%, 94%);
  }
  .ticklines g, .tickglyph g, .legendBorder g {
    stroke: rgb(94%, 94%, 94%);
  }
  .legendBorder g {
    fill: rgb(5%, 5%, 5%);
  }
}
svg { font-family: system-ui,-apple-system,"Segoe UI",Roboto,"Helvetica Neue",Arial,"Noto Sans","Liberation Sans",sans-serif,"Apple Color Emoji","Segoe UI Emoji","Segoe UI Symbol","Noto Color Emoji";
}

ticktext { font-family: SFMono-Regular,Menlo,Monaco,Consolas,"Liberation Mono","Courier New",monospace;
}


{
  .arrow g {
    fill: rgba(5%, 5%, 5%, 1.00);
    stroke: rgba(5%, 5%, 5%, 1.00);
  }
}
@media (prefers-color-scheme:dark) {
  .arrow g {
    fill: rgba(94%, 94%, 94%, 1.00);
    stroke: rgba(94%, 94%, 94%, 1.00);
  }
}
</style><g class="chart"><g class="arrow"><g stroke-width="0.0500" stroke="rgb(5%, 5%, 5%)" stroke-opacity="1.0" fill="rgb(2%, 73%, 80%)" fill-opacity="0.2"><g transform="rotate(-41.7039, -0.4287, 0.2531)"><path d="M -1 0 L 1 0 M 1 0 L 0.4 0.3 M 1 0 L 0.4 -0.3" transform="translate(-0.4287, 0.2531) scale(0.0500)"/></g></g><g stroke-width="0.0500" stroke="rgb(5%, 5%, 5%)" stroke-opacity="1.0" fill="rgb(2%, 73%, 80%)" fill-opacity="0.2"><g transform="rotate(-40.7040, -0.4287, 0.1888)"><path d="M -1 0 L 1 0 M 1 0 L 0.4 0.3 M 1 0 L 0.4 -0.3" transform="translate(-0.4287, 0.1888) scale(0.0500)"/></g></g><g stroke-width="0.0500" stroke="rgb(5%, 5%, 5%)" stroke-opacity="1.0" fill="rgb(2%, 73%, 80%)" fill-opacity="0.2"><g transform="rotate(-39.3303, -0.4288, 0.1245)"><path d="M -1 0 L 1 0 M 1 0 L 0.4 0.3 M 1 0 L 0.4 -0.3" transform="translate(-0.4288, 0.1245) scale(0.0500)"/></g></g><g stroke-width="0.0500" stroke="rgb(5%, 5%, 5%)" stroke-opacity="1.0" fill="rgb(2%, 73%, 80%)" fill-opacity="0.2"><g transform="rotate(-37.3282, -0.4288, 0.0601)"><path d="M -1 0 L 1 0 M 1 0 L 0.4 0.3 M 1 0 L 0.4 -0.3" transform="translate(-0.4288, 0.0601) scale(0.0500)"/></g></g><g stroke-width="0.0500" stroke="rgb(5%, 5%, 5%)" stroke-opacity="1.0" fill="rgb(2%, 73%, 80%)" fill-opacity="0.2"><g transform="rotate(-34.1493, -0.4289, -0.0044)"><path d="M -1 0 L 1 0 M 1 0 L 0.4 0.3 M 1 0 L 0.4 -0.3" transform="translate(-0.4289, -0.0044) scale(0.0500)"/></g></g><g stroke-width="0.0500" stroke="rgb(5%, 5%, 5%)" stroke-opacity="1.0" fill="rgb(2%, 73%, 80%)" fill-opacity="0.2"><g transform="rotate(-28.3824, -0.4289, -0.0693)"><path d="M -1 0 L 1 0 M 1 0 L 0.4 0.3 M 1 0 L 0.4 -0.3" transform="translate(-0.4289, -0.0693) scale(0.0500)"/></g></g><g stroke-width="0.0500" stroke="rgb(5%, 5%, 5%)" stroke-opacity="1.0" fill="rgb(2%, 73%, 80%)" fill-opacity="0.2"><g transform="rotate(-15.2740, -0.4287, -0.1355)"><path d="M -1 0 L 1 0 M 1 0 L 0.4 0.3 M 1 0 L 0.4 -0.3" transform="translate(-0.4287, -0.1355) scale(0.0500)"/></g></g><g stroke-width="0.0500" stroke="rgb(5%, 5%, 5%)" stroke-opacity="1.0" fill="rgb(2%, 73%, 80%)" fill-opacity="0.2"><g transform="rotate(24.9171, -0.4289, -0.1996)"><path d="M -1 0 L 1 0 M 1 0 L 0.4 0.3 M 1 0 L 0.4 -0.3" transform="translate(-0.4289, -0.1996) scale(0.0500)"/></g></g><g stroke-width="0.0500" stroke="rgb(5%, 5%, 5%)" stroke-opacity="1.0" fill="rgb(2%, 73%, 80%)" fill-opacity="0.2"><g transform="rotate(85.2524, -0.4256, -0.2624)"><path d="M -1 0 L 1 0 M 1 0 L 0.4 0.3 M 1 0 L 0.4 -0.3" transform="translate(-0.4256, -0.2624) scale(0.0500)"/></g></g><g stroke-width="0.0500" stroke="rgb(5%, 5%, 5%)" stroke-opacity="1.0" fill="rgb(2%, 73%, 80%)" fill-opacity="0.2"><g transform="rotate(107.4397, -0.4268, -0.3253)"><path d="M -1 0 L 1 0 M 1 0 L 0.4 0.3 M 1 0 L 0.4 -0.3" transform="translate(-0.4268, -0.3253) scale(0.0500)"/></g></g><g stroke-width="0.0500" stroke="rgb(5%, 5%, 5%)" stroke-opacity="1.0" fill="rgb(2%, 73%, 80%)" fill-opacity="0.2"><g transform="rotate(-46.8993, -0.3227, 0.2525)"><path d="M -1 0 L 1 0 M 1 0 L 0.4 0.3 M 1 0 L 0.4 -0.3" transform="translate(-0.3227, 0.2525) scale(0.0500)"/></g></g><g stroke-width="0.0500" stroke="rgb(5%, 5%, 5%)" stroke-opacity="1.0" fill="rgb(2%, 73%, 80%)" fill-opacity="0.2"><g transform="rotate(-45.4122, -0.3227, 0.1883)"><path d="M -1 0 L 1 0 M 1 0 L 0.4 0.3 M 1 0 L 0.4 -0.3" transform="translate(-0.3227, 0.1883) scale(0.0500)"/></g></g><g stroke-width="0.0500" stroke="rgb(5%, 5%, 5%)" stroke-opacity="1.0" fill="rgb(2%, 73%, 80%)" fill-opacity="0.2"><g transform="rotate(-43.2666, -0.3228, 0.1242)"><path d="M -1 0 L 1 0 M 1 0 L 0.4 0.3 M 1 0 L 0.4 -0.3" transform="translate(-0.3228, 0.1242) scale(0.0500)"/></g></g><g stroke-width="0.0500" stroke="rgb(5%, 5%, 5%)" stroke-opacity="1.0" fill="rgb(2%, 73%, 80%)" fill-opacity="0.2"><g transform="rotate(-39.9135, -0.3229, 0.0600)"><path d="M -1 0 L 1 0 M 1 0 L 0.4 0.3 M 1 0 L 0.4 -0.3" transform="translate(-0.3229, 0.0600) scale(0.0500)"/></g></g><g stroke-width="0.0500" stroke="rgb(5%, 5%, 5%)" stroke-opacity="1.0" fill="rgb(2%, 73%, 80%)" fill-opacity="0.2"><g transform="rotate(-33.9991, -0.3230, -0.0044)"><path d="M -1 0 L 1 0 M 1 0 L 0.4 0.3 M 1 0 L 0.4 -0.3" transform="translate(-0.3230, -0.0044) scale(0.0500)"/></g></g><g stroke-width="0.0500" stroke="rgb(5%, 5%, 5%)" stroke-opacity="1.0" fill="rgb(2%, 73%, 80%)" fill-opacity="0.2"><g transform="rotate(-21.3212, -0.3230, -0.0696)"><path d="M -1 0 L 1 0 M 1 0 L 0.4 0.3 M 1 0 L 0.4 -0.3" transform="translate(-0.3230, -0.0696) scale(0.0500)"/></g></g><g stroke-width="0.0500" stroke="rgb(5%, 5%, 5%)" stroke-opacity="1.0" fill="rgb(2%, 73%, 80%)" fill-opacity="0.2"><g transform="rotate(13.3646, -0.3228, -0.1357)"><path d="M -1 0 L 1 0 M 1 0 L 0.4 0.3 M 1 0 L 0.4 -0.3" transform="translate(-0.3228, -0.1357) scale(0.0500)"/></g></g><g stroke-width="0.0500" stroke="rgb(5%, 5%, 5%)" stroke-opacity="1.0" fill="rgb(2%, 73%, 80%)" fill-opacity="0.2"><g transform="rotate(70.2608, -0.3214, -0.1969)"><path d="M -1 0 L 1 0 M 1 0 L 0.4 0.3 M 1 0 L 0.4 -0.3" transform="translate(-0.3214, -0.1969) scale(0.0500)"/></g></g><g stroke-width="0.0500" stroke="rgb(5%, 5%, 5%)" stroke-opacity="1.0" fill="rgb(2%, 73%, 80%)" fill-opacity="0.2"><g transform="rotate(96.0844, -0.3204, -0.2622)"><path d="M -1 0 L 1 0 M 1 0 L 0.4 0.3 M 1 0 L 0.4 -0.3" transform="translate(-0.3204, -0.2622) scale(0.0500)"/></g></g><g stroke-width="0.0500" stroke="rgb(5%, 5%, 5%)" stroke-opacity="1.0" fill="rgb(2%, 73%, 80%)" fill-opacity="0.2"><g transform="rotate(106.0551, -0.3212, -0.3254)"><path d="M -1 0 L 1 0 M 1 0 L 0.4 0.3 M 1 0 L 0.4 -0.3" transform="translate(-0.3212, -0.3254) scale(0.0500)"/></g></g><g stroke-width="0.0500" stroke="rgb(5%, 5%, 5%)" stroke-opacity="1.0" fill="rgb(2%, 73%, 80%)" fill-opacity="0.2"><g transform="rotate(-53.3544, -0.2167, 0.2520)"><path d="M -1 0 L 1 0 M 1 0 L 0.4 0.3 M 1 0 L 0.4 -0.3" transform="translate(-0.2167, 0.2520) scale(0.0500)"/></g></g><g stroke-width="0.0500" stroke="rgb(5%, 5%, 5%)" stroke-opacity="1.0" fill="rgb(2%, 73%, 80%)" fill-opacity="0.2"><g transform="rotate(-51.2345, -0.2168, 0.1879)"><path d="M -1 0 L 1 0 M 1 0 L 0.4 0.3 M 1 0 L 0.4 -0.3" transform="translate(-0.2168, 0.1879) scale(0.0500)"/></g></g><g stroke-width="0.0500" stroke="rgb(5%, 5%, 5%)" stroke-opacity="1.0" fill="rgb(2%, 73%, 80%)" fill-opacity="0.2"><g transform="rotate(-48.0128, -0.2169, 0.1239)"><path d="M -1 0 L 1 0 M 1 0 L 0.4 0.3 M 1 0 L 0.4 -0.3" transform="translate(-0.2169, 0.1239) scale(0.0500)"/></g></g><g stroke-width="0.0500" stroke="rgb(5%, 5%, 5%)" stroke-opacity="1.0" fill="rgb(2%, 73%, 80%)" fill-opacity="0.2"><g transform="rotate(-42.5805, -0.2170, 0.0599)"><path d="M -1 0 L 1 0 M 1 0 L 0.4 0.3 M 1 0 L 0.4 -0.3" transform="translate(-0.2170, 0.0599) scale(0.0500)"/></g></g><g stroke-width="0.0500" stroke="rgb(5%, 5%, 5%)" stroke-opacity="1.0" fill="rgb(2%, 73%, 80%)" fill-opacity="0.2"><g transform="rotate(-31.8274, -0.2171, -0.0044)"><path d="M -1 0 L 1 0 M 1 0 L 0.4 0.3 M 1 0 L 0.4 -0.3" transform="translate(-0.2171, -0.0044) scale(0.0500)"/></g></g><g stroke-width="0.0500" stroke="rgb(5%, 5%, 5%)" stroke-opacity="1.0" fill="rgb(2%, 73%, 80%)" fill-opacity="0.2"><g transform="rotate(-5.4403, -0.2168, -0.0703)"><path d="M -1 0 L 1 0 M 1 0 L 0.4 0.3 M 1 0 L 0.4 -0.3" transform="translate(-0.2168, -0.0703) scale(0.0500)"/></g></g><g stroke-width="0.0500" stroke="rgb(5%, 5%, 5%)" stroke-opacity="1.0" fill="rgb(2%, 73%, 80%)" fill-opacity="0.2"><g transform="rotate(47.1211, -0.2169, -0.1330)"><path d="M -1 0 L 1 0 M 1 0 L 0.4 0.3 M 1 0 L 0.4 -0.3" transform="translate(-0.2169, -0.1330) scale(0.0500)"/></g></g><g stroke-width="0.0500" stroke="rgb(5%, 5%, 5%)" stroke-opacity="1.0" fill="rgb(2%, 73%, 80%)" fill-opacity="0.2"><g transform="rotate(80.5377, -0.2154, -0.1975)"><path d="M -1 0 L 1 0 M 1 0 L 0.4 0.3 M 1 0 L 0.4 -0.3" transform="translate(-0.2154, -0.1975) scale(0.0500)"/></g></g><g stroke-width="0.0500" stroke="rgb(5%, 5%, 5%)" stroke-opacity="1.0" fill="rgb(2%, 73%, 80%)" fill-opacity="0.2"><g transform="rotate(93.7314, -0.2150, -0.2625)"><path d="M -1 0 L 1 0 M 1 0 L 0.4 0.3 M 1 0 L 0.4 -0.3" transform="translate(-0.2150, -0.2625) scale(0.0500)"/></g></g><g stroke-width="0.0500" stroke="rgb(5%, 5%, 5%)" stroke-opacity="1.0" fill="rgb(2%, 73%, 80%)" fill-opacity="0.2"><g transform="rotate(100.0607, -0.2154, -0.3261)"><path d="M -1 0 L 1 0 M 1 0 L 0.4 0.3 M 1 0 L 0.4 -0.3" transform="translate(-0.2154, -0.3261) scale(0.0500)"/></g></g><g stroke-width="0.0500" stroke="rgb(5%, 5%, 5%)" stroke-opacity="1.0" fill="rgb(2%, 73%, 80%)" fill-opacity="0.2"><g transform="rotate(-61.4810, -0.1107, 0.2517)"><path d="M -1 0 L 1 0 M 1 0 L 0.4 0.3 M 1 0 L 0.4 -0.3" transform="translate(-0.1107, 0.2517) scale(0.0500)"/></g></g><g stroke-width="0.0500" stroke="rgb(5%, 5%, 5%)" stroke-opacity="1.0" fill="rgb(2%, 73%, 80%)" fill-opacity="0.2"><g transform="rotate(-58.6701, -0.1108, 0.1877)"><path d="M -1 0 L 1 0 M 1 0 L 0.4 0.3 M 1 0 L 0.4 -0.3" transform="translate(-0.1108, 0.1877) scale(0.0500)"/></g></g><g stroke-width="0.0500" stroke="rgb(5%, 5%, 5%)" stroke-opacity="1.0" fill="rgb(2%, 73%, 80%)" fill-opacity="0.2"><g transform="rotate(-54.1700, -0.1109, 0.1237)"><path d="M -1 0 L 1 0 M 1 0 L 0.4 0.3 M 1 0 L 0.4 -0.3" transform="translate(-0.1109, 0.1237) scale(0.0500)"/></g></g><g stroke-width="0.0500" stroke="rgb(5%, 5%, 5%)" stroke-opacity="1.0" fill="rgb(2%, 73%, 80%)" fill-opacity="0.2"><g transform="rotate(-45.9710, -0.1111, 0.0598)"><path d="M -1 0 L 1 0 M 1 0 L 0.4 0.3 M 1 0 L 0.4 -0.3" transform="translate(-0.1111, 0.0598) scale(0.0500)"/></g></g><g stroke-width="0.0500" stroke="rgb(5%, 5%, 5%)" stroke-opacity="1.0" fill="rgb(2%, 73%, 80%)" fill-opacity="0.2"><g transform="rotate(-27.9309, -0.1113, -0.0044)"><path d="M -1 0 L 1 0 M 1 0 L 0.4 0.3 M 1 0 L 0.4 -0.3" transform="translate(-0.1113, -0.0044) scale(0.0500)"/></g></g><g stroke-width="0.0500" stroke="rgb(5%, 5%, 5%)" stroke-opacity="1.0" fill="rgb(2%, 73%, 80%)" fill-opacity="0.2"><g transform="rotate(14.4459, -0.1112, -0.0699)"><path d="M -1 0 L 1 0 M 1 0 L 0.4 0.3 M 1 0 L 0.4 -0.3" transform="translate(-0.1112, -0.0699) scale(0.0500)"/></g></g><g stroke-width="0.0500" stroke="rgb(5%, 5%, 5%)" stroke-opacity="1.0" fill="rgb(2%, 73%, 80%)" fill-opacity="0.2"><g transform="rotate(58.9537, -0.1108, -0.1327)"><path d="M -1 0 L 1 0 M 1 0 L 0.4 0.3 M 1 0 L 0.4 -0.3" transform="translate(-0.1108, -0.1327) scale(0.0500)"/></g></g><g stroke-width="0.0500" stroke="rgb(5%, 5%, 5%)" stroke-opacity="1.0" fill="rgb(2%, 73%, 80%)" fill-opacity="0.2"><g transform="rotate(78.3877, -0.1101, -0.1973)"><path d="M -1 0 L 1 0 M 1 0 L 0.4 0.3 M 1 0 L 0.4 -0.3" transform="translate(-0.1101, -0.1973) scale(0.0500)"/></g></g><g stroke-width="0.0500" stroke="rgb(5%, 5%, 5%)" stroke-opacity="1.0" fill="rgb(2%, 73%, 80%)" fill-opacity="0.2"><g transform="rotate(87.0722, -0.1098, -0.2627)"><path d="M -1 0 L 1 0 M 1 0 L 0.4 0.3 M 1 0 L 0.4 -0.3" transform="translate(-0.1098, -0.2627) scale(0.0500)"/></g></g><g stroke-width="0.0500" stroke="rgb(5%, 5%, 5%)" stroke-opacity="1.0" fill="rgb(2%, 73%, 80%)" fill-opacity="0.2"><g transform="rotate(91.7753, -0.1097, -0.3274)"><path d="M -1 0 L 1 0 M 1 0 L 0.4 0.3 M 1 0 L 0.4 -0.3" transform="translate(-0.1097, -0.3274) scale(0.0500)"/></g></g><g stroke-width="0.0500" stroke="rgb(5%, 5%, 5%)" stroke-opacity="1.0" fill="rgb(2%, 73%, 80%)" fill-opacity="0.2"><g transform="rotate(-71.6316, -0.0049, 0.2520)"><path d="M -1 0 L 1 0 M 1 0 L 0.4 0.3 M 1 0 L 0.4 -0.3" transform="translate(-0.0049, 0.2520) scale(0.0500)"/></g></g><g stroke-width="0.0500" stroke="rgb(5%, 5%, 5%)" stroke-opacity="1.0" fill="rgb(2%, 73%, 80%)" fill-opacity="0.2"><g transform="rotate(-68.3038, -0.0050, 0.1878)"><path d="M -1 0 L 1 0 M 1 0 L 0.4 0.3 M 1 0 L 0.4 -0.3" transform="translate(-0.0050, 0.1878) scale(0.0500)"/></g></g><g stroke-width="0.0500" stroke="rgb(5%, 5%, 5%)" stroke-opacity="1.0" fill="rgb(2%, 73%, 80%)" fill-opacity="0.2"><g transform="rotate(-62.7134, -0.0051, 0.1236)"><path d="M -1 0 L 1 0 M 1 0 L 0.4 0.3 M 1 0 L 0.4 -0.3" transform="translate(-0.0051, 0.1236) scale(0.0500)"/></g></g><g stroke-width="0.0500" stroke="rgb(5%, 5%, 5%)" stroke-opacity="1.0" fill="rgb(2%, 73%, 80%)" fill-opacity="0.2"><g transform="rotate(-51.7434, -0.0052, 0.0596)"><path d="M -1 0 L 1 0 M 1 0 L 0.4 0.3 M 1 0 L 0.4 -0.3" transform="translate(-0.0052, 0.0596) scale(0.0500)"/></g></g><g stroke-width="0.0500" stroke="rgb(5%, 5%, 5%)" stroke-opacity="1.0" fill="rgb(2%, 73%, 80%)" fill-opacity="0.2"><g transform="rotate(-25.4633, -0.0054, -0.0043)"><path d="M -1 0 L 1 0 M 1 0 L 0.4 0.3 M 1 0 L 0.4 -0.3" transform="translate(-0.0054, -0.0043) scale(0.0500)"/></g></g><g stroke-width="0.0500" stroke="rgb(5%, 5%, 5%)" stroke-opacity="1.0" fill="rgb(2%, 73%, 80%)" fill-opacity="0.2"><g transform="rotate(25.3523, -0.0054, -0.0694)"><path d="M -1 0 L 1 0 M 1 0 L 0.4 0.3 M 1 0 L 0.4 -0.3" transform="translate(-0.0054, -0.0694) scale(0.0500)"/></g></g><g stroke-width="0.0500" stroke="rgb(5%, 5%, 5%)" stroke-opacity="1.0" fill="rgb(2%, 73%, 80%)" fill-opacity="0.2"><g transform="rotate(58.5390, -0.0051, -0.1327)"><path d="M -1 0 L 1 0 M 1 0 L 0.4 0.3 M 1 0 L 0.4 -0.3" transform="translate(-0.0051, -0.1327) scale(0.0500)"/></g></g><g stroke-width="0.0500" stroke="rgb(5%, 5%, 5%)" stroke-opacity="1.0" fill="rgb(2%, 73%, 80%)" fill-opacity="0.2"><g transform="rotate(72.0351, -0.0049, -0.1970)"><path d="M -1 0 L 1 0 M 1 0 L 0.4 0.3 M 1 0 L 0.4 -0.3" transform="translate(-0.0049, -0.1970) scale(0.0500)"/></g></g><g stroke-width="0.0500" stroke="rgb(5%, 5%, 5%)" stroke-opacity="1.0" fill="rgb(2%, 73%, 80%)" fill-opacity="0.2"><g transform="rotate(78.5712, -0.0047, -0.2616)"><path d="M -1 0 L 1 0 M 1 0 L 0.4 0.3 M 1 0 L 0.4 -0.3" transform="translate(-0.0047, -0.2616) scale(0.0500)"/></g></g><g stroke-width="0.0500" stroke="rgb(5%, 5%, 5%)" stroke-opacity="1.0" fill="rgb(2%, 73%, 80%)" fill-opacity="0.2"><g transform="rotate(82.3320, -0.0047, -0.3264)"><path d="M -1 0 L 1 0 M 1 0 L 0.4 0.3 M 1 0 L 0.4 -0.3" transform="translate(-0.0047, -0.3264) scale(0.0500)"/></g></g><g stroke-width="0.0500" stroke="rgb(5%, 5%, 5%)" stroke-opacity="1.0" fill="rgb(2%, 73%, 80%)" fill-opacity="0.2"><g transform="rotate(-83.7258, 0.1007, 0.2533)"><path d="M -1 0 L 1 0 M 1 0 L 0.4 0.3 M 1 0 L 0.4 -0.3" transform="translate(0.1007, 0.2533) scale(0.0500)"/></g></g><g stroke-width="0.0500" stroke="rgb(5%, 5%, 5%)" stroke-opacity="1.0" fill="rgb(2%, 73%, 80%)" fill-opacity="0.2"><g transform="rotate(-80.3796, 0.1006, 0.1885)"><path d="M -1 0 L 1 0 M 1 0 L 0.4 0.3 M 1 0 L 0.4 -0.3" transform="translate(0.1006, 0.1885) scale(0.0500)"/></g></g><g stroke-width="0.0500" stroke="rgb(5%, 5%, 5%)" stroke-opacity="1.0" fill="rgb(2%, 73%, 80%)" fill-opacity="0.2"><g transform="rotate(-74.5578, 0.1006, 0.1239)"><path d="M -1 0 L 1 0 M 1 0 L 0.4 0.3 M 1 0 L 0.4 -0.3" transform="translate(0.1006, 0.1239) scale(0.0500)"/></g></g><g stroke-width="0.0500" stroke="rgb(5%, 5%, 5%)" stroke-opacity="1.0" fill="rgb(2%, 73%, 80%)" fill-opacity="0.2"><g transform="rotate(-62.3926, 0.1006, 0.0595)"><path d="M -1 0 L 1 0 M 1 0 L 0.4 0.3 M 1 0 L 0.4 -0.3" transform="translate(0.1006, 0.0595) scale(0.0500)"/></g></g><g stroke-width="0.0500" stroke="rgb(5%, 5%, 5%)" stroke-opacity="1.0" fill="rgb(2%, 73%, 80%)" fill-opacity="0.2"><g transform="rotate(-30.3259, 0.1005, -0.0044)"><path d="M -1 0 L 1 0 M 1 0 L 0.4 0.3 M 1 0 L 0.4 -0.3" transform="translate(0.1005, -0.0044) scale(0.0500)"/></g></g><g stroke-width="0.0500" stroke="rgb(5%, 5%, 5%)" stroke-opacity="1.0" fill="rgb(2%, 73%, 80%)" fill-opacity="0.2"><g transform="rotate(25.4633, 0.1005, -0.0694)"><path d="M -1 0 L 1 0 M 1 0 L 0.4 0.3 M 1 0 L 0.4 -0.3" transform="translate(0.1005, -0.0694) scale(0.0500)"/></g></g><g stroke-width="0.0500" stroke="rgb(5%, 5%, 5%)" stroke-opacity="1.0" fill="rgb(2%, 73%, 80%)" fill-opacity="0.2"><g transform="rotate(53.3483, 0.1005, -0.1328)"><path d="M -1 0 L 1 0 M 1 0 L 0.4 0.3 M 1 0 L 0.4 -0.3" transform="translate(0.1005, -0.1328) scale(0.0500)"/></g></g><g stroke-width="0.0500" stroke="rgb(5%, 5%, 5%)" stroke-opacity="1.0" fill="rgb(2%, 73%, 80%)" fill-opacity="0.2"><g transform="rotate(64.1805, 0.1006, -0.1967)"><path d="M -1 0 L 1 0 M 1 0 L 0.4 0.3 M 1 0 L 0.4 -0.3" transform="translate(0.1006, -0.1967) scale(0.0500)"/></g></g><g stroke-width="0.0500" stroke="rgb(5%, 5%, 5%)" stroke-opacity="1.0" fill="rgb(2%, 73%, 80%)" fill-opacity="0.2"><g transform="rotate(69.5253, 0.1006, -0.2610)"><path d="M -1 0 L 1 0 M 1 0 L 0.4 0.3 M 1 0 L 0.4 -0.3" transform="translate(0.1006, -0.2610) scale(0.0500)"/></g></g><g stroke-width="0.0500" stroke="rgb(5%, 5%, 5%)" stroke-opacity="1.0" fill="rgb(2%, 73%, 80%)" fill-opacity="0.2"><g transform="rotate(72.6569, 0.1006, -0.3253)"><path d="M -1 0 L 1 0 M 1 0 L 0.4 0.3 M 1 0 L 0.4 -0.3" transform="translate(0.1006, -0.3253) scale(0.0500)"/></g></g><g stroke-width="0.0500" stroke="rgb(5%, 5%, 5%)" stroke-opacity="1.0" fill="rgb(2%, 73%, 80%)" fill-opacity="0.2"><g transform="rotate(-96.8488, 0.2059, 0.2532)"><path d="M -1 0 L 1 0 M 1 0 L 0.4 0.3 M 1 0 L 0.4 -0.3" transform="translate(0.2059, 0.2532) scale(0.0500)"/></g></g><g stroke-width="0.0500" stroke="rgb(5%, 5%, 5%)" stroke-opacity="1.0" fill="rgb(2%, 73%, 80%)" fill-opacity="0.2"><g transform="rotate(-94.1075, 0.2059, 0.1891)"><path d="M -1 0 L 1 0 M 1 0 L 0.4 0.3 M 1 0 L 0.4 -0.3" transform="translate(0.2059, 0.1891) scale(0.0500)"/></g></g><g stroke-width="0.0500" stroke="rgb(5%, 5%, 5%)" stroke-opacity="1.0" fill="rgb(2%, 73%, 80%)" fill-opacity="0.2"><g transform="rotate(-89.3167, 0.2059, 0.1249)"><path d="M -1 0 L 1 0 M 1 0 L 0.4 0.3 M 1 0 L 0.4 -0.3" transform="translate(0.2059, 0.1249) scale(0.0500)"/></g></g><g stroke-width="0.0500" stroke="rgb(5%, 5%, 5%)" stroke-opacity="1.0" fill="rgb(2%, 73%, 80%)" fill-opacity="0.2"><g transform="rotate(-79.0898, 0.2060, 0.0598)"><path d="M -1 0 L 1 0 M 1 0 L 0.4 0.3 M 1 0 L 0.4 -0.3" transform="translate(0.2060, 0.0598) scale(0.0500)"/></g></g><g stroke-width="0.0500" stroke="rgb(5%, 5%, 5%)" stroke-opacity="1.0" fill="rgb(2%, 73%, 80%)" fill-opacity="0.2"><g transform="rotate(-48.8981, 0.2063, -0.0045)"><path d="M -1 0 L 1 0 M 1 0 L 0.4 0.3 M 1 0 L 0.4 -0.3" transform="translate(0.2063, -0.0045) scale(0.0500)"/></g></g><g stroke-width="0.0500" stroke="rgb(5%, 5%, 5%)" stroke-opacity="1.0" fill="rgb(2%, 73%, 80%)" fill-opacity="0.2"><g transform="rotate(16.4311, 0.2064, -0.0698)"><path d="M -1 0 L 1 0 M 1 0 L 0.4 0.3 M 1 0 L 0.4 -0.3" transform="translate(0.2064, -0.0698) scale(0.0500)"/></g></g><g stroke-width="0.0500" stroke="rgb(5%, 5%, 5%)" stroke-opacity="1.0" fill="rgb(2%, 73%, 80%)" fill-opacity="0.2"><g transform="rotate(45.9710, 0.2063, -0.1330)"><path d="M -1 0 L 1 0 M 1 0 L 0.4 0.3 M 1 0 L 0.4 -0.3" transform="translate(0.2063, -0.1330) scale(0.0500)"/></g></g><g stroke-width="0.0500" stroke="rgb(5%, 5%, 5%)" stroke-opacity="1.0" fill="rgb(2%, 73%, 80%)" fill-opacity="0.2"><g transform="rotate(56.0348, 0.2062, -0.1968)"><path d="M -1 0 L 1 0 M 1 0 L 0.4 0.3 M 1 0 L 0.4 -0.3" transform="translate(0.2062, -0.1968) scale(0.0500)"/></g></g><g stroke-width="0.0500" stroke="rgb(5%, 5%, 5%)" stroke-opacity="1.0" fill="rgb(2%, 73%, 80%)" fill-opacity="0.2"><g transform="rotate(60.7712, 0.2062, -0.2608)"><path d="M -1 0 L 1 0 M 1 0 L 0.4 0.3 M 1 0 L 0.4 -0.3" transform="translate(0.2062, -0.2608) scale(0.0500)"/></g></g><g stroke-width="0.0500" stroke="rgb(5%, 5%, 5%)" stroke-opacity="1.0" fill="rgb(2%, 73%, 80%)" fill-opacity="0.2"><g transform="rotate(63.4886, 0.2062, -0.3249)"><path d="M -1 0 L 1 0 M 1 0 L 0.4 0.3 M 1 0 L 0.4 -0.3" transform="translate(0.2062, -0.3249) scale(0.0500)"/></g></g><g stroke-width="0.0500" stroke="rgb(5%, 5%, 5%)" stroke-opacity="1.0" fill="rgb(2%, 73%, 80%)" fill-opacity="0.2"><g transform="rotate(-109.4766, 0.3116, 0.2520)"><path d="M -1 0 L 1 0 M 1 0 L 0.4 0.3 M 1 0 L 0.4 -0.3" transform="translate(0.3116, 0.2520) scale(0.0500)"/></g></g><g stroke-width="0.0500" stroke="rgb(5%, 5%, 5%)" stroke-opacity="1.0" fill="rgb(2%, 73%, 80%)" fill-opacity="0.2"><g transform="rotate(-107.6501, 0.3116, 0.1879)"><path d="M -1 0 L 1 0 M 1 0 L 0.4 0.3 M 1 0 L 0.4 -0.3" transform="translate(0.3116, 0.1879) scale(0.0500)"/></g></g><g stroke-width="0.0500" stroke="rgb(5%, 5%, 5%)" stroke-opacity="1.0" fill="rgb(2%, 73%, 80%)" fill-opacity="0.2"><g transform="rotate(-104.5742, 0.3115, 0.1239)"><path d="M -1 0 L 1 0 M 1 0 L 0.4 0.3 M 1 0 L 0.4 -0.3" transform="translate(0.3115, 0.1239) scale(0.0500)"/></g></g><g stroke-width="0.0500" stroke="rgb(5%, 5%, 5%)" stroke-opacity="1.0" fill="rgb(2%, 73%, 80%)" fill-opacity="0.2"><g transform="rotate(-98.3659, 0.3113, 0.0599)"><path d="M -1 0 L 1 0 M 1 0 L 0.4 0.3 M 1 0 L 0.4 -0.3" transform="translate(0.3113, 0.0599) scale(0.0500)"/></g></g><g stroke-width="0.0500" stroke="rgb(5%, 5%, 5%)" stroke-opacity="1.0" fill="rgb(2%, 73%, 80%)" fill-opacity="0.2"><g transform="rotate(-80.5377, 0.3113, -0.0045)"><path d="M -1 0 L 1 0 M 1 0 L 0.4 0.3 M 1 0 L 0.4 -0.3" transform="translate(0.3113, -0.0045) scale(0.0500)"/></g></g><g stroke-width="0.0500" stroke="rgb(5%, 5%, 5%)" stroke-opacity="1.0" fill="rgb(2%, 73%, 80%)" fill-opacity="0.2"><g transform="rotate(-10.3048, 0.3121, -0.0701)"><path d="M -1 0 L 1 0 M 1 0 L 0.4 0.3 M 1 0 L 0.4 -0.3" transform="translate(0.3121, -0.0701) scale(0.0500)"/></g></g><g stroke-width="0.0500" stroke="rgb(5%, 5%, 5%)" stroke-opacity="1.0" fill="rgb(2%, 73%, 80%)" fill-opacity="0.2"><g transform="rotate(36.3844, 0.3122, -0.1336)"><path d="M -1 0 L 1 0 M 1 0 L 0.4 0.3 M 1 0 L 0.4 -0.3" transform="translate(0.3122, -0.1336) scale(0.0500)"/></g></g><g stroke-width="0.0500" stroke="rgb(5%, 5%, 5%)" stroke-opacity="1.0" fill="rgb(2%, 73%, 80%)" fill-opacity="0.2"><g transform="rotate(48.0128, 0.3121, -0.1972)"><path d="M -1 0 L 1 0 M 1 0 L 0.4 0.3 M 1 0 L 0.4 -0.3" transform="translate(0.3121, -0.1972) scale(0.0500)"/></g></g><g stroke-width="0.0500" stroke="rgb(5%, 5%, 5%)" stroke-opacity="1.0" fill="rgb(2%, 73%, 80%)" fill-opacity="0.2"><g transform="rotate(52.7336, 0.3120, -0.2611)"><path d="M -1 0 L 1 0 M 1 0 L 0.4 0.3 M 1 0 L 0.4 -0.3" transform="translate(0.3120, -0.2611) scale(0.0500)"/></g></g><g stroke-width="0.0500" stroke="rgb(5%, 5%, 5%)" stroke-opacity="1.0" fill="rgb(2%, 73%, 80%)" fill-opacity="0.2"><g transform="rotate(55.2568, 0.3120, -0.3250)"><path d="M -1 0 L 1 0 M 1 0 L 0.4 0.3 M 1 0 L 0.4 -0.3" transform="translate(0.3120, -0.3250) scale(0.0500)"/></g></g><g stroke-width="0.0500" stroke="rgb(5%, 5%, 5%)" stroke-opacity="1.0" fill="rgb(2%, 73%, 80%)" fill-opacity="0.2"><g transform="rotate(-120.3900, 0.4175, 0.2517)"><path d="M -1 0 L 1 0 M 1 0 L 0.4 0.3 M 1 0 L 0.4 -0.3" transform="translate(0.4175, 0.2517) scale(0.0500)"/></g></g><g stroke-width="0.0500" stroke="rgb(5%, 5%, 5%)" stroke-opacity="1.0" fill="rgb(2%, 73%, 80%)" fill-opacity="0.2"><g transform="rotate(-119.3549, 0.4175, 0.1877)"><path d="M -1 0 L 1 0 M 1 0 L 0.4 0.3 M 1 0 L 0.4 -0.3" transform="translate(0.4175, 0.1877) scale(0.0500)"/></g></g><g stroke-width="0.0500" stroke="rgb(5%, 5%, 5%)" stroke-opacity="1.0" fill="rgb(2%, 73%, 80%)" fill-opacity="0.2"><g transform="rotate(-117.7221, 0.4174, 0.1236)"><path d="M -1 0 L 1 0 M 1 0 L 0.4 0.3 M 1 0 L 0.4 -0.3" transform="translate(0.4174, 0.1236) scale(0.0500)"/></g></g><g stroke-width="0.0500" stroke="rgb(5%, 5%, 5%)" stroke-opacity="1.0" fill="rgb(2%, 73%, 80%)" fill-opacity="0.2"><g transform="rotate(-114.7718, 0.4173, 0.0595)"><path d="M -1 0 L 1 0 M 1 0 L 0.4 0.3 M 1 0 L 0.4 -0.3" transform="translate(0.4173, 0.0595) scale(0.0500)"/></g></g><g stroke-width="0.0500" stroke="rgb(5%, 5%, 5%)" stroke-opacity="1.0" fill="rgb(2%, 73%, 80%)" fill-opacity="0.2"><g transform="rotate(-107.9102, 0.4170, -0.0045)"><path d="M -1 0 L 1 0 M 1 0 L 0.4 0.3 M 1 0 L 0.4 -0.3" transform="translate(0.4170, -0.0045) scale(0.0500)"/></g></g><g stroke-width="0.0500" stroke="rgb(5%, 5%, 5%)" stroke-opacity="1.0" fill="rgb(2%, 73%, 80%)" fill-opacity="0.2"><g transform="rotate(-78.8802, 0.4167, -0.0688)"><path d="M -1 0 L 1 0 M 1 0 L 0.4 0.3 M 1 0 L 0.4 -0.3" transform="translate(0.4167, -0.0688) scale(0.0500)"/></g></g><g stroke-width="0.0500" stroke="rgb(5%, 5%, 5%)" stroke-opacity="1.0" fill="rgb(2%, 73%, 80%)" fill-opacity="0.2"><g transform="rotate(18.0772, 0.4181, -0.1352)"><path d="M -1 0 L 1 0 M 1 0 L 0.4 0.3 M 1 0 L 0.4 -0.3" transform="translate(0.4181, -0.1352) scale(0.0500)"/></g></g><g stroke-width="0.0500" stroke="rgb(5%, 5%, 5%)" stroke-opacity="1.0" fill="rgb(2%, 73%, 80%)" fill-opacity="0.2"><g transform="rotate(39.5765, 0.4181, -0.1978)"><path d="M -1 0 L 1 0 M 1 0 L 0.4 0.3 M 1 0 L 0.4 -0.3" transform="translate(0.4181, -0.1978) scale(0.0500)"/></g></g><g stroke-width="0.0500" stroke="rgb(5%, 5%, 5%)" stroke-opacity="1.0" fill="rgb(2%, 73%, 80%)" fill-opacity="0.2"><g transform="rotate(45.4122, 0.4180, -0.2616)"><path d="M -1 0 L 1 0 M 1 0 L 0.4 0.3 M 1 0 L 0.4 -0.3" transform="translate(0.4180, -0.2616) scale(0.0500)"/></g></g><g stroke-width="0.0500" stroke="rgb(5%, 5%, 5%)" stroke-opacity="1.0" fill="rgb(2%, 73%, 80%)" fill-opacity="0.2"><g transform="rotate(48.0612, 0.4179, -0.3256)"><path d="M -1 0 L 1 0 M 1 0 L 0.4 0.3 M 1 0 L 0.4 -0.3" transform="translate(0.4179, -0.3256) scale(0.0500)"/></g></g><g stroke-width="0.0500" stroke="rgb(5%, 5%, 5%)" stroke-opacity="1.0" fill="rgb(2%, 73%, 80%)" fill-opacity="0.2"><g transform="rotate(-129.2044, 0.5236, 0.2521)"><path d="M -1 0 L 1 0 M 1 0 L 0.4 0.3 M 1 0 L 0.4 -0.3" transform="translate(0.5236, 0.2521) scale(0.0500)"/></g></g><g stroke-width="0.0500" stroke="rgb(5%, 5%, 5%)" stroke-opacity="1.0" fill="rgb(2%, 73%, 80%)" fill-opacity="0.2"><g transform="rotate(-128.6756, 0.5236, 0.1879)"><path d="M -1 0 L 1 0 M 1 0 L 0.4 0.3 M 1 0 L 0.4 -0.3" transform="translate(0.5236, 0.1879) scale(0.0500)"/></g></g><g stroke-width="0.0500" stroke="rgb(5%, 5%, 5%)" stroke-opacity="1.0" fill="rgb(2%, 73%, 80%)" fill-opacity="0.2"><g transform="rotate(-127.8991, 0.5235, 0.1238)"><path d="M -1 0 L 1 0 M 1 0 L 0.4 0.3 M 1 0 L 0.4 -0.3" transform="translate(0.5235, 0.1238) scale(0.0500)"/></g></g><g stroke-width="0.0500" stroke="rgb(5%, 5%, 5%)" stroke-opacity="1.0" fill="rgb(2%, 73%, 80%)" fill-opacity="0.2"><g transform="rotate(-126.6482, 0.5235, 0.0596)"><path d="M -1 0 L 1 0 M 1 0 L 0.4 0.3 M 1 0 L 0.4 -0.3" transform="translate(0.5235, 0.0596) scale(0.0500)"/></g></g><g stroke-width="0.0500" stroke="rgb(5%, 5%, 5%)" stroke-opacity="1.0" fill="rgb(2%, 73%, 80%)" fill-opacity="0.2"><g transform="rotate(-124.3010, 0.5234, -0.0045)"><path d="M -1 0 L 1 0 M 1 0 L 0.4 0.3 M 1 0 L 0.4 -0.3" transform="translate(0.5234, -0.0045) scale(0.0500)"/></g></g><g stroke-width="0.0500" stroke="rgb(5%, 5%, 5%)" stroke-opacity="1.0" fill="rgb(2%, 73%, 80%)" fill-opacity="0.2"><g transform="rotate(-118.3399, 0.5231, -0.0686)"><path d="M -1 0 L 1 0 M 1 0 L 0.4 0.3 M 1 0 L 0.4 -0.3" transform="translate(0.5231, -0.0686) scale(0.0500)"/></g></g><g stroke-width="0.0500" stroke="rgb(5%, 5%, 5%)" stroke-opacity="1.0" fill="rgb(2%, 73%, 80%)" fill-opacity="0.2"><g transform="rotate(-81.6027, 0.5219, -0.1332)"><path d="M -1 0 L 1 0 M 1 0 L 0.4 0.3 M 1 0 L 0.4 -0.3" transform="translate(0.5219, -0.1332) scale(0.0500)"/></g></g><g stroke-width="0.0500" stroke="rgb(5%, 5%, 5%)" stroke-opacity="1.0" fill="rgb(2%, 73%, 80%)" fill-opacity="0.2"><g transform="rotate(25.9167, 0.5240, -0.1995)"><path d="M -1 0 L 1 0 M 1 0 L 0.4 0.3 M 1 0 L 0.4 -0.3" transform="translate(0.5240, -0.1995) scale(0.0500)"/></g></g><g stroke-width="0.0500" stroke="rgb(5%, 5%, 5%)" stroke-opacity="1.0" fill="rgb(2%, 73%, 80%)" fill-opacity="0.2"><g transform="rotate(38.1539, 0.5239, -0.2625)"><path d="M -1 0 L 1 0 M 1 0 L 0.4 0.3 M 1 0 L 0.4 -0.3" transform="translate(0.5239, -0.2625) scale(0.0500)"/></g></g><g stroke-width="0.0500" stroke="rgb(5%, 5%, 5%)" stroke-opacity="1.0" fill="rgb(2%, 73%, 80%)" fill-opacity="0.2"><g transform="rotate(41.7039, 0.5239, -0.3264)"><path d="M -1 0 L 1 0 M 1 0 L 0.4 0.3 M 1 0 L 0.4 -0.3" transform="translate(0.5239, -0.3264) scale(0.0500)"/></g></g></g><g class="datapadding"></g></g><g class="hud"><g class="frame"><g stroke-width="0" stroke="rgb(0%, 0%, 0%)" stroke-opacity="0" fill="rgb(100%, 100%, 100%)" fill-opacity="0.02"><rect width="1.2556" height="0.8237" x="-0.5792" y="-0.4498"/></g></g><g class="axis"><g class="axisbar"><g stroke-width="0" stroke="rgb(0%, 0%, 0%)" stroke-opacity="0" fill="rgb(5%, 5%, 5%)" fill-opacity="0.4"><rect width="0.0033" height="0.8270" x="-0.5910" y="-0.4514"/></g></g><g class="ticks"><g class="tickglyph"><g stroke-width="0.0040" stroke="rgb(5%, 5%, 5%)" stroke-opacity="0.4" fill="rgb(5%, 5%, 5%)" fill-opacity="0.4"><polyline points="-0.6179,0.3734
-0.5879,0.3734"/><polyline points="-0.6179,0.2363
-0.5879,0.2363"/><polyline points="-0.6179,0.0993
-0.5879,0.0993"/><polyline points="-0.6179,-0.0378
-0.5879,-0.0378"/><polyline points="-0.6179,-0.1749
-0.5879,-0.1749"/><polyline points="-0.6179,-0.3120
-0.5879,-0.3120"/><polyline points="-0.6179,-0.4491
-0.5879,-0.4491"/></g></g><g class="ticktext"><g stroke-width="0.0" stroke="none" fill="rgb(5%, 5%, 5%)" fill-opacity="1.0" font-size="0.0400" text-anchor="end"><text x="-0.6209" y="0.3818">-0.6</text><text x="-0.6209" y="0.2456">-0.4</text><text x="-0.6209" y="0.1094">-0.2</text><text x="-0.6209" y="-0.0268"> 0.0</text><text x="-0.6209" y="-0.1630"> 0.2</text><text x="-0.6209" y="-0.2991"> 0.4</text><text x="-0.6209" y="-0.4353"> 0.6</text></g></g></g></g><g class="axis"><g class="axisbar"><g stroke-width="0" stroke="rgb(0%, 0%, 0%)" stroke-opacity="0" fill="rgb(5%, 5%, 5%)" fill-opacity="0.4"><rect width="1.2589" height="0.0033" x="-0.5809" y="0.3822"/></g></g><g class="ticks"><g class="tickglyph"><g stroke-width="0.0040" stroke="rgb(5%, 5%, 5%)" stroke-opacity="0.4" fill="rgb(5%, 5%, 5%)" fill-opacity="0.4"><polyline points="-0.5787,0.4120
-0.5787,0.3820"/><polyline points="-0.3697,0.4120
-0.3697,0.3820"/><polyline points="-0.1606,0.4120
-0.1606,0.3820"/><polyline points="0.0485,0.4120
0.0485,0.3820"/><polyline points="0.2576,0.4120
0.2576,0.3820"/><polyline points="0.4667,0.4120
0.4667,0.3820"/><polyline points="0.6757,0.4120
0.6757,0.3820"/></g></g><g class="ticktext"><g stroke-width="0.0" stroke="none" fill="rgb(5%, 5%, 5%)" fill-opacity="1.0" font-size="0.0400" text-anchor="middle"><text x="-0.5729" y="0.4553">-0.6</text><text x="-0.3659" y="0.4553">-0.4</text><text x="-0.1589" y="0.4553">-0.2</text><text x="0.0480" y="0.4553"> 0.0</text><text x="0.2550" y="0.4553"> 0.2</text><text x="0.4619" y="0.4553"> 0.4</text><text x="0.6689" y="0.4553"> 0.6</text></g></g></g></g><g class="frame"><g stroke-width="0" stroke="rgb(0%, 0%, 0%)" stroke-opacity="0" fill="rgb(0%, 0%, 0%)" fill-opacity="0"><rect width="1.5" height="1.0" x="-0.75" y="-0.5"/></g></g></g></svg>