<svg xmlns="http://www.w3.org/2000/svg" xmlns:xlink="http://www.w3.org/1999/xlink" width="450" height="300" viewBox="-0.75 -0.5 1.5 1.0"><style>svg {
  color-scheme: light dark;
}
{
  .canvas g, .title g, .axisbar g, .ticktext g, .tickglyph g, .ticklines g, .legendContent g text {
    fill: rgb(5%, 5%, 5%);
  }
  .ticklines g, .tickglyph g, .legendBorder g {
    stroke: rgb(5%, 5%, 5%);
  }
  .legendBorder g {
    fill: rgb(94%, 94%, 94%);
  }
}
@media (prefers-color-scheme:dark) {
  .canvas g, .title g, .axisbar g, .ticktext g, .tickglyph g, .ticklines g, .legendContent g text {
    fill: rgb(94%, 94%, 94%);
  }
  .ticklines g, .tickglyph g, .legendBorder g {
    stroke: rgb(94%, 94%, 94%);
  }
  .legendBorder g {
    fill: rgb(5%, 5%, 5%);
  }
}
{
  .arrow g {
    fill: rgba(5%, 5%, 5%, 1.00);
    stroke: rgba(5%, 5%, 5%, 1.00);
  }
}
@media (prefers-color-scheme:dark) {
  .arrow g {
    fill: rgba(94%, 94%, 94%, 1.00);
    stroke: rgba(94%, 94%, 94%, 1.00);
  }
}
</style><g class="chart"><g class="arrow"><g stroke-width="0.0467" stroke="rgb(5%, 5%, 5%)" stroke-opacity="1.0" fill="rgb(2%, 73%, 80%)" fill-opacity="0.2"><g transform="rotate(-41.7039, -0.4097, 0.2723)"><path d="M -1 0 L 1 0 M 1 0 L 0.4 0.3 M 1 0 L 0.4 -0.3" transform="translate(-0.4097, 0.2723) scale(0.0467)"/></g></g><g stroke-width="0.0467" stroke="rgb(5%, 5%, 5%)" stroke-opacity="1.0" fill="rgb(2%, 73%, 80%)" fill-opacity="0.2"><g transform="rotate(-40.7040, -0.4097, 0.1963)"><path d="M -1 0 L 1 0 M 1 0 L 0.4 0.3 M 1 0 L 0.4 -0.3" transform="translate(-0.4097, 0.1963) scale(0.0467)"/></g></g><g stroke-width="0.0467" stroke="rgb(5%, 5%, 5%)" stroke-opacity="1.0" fill="rgb(2%, 73%, 80%)" fill-opacity="0.2"><g transform="rotate(-39.3303, -0.4097, 0.1203)"><path d="M -1 0 L 1 0 M 1 0 L 0.4 0.3 M 1 0 L 0.4 -0.3" transform="translate(-0.4097, 0.1203) scale(0.0467)"/></g></g><g stroke-width="0.0467" stroke="rgb(5%, 5%, 5%)" stroke-opacity="1.0" fill="rgb(2%, 73%, 80%)" fill-opacity="0.2"><g transform="rotate(-37.3282, -0.4097, 0.0443)"><path d="M -1 0 L 1 0 M 1 0 L 0.4 0.3 M 1 0 L 0.4 -0.3" transform="translate(-0.4097, 0.0443) scale(0.0467)"/></g></g><g stroke-width="0.0467" stroke="rgb(5%, 5%, 5%)" stroke-opacity="1.0" fill="rgb(2%, 73%, 80%)" fill-opacity="0.2"><g transform="rotate(-34.1493, -0.4097, -0.0317)"><path d="M -1 0 L 1 0 M 1 0 L 0.4 0.3 M 1 0 L 0.4 -0.3" transform="translate(-0.4097, -0.0317) scale(0.0467)"/></g></g><g stroke-width="0.0467" stroke="rgb(5%, 5%, 5%)" stroke-opacity="1.0" fill="rgb(2%, 73%, 80%)" fill-opacity="0.2"><g transform="rotate(-28.3824, -0.4097, -0.1077)"><path d="M -1 0 L 1 0 M 1 0 L 0.4 0.3 M 1 0 L 0.4 -0.3" transform="translate(-0.4097, -0.1077) scale(0.0467)"/></g></g><g stroke-width="0.0467" stroke="rgb(5%, 5%, 5%)" stroke-opacity="1.0" fill="rgb(2%, 73%, 80%)" fill-opacity="0.2"><g transform="rotate(-15.2740, -0.4097, -0.1837)"><path d="M -1 0 L 1 0 M 1 0 L 0.4 0.3 M 1 0 L 0.4 -0.3" transform="translate(-0.4097, -0.1837) scale(0.0467)"/></g></g><g stroke-width="0.0467" stroke="rgb(5%, 5%, 5%)" stroke-opacity="1.0" fill="rgb(2%, 73%, 80%)" fill-opacity="0.2"><g transform="rotate(24.9171, -0.4097, -0.2597)"><path d="M -1 0 L 1 0 M 1 0 L 0.4 0.3 M 1 0 L 0.4 -0.3" transform="translate(-0.4097, -0.2597) scale(0.0467)"/></g></g><g stroke-width="0.0467" stroke="rgb(5%, 5%, 5%)" stroke-opacity="1.0" fill="rgb(2%, 73%, 80%)" fill-opacity="0.2"><g transform="rotate(85.2524, -0.4097, -0.3357)"><path d="M -1 0 L 1 0 M 1 0 L 0.4 0.3 M 1 0 L 0.4 -0.3" transform="translate(-0.4097, -0.3357) scale(0.0467)"/></g></g><g stroke-width="0.0467" stroke="rgb(5%, 5%, 5%)" stroke-opacity="1.0" fill="rgb(2%, 73%, 80%)" fill-opacity="0.2"><g transform="rotate(107.4397, -0.4097, -0.4117)"><path d="M -1 0 L 1 0 M 1 0 L 0.4 0.3 M 1 0 L 0.4 -0.3" transform="translate(-0.4097, -0.4117) scale(0.0467)"/></g></g><g stroke-width="0.0467" stroke="rgb(5%, 5%, 5%)" stroke-opacity="1.0" fill="rgb(2%, 73%, 80%)" fill-opacity="0.2"><g transform="rotate(-46.8993, -0.2949, 0.2723)"><path d="M -1 0 L 1 0 M 1 0 L 0.4 0.3 M 1 0 L 0.4 -0.3" transform="translate(-0.2949, 0.2723) scale(0.0467)"/></g></g><g stroke-width="0.0467" stroke="rgb(5%, 5%, 5%)" stroke-opacity="1.0" fill="rgb(2%, 73%, 80%)" fill-opacity="0.2"><g transform="rotate(-45.4122, -0.2949, 0.1963)"><path d="M -1 0 L 1 0 M 1 0 L 0.4 0.3 M 1 0 L 0.4 -0.3" transform="translate(-0.2949, 0.1963) scale(0.0467)"/></g></g><g stroke-width="0.0467" stroke="rgb(5%, 5%, 5%)" stroke-opacity="1.0" fill="rgb(2%, 73%, 80%)" fill-opacity="0.2"><g transform="rotate(-43.2666, -0.2949, 0.1203)"><path d="M -1 0 L 1 0 M 1 0 L 0.4 0.3 M 1 0 L 0.4 -0.3" transform="translate(-0.2949, 0.1203) scale(0.0467)"/></g></g><g stroke-width="0.0467" stroke="rgb(5%, 5%, 5%)" stroke-opacity="1.0" fill="rgb(2%, 73%, 80%)" fill-opacity="0.2"><g transform="rotate(-39.9135, -0.2949, 0.0443)"><path d="M -1 0 L 1 0 M 1 0 L 0.4 0.3 M 1 0 L 0.4 -0.3" transform="translate(-0.2949, 0.0443) scale(0.0467)"/></g></g><g stroke-width="0.0467" stroke="rgb(5%, 5%, 5%)" stroke-opacity="1.0" fill="rgb(2%, 73%, 80%)" fill-opacity="0.2"><g transform="rotate(-33.9991, -0.2949, -0.0317)"><path d="M -1 0 L 1 0 M 1 0 L 0.4 0.3 M 1 0 L 0.4 -0.3" transform="translate(-0.2949, -0.0317) scale(0.0467)"/></g></g><g stroke-width="0.0467" stroke="rgb(5%, 5%, 5%)" stroke-opacity="1.0" fill="rgb(2%, 73%, 80%)" fill-opacity="0.2"><g transform="rotate(-21.3212, -0.2949, -0.1077)"><path d="M -1 0 L 1 0 M 1 0 L 0.4 0.3 M 1 0 L 0.4 -0.3" transform="translate(-0.2949, -0.1077) scale(0.0467)"/></g></g><g stroke-width="0.0467" stroke="rgb(5%, 5%, 5%)" stroke-opacity="1.0" fill="rgb(2%, 73%, 80%)" fill-opacity="0.2"><g transform="rotate(13.3646, -0.2949, -0.1837)"><path d="M -1 0 L 1 0 M 1 0 L 0.4 0.3 M 1 0 L 0.4 -0.3" transform="translate(-0.2949, -0.1837) scale(0.0467)"/></g></g><g stroke-width="0.0467" stroke="rgb(5%, 5%, 5%)" stroke-opacity="1.0" fill="rgb(2%, 73%, 80%)" fill-opacity="0.2"><g transform="rotate(70.2608, -0.2949, -0.2597)"><path d="M -1 0 L 1 0 M 1 0 L 0.4 0.3 M 1 0 L 0.4 -0.3" transform="translate(-0.2949, -0.2597) scale(0.0467)"/></g></g><g stroke-width="0.0467" stroke="rgb(5%, 5%, 5%)" stroke-opacity="1.0" fill="rgb(2%, 73%, 80%)" fill-opacity="0.2"><g transform="rotate(96.0844, -0.2949, -0.3357)"><path d="M -1 0 L 1 0 M 1 0 L 0.4 0.3 M 1 0 L 0.4 -0.3" transform="translate(-0.2949, -0.3357) scale(0.0467)"/></g></g><g stroke-width="0.0467" stroke="rgb(5%, 5%, 5%)" stroke-opacity="1.0" fill="rgb(2%, 73%, 80%)" fill-opacity="0.2"><g transform="rotate(106.0551, -0.2949, -0.4117)"><path d="M -1 0 L 1 0 M 1 0 L 0.4 0.3 M 1 0 L 0.4 -0.3" transform="translate(-0.2949, -0.4117) scale(0.0467)"/></g></g><g stroke-width="0.0467" stroke="rgb(5%, 5%, 5%)" stroke-opacity="1.0" fill="rgb(2%, 73%, 80%)" fill-opacity="0.2"><g transform="rotate(-53.3544, -0.1802, 0.2723)"><path d="M -1 0 L 1 0 M 1 0 L 0.4 0.3 M 1 0 L 0.4 -0.3" transform="translate(-0.1802, 0.2723) scale(0.0467)"/></g></g><g stroke-width="0.0467" stroke="rgb(5%, 5%, 5%)" stroke-opacity="1.0" fill="rgb(2%, 73%, 80%)" fill-opacity="0.2"><g transform="rotate(-51.2345, -0.1802, 0.1963)"><path d="M -1 0 L 1 0 M 1 0 L 0.4 0.3 M 1 0 L 0.4 -0.3" transform="translate(-0.1802, 0.1963) scale(0.0467)"/></g></g><g stroke-width="0.0467" stroke="rgb(5%, 5%, 5%)" stroke-opacity="1.0" fill="rgb(2%, 73%, 80%)" fill-opacity="0.2"><g transform="rotate(-48.0128, -0.1802, 0.1203)"><path d="M -1 0 L 1 0 M 1 0 L 0.4 0.3 M 1 0 L 0.4 -0.3" transform="translate(-0.1802, 0.1203) scale(0.0467)"/></g></g><g stroke-width="0.0467" stroke="rgb(5%, 5%, 5%)" stroke-opacity="1.0" fill="rgb(2%, 73%, 80%)" fill-opacity="0.2"><g transform="rotate(-42.5805, -0.1802, 0.0443)"><path d="M -1 0 L 1 0 M 1 0 L 0.4 0.3 M 1 0 L 0.4 -0.3" transform="translate(-0.1802, 0.0443) scale(0.0467)"/></g></g><g stroke-width="0.0467" stroke="rgb(5%, 5%, 5%)" stroke-opacity="1.0" fill="rgb(2%, 73%, 80%)" fill-opacity="0.2"><g transform="rotate(-31.8274, -0.1802, -0.0317)"><path d="M -1 0 L 1 0 M 1 0 L 0.4 0.3 M 1 0 L 0.4 -0.3" transform="translate(-0.1802, -0.0317) scale(0.0467)"/></g></g><g stroke-width="0.0467" stroke="rgb(5%, 5%, 5%)" stroke-opacity="1.0" fill="rgb(2%, 73%, 80%)" fill-opacity="0.2"><g transform="rotate(-5.4403, -0.1802, -0.1077)"><path d="M -1 0 L 1 0 M 1 0 L 0.4 0.3 M 1 0 L 0.4 -0.3" transform="translate(-0.1802, -0.1077) scale(0.0467)"/></g></g><g stroke-width="0.0467" stroke="rgb(5%, 5%, 5%)" stroke-opacity="1.0" fill="rgb(2%, 73%, 80%)" fill-opacity="0.2"><g transform="rotate(47.1211, -0.1802, -0.1837)"><path d="M -1 0 L 1 0 M 1 0 L 0.4 0.3 M 1 0 L 0.4 -0.3" transform="translate(-0.1802, -0.1837) scale(0.0467)"/></g></g><g stroke-width="0.0467" stroke="rgb(5%, 5%, 5%)" stroke-opacity="1.0" fill="rgb(2%, 73%, 80%)" fill-opacity="0.2"><g transform="rotate(80.5377, -0.1802, -0.2597)"><path d="M -1 0 L 1 0 M 1 0 L 0.4 0.3 M 1 0 L 0.4 -0.3" transform="translate(-0.1802, -0.2597) scale(0.0467)"/></g></g><g stroke-width="0.0467" stroke="rgb(5%, 5%, 5%)" stroke-opacity="1.0" fill="rgb(2%, 73%, 80%)" fill-opacity="0.2"><g transform="rotate(93.7314, -0.1802, -0.3357)"><path d="M -1 0 L 1 0 M 1 0 L 0.4 0.3 M 1 0 L 0.4 -0.3" transform="translate(-0.1802, -0.3357) scale(0.0467)"/></g></g><g stroke-width="0.0467" stroke="rgb(5%, 5%, 5%)" stroke-opacity="1.0" fill="rgb(2%, 73%, 80%)" fill-opacity="0.2"><g transform="rotate(100.0607, -0.1802, -0.4117)"><path d="M -1 0 L 1 0 M 1 0 L 0.4 0.3 M 1 0 L 0.4 -0.3" transform="translate(-0.1802, -0.4117) scale(0.0467)"/></g></g><g stroke-width="0.0467" stroke="rgb(5%, 5%, 5%)" stroke-opacity="1.0" fill="rgb(2%, 73%, 80%)" fill-opacity="0.2"><g transform="rotate(-61.4810, -0.0654, 0.2723)"><path d="M -1 0 L 1 0 M 1 0 L 0.4 0.3 M 1 0 L 0.4 -0.3" transform="translate(-0.0654, 0.2723) scale(0.0467)"/></g></g><g stroke-width="0.0467" stroke="rgb(5%, 5%, 5%)" stroke-opacity="1.0" fill="rgb(2%, 73%, 80%)" fill-opacity="0.2"><g transform="rotate(-58.6701, -0.0654, 0.1963)"><path d="M -1 0 L 1 0 M 1 0 L 0.4 0.3 M 1 0 L 0.4 -0.3" transform="translate(-0.0654, 0.1963) scale(0.0467)"/></g></g><g stroke-width="0.0467" stroke="rgb(5%, 5%, 5%)" stroke-opacity="1.0" fill="rgb(2%, 73%, 80%)" fill-opacity="0.2"><g transform="rotate(-54.1700, -0.0654, 0.1203)"><path d="M -1 0 L 1 0 M 1 0 L 0.4 0.3 M 1 0 L 0.4 -0.3" transform="translate(-0.0654, 0.1203) scale(0.0467)"/></g></g><g stroke-width="0.0467" stroke="rgb(5%, 5%, 5%)" stroke-opacity="1.0" fill="rgb(2%, 73%, 80%)" fill-opacity="0.2"><g transform="rotate(-45.9710, -0.0654, 0.0443)"><path d="M -1 0 L 1 0 M 1 0 L 0.4 0.3 M 1 0 L 0.4 -0.3" transform="translate(-0.0654, 0.0443) scale(0.0467)"/></g></g><g stroke-width="0.0467" stroke="rgb(5%, 5%, 5%)" stroke-opacity="1.0" fill="rgb(2%, 73%, 80%)" fill-opacity="0.2"><g transform="rotate(-27.9309, -0.0654, -0.0317)"><path d="M -1 0 L 1 0 M 1 0 L 0.4 0.3 M 1 0 L 0.4 -0.3" transform="translate(-0.0654, -0.0317) scale(0.0467)"/></g></g><g stroke-width="0.0467" stroke="rgb(5%, 5%, 5%)" stroke-opacity="1.0" fill="rgb(2%, 73%, 80%)" fill-opacity="0.2"><g transform="rotate(14.4459, -0.0654, -0.1077)"><path d="M -1 0 L 1 0 M 1 0 L 0.4 0.3 M 1 0 L 0.4 -0.3" transform="translate(-0.0654, -0.1077) scale(0.0467)"/></g></g><g stroke-width="0.0467" stroke="rgb(5%, 5%, 5%)" stroke-opacity="1.0" fill="rgb(2%, 73%, 80%)" fill-opacity="0.2"><g transform="rotate(58.9537, -0.0654, -0.1837)"><path d="M -1 0 L 1 0 M 1 0 L 0.4 0.3 M 1 0 L 0.4 -0.3" transform="translate(-0.0654, -0.1837) scale(0.0467)"/></g></g><g stroke-width="0.0467" stroke="rgb(5%, 5%, 5%)" stroke-opacity="1.0" fill="rgb(2%, 73%, 80%)" fill-opacity="0.2"><g transform="rotate(78.3877, -0.0654, -0.2597)"><path d="M -1 0 L 1 0 M 1 0 L 0.4 0.3 M 1 0 L 0.4 -0.3" transform="translate(-0.0654, -0.2597) scale(0.0467)"/></g></g><g stroke-width="0.0467" stroke="rgb(5%, 5%, 5%)" stroke-opacity="1.0" fill="rgb(2%, 73%, 80%)" fill-opacity="0.2"><g transform="rotate(87.0722, -0.0654, -0.3357)"><path d="M -1 0 L 1 0 M 1 0 L 0.4 0.3 M 1 0 L 0.4 -0.3" transform="translate(-0.0654, -0.3357) scale(0.0467)"/></g></g><g stroke-width="0.0467" stroke="rgb(5%, 5%, 5%)" stroke-opacity="1.0" fill="rgb(2%, 73%, 80%)" fill-opacity="0.2"><g transform="rotate(91.7753, -0.0654, -0.4117)"><path d="M -1 0 L 1 0 M 1 0 L 0.4 0.3 M 1 0 L 0.4 -0.3" transform="translate(-0.0654, -0.4117) scale(0.0467)"/></g></g><g stroke-width="0.0467" stroke="rgb(5%, 5%, 5%)" stroke-opacity="1.0" fill="rgb(2%, 73%, 80%)" fill-opacity="0.2"><g transform="rotate(-71.6316, 0.0493, 0.2723)"><path d="M -1 0 L 1 0 M 1 0 L 0.4 0.3 M 1 0 L 0.4 -0.3" transform="translate(0.0493, 0.2723) scale(0.0467)"/></g></g><g stroke-width="0.0467" stroke="rgb(5%, 5%, 5%)" stroke-opacity="1.0" fill="rgb(2%, 73%, 80%)" fill-opacity="0.2"><g transform="rotate(-68.3038, 0.0493, 0.1963)"><path d="M -1 0 L 1 0 M 1 0 L 0.4 0.3 M 1 0 L 0.4 -0.3" transform="translate(0.0493, 0.1963) scale(0.0467)"/></g></g><g stroke-width="0.0467" stroke="rgb(5%, 5%, 5%)" stroke-opacity="1.0" fill="rgb(2%, 73%, 80%)" fill-opacity="0.2"><g transform="rotate(-62.7134, 0.0493, 0.1203)"><path d="M -1 0 L 1 0 M 1 0 L 0.4 0.3 M 1 0 L 0.4 -0.3" transform="translate(0.0493, 0.1203) scale(0.0467)"/></g></g><g stroke-width="0.0467" stroke="rgb(5%, 5%, 5%)" stroke-opacity="1.0" fill="rgb(2%, 73%, 80%)" fill-opacity="0.2"><g transform="rotate(-51.7434, 0.0493, 0.0443)"><path d="M -1 0 L 1 0 M 1 0 L 0.4 0.3 M 1 0 L 0.4 -0.3" transform="translate(0.0493, 0.0443) scale(0.0467)"/></g></g><g stroke-width="0.0467" stroke="rgb(5%, 5%, 5%)" stroke-opacity="1.0" fill="rgb(2%, 73%, 80%)" fill-opacity="0.2"><g transform="rotate(-25.4633, 0.0493, -0.0317)"><path d="M -1 0 L 1 0 M 1 0 L 0.4 0.3 M 1 0 L 0.4 -0.3" transform="translate(0.0493, -0.0317) scale(0.0467)"/></g></g><g stroke-width="0.0467" stroke="rgb(5%, 5%, 5%)" stroke-opacity="1.0" fill="rgb(2%, 73%, 80%)" fill-opacity="0.2"><g transform="rotate(25.3523, 0.0493, -0.1077)"><path d="M -1 0 L 1 0 M 1 0 L 0.4 0.3 M 1 0 L 0.4 -0.3" transform="translate(0.0493, -0.1077) scale(0.0467)"/></g></g><g stroke-width="0.0467" stroke="rgb(5%, 5%, 5%)" stroke-opacity="1.0" fill="rgb(2%, 73%, 80%)" fill-opacity="0.2"><g transform="rotate(58.5390, 0.0493, -0.1837)"><path d="M -1 0 L 1 0 M 1 0 L 0.4 0.3 M 1 0 L 0.4 -0.3" transform="translate(0.0493, -0.1837) scale(0.0467)"/></g></g><g stroke-width="0.0467" stroke="rgb(5%, 5%, 5%)" stroke-opacity="1.0" fill="rgb(2%, 73%, 80%)" fill-opacity="0.2"><g transform="rotate(72.0351, 0.0493, -0.2597)"><path d="M -1 0 L 1 0 M 1 0 L 0.4 0.3 M 1 0 L 0.4 -0.3" transform="translate(0.0493, -0.2597) scale(0.0467)"/></g></g><g stroke-width="0.0467" stroke="rgb(5%, 5%, 5%)" stroke-opacity="1.0" fill="rgb(2%, 73%, 80%)" fill-opacity="0.2"><g transform="rotate(78.5712, 0.0493, -0.3357)"><path d="M -1 0 L 1 0 M 1 0 L 0.4 0.3 M 1 0 L 0.4 -0.3" transform="translate(0.0493, -0.3357) scale(0.0467)"/></g></g><g stroke-width="0.0467" stroke="rgb(5%, 5%, 5%)" stroke-opacity="1.0" fill="rgb(2%, 73%, 80%)" fill-opacity="0.2"><g transform="rotate(82.3320, 0.0493, -0.4117)"><path d="M -1 0 L 1 0 M 1 0 L 0.4 0.3 M 1 0 L 0.4 -0.3" transform="translate(0.0493, -0.4117) scale(0.0467)"/></g></g><g stroke-width="0.0467" stroke="rgb(5%, 5%, 5%)" stroke-opacity="1.0" fill="rgb(2%, 73%, 80%)" fill-opacity="0.2"><g transform="rotate(-83.7258, 0.1641, 0.2723)"><path d="M -1 0 L 1 0 M 1 0 L 0.4 0.3 M 1 0 L 0.4 -0.3" transform="translate(0.1641, 0.2723) scale(0.0467)"/></g></g><g stroke-width="0.0467" stroke="rgb(5%, 5%, 5%)" stroke-opacity="1.0" fill="rgb(2%, 73%, 80%)" fill-opacity="0.2"><g transform="rotate(-80.3796, 0.1641, 0.1963)"><path d="M -1 0 L 1 0 M 1 0 L 0.4 0.3 M 1 0 L 0.4 -0.3" transform="translate(0.1641, 0.1963) scale(0.0467)"/></g></g><g stroke-width="0.0467" stroke="rgb(5%, 5%, 5%)" stroke-opacity="1.0" fill="rgb(2%, 73%, 80%)" fill-opacity="0.2"><g transform="rotate(-74.5578, 0.1641, 0.1203)"><path d="M -1 0 L 1 0 M 1 0 L 0.4 0.3 M 1 0 L 0.4 -0.3" transform="translate(0.1641, 0.1203) scale(0.0467)"/></g></g><g stroke-width="0.0467" stroke="rgb(5%, 5%, 5%)" stroke-opacity="1.0" fill="rgb(2%, 73%, 80%)" fill-opacity="0.2"><g transform="rotate(-62.3926, 0.1641, 0.0443)"><path d="M -1 0 L 1 0 M 1 0 L 0.4 0.3 M 1 0 L 0.4 -0.3" transform="translate(0.1641, 0.0443) scale(0.0467)"/></g></g><g stroke-width="0.0467" stroke="rgb(5%, 5%, 5%)" stroke-opacity="1.0" fill="rgb(2%, 73%, 80%)" fill-opacity="0.2"><g transform="rotate(-30.3259, 0.1641, -0.0317)"><path d="M -1 0 L 1 0 M 1 0 L 0.4 0.3 M 1 0 L 0.4 -0.3" transform="translate(0.1641, -0.0317) scale(0.0467)"/></g></g><g stroke-width="0.0467" stroke="rgb(5%, 5%, 5%)" stroke-opacity="1.0" fill="rgb(2%, 73%, 80%)" fill-opacity="0.2"><g transform="rotate(25.4633, 0.1641, -0.1077)"><path d="M -1 0 L 1 0 M 1 0 L 0.4 0.3 M 1 0 L 0.4 -0.3" transform="translate(0.1641, -0.1077) scale(0.0467)"/></g></g><g stroke-width="0.0467" stroke="rgb(5%, 5%, 5%)" stroke-opacity="1.0" fill="rgb(2%, 73%, 80%)" fill-opacity="0.2"><g transform="rotate(53.3483, 0.1641, -0.1837)"><path d="M -1 0 L 1 0 M 1 0 L 0.4 0.3 M 1 0 L 0.4 -0.3" transform="translate(0.1641, -0.1837) scale(0.0467)"/></g></g><g stroke-width="0.0467" stroke="rgb(5%, 5%, 5%)" stroke-opacity="1.0" fill="rgb(2%, 73%, 80%)" fill-opacity="0.2"><g transform="rotate(64.1805, 0.1641, -0.2597)"><path d="M -1 0 L 1 0 M 1 0 L 0.4 0.3 M 1 0 L 0.4 -0.3" transform="translate(0.1641, -0.2597) scale(0.0467)"/></g></g><g stroke-width="0.0467" stroke="rgb(5%, 5%, 5%)" stroke-opacity="1.0" fill="rgb(2%, 73%, 80%)" fill-opacity="0.2"><g transform="rotate(69.5253, 0.1641, -0.3357)"><path d="M -1 0 L 1 0 M 1 0 L 0.4 0.3 M 1 0 L 0.4 -0.3" transform="translate(0.1641, -0.3357) scale(0.0467)"/></g></g><g stroke-width="0.0467" stroke="rgb(5%, 5%, 5%)" stroke-opacity="1.0" fill="rgb(2%, 73%, 80%)" fill-opacity="0.2"><g transform="rotate(72.6569, 0.1641, -0.4117)"><path d="M -1 0 L 1 0 M 1 0 L 0.4 0.3 M 1 0 L 0.4 -0.3" transform="translate(0.1641, -0.4117) scale(0.0467)"/></g></g><g stroke-width="0.0467" stroke="rgb(5%, 5%, 5%)" stroke-opacity="1.0" fill="rgb(2%, 73%, 80%)" fill-opacity="0.2"><g transform="rotate(-96.8488, 0.2788, 0.2723)"><path d="M -1 0 L 1 0 M 1 0 L 0.4 0.3 M 1 0 L 0.4 -0.3" transform="translate(0.2788, 0.2723) scale(0.0467)"/></g></g><g stroke-width="0.0467" stroke="rgb(5%, 5%, 5%)" stroke-opacity="1.0" fill="rgb(2%, 73%, 80%)" fill-opacity="0.2"><g transform="rotate(-94.1075, 0.2788, 0.1963)"><path d="M -1 0 L 1 0 M 1 0 L 0.4 0.3 M 1 0 L 0.4 -0.3" transform="translate(0.2788, 0.1963) scale(0.0467)"/></g></g><g stroke-width="0.0467" stroke="rgb(5%, 5%, 5%)" stroke-opacity="1.0" fill="rgb(2%, 73%, 80%)" fill-opacity="0.2"><g transform="rotate(-89.3167, 0.2788, 0.1203)"><path d="M -1 0 L 1 0 M 1 0 L 0.4 0.3 M 1 0 L 0.4 -0.3" transform="translate(0.2788, 0.1203) scale(0.0467)"/></g></g><g stroke-width="0.0467" stroke="rgb(5%, 5%, 5%)" stroke-opacity="1.0" fill="rgb(2%, 73%, 80%)" fill-opacity="0.2"><g transform="rotate(-79.0898, 0.2788, 0.0443)"><path d="M -1 0 L 1 0 M 1 0 L 0.4 0.3 M 1 0 L 0.4 -0.3" transform="translate(0.2788, 0.0443) scale(0.0467)"/></g></g><g stroke-width="0.0467" stroke="rgb(5%, 5%, 5%)" stroke-opacity="1.0" fill="rgb(2%, 73%, 80%)" fill-opacity="0.2"><g transform="rotate(-48.8981, 0.2788, -0.0317)"><path d="M -1 0 L 1 0 M 1 0 L 0.4 0.3 M 1 0 L 0.4 -0.3" transform="translate(0.2788, -0.0317) scale(0.0467)"/></g></g><g stroke-width="0.0467" stroke="rgb(5%, 5%, 5%)" stroke-opacity="1.0" fill="rgb(2%, 73%, 80%)" fill-opacity="0.2"><g transform="rotate(16.4311, 0.2788, -0.1077)"><path d="M -1 0 L 1 0 M 1 0 L 0.4 0.3 M 1 0 L 0.4 -0.3" transform="translate(0.2788, -0.1077) scale(0.0467)"/></g></g><g stroke-width="0.0467" stroke="rgb(5%, 5%, 5%)" stroke-opacity="1.0" fill="rgb(2%, 73%, 80%)" fill-opacity="0.2"><g transform="rotate(45.9710, 0.2788, -0.1837)"><path d="M -1 0 L 1 0 M 1 0 L 0.4 0.3 M 1 0 L 0.4 -0.3" transform="translate(0.2788, -0.1837) scale(0.0467)"/></g></g><g stroke-width="0.0467" stroke="rgb(5%, 5%, 5%)" stroke-opacity="1.0" fill="rgb(2%, 73%, 80%)" fill-opacity="0.2"><g transform="rotate(56.0348, 0.2788, -0.2597)"><path d="M -1 0 L 1 0 M 1 0 L 0.4 0.3 M 1 0 L 0.4 -0.3" transform="translate(0.2788, -0.2597) scale(0.0467)"/></g></g><g stroke-width="0.0467" stroke="rgb(5%, 5%, 5%)" stroke-opacity="1.0" fill="rgb(2%, 73%, 80%)" fill-opacity="0.2"><g transform="rotate(60.7712, 0.2788, -0.3357)"><path d="M -1 0 L 1 0 M 1 0 L 0.4 0.3 M 1 0 L 0.4 -0.3" transform="translate(0.2788, -0.3357) scale(0.0467)"/></g></g><g stroke-width="0.0467" stroke="rgb(5%, 5%, 5%)" stroke-opacity="1.0" fill="rgb(2%, 73%, 80%)" fill-opacity="0.2"><g transform="rotate(63.4886, 0.2788, -0.4117)"><path d="M -1 0 L 1 0 M 1 0 L 0.4 0.3 M 1 0 L 0.4 -0.3" transform="translate(0.2788, -0.4117) scale(0.0467)"/></g></g><g stroke-width="0.0467" stroke="rgb(5%, 5%, 5%)" stroke-opacity="1.0" fill="rgb(2%, 73%, 80%)" fill-opacity="0.2"><g transform="rotate(-109.4766, 0.3936, 0.2723)"><path d="M -1 0 L 1 0 M 1 0 L 0.4 0.3 M 1 0 L 0.4 -0.3" transform="translate(0.3936, 0.2723) scale(0.0467)"/></g></g><g stroke-width="0.0467" stroke="rgb(5%, 5%, 5%)" stroke-opacity="1.0" fill="rgb(2%, 73%, 80%)" fill-opacity="0.2"><g transform="rotate(-107.6501, 0.3936, 0.1963)"><path d="M -1 0 L 1 0 M 1 0 L 0.4 0.3 M 1 0 L 0.4 -0.3" transform="translate(0.3936, 0.1963) scale(0.0467)"/></g></g><g stroke-width="0.0467" stroke="rgb(5%, 5%, 5%)" stroke-opacity="1.0" fill="rgb(2%, 73%, 80%)" fill-opacity="0.2"><g transform="rotate(-104.5742, 0.3936, 0.1203)"><path d="M -1 0 L 1 0 M 1 0 L 0.4 0.3 M 1 0 L 0.4 -0.3" transform="translate(0.3936, 0.1203) scale(0.0467)"/></g></g><g stroke-width="0.0467" stroke="rgb(5%, 5%, 5%)" stroke-opacity="1.0" fill="rgb(2%, 73%, 80%)" fill-opacity="0.2"><g transform="rotate(-98.3659, 0.3936, 0.0443)"><path d="M -1 0 L 1 0 M 1 0 L 0.4 0.3 M 1 0 L 0.4 -0.3" transform="translate(0.3936, 0.0443) scale(0.0467)"/></g></g><g stroke-width="0.0467" stroke="rgb(5%, 5%, 5%)" stroke-opacity="1.0" fill="rgb(2%, 73%, 80%)" fill-opacity="0.2"><g transform="rotate(-80.5377, 0.3936, -0.0317)"><path d="M -1 0 L 1 0 M 1 0 L 0.4 0.3 M 1 0 L 0.4 -0.3" transform="translate(0.3936, -0.0317) scale(0.0467)"/></g></g><g stroke-width="0.0467" stroke="rgb(5%, 5%, 5%)" stroke-opacity="1.0" fill="rgb(2%, 73%, 80%)" fill-opacity="0.2"><g transform="rotate(-10.3048, 0.3936, -0.1077)"><path d="M -1 0 L 1 0 M 1 0 L 0.4 0.3 M 1 0 L 0.4 -0.3" transform="translate(0.3936, -0.1077) scale(0.0467)"/></g></g><g stroke-width="0.0467" stroke="rgb(5%, 5%, 5%)" stroke-opacity="1.0" fill="rgb(2%, 73%, 80%)" fill-opacity="0.2"><g transform="rotate(36.3844, 0.3936, -0.1837)"><path d="M -1 0 L 1 0 M 1 0 L 0.4 0.3 M 1 0 L 0.4 -0.3" transform="translate(0.3936, -0.1837) scale(0.0467)"/></g></g><g stroke-width="0.0467" stroke="rgb(5%, 5%, 5%)" stroke-opacity="1.0" fill="rgb(2%, 73%, 80%)" fill-opacity="0.2"><g transform="rotate(48.0128, 0.3936, -0.2597)"><path d="M -1 0 L 1 0 M 1 0 L 0.4 0.3 M 1 0 L 0.4 -0.3" transform="translate(0.3936, -0.2597) scale(0.0467)"/></g></g><g stroke-width="0.0467" stroke="rgb(5%, 5%, 5%)" stroke-opacity="1.0" fill="rgb(2%, 73%, 80%)" fill-opacity="0.2"><g transform="rotate(52.7336, 0.3936, -0.3357)"><path d="M -1 0 L 1 0 M 1 0 L 0.4 0.3 M 1 0 L 0.4 -0.3" transform="translate(0.3936, -0.3357) scale(0.0467)"/></g></g><g stroke-width="0.0467" stroke="rgb(5%, 5%, 5%)" stroke-opacity="1.0" fill="rgb(2%, 73%, 80%)" fill-opacity="0.2"><g transform="rotate(55.2568, 0.3936, -0.4117)"><path d="M -1 0 L 1 0 M 1 0 L 0.4 0.3 M 1 0 L 0.4 -0.3" transform="translate(0.3936, -0.4117) scale(0.0467)"/></g></g><g stroke-width="0.0467" stroke="rgb(5%, 5%, 5%)" stroke-opacity="1.0" fill="rgb(2%, 73%, 80%)" fill-opacity="0.2"><g transform="rotate(-120.3900, 0.5083, 0.2723)"><path d="M -1 0 L 1 0 M 1 0 L 0.4 0.3 M 1 0 L 0.4 -0.3" transform="translate(0.5083, 0.2723) scale(0.0467)"/></g></g><g stroke-width="0.0467" stroke="rgb(5%, 5%, 5%)" stroke-opacity="1.0" fill="rgb(2%, 73%, 80%)" fill-opacity="0.2"><g transform="rotate(-119.3549, 0.5083, 0.1963)"><path d="M -1 0 L 1 0 M 1 0 L 0.4 0.3 M 1 0 L 0.4 -0.3" transform="translate(0.5083, 0.1963) scale(0.0467)"/></g></g><g stroke-width="0.0467" stroke="rgb(5%, 5%, 5%)" stroke-opacity="1.0" fill="rgb(2%, 73%, 80%)" fill-opacity="0.2"><g transform="rotate(-117.7221, 0.5083, 0.1203)"><path d="M -1 0 L 1 0 M 1 0 L 0.4 0.3 M 1 0 L 0.4 -0.3" transform="translate(0.5083, 0.1203) scale(0.0467)"/></g></g><g stroke-width="0.0467" stroke="rgb(5%, 5%, 5%)" stroke-opacity="1.0" fill="rgb(2%, 73%, 80%)" fill-opacity="0.2"><g transform="rotate(-114.7718, 0.5083, 0.0443)"><path d="M -1 0 L 1 0 M 1 0 L 0.4 0.3 M 1 0 L 0.4 -0.3" transform="translate(0.5083, 0.0443) scale(0.0467)"/></g></g><g stroke-width="0.0467" stroke="rgb(5%, 5%, 5%)" stroke-opacity="1.0" fill="rgb(2%, 73%, 80%)" fill-opacity="0.2"><g transform="rotate(-107.9102, 0.5083, -0.0317)"><path d="M -1 0 L 1 0 M 1 0 L 0.4 0.3 M 1 0 L 0.4 -0.3" transform="translate(0.5083, -0.0317) scale(0.0467)"/></g></g><g stroke-width="0.0467" stroke="rgb(5%, 5%, 5%)" stroke-opacity="1.0" fill="rgb(2%, 73%, 80%)" fill-opacity="0.2"><g transform="rotate(-78.8802, 0.5083, -0.1077)"><path d="M -1 0 L 1 0 M 1 0 L 0.4 0.3 M 1 0 L 0.4 -0.3" transform="translate(0.5083, -0.1077) scale(0.0467)"/></g></g><g stroke-width="0.0467" stroke="rgb(5%, 5%, 5%)" stroke-opacity="1.0" fill="rgb(2%, 73%, 80%)" fill-opacity="0.2"><g transform="rotate(18.0772, 0.5083, -0.1837)"><path d="M -1 0 L 1 0 M 1 0 L 0.4 0.3 M 1 0 L 0.4 -0.3" transform="translate(0.5083, -0.1837) scale(0.0467)"/></g></g><g stroke-width="0.0467" stroke="rgb(5%, 5%, 5%)" stroke-opacity="1.0" fill="rgb(2%, 73%, 80%)" fill-opacity="0.2"><g transform="rotate(39.5765, 0.5083, -0.2597)"><path d="M -1 0 L 1 0 M 1 0 L 0.4 0.3 M 1 0 L 0.4 -0.3" transform="translate(0.5083, -0.2597) scale(0.0467)"/></g></g><g stroke-width="0.0467" stroke="rgb(5%, 5%, 5%)" stroke-opacity="1.0" fill="rgb(2%, 73%, 80%)" fill-opacity="0.2"><g transform="rotate(45.4122, 0.5083, -0.3357)"><path d="M -1 0 L 1 0 M 1 0 L 0.4 0.3 M 1 0 L 0.4 -0.3" transform="translate(0.5083, -0.3357) scale(0.0467)"/></g></g><g stroke-width="0.0467" stroke="rgb(5%, 5%, 5%)" stroke-opacity="1.0" fill="rgb(2%, 73%, 80%)" fill-opacity="0.2"><g transform="rotate(48.0612, 0.5083, -0.4117)"><path d="M -1 0 L 1 0 M 1 0 L 0.4 0.3 M 1 0 L 0.4 -0.3" transform="translate(0.5083, -0.4117) scale(0.0467)"/></g></g><g stroke-width="0.0467" stroke="rgb(5%, 5%, 5%)" stroke-opacity="1.0" fill="rgb(2%, 73%, 80%)" fill-opacity="0.2"><g transform="rotate(-129.2044, 0.6231, 0.2723)"><path d="M -1 0 L 1 0 M 1 0 L 0.4 0.3 M 1 0 L 0.4 -0.3" transform="translate(0.6231, 0.2723) scale(0.0467)"/></g></g><g stroke-width="0.0467" stroke="rgb(5%, 5%, 5%)" stroke-opacity="1.0" fill="rgb(2%, 73%, 80%)" fill-opacity="0.2"><g transform="rotate(-128.6756, 0.6231, 0.1963)"><path d="M -1 0 L 1 0 M 1 0 L 0.4 0.3 M 1 0 L 0.4 -0.3" transform="translate(0.6231, 0.1963) scale(0.0467)"/></g></g><g stroke-width="0.0467" stroke="rgb(5%, 5%, 5%)" stroke-opacity="1.0" fill="rgb(2%, 73%, 80%)" fill-opacity="0.2"><g transform="rotate(-127.8991, 0.6231, 0.1203)"><path d="M -1 0 L 1 0 M 1 0 L 0.4 0.3 M 1 0 L 0.4 -0.3" transform="translate(0.6231, 0.1203) scale(0.0467)"/></g></g><g stroke-width="0.0467" stroke="rgb(5%, 5%, 5%)" stroke-opacity="1.0" fill="rgb(2%, 73%, 80%)" fill-opacity="0.2"><g transform="rotate(-126.6482, 0.6231, 0.0443)"><path d="M -1 0 L 1 0 M 1 0 L 0.4 0.3 M 1 0 L 0.4 -0.3" transform="translate(0.6231, 0.0443) scale(0.0467)"/></g></g><g stroke-width="0.0467" stroke="rgb(5%, 5%, 5%)" stroke-opacity="1.0" fill="rgb(2%, 73%, 80%)" fill-opacity="0.2"><g transform="rotate(-124.3010, 0.6231, -0.0317)"><path d="M -1 0 L 1 0 M 1 0 L 0.4 0.3 M 1 0 L 0.4 -0.3" transform="translate(0.6231, -0.0317) scale(0.0467)"/></g></g><g stroke-width="0.0467" stroke="rgb(5%, 5%, 5%)" stroke-opacity="1.0" fill="rgb(2%, 73%, 80%)" fill-opacity="0.2"><g transform="rotate(-118.3399, 0.6231, -0.1077)"><path d="M -1 0 L 1 0 M 1 0 L 0.4 0.3 M 1 0 L 0.4 -0.3" transform="translate(0.6231, -0.1077) scale(0.0467)"/></g></g><g stroke-width="0.0467" stroke="rgb(5%, 5%, 5%)" stroke-opacity="1.0" fill="rgb(2%, 73%, 80%)" fill-opacity="0.2"><g transform="rotate(-81.6027, 0.6231, -0.1837)"><path d="M -1 0 L 1 0 M 1 0 L 0.4 0.3 M 1 0 L 0.4 -0.3" transform="translate(0.6231, -0.1837) scale(0.0467)"/></g></g><g stroke-width="0.0467" stroke="rgb(5%, 5%, 5%)" stroke-opacity="1.0" fill="rgb(2%, 73%, 80%)" fill-opacity="0.2"><g transform="rotate(25.9167, 0.6231, -0.2597)"><path d="M -1 0 L 1 0 M 1 0 L 0.4 0.3 M 1 0 L 0.4 -0.3" transform="translate(0.6231, -0.2597) scale(0.0467)"/></g></g><g stroke-width="0.0467" stroke="rgb(5%, 5%, 5%)" stroke-opacity="1.0" fill="rgb(2%, 73%, 80%)" fill-opacity="0.2"><g transform="rotate(38.1539, 0.6231, -0.3357)"><path d="M -1 0 L 1 0 M 1 0 L 0.4 0.3 M 1 0 L 0.4 -0.3" transform="translate(0.6231, -0.3357) scale(0.0467)"/></g></g><g stroke-width="0.0467" stroke="rgb(5%, 5%, 5%)" stroke-opacity="1.0" fill="rgb(2%, 73%, 80%)" fill-opacity="0.2"><g transform="rotate(41.7039, 0.6231, -0.4117)"><path d="M -1 0 L 1 0 M 1 0 L 0.4 0.3 M 1 0 L 0.4 -0.3" transform="translate(0.6231, -0.4117) scale(0.0467)"/></g></g></g></g><g class="hud"><g class="frame"><g stroke-width="0" stroke="rgb(0%, 0%, 0%)" stroke-opacity="0" fill="rgb(100%, 100%, 100%)" fill-opacity="0.02"><rect width="1.1948" height="0.7913" x="-0.4907" y="-0.4653"/></g></g><g class="axis"><g class="ticks"><g class="tickglyph"><g stroke-width="0.0037" stroke="rgb(5%, 5%, 5%)" stroke-opacity="0.4" fill="rgb(5%, 5%, 5%)" fill-opacity="0.4"><polyline points="-0.5391,0.3103
-0.5111,0.3103"/><polyline points="-0.5391,0.2343
-0.5111,0.2343"/><polyline points="-0.5391,0.1583
-0.5111,0.1583"/><polyline points="-0.5391,0.0823
-0.5111,0.0823"/><polyline points="-0.5391,0.0063
-0.5111,0.0063"/><polyline points="-0.5391,-0.0697
-0.5111,-0.0697"/><polyline points="-0.5391,-0.1457
-0.5111,-0.1457"/><polyline points="-0.5391,-0.2217
-0.5111,-0.2217"/><polyline points="-0.5391,-0.2977
-0.5111,-0.2977"/><polyline points="-0.5391,-0.3737
-0.5111,-0.3737"/><polyline points="-0.5391,-0.4497
-0.5111,-0.4497"/></g></g><g class="ticktext"><g stroke-width="0.0" stroke="none" fill="rgb(5%, 5%, 5%)" fill-opacity="1.0" font-size="0.0467" text-anchor="end"><text x="-0.5664" y="0.3207">-0.5</text><text x="-0.5664" y="0.2447">-0.4</text><text x="-0.5664" y="0.1688">-0.3</text><text x="-0.5664" y="0.0928">-0.2</text><text x="-0.5664" y="0.0168">-0.1</text><text x="-0.5664" y="-0.0592"> 0.0</text><text x="-0.5664" y="-0.1352"> 0.1</text><text x="-0.5664" y="-0.2112"> 0.2</text><text x="-0.5664" y="-0.2872"> 0.3</text><text x="-0.5664" y="-0.3632"> 0.4</text><text x="-0.5664" y="-0.4392"> 0.5</text></g></g></g><g class="axisbar"><g stroke-width="0" stroke="rgb(0%, 0%, 0%)" stroke-opacity="0" fill="rgb(5%, 5%, 5%)" fill-opacity="0.4"><rect width="0.0046" height="0.7630" x="-0.5067" y="-0.4512"/></g></g></g><g class="axis"><g class="ticks"><g class="tickglyph"><g stroke-width="0.0037" stroke="rgb(5%, 5%, 5%)" stroke-opacity="0.4" fill="rgb(5%, 5%, 5%)" fill-opacity="0.4"><polyline points="-0.4670,0.3628
-0.4670,0.3348"/><polyline points="-0.3523,0.3628
-0.3523,0.3348"/><polyline points="-0.2375,0.3628
-0.2375,0.3348"/><polyline points="-0.1228,0.3628
-0.1228,0.3348"/><polyline points="-0.0080,0.3628
-0.0080,0.3348"/><polyline points="0.1067,0.3628
0.1067,0.3348"/><polyline points="0.2215,0.3628
0.2215,0.3348"/><polyline points="0.3362,0.3628
0.3362,0.3348"/><polyline points="0.4510,0.3628
0.4510,0.3348"/><polyline points="0.5657,0.3628
0.5657,0.3348"/><polyline points="0.6805,0.3628
0.6805,0.3348"/></g></g><g class="ticktext"><g stroke-width="0.0" stroke="none" fill="rgb(5%, 5%, 5%)" fill-opacity="1.0" font-size="0.0467" text-anchor="end"><text x="-0.4670" y="0.3971" transform="rotate(-45.0, -0.4670, 0.3971)">-0.5</text><text x="-0.3523" y="0.3971" transform="rotate(-45.0, -0.3523, 0.3971)">-0.4</text><text x="-0.2375" y="0.3971" transform="rotate(-45.0, -0.2375, 0.3971)">-0.3</text><text x="-0.1228" y="0.3971" transform="rotate(-45.0, -0.1228, 0.3971)">-0.2</text><text x="-0.0080" y="0.3971" transform="rotate(-45.0, -0.0080, 0.3971)">-0.1</text><text x="0.1067" y="0.3971" transform="rotate(-45.0, 0.1067, 0.3971)"> 0.0</text><text x="0.2215" y="0.3971" transform="rotate(-45.0, 0.2215, 0.3971)"> 0.1</text><text x="0.3362" y="0.3971" transform="rotate(-45.0, 0.3362, 0.3971)"> 0.2</text><text x="0.4510" y="0.3971" transform="rotate(-45.0, 0.4510, 0.3971)"> 0.3</text><text x="0.5657" y="0.3971" transform="rotate(-45.0, 0.5657, 0.3971)"> 0.4</text><text x="0.6805" y="0.3971" transform="rotate(-45.0, 0.6805, 0.3971)"> 0.5</text></g></g></g><g class="axisbar"><g stroke-width="0" stroke="rgb(0%, 0%, 0%)" stroke-opacity="0" fill="rgb(5%, 5%, 5%)" fill-opacity="0.4"><rect width="1.1521" height="0.0030" x="-0.4693" y="0.3336"/></g></g></g><g class="frame"><g stroke-width="0" stroke="rgb(0%, 0%, 0%)" stroke-opacity="0" fill="rgb(0%, 0%, 0%)" fill-opacity="0"><rect width="1.5" height="1.0" x="-0.75" y="-0.5"/></g></g></g></svg>