<svg xmlns="http://www.w3.org/2000/svg" xmlns:xlink="http://www.w3.org/1999/xlink" width="450" height="300" viewBox="-0.75 -0.5 1.5 1.0"><style>svg {
  color-scheme: light dark;
}
{
  .canvas g, .title g, .axisbar g, .ticktext g, .tickglyph g, .ticklines g, .legendContent g text {
    fill: rgb(5%, 5%, 5%);
  }
  .ticklines g, .tickglyph g, .legendBorder g {
    stroke: rgb(5%, 5%, 5%);
  }
  .legendBorder g {
    fill: rgb(94%, 94%, 94%);
  }
}
@media (prefers-color-scheme:dark) {
  .canvas g, .title g, .axisbar g, .ticktext g, .tickglyph g, .ticklines g, .legendContent g text {
    fill: rgb(94%, 94%, 94%);
  }
  .ticklines g, .tickglyph g, .legendBorder g {
    stroke: rgb(94%, 94%, 94%);
  }
  .legendBorder g {
    fill: rgb(5%, 5%, 5%);
  }
}
svg { font-family: system-ui,-apple-system,"Segoe UI",Roboto,"Helvetica Neue",Arial,"Noto Sans","Liberation Sans",sans-serif,"Apple Color Emoji","Segoe UI Emoji","Segoe UI Symbol","Noto Color Emoji";
}

ticktext { font-family: SFMono-Regular,Menlo,Monaco,Consolas,"Liberation Mono","Courier New",monospace;
}

</style><g class="chart"><g class="barchart"><g stroke-width="0.0050" stroke="rgb(2%, 29%, 48%)" stroke-opacity="1.0" fill="rgb(2%, 29%, 48%)" fill-opacity="0.7"><rect width="0.0515" height="0.0600" x="-0.7246" y="0.1166"/><rect width="0.0515" height="0.1200" x="-0.6102" y="0.0566"/><rect width="0.0515" height="0.1800" x="-0.4957" y="-0.0034"/><rect width="0.0515" height="0.3000" x="-0.3813" y="-0.1235"/><rect width="0.0515" height="0.4801" x="-0.2669" y="-0.3035"/><rect width="0.0515" height="0" x="-0.1524" y="0.1766"/><rect width="0.0515" height="0.1200" x="-0.0380" y="0.1766"/><rect width="0.0515" height="0.6601" x="0.0764" y="-0.4835"/><rect width="0.0515" height="0.1200" x="0.1909" y="0.0566"/><rect width="0.0515" height="0.0600" x="0.3053" y="0.1166"/></g><g stroke-width="0.0050" stroke="rgb(66%, 7%, 55%)" stroke-opacity="1.0" fill="rgb(66%, 7%, 55%)" fill-opacity="0.7"><rect width="0.0515" height="0.0600" x="-0.6731" y="0.1166"/><rect width="0.0515" height="0.1200" x="-0.5587" y="0.0566"/><rect width="0.0515" height="0.1800" x="-0.4442" y="-0.0034"/><rect width="0.0515" height="0.2400" x="-0.3298" y="-0.0634"/><rect width="0.0515" height="0.3000" x="-0.2154" y="-0.1235"/><rect width="0.0515" height="0.3600" x="-0.1009" y="-0.1835"/><rect width="0.0515" height="0.4200" x="0.0135" y="-0.2435"/><rect width="0.0515" height="0.4801" x="0.1279" y="-0.3035"/><rect width="0.0515" height="0.5401" x="0.2424" y="-0.3635"/><rect width="0.0515" height="0.6001" x="0.3568" y="-0.4235"/></g><g stroke-width="0.0" stroke="none" fill="rgb(2%, 29%, 48%)" fill-opacity="1.0" font-size="0.0200" text-anchor="middle"><text x="-0.6858" y="0.1048">1.0</text><text x="-0.5739" y="0.0459">2.0</text><text x="-0.4621" y="-0.0130">3.0</text><text x="-0.3503" y="-0.1307">5.0</text><text x="-0.2384" y="-0.3074">8.0</text><text x="-0.1266" y="0.1636">0.0</text><text x="-0.0147" y="0.3202">-2.0</text><text x="0.0971" y="-0.484">11</text><text x="0.2089" y="0.0459">2.0</text><text x="0.3208" y="0.1048">1.0</text></g><g stroke-width="0.0" stroke="none" fill="rgb(66%, 7%, 55%)" fill-opacity="1.0" font-size="0.0200" text-anchor="middle"><text x="-0.6351" y="0.1048">1.0</text><text x="-0.5228" y="0.0459">2.0</text><text x="-0.4104" y="-0.0130">3.0</text><text x="-0.2981" y="-0.0719">4.0</text><text x="-0.1857" y="-0.1307">5.0</text><text x="-0.0734" y="-0.1896">6.0</text><text x="0.0390" y="-0.2485">7.0</text><text x="0.1513" y="-0.3074">8.0</text><text x="0.2636" y="-0.3662">9.0</text><text x="0.3760" y="-0.4251">10</text></g></g></g><g class="hud"><g class="axis"><g class="axisbar"><g stroke-width="0" stroke="rgb(0%, 0%, 0%)" stroke-opacity="0" fill="rgb(5%, 5%, 5%)" fill-opacity="0.4"><rect width="1.1368" height="0.0033" x="-0.7267" y="0.3338"/></g></g><g class="ticks"><g class="tickglyph"><g stroke-width="0.0040" stroke="rgb(5%, 5%, 5%)" stroke-opacity="0.4" fill="rgb(5%, 5%, 5%)" fill-opacity="0.4"><polyline points="-0.6676,0.3640
-0.6676,0.3340"/><polyline points="-0.5544,0.3640
-0.5544,0.3340"/><polyline points="-0.4412,0.3640
-0.4412,0.3340"/><polyline points="-0.3279,0.3640
-0.3279,0.3340"/><polyline points="-0.2147,0.3640
-0.2147,0.3340"/><polyline points="-0.1015,0.3640
-0.1015,0.3340"/><polyline points="0.0118,0.3640
0.0118,0.3340"/><polyline points="0.1250,0.3640
0.1250,0.3340"/><polyline points="0.2382,0.3640
0.2382,0.3340"/><polyline points="0.3515,0.3640
0.3515,0.3340"/></g></g><g class="ticktext"><g stroke-width="0.0" stroke="none" fill="rgb(5%, 5%, 5%)" fill-opacity="1.0" font-size="0.0400" text-anchor="end"><text x="-0.6425" y="0.3897" transform="rotate(-45.0, -0.6425, 0.3897)">row 1</text><text x="-0.5314" y="0.3897" transform="rotate(-45.0, -0.5314, 0.3897)">row 2</text><text x="-0.4203" y="0.3897" transform="rotate(-45.0, -0.4203, 0.3897)">row 3</text><text x="-0.3091" y="0.3897" transform="rotate(-45.0, -0.3091, 0.3897)">row 4</text><text x="-0.1980" y="0.3897" transform="rotate(-45.0, -0.1980, 0.3897)">row 5</text><text x="-0.0869" y="0.3897" transform="rotate(-45.0, -0.0869, 0.3897)">row 6</text><text x="0.0243" y="0.3897" transform="rotate(-45.0, 0.0243, 0.3897)">row 7</text><text x="0.1354" y="0.3897" transform="rotate(-45.0, 0.1354, 0.3897)">row 8</text><text x="0.2465" y="0.3897" transform="rotate(-45.0, 0.2465, 0.3897)">row 9</text><text x="0.3577" y="0.3897" transform="rotate(-45.0, 0.3577, 0.3897)">row 10</text></g></g></g></g><g class="legend"><g class="padding"></g><g class="padding"></g><g class="frame"><g stroke-width="0.0010" stroke="rgb(5%, 5%, 5%)" stroke-opacity="1.0" fill="rgb(5%, 5%, 5%)" fill-opacity="0"><rect width="0.2788" height="0.1878" x="0.4674" y="-0.1357"/></g></g><g class="legendContent"><g stroke-width="0.0" stroke="none" fill="rgb(5%, 5%, 5%)" fill-opacity="1.0" font-size="0.0317" text-anchor="start"><text x="0.4864" y="0.0083">column 2</text></g><g stroke-width="0.0010" stroke="rgb(66%, 7%, 55%)" stroke-opacity="1.0" fill="rgb(66%, 7%, 55%)" fill-opacity="0.7"><rect width="0.0569" height="0.0619" x="0.6699" y="-0.0310"/></g><g stroke-width="0.0" stroke="none" fill="rgb(5%, 5%, 5%)" fill-opacity="1.0" font-size="0.0317" text-anchor="start"><text x="0.4864" y="-0.0753">column 1</text></g><g stroke-width="0.0010" stroke="rgb(2%, 29%, 48%)" stroke-opacity="1.0" fill="rgb(2%, 29%, 48%)" fill-opacity="0.7"><rect width="0.0569" height="0.0619" x="0.6699" y="-0.1145"/></g></g></g></g></svg>