<svg xmlns="http://www.w3.org/2000/svg" xmlns:xlink="http://www.w3.org/1999/xlink" width="450" height="300" viewBox="-0.75 -0.5 1.5 1.0"><style>svg {
  color-scheme: light dark;
}
{
  .canvas g, .title g, .axisbar g, .ticktext g, .tickglyph g, .ticklines g, .legendContent g text {
    fill: rgb(5%, 5%, 5%);
  }
  .ticklines g, .tickglyph g, .legendBorder g {
    stroke: rgb(5%, 5%, 5%);
  }
  .legendBorder g {
    fill: rgb(94%, 94%, 94%);
  }
}
@media (prefers-color-scheme:dark) {
  .canvas g, .title g, .axisbar g, .ticktext g, .tickglyph g, .ticklines g, .legendContent g text {
    fill: rgb(94%, 94%, 94%);
  }
  .ticklines g, .tickglyph g, .legendBorder g {
    stroke: rgb(94%, 94%, 94%);
  }
  .legendBorder g {
    fill: rgb(5%, 5%, 5%);
  }
}</style><g class="chart"><g class="barchart"><g stroke-width="0.0005" stroke="rgb(2%, 29%, 48%)" stroke-opacity="1.0" fill="rgb(2%, 29%, 48%)" fill-opacity="0.7"><rect width="0.0638" height="0.0706" x="-0.7355" y="0.2408"/><rect width="0.0638" height="0.1412" x="-0.5937" y="0.1702"/><rect width="0.0638" height="0.2118" x="-0.4519" y="0.0996"/><rect width="0.0638" height="0.3530" x="-0.3101" y="-0.0416"/><rect width="0.0638" height="0.5649" x="-0.1682" y="-0.2534"/><rect width="0.0638" height="0" x="-0.0264" y="0.3114"/><rect width="0.0638" height="0.1412" x="0.1154" y="0.3114"/><rect width="0.0638" height="0.7767" x="0.2573" y="-0.4653"/><rect width="0.0638" height="0.1412" x="0.3991" y="0.1702"/><rect width="0.0638" height="0.0706" x="0.5409" y="0.2408"/></g><g stroke-width="0.0005" stroke="rgb(66%, 7%, 55%)" stroke-opacity="1.0" fill="rgb(66%, 7%, 55%)" fill-opacity="0.7"><rect width="0.0638" height="0.0706" x="-0.6717" y="0.2408"/><rect width="0.0638" height="0.1412" x="-0.5299" y="0.1702"/><rect width="0.0638" height="0.2118" x="-0.3881" y="0.0996"/><rect width="0.0638" height="0.2824" x="-0.2462" y="0.0290"/><rect width="0.0638" height="0.3530" x="-0.1044" y="-0.0416"/><rect width="0.0638" height="0.4237" x="0.0374" y="-0.1122"/><rect width="0.0638" height="0.4943" x="0.1792" y="-0.1828"/><rect width="0.0638" height="0.5649" x="0.3211" y="-0.2534"/><rect width="0.0638" height="0.6355" x="0.4629" y="-0.3240"/><rect width="0.0638" height="0.7061" x="0.6047" y="-0.3946"/></g><g stroke-width="0.0" stroke="none" fill="rgb(2%, 29%, 48%)" fill-opacity="1.0" font-size="0.0240" text-anchor="middle"><text x="-0.7036" y="0.2253">1.0</text><text x="-0.5618" y="0.1547">2.0</text><text x="-0.4200" y="0.0841">3.0</text><text x="-0.2781" y="-0.0571">5.0</text><text x="-0.1363" y="-0.2690">8.0</text><text x="0.0055" y="0.2959">0.0</text><text x="0.1473" y="0.4837">-2.0</text><text x="0.2892" y="-0.4808">11</text><text x="0.4310" y="0.1547">2.0</text><text x="0.5728" y="0.2253">1.0</text></g><g stroke-width="0.0" stroke="none" fill="rgb(66%, 7%, 55%)" fill-opacity="1.0" font-size="0.0240" text-anchor="middle"><text x="-0.6398" y="0.2253">1.0</text><text x="-0.4980" y="0.1547">2.0</text><text x="-0.3561" y="0.0841">3.0</text><text x="-0.2143" y="0.0135">4.0</text><text x="-0.0725" y="-0.0571">5.0</text><text x="0.0693" y="-0.1277">6.0</text><text x="0.2112" y="-0.1984">7.0</text><text x="0.3530" y="-0.2690">8.0</text><text x="0.4948" y="-0.3396">9.0</text><text x="0.6366" y="-0.4102">10</text></g></g></g><g class="hud"><g class="axis"><g class="ticks"><g class="tickglyph"><g stroke-width="0.0004" stroke="rgb(5%, 5%, 5%)" stroke-opacity="0.4" fill="rgb(5%, 5%, 5%)" fill-opacity="0.4"><polyline points="-0.6717,0.4924
-0.6717,0.4894"/><polyline points="-0.5299,0.4924
-0.5299,0.4894"/><polyline points="-0.3881,0.4924
-0.3881,0.4894"/><polyline points="-0.2462,0.4924
-0.2462,0.4894"/><polyline points="-0.1044,0.4924
-0.1044,0.4894"/><polyline points="0.0374,0.4924
0.0374,0.4894"/><polyline points="0.1792,0.4924
0.1792,0.4894"/><polyline points="0.3211,0.4924
0.3211,0.4894"/><polyline points="0.4629,0.4924
0.4629,0.4894"/><polyline points="0.6047,0.4924
0.6047,0.4894"/></g></g><g class="ticktext"><g stroke-width="0.0" stroke="none" fill="rgb(5%, 5%, 5%)" fill-opacity="1.0" font-size="0.0050" text-anchor="middle"><text x="-0.6717" y="0.4954">row 1</text><text x="-0.5299" y="0.4954">row 2</text><text x="-0.3881" y="0.4954">row 3</text><text x="-0.2462" y="0.4954">row 4</text><text x="-0.1044" y="0.4954">row 5</text><text x="0.0374" y="0.4954">row 6</text><text x="0.1792" y="0.4954">row 7</text><text x="0.3211" y="0.4954">row 8</text><text x="0.4629" y="0.4954">row 9</text><text x="0.6047" y="0.4954">row 10</text></g></g></g><g class="axisbar"><g stroke-width="0" stroke="rgb(0%, 0%, 0%)" stroke-opacity="0" fill="rgb(5%, 5%, 5%)" fill-opacity="0.4"><rect width="1.4188" height="0.0003" x="-0.7429" y="0.4895"/></g></g></g><g class="legend"><g class="legendBorder"><g stroke-width="0.0003" stroke="rgb(5%, 5%, 5%)" stroke-opacity="1.0" fill="rgb(5%, 5%, 5%)" fill-opacity="0"><rect width="0.0556" height="0.0161" x="0.6866" y="-0.0105"/></g></g><g class="legendContent"><g stroke-width="0.0" stroke="none" fill="rgb(5%, 5%, 5%)" fill-opacity="1.0" font-size="0.0045" text-anchor="start"><g stroke-width="0.0000" stroke="rgb(2%, 29%, 48%)" stroke-opacity="1.0" fill="rgb(2%, 73%, 80%)" fill-opacity="0.1"><rect width="0.0216" height="0.0050" x="0.6901" y="-0.0017"/></g><text x="0.6901" y="0.0019">column 2</text></g><g stroke-width="0.0001" stroke="rgb(66%, 7%, 55%)" stroke-opacity="1.0" fill="rgb(66%, 7%, 55%)" fill-opacity="0.7"><rect width="0.0106" height="0.0053" x="0.7279" y="-0.0016"/></g><g stroke-width="0.0" stroke="none" fill="rgb(5%, 5%, 5%)" fill-opacity="1.0" font-size="0.0045" text-anchor="start"><g stroke-width="0.0000" stroke="rgb(2%, 29%, 48%)" stroke-opacity="1.0" fill="rgb(2%, 73%, 80%)" fill-opacity="0.1"><rect width="0.0216" height="0.0050" x="0.6901" y="-0.0089"/></g><text x="0.6901" y="-0.0053">column 1</text></g><g stroke-width="0.0001" stroke="rgb(2%, 29%, 48%)" stroke-opacity="1.0" fill="rgb(2%, 29%, 48%)" fill-opacity="0.7"><rect width="0.0106" height="0.0053" x="0.7279" y="-0.0087"/></g></g></g><g class="frame"><g stroke-width="0" stroke="rgb(0%, 0%, 0%)" stroke-opacity="0" fill="rgb(100%, 100%, 100%)" fill-opacity="0.02"><rect width="1.5" height="0.9979" x="-0.75" y="-0.4979"/></g></g></g></svg>