<svg xmlns="http://www.w3.org/2000/svg" xmlns:xlink="http://www.w3.org/1999/xlink" width="450" height="300" viewBox="-0.75 -0.5 1.5 1.0"><style>svg {
  color-scheme: light dark;
}
{
  .canvas g, .title g, .axisbar g, .ticktext g, .tickglyph g, .ticklines g, .legendContent g text {
    fill: rgb(5%, 5%, 5%);
  }
  .ticklines g, .tickglyph g, .legendBorder g {
    stroke: rgb(5%, 5%, 5%);
  }
  .legendBorder g {
    fill: rgb(94%, 94%, 94%);
  }
}
@media (prefers-color-scheme:dark) {
  .canvas g, .title g, .axisbar g, .ticktext g, .tickglyph g, .ticklines g, .legendContent g text {
    fill: rgb(94%, 94%, 94%);
  }
  .ticklines g, .tickglyph g, .legendBorder g {
    stroke: rgb(94%, 94%, 94%);
  }
  .legendBorder g {
    fill: rgb(5%, 5%, 5%);
  }
}
svg { font-family: system-ui,-apple-system,"Segoe UI",Roboto,"Helvetica Neue",Arial,"Noto Sans","Liberation Sans",sans-serif,"Apple Color Emoji","Segoe UI Emoji","Segoe UI Symbol","Noto Color Emoji";
}

ticktext { font-family: SFMono-Regular,Menlo,Monaco,Consolas,"Liberation Mono","Courier New",monospace;
}

</style><g class="chart"><g class="barchart"><g stroke-width="0.0050" stroke="rgb(2%, 29%, 48%)" stroke-opacity="1.0" fill="rgb(2%, 29%, 48%)" fill-opacity="0.7"><rect width="0.0504" height="0.0548" x="-0.7100" y="0.1077"/><rect width="0.0504" height="0.1095" x="-0.5979" y="0.0529"/><rect width="0.0504" height="0.1643" x="-0.4858" y="-0.0019"/><rect width="0.0504" height="0.2739" x="-0.3737" y="-0.1114"/><rect width="0.0504" height="0.4382" x="-0.2616" y="-0.2757"/><rect width="0.0504" height="0" x="-0.1495" y="0.1625"/><rect width="0.0504" height="0.1095" x="-0.0374" y="0.1625"/><rect width="0.0504" height="0.6025" x="0.0747" y="-0.4401"/><rect width="0.0504" height="0.1095" x="0.1868" y="0.0529"/><rect width="0.0504" height="0.0548" x="0.2989" y="0.1077"/></g><g stroke-width="0.0050" stroke="rgb(66%, 7%, 55%)" stroke-opacity="1.0" fill="rgb(66%, 7%, 55%)" fill-opacity="0.7"><rect width="0.0504" height="0.0548" x="-0.6596" y="0.1077"/><rect width="0.0504" height="0.1095" x="-0.5475" y="0.0529"/><rect width="0.0504" height="0.1643" x="-0.4354" y="-0.0019"/><rect width="0.0504" height="0.2191" x="-0.3233" y="-0.0566"/><rect width="0.0504" height="0.2739" x="-0.2112" y="-0.1114"/><rect width="0.0504" height="0.3286" x="-0.0991" y="-0.1662"/><rect width="0.0504" height="0.3834" x="0.0130" y="-0.2210"/><rect width="0.0504" height="0.4382" x="0.1251" y="-0.2757"/><rect width="0.0504" height="0.4930" x="0.2372" y="-0.3305"/><rect width="0.0504" height="0.5477" x="0.3493" y="-0.3853"/></g><g stroke-width="0.0" stroke="none" fill="rgb(2%, 29%, 48%)" fill-opacity="1.0" font-size="0.0267" text-anchor="middle"><text x="-0.6845" y="0.0865">1.0</text><text x="-0.5725" y="0.0316">2.0</text><text x="-0.4605" y="-0.0232">3.0</text><text x="-0.3485" y="-0.1329">5.0</text><text x="-0.2365" y="-0.2975">8.0</text><text x="-0.1245" y="0.1414">0.0</text><text x="-0.0125" y="0.3081">-2.0</text><text x="0.0995" y="-0.4621">11</text><text x="0.2116" y="0.0316">2.0</text><text x="0.3236" y="0.0865">1.0</text></g><g stroke-width="0.0" stroke="none" fill="rgb(66%, 7%, 55%)" fill-opacity="1.0" font-size="0.0267" text-anchor="middle"><text x="-0.6341" y="0.0865">1.0</text><text x="-0.5221" y="0.0316">2.0</text><text x="-0.4101" y="-0.0232">3.0</text><text x="-0.2981" y="-0.0781">4.0</text><text x="-0.1861" y="-0.1329">5.0</text><text x="-0.0741" y="-0.1878">6.0</text><text x="0.0379" y="-0.2426">7.0</text><text x="0.1500" y="-0.2975">8.0</text><text x="0.2620" y="-0.3524">9.0</text><text x="0.3740" y="-0.4072">10</text></g></g></g><g class="hud"><g class="axis"><g class="axisbar"><g stroke-width="0" stroke="rgb(0%, 0%, 0%)" stroke-opacity="0" fill="rgb(5%, 5%, 5%)" fill-opacity="0.4"><rect width="1.1137" height="0.0032" x="-0.7121" y="0.3243"/></g></g><g class="ticks"><g class="tickglyph"><g stroke-width="0.0040" stroke="rgb(5%, 5%, 5%)" stroke-opacity="0.4" fill="rgb(5%, 5%, 5%)" fill-opacity="0.4"><polyline points="-0.6542,0.3535
-0.6542,0.3235"/><polyline points="-0.5433,0.3535
-0.5433,0.3235"/><polyline points="-0.4324,0.3535
-0.4324,0.3235"/><polyline points="-0.3215,0.3535
-0.3215,0.3235"/><polyline points="-0.2105,0.3535
-0.2105,0.3235"/><polyline points="-0.0996,0.3535
-0.0996,0.3235"/><polyline points="0.0113,0.3535
0.0113,0.3235"/><polyline points="0.1222,0.3535
0.1222,0.3235"/><polyline points="0.2332,0.3535
0.2332,0.3235"/><polyline points="0.3441,0.3535
0.3441,0.3235"/></g></g><g class="ticktext"><g stroke-width="0.0" stroke="none" fill="rgb(5%, 5%, 5%)" fill-opacity="1.0" font-size="0.0400" text-anchor="end"><text x="-0.6279" y="0.3743" transform="rotate(-45.0, -0.6279, 0.3743)">row 1</text><text x="-0.5192" y="0.3743" transform="rotate(-45.0, -0.5192, 0.3743)">row 2</text><text x="-0.4105" y="0.3743" transform="rotate(-45.0, -0.4105, 0.3743)">row 3</text><text x="-0.3017" y="0.3743" transform="rotate(-45.0, -0.3017, 0.3743)">row 4</text><text x="-0.1930" y="0.3743" transform="rotate(-45.0, -0.1930, 0.3743)">row 5</text><text x="-0.0842" y="0.3743" transform="rotate(-45.0, -0.0842, 0.3743)">row 6</text><text x="0.0245" y="0.3743" transform="rotate(-45.0, 0.0245, 0.3743)">row 7</text><text x="0.1333" y="0.3743" transform="rotate(-45.0, 0.1333, 0.3743)">row 8</text><text x="0.2420" y="0.3743" transform="rotate(-45.0, 0.2420, 0.3743)">row 9</text><text x="0.3508" y="0.3743" transform="rotate(-45.0, 0.3508, 0.3743)">row 10</text></g></g></g></g><g class="legend"><g class="padding"></g><g class="padding"></g><g class="frame"><g stroke-width="0.0009" stroke="rgb(5%, 5%, 5%)" stroke-opacity="1.0" fill="rgb(5%, 5%, 5%)" fill-opacity="0"><rect width="0.2736" height="0.1806" x="0.4578" y="-0.1305"/></g></g><g class="legendContent"><g stroke-width="0.0" stroke="none" fill="rgb(5%, 5%, 5%)" fill-opacity="1.0" font-size="0.0298" text-anchor="start"><text x="0.4764" y="0.0079">column 2</text></g><g stroke-width="0.0009" stroke="rgb(66%, 7%, 55%)" stroke-opacity="1.0" fill="rgb(66%, 7%, 55%)" fill-opacity="0.7"><rect width="0.0558" height="0.0595" x="0.6565" y="-0.0298"/></g><g stroke-width="0.0" stroke="none" fill="rgb(5%, 5%, 5%)" fill-opacity="1.0" font-size="0.0298" text-anchor="start"><text x="0.4764" y="-0.0724">column 1</text></g><g stroke-width="0.0009" stroke="rgb(2%, 29%, 48%)" stroke-opacity="1.0" fill="rgb(2%, 29%, 48%)" fill-opacity="0.7"><rect width="0.0558" height="0.0595" x="0.6565" y="-0.1101"/></g></g></g><g class="frame"><g stroke-width="0" stroke="rgb(0%, 0%, 0%)" stroke-opacity="0" fill="rgb(100%, 100%, 100%)" fill-opacity="0.02"><rect width="1.5" height="1.0" x="-0.75" y="-0.5"/></g></g></g></svg>