<svg xmlns="http://www.w3.org/2000/svg" xmlns:xlink="http://www.w3.org/1999/xlink" width="450" height="300" viewBox="-0.75 -0.5 1.5 1.0"><style>svg {
  color-scheme: light dark;
}
{
  .canvas g, .title g, .axisbar g, .ticktext g, .tickglyph g, .ticklines g, .legendContent g text {
    fill: rgb(5%, 5%, 5%);
  }
  .ticklines g, .tickglyph g, .legendBorder g {
    stroke: rgb(5%, 5%, 5%);
  }
  .legendBorder g {
    fill: rgb(94%, 94%, 94%);
  }
}
@media (prefers-color-scheme:dark) {
  .canvas g, .title g, .axisbar g, .ticktext g, .tickglyph g, .ticklines g, .legendContent g text {
    fill: rgb(94%, 94%, 94%);
  }
  .ticklines g, .tickglyph g, .legendBorder g {
    stroke: rgb(94%, 94%, 94%);
  }
  .legendBorder g {
    fill: rgb(5%, 5%, 5%);
  }
}</style><g class="chart"><g class="cubic"><g stroke-width="0.0051" stroke="rgb(0%, 0%, 0%)" stroke-opacity="0" fill="rgb(96%, 60%, 92%)" fill-opacity="0.2"><path d="M -0.2697,0.4915 C 0.0265,0.4915 -0.2697,-0.3957 0.0265,-0.3957"/></g><g stroke-width="0.0010" stroke="rgb(53%, 51%, 28%)" stroke-opacity="1.0" fill="none"><polyline points="-0.2697,0.4915 -0.2610,0.4913 -0.2527,0.4905 -0.2446,0.4892 -0.2369,0.4874 -0.2296,0.4851 -0.2225,0.4823 -0.2158,0.4791 -0.2094,0.4754 -0.2033,0.4713 -0.1974,0.4667 -0.1919,0.4617 -0.1866,0.4563 -0.1816,0.4504 -0.1769,0.4442 -0.1724,0.4376 -0.1682,0.4307 -0.1642,0.4233 -0.1604,0.4156 -0.1569,0.4076 -0.1536,0.3993 -0.1505,0.3906 -0.1476,0.3816 -0.1449,0.3723 -0.1424,0.3627 -0.1401,0.3529 -0.1380,0.3428 -0.1360,0.3324 -0.1342,0.3218 -0.1326,0.3110 -0.1311,0.2999 -0.1297,0.2886 -0.1285,0.2771 -0.1274,0.2654 -0.1265,0.2536 -0.1256,0.2415 -0.1249,0.2294 -0.1242,0.2170 -0.1237,0.2045 -0.1232,0.1919 -0.1228,0.1792 -0.1225,0.1664 -0.1222,0.1535 -0.1220,0.1405 -0.1219,0.1274 -0.1218,0.1142 -0.1217,0.1010 -0.1216,0.0878 -0.1216,0.0745 -0.1216,0.0612 -0.1216,0.0479 -0.1216,0.0346 -0.1216,0.0213 -0.1216,0.0080 -0.1215,-0.0052 -0.1215,-0.0184 -0.1214,-0.0316 -0.1212,-0.0447 -0.1210,-0.0577 -0.1207,-0.0706 -0.1204,-0.0834 -0.1200,-0.0961 -0.1196,-0.1087 -0.1190,-0.1212 -0.1184,-0.1336 -0.1176,-0.1457 -0.1168,-0.1578 -0.1158,-0.1696 -0.1147,-0.1813 -0.1135,-0.1928 -0.1121,-0.2041 -0.1106,-0.2152 -0.1090,-0.2260 -0.1072,-0.2366 -0.1052,-0.2470 -0.1031,-0.2571 -0.1008,-0.2669 -0.0983,-0.2765 -0.0956,-0.2858 -0.0927,-0.2948 -0.0896,-0.3035 -0.0863,-0.3118 -0.0828,-0.3198 -0.0790,-0.3275 -0.0750,-0.3349 -0.0708,-0.3418 -0.0663,-0.3484 -0.0616,-0.3547 -0.0566,-0.3605 -0.0513,-0.3659 -0.0458,-0.3709 -0.0399,-0.3755 -0.0338,-0.3796 -0.0274,-0.3833 -0.0207,-0.3865 -0.0136,-0.3893 -0.0063,-0.3916 0.0014,-0.3934 0.0094,-0.3947 0.0178,-0.3955 0.0265,-0.3957"/></g><g stroke-width="0.0015" stroke="rgb(2%, 29%, 48%)" stroke-opacity="1.0" fill="rgb(2%, 73%, 80%)" fill-opacity="0.2"><circle cx="-0.2697" cy="0.4915" r="0.0077"/><circle cx="0.0265" cy="-0.3957" r="0.0077"/></g><g stroke-width="0.0015" stroke="rgb(2%, 29%, 48%)" stroke-opacity="1.0" fill="rgb(2%, 73%, 80%)" fill-opacity="0.2"><circle cx="0.0265" cy="0.4915" r="0.0077"/><circle cx="-0.2697" cy="-0.3957" r="0.0077"/></g><g stroke-width="0.0010" stroke="rgb(40%, 40%, 40%)" stroke-opacity="1.0" fill="rgb(2%, 73%, 80%)" fill-opacity="0.05"><rect width="0.2962" height="0.8873" x="-0.2697" y="-0.3957"/></g></g></g><g class="hud"><g class="legend"><g class="legendBorder"><g stroke-width="0.0013" stroke="rgb(5%, 5%, 5%)" stroke-opacity="1.0" fill="rgb(5%, 5%, 5%)" fill-opacity="0"><rect width="0.2195" height="0.4044" x="0.0536" y="-0.3100"/></g></g><g class="legendContent"><g stroke-width="0.0" stroke="none" fill="rgb(5%, 5%, 5%)" fill-opacity="1.0" font-size="0.0256" text-anchor="start"><text x="0.0610" y="0.0590">Bounding Box</text></g><g stroke-width="0.0013" stroke="rgb(40%, 40%, 40%)" stroke-opacity="1.0" fill="rgb(2%, 73%, 80%)" fill-opacity="0.05"><rect width="0.0148" height="0.0444" x="0.2358" y="0.0257"/></g><g stroke-width="0.0" stroke="none" fill="rgb(5%, 5%, 5%)" fill-opacity="1.0" font-size="0.0256" text-anchor="start"><text x="0.0610" y="-0.0120">Path Control Point</text></g><g stroke-width="0.0004" stroke="rgb(2%, 29%, 48%)" stroke-opacity="1.0" fill="rgb(2%, 73%, 80%)" fill-opacity="0.2"><circle cx="0.2432" cy="-0.0231" r="0.0128"/></g><g stroke-width="0.0" stroke="none" fill="rgb(5%, 5%, 5%)" fill-opacity="1.0" font-size="0.0256" text-anchor="start"><text x="0.0610" y="-0.0830">Path Endpoints</text></g><g stroke-width="0.0004" stroke="rgb(2%, 29%, 48%)" stroke-opacity="1.0" fill="rgb(2%, 73%, 80%)" fill-opacity="0.2"><circle cx="0.2432" cy="-0.0941" r="0.0128"/></g><g stroke-width="0.0" stroke="none" fill="rgb(5%, 5%, 5%)" fill-opacity="1.0" font-size="0.0256" text-anchor="start"><text x="0.0610" y="-0.1540">Path Chord</text></g><g stroke-width="0.0010" stroke="rgb(53%, 51%, 28%)" stroke-opacity="1.0" fill="none"><polyline points="0.2358,-0.1650 0.2654,-0.1650"/></g><g stroke-width="0.0" stroke="none" fill="rgb(5%, 5%, 5%)" fill-opacity="1.0" font-size="0.0256" text-anchor="start"><text x="0.0610" y="-0.2249">Path Fill</text></g><g stroke-width="0.0256" stroke="rgb(0%, 0%, 0%)" stroke-opacity="0" fill="rgb(96%, 60%, 92%)" fill-opacity="0.2"><path d="M 0.2358,-0.2212 Q 0.2654,-0.1769 0.2506,-0.2656"/></g></g></g><g class="title"><g stroke-width="0.0" stroke="none" fill="rgb(5%, 5%, 5%)" fill-opacity="1.0" font-size="0.0410" text-anchor="middle"><text x="0" y="-0.4672">CubicPosition (Point 0 0) (Point 1 1) (Point 1 0) (Point 0 1)</text></g></g></g></svg>