<svg xmlns="http://www.w3.org/2000/svg" xmlns:xlink="http://www.w3.org/1999/xlink" width="450" height="300" viewBox="-0.75 -0.5 1.5 1.0"><style>svg {
  color-scheme: light dark;
}
{
  .canvas g, .title g, .axisbar g, .ticktext g, .tickglyph g, .ticklines g, .legendContent g text {
    fill: rgb(5%, 5%, 5%);
  }
  .ticklines g, .tickglyph g, .legendBorder g {
    stroke: rgb(5%, 5%, 5%);
  }
  .legendBorder g {
    fill: rgb(94%, 94%, 94%);
  }
}
@media (prefers-color-scheme:dark) {
  .canvas g, .title g, .axisbar g, .ticktext g, .tickglyph g, .ticklines g, .legendContent g text {
    fill: rgb(94%, 94%, 94%);
  }
  .ticklines g, .tickglyph g, .legendBorder g {
    stroke: rgb(94%, 94%, 94%);
  }
  .legendBorder g {
    fill: rgb(5%, 5%, 5%);
  }
}
svg { font-family: system-ui,-apple-system,"Segoe UI",Roboto,"Helvetica Neue",Arial,"Noto Sans","Liberation Sans",sans-serif,"Apple Color Emoji","Segoe UI Emoji","Segoe UI Symbol","Noto Color Emoji";
}

ticktext { font-family: SFMono-Regular,Menlo,Monaco,Consolas,"Liberation Mono","Courier New",monospace;
}

</style><g class="chart"><g class="cubic"><g stroke-width="0.0100" stroke="rgb(0%, 0%, 0%)" stroke-opacity="0" fill="rgb(96%, 60%, 92%)" fill-opacity="0.2"><path d="M -0.7343,0.4846 C 0.1947,0.4846 -0.7343,-0.4166 0.1947,-0.4166"/></g><g stroke-width="0.0020" stroke="rgb(53%, 51%, 28%)" stroke-opacity="1.0" fill="none"><polyline points="-0.7346,0.4850 -0.7073,0.4847 -0.6811,0.4840 -0.6560,0.4826 -0.6319,0.4808 -0.6088,0.4785 -0.5867,0.4757 -0.5656,0.4724 -0.5455,0.4686 -0.5263,0.4644 -0.5080,0.4598 -0.4907,0.4547 -0.4741,0.4492 -0.4585,0.4433 -0.4436,0.4369 -0.4296,0.4302 -0.4163,0.4231 -0.4038,0.4157 -0.3920,0.4079 -0.3810,0.3997 -0.3706,0.3912 -0.3609,0.3824 -0.3519,0.3733 -0.3434,0.3638 -0.3356,0.3541 -0.3284,0.3441 -0.3217,0.3338 -0.3155,0.3233 -0.3099,0.3125 -0.3047,0.3014 -0.3000,0.2902 -0.2958,0.2787 -0.2920,0.2670 -0.2886,0.2552 -0.2855,0.2431 -0.2829,0.2309 -0.2805,0.2185 -0.2785,0.2059 -0.2767,0.1933 -0.2753,0.1804 -0.2740,0.1675 -0.2730,0.1545 -0.2722,0.1413 -0.2716,0.1281 -0.2711,0.1148 -0.2708,0.1014 -0.2706,0.0880 -0.2704,0.0746 -0.2704,0.0611 -0.2703,0.0475 -0.2703,0.0340 -0.2703,0.0205 -0.2703,0.0070 -0.2702,-0.0065 -0.2701,-0.0200 -0.2699,-0.0334 -0.2695,-0.0468 -0.2691,-0.0601 -0.2684,-0.0733 -0.2676,-0.0864 -0.2666,-0.0995 -0.2654,-0.1124 -0.2639,-0.1252 -0.2622,-0.1379 -0.2601,-0.1505 -0.2578,-0.1629 -0.2551,-0.1751 -0.2521,-0.1871 -0.2487,-0.1990 -0.2449,-0.2107 -0.2406,-0.2222 -0.2359,-0.2334 -0.2308,-0.2444 -0.2251,-0.2552 -0.2190,-0.2658 -0.2123,-0.2761 -0.2050,-0.2861 -0.1972,-0.2958 -0.1888,-0.3052 -0.1797,-0.3144 -0.1700,-0.3232 -0.1597,-0.3317 -0.1486,-0.3398 -0.1369,-0.3477 -0.1243,-0.3551 -0.1111,-0.3622 -0.0970,-0.3689 -0.0822,-0.3752 -0.0665,-0.3811 -0.0500,-0.3867 -0.0326,-0.3917 -0.0143,-0.3964 0.0048,-0.4006 0.0250,-0.4044 0.0461,-0.4076 0.0681,-0.4105 0.0912,-0.4128 0.1153,-0.4146 0.1404,-0.4159 0.1666,-0.4167 0.1939,-0.4170"/></g><g stroke-width="0.0030" stroke="rgb(2%, 29%, 48%)" stroke-opacity="1.0" fill="rgb(2%, 73%, 80%)" fill-opacity="0.2"><rect width="0.0300" height="0.0300" x="-0.7485" y="0.4685"/><rect width="0.0300" height="0.0300" x="0.1819" y="-0.4306"/></g><g stroke-width="0.0030" stroke="rgb(2%, 29%, 48%)" stroke-opacity="1.0" fill="rgb(2%, 73%, 80%)" fill-opacity="0.2"><circle cx="0.1969" cy="0.4835" r="0.0150"/><circle cx="-0.7335" cy="-0.4156" r="0.0150"/></g><g stroke-width="0.0020" stroke="rgb(40%, 40%, 40%)" stroke-opacity="1.0" fill="rgb(2%, 73%, 80%)" fill-opacity="0.05"><rect width="0.9286" height="0.9020" x="-0.7346" y="-0.4170"/></g></g></g><g class="hud"><g class="legend"><g class="padding"></g><g class="padding"></g><g class="frame"><g stroke-width="0.0010" stroke="rgb(5%, 5%, 5%)" stroke-opacity="1.0" fill="rgb(5%, 5%, 5%)" fill-opacity="0"><rect width="0.4898" height="0.4248" x="0.2570" y="-0.3419"/></g></g><g class="legendContent"><g stroke-width="0.0" stroke="none" fill="rgb(5%, 5%, 5%)" fill-opacity="1.0" font-size="0.0386" text-anchor="start"><text x="0.2730" y="0.0457">Bounding Box</text></g><g stroke-width="0.0019" stroke="rgb(40%, 40%, 40%)" stroke-opacity="1.0" fill="rgb(2%, 73%, 80%)" fill-opacity="0.05"><rect width="0.0320" height="0.0466" x="0.6662" y="0.0107"/></g><g stroke-width="0.0" stroke="none" fill="rgb(5%, 5%, 5%)" fill-opacity="1.0" font-size="0.0386" text-anchor="start"><text x="0.2730" y="-0.0289">Path Control Point</text></g><g stroke-width="0.0006" stroke="rgb(2%, 29%, 48%)" stroke-opacity="1.0" fill="rgb(2%, 73%, 80%)" fill-opacity="0.2"><circle cx="0.6822" cy="-0.0405" r="0.0193"/></g><g stroke-width="0.0" stroke="none" fill="rgb(5%, 5%, 5%)" fill-opacity="1.0" font-size="0.0386" text-anchor="start"><text x="0.2730" y="-0.1034">Path Endpoints</text></g><g stroke-width="0.0006" stroke="rgb(2%, 29%, 48%)" stroke-opacity="1.0" fill="rgb(2%, 73%, 80%)" fill-opacity="0.2"><circle cx="0.6822" cy="-0.1151" r="0.0193"/></g><g stroke-width="0.0" stroke="none" fill="rgb(5%, 5%, 5%)" fill-opacity="1.0" font-size="0.0386" text-anchor="start"><text x="0.2730" y="-0.1780">Path Chord</text></g><g stroke-width="0.0015" stroke="rgb(53%, 51%, 28%)" stroke-opacity="1.0" fill="none"><polyline points="0.6662,-0.1897 0.7302,-0.1897"/></g><g stroke-width="0.0" stroke="none" fill="rgb(5%, 5%, 5%)" fill-opacity="1.0" font-size="0.0386" text-anchor="start"><text x="0.2730" y="-0.2526">Path Fill</text></g><g stroke-width="0.0386" stroke="rgb(0%, 0%, 0%)" stroke-opacity="0" fill="rgb(96%, 60%, 92%)" fill-opacity="0.2"><path d="M 0.6662,-0.2487 Q 0.7302,-0.2021 0.6982,-0.2953"/></g></g></g><g class="title"><g stroke-width="0.0" stroke="none" fill="rgb(5%, 5%, 5%)" fill-opacity="1.0" font-size="0.0300" text-anchor="middle"><text x="0" y="-0.476">CubicPosition (Point 0 0) (Point 1 1) (Point 1 0) (Point 0 1)</text></g></g></g></svg>