<svg xmlns="http://www.w3.org/2000/svg" xmlns:xlink="http://www.w3.org/1999/xlink" width="450" height="300" viewBox="-0.75 -0.5 1.5 1.0"><style>svg {
  color-scheme: light dark;
}
{
  .canvas g, .title g, .axisbar g, .ticktext g, .tickglyph g, .ticklines g, .legendContent g text {
    fill: rgb(5%, 5%, 5%);
  }
  .ticklines g, .tickglyph g, .legendBorder g {
    stroke: rgb(5%, 5%, 5%);
  }
  .legendBorder g {
    fill: rgb(94%, 94%, 94%);
  }
}
@media (prefers-color-scheme:dark) {
  .canvas g, .title g, .axisbar g, .ticktext g, .tickglyph g, .ticklines g, .legendContent g text {
    fill: rgb(94%, 94%, 94%);
  }
  .ticklines g, .tickglyph g, .legendBorder g {
    stroke: rgb(94%, 94%, 94%);
  }
  .legendBorder g {
    fill: rgb(5%, 5%, 5%);
  }
}</style><g class="chart"></g><g class="hud"><g class="axis"><g class="ticks"><g class="tickglyph"><g stroke-width="0.0039" stroke="rgb(5%, 5%, 5%)" stroke-opacity="0.4" fill="rgb(5%, 5%, 5%)" fill-opacity="0.4"><polyline points="-0.5197,0.3309
-0.5197,0.3014"/><polyline points="-0.1951,0.3309
-0.1951,0.3014"/><polyline points="0.2073,0.3309
0.2073,0.3014"/><polyline points="0.5708,0.3309
0.5708,0.3014"/><polyline points="0.7396,0.3309
0.7396,0.3014"/></g></g><g class="ticktext"><g stroke-width="0.0" stroke="none" fill="rgb(5%, 5%, 5%)" fill-opacity="1.0" font-size="0.0491" text-anchor="end"><text x="-0.5197" y="0.3647" transform="rotate(-45.0, -0.5197, 0.3647)">06 Dec</text><text x="-0.1951" y="0.3647" transform="rotate(-45.0, -0.1951, 0.3647)">31 Dec</text><text x="0.2073" y="0.3647" transform="rotate(-45.0, 0.2073, 0.3647)">31 Jan</text><text x="0.5708" y="0.3647" transform="rotate(-45.0, 0.5708, 0.3647)">28 Feb</text><text x="0.7396" y="0.3647" transform="rotate(-45.0, 0.7396, 0.3647)">13 Mar</text></g></g><g class="ticklines"><g stroke-width="0.0049" stroke="rgb(5%, 5%, 5%)" stroke-opacity="0.05" fill="none"><polyline points="-0.5197,0.2932 -0.5197,-0.4713"/><polyline points="-0.1951,0.2932 -0.1951,-0.4713"/><polyline points="0.2073,0.2932 0.2073,-0.4713"/><polyline points="0.5708,0.2932 0.5708,-0.4713"/><polyline points="0.7396,0.2932 0.7396,-0.4713"/></g></g></g><g class="axisbar"><g stroke-width="0" stroke="rgb(0%, 0%, 0%)" stroke-opacity="0" fill="rgb(5%, 5%, 5%)" fill-opacity="0.4"><rect width="1.2643" height="0.0031" x="-0.5222" y="0.3009"/></g></g></g><g class="axis"><g class="ticks"><g class="tickglyph"><g stroke-width="0.0039" stroke="rgb(5%, 5%, 5%)" stroke-opacity="0.4" fill="rgb(5%, 5%, 5%)" fill-opacity="0.4"><polyline points="-0.5722,0.2932
-0.5428,0.2932"/><polyline points="-0.5722,0.1977
-0.5428,0.1977"/><polyline points="-0.5722,0.1021
-0.5428,0.1021"/><polyline points="-0.5722,0.0065
-0.5428,0.0065"/><polyline points="-0.5722,-0.0890
-0.5428,-0.0890"/><polyline points="-0.5722,-0.1846
-0.5428,-0.1846"/><polyline points="-0.5722,-0.2801
-0.5428,-0.2801"/><polyline points="-0.5722,-0.3757
-0.5428,-0.3757"/><polyline points="-0.5722,-0.4713
-0.5428,-0.4713"/></g></g><g class="ticktext"><g stroke-width="0.0" stroke="none" fill="rgb(5%, 5%, 5%)" fill-opacity="1.0" font-size="0.0491" text-anchor="end"><text x="-0.6028" y="0.3037">00:00</text><text x="-0.6028" y="0.2082">03:00</text><text x="-0.6028" y="0.1126">06:00</text><text x="-0.6028" y="0.0171">09:00</text><text x="-0.6028" y="-0.0785">12:00</text><text x="-0.6028" y="-0.1741">15:00</text><text x="-0.6028" y="-0.2696">18:00</text><text x="-0.6028" y="-0.3652">21:00</text><text x="-0.6028" y="-0.4608">00:00</text></g></g><g class="ticklines"><g stroke-width="0.0049" stroke="rgb(5%, 5%, 5%)" stroke-opacity="0.05" fill="none"><polyline points="-0.5197,0.2932 0.7396,0.2932"/><polyline points="-0.5197,0.1977 0.7396,0.1977"/><polyline points="-0.5197,0.1021 0.7396,0.1021"/><polyline points="-0.5197,0.0065 0.7396,0.0065"/><polyline points="-0.5197,-0.0890 0.7396,-0.0890"/><polyline points="-0.5197,-0.1846 0.7396,-0.1846"/><polyline points="-0.5197,-0.2801 0.7396,-0.2801"/><polyline points="-0.5197,-0.3757 0.7396,-0.3757"/><polyline points="-0.5197,-0.4713 0.7396,-0.4713"/></g></g></g><g class="axisbar"><g stroke-width="0" stroke="rgb(0%, 0%, 0%)" stroke-opacity="0" fill="rgb(5%, 5%, 5%)" fill-opacity="0.4"><rect width="0.0050" height="0.7676" x="-0.5373" y="-0.4728"/></g></g></g></g></svg>