<svg xmlns="http://www.w3.org/2000/svg" xmlns:xlink="http://www.w3.org/1999/xlink" width="450" height="300" viewBox="-0.75 -0.5 1.5 1.0"><style>svg {
  color-scheme: light dark;
}
{
  .canvas g, .title g, .axisbar g, .ticktext g, .tickglyph g, .ticklines g, .legendContent g text {
    fill: rgb(5%, 5%, 5%);
  }
  .ticklines g, .tickglyph g, .legendBorder g {
    stroke: rgb(5%, 5%, 5%);
  }
  .legendBorder g {
    fill: rgb(94%, 94%, 94%);
  }
}
@media (prefers-color-scheme:dark) {
  .canvas g, .title g, .axisbar g, .ticktext g, .tickglyph g, .ticklines g, .legendContent g text {
    fill: rgb(94%, 94%, 94%);
  }
  .ticklines g, .tickglyph g, .legendBorder g {
    stroke: rgb(94%, 94%, 94%);
  }
  .legendBorder g {
    fill: rgb(5%, 5%, 5%);
  }
}
svg { font-family: system-ui,-apple-system,"Segoe UI",Roboto,"Helvetica Neue",Arial,"Noto Sans","Liberation Sans",sans-serif,"Apple Color Emoji","Segoe UI Emoji","Segoe UI Symbol","Noto Color Emoji";
}

ticktext { font-family: SFMono-Regular,Menlo,Monaco,Consolas,"Liberation Mono","Courier New",monospace;
}

</style><g class="chart"></g><g class="hud"><g class="axis"><g class="axisbar"><g stroke-width="0" stroke="rgb(0%, 0%, 0%)" stroke-opacity="0" fill="rgb(5%, 5%, 5%)" fill-opacity="0.4"><rect width="1.2558" height="0.0030" x="-0.5529" y="0.3114"/></g></g><g class="ticks"><g class="tickglyph"><g stroke-width="0.0040" stroke="rgb(5%, 5%, 5%)" stroke-opacity="0.4" fill="rgb(5%, 5%, 5%)" fill-opacity="0.4"><polyline points="-0.5508,0.3393
-0.5508,0.3093"/><polyline points="-0.2283,0.3393
-0.2283,0.3093"/><polyline points="0.1716,0.3393
0.1716,0.3093"/><polyline points="0.5328,0.3393
0.5328,0.3093"/><polyline points="0.7005,0.3393
0.7005,0.3093"/></g></g><g class="ticktext"><g stroke-width="0.0" stroke="none" fill="rgb(5%, 5%, 5%)" fill-opacity="1.0" font-size="0.0400" text-anchor="end"><text x="-0.5322" y="0.3535" transform="rotate(-45.0, -0.5322, 0.3535)">06 Dec</text><text x="-0.2145" y="0.3535" transform="rotate(-45.0, -0.2145, 0.3535)">31 Dec</text><text x="0.1794" y="0.3535" transform="rotate(-45.0, 0.1794, 0.3535)">31 Jan</text><text x="0.5352" y="0.3535" transform="rotate(-45.0, 0.5352, 0.3535)">28 Feb</text><text x="0.7004" y="0.3535" transform="rotate(-45.0, 0.7004, 0.3535)">13 Mar</text></g></g><g class="ticklines"><g stroke-width="0.0050" stroke="rgb(5%, 5%, 5%)" stroke-opacity="0.05" fill="none"><polyline points="-0.5510,0.3035 -0.5510,-0.4461"/><polyline points="-0.2284,0.3035 -0.2284,-0.4461"/><polyline points="0.1717,0.3035 0.1717,-0.4461"/><polyline points="0.5330,0.3035 0.5330,-0.4461"/><polyline points="0.7008,0.3035 0.7008,-0.4461"/></g></g></g></g><g class="axis"><g class="axisbar"><g stroke-width="0" stroke="rgb(0%, 0%, 0%)" stroke-opacity="0" fill="rgb(5%, 5%, 5%)" fill-opacity="0.4"><rect width="0.0033" height="0.7536" x="-0.5630" y="-0.4482"/></g></g><g class="ticks"><g class="tickglyph"><g stroke-width="0.0040" stroke="rgb(5%, 5%, 5%)" stroke-opacity="0.4" fill="rgb(5%, 5%, 5%)" fill-opacity="0.4"><polyline points="-0.5900,0.3033
-0.5600,0.3033"/><polyline points="-0.5900,0.2096
-0.5600,0.2096"/><polyline points="-0.5900,0.1160
-0.5600,0.1160"/><polyline points="-0.5900,0.0224
-0.5600,0.0224"/><polyline points="-0.5900,-0.0713
-0.5600,-0.0713"/><polyline points="-0.5900,-0.1649
-0.5600,-0.1649"/><polyline points="-0.5900,-0.2585
-0.5600,-0.2585"/><polyline points="-0.5900,-0.3522
-0.5600,-0.3522"/><polyline points="-0.5900,-0.4458
-0.5600,-0.4458"/></g></g><g class="ticktext"><g stroke-width="0.0" stroke="none" fill="rgb(5%, 5%, 5%)" fill-opacity="1.0" font-size="0.0400" text-anchor="end"><text x="-0.5888" y="0.3112">00:00</text><text x="-0.5888" y="0.2184">03:00</text><text x="-0.5888" y="0.1256">06:00</text><text x="-0.5888" y="0.0329">09:00</text><text x="-0.5888" y="-0.0599">12:00</text><text x="-0.5888" y="-0.1526">15:00</text><text x="-0.5888" y="-0.2454">18:00</text><text x="-0.5888" y="-0.3381">21:00</text><text x="-0.5888" y="-0.4309">00:00</text></g></g><g class="ticklines"><g stroke-width="0.0050" stroke="rgb(5%, 5%, 5%)" stroke-opacity="0.05" fill="none"><polyline points="-0.5510,0.3035 0.7008,0.3035"/><polyline points="-0.5510,0.2098 0.7008,0.2098"/><polyline points="-0.5510,0.1161 0.7008,0.1161"/><polyline points="-0.5510,0.0224 0.7008,0.0224"/><polyline points="-0.5510,-0.0713 0.7008,-0.0713"/><polyline points="-0.5510,-0.1650 0.7008,-0.1650"/><polyline points="-0.5510,-0.2587 0.7008,-0.2587"/><polyline points="-0.5510,-0.3524 0.7008,-0.3524"/><polyline points="-0.5510,-0.4461 0.7008,-0.4461"/></g></g></g></g><g class="frame"><g stroke-width="0" stroke="rgb(0%, 0%, 0%)" stroke-opacity="0" fill="rgb(100%, 100%, 100%)" fill-opacity="0.02"><rect width="1.5" height="1.0" x="-0.75" y="-0.5"/></g></g></g></svg>