<svg xmlns="http://www.w3.org/2000/svg" xmlns:xlink="http://www.w3.org/1999/xlink" width="450" height="300" viewBox="-0.75 -0.5000 1.5 1.0000"><style>svg {
  color-scheme: light dark;
}
{
  .canvas g, .title g, .axisbar g, .ticktext g, .tickglyph g, .ticklines g, .legendContent g text {
    fill: rgb(5%, 5%, 5%);
  }
  .ticklines g, .tickglyph g, .legendBorder g {
    stroke: rgb(5%, 5%, 5%);
  }
  .legendBorder g {
    fill: rgb(94%, 94%, 94%);
  }
}
@media (prefers-color-scheme:dark) {
  .canvas g, .title g, .axisbar g, .ticktext g, .tickglyph g, .ticklines g, .legendContent g text {
    fill: rgb(94%, 94%, 94%);
  }
  .ticklines g, .tickglyph g, .legendBorder g {
    stroke: rgb(94%, 94%, 94%);
  }
  .legendBorder g {
    fill: rgb(5%, 5%, 5%);
  }
}
svg { font-family: system-ui,-apple-system,"Segoe UI",Roboto,"Helvetica Neue",Arial,"Noto Sans","Liberation Sans",sans-serif,"Apple Color Emoji","Segoe UI Emoji","Segoe UI Symbol","Noto Color Emoji";
}

ticktext { font-family: SFMono-Regular,Menlo,Monaco,Consolas,"Liberation Mono","Courier New",monospace;
}

</style><g class="chart"></g><g class="hud"><g class="axis"><g class="axisbar"><g stroke-width="0" stroke="rgb(0%, 0%, 0%)" stroke-opacity="0" fill="rgb(5%, 5%, 5%)" fill-opacity="0.4"><rect width="1.3298" height="0.0032" x="-0.5855" y="0.3366"/></g></g><g class="ticks"><g class="tickglyph"><g stroke-width="0.0040" stroke="rgb(5%, 5%, 5%)" stroke-opacity="0.4" fill="rgb(5%, 5%, 5%)" fill-opacity="0.4"><polyline points="-0.5834,0.3664
-0.5834,0.3364"/><polyline points="-0.2418,0.3664
-0.2418,0.3364"/><polyline points="0.1818,0.3664
0.1818,0.3364"/><polyline points="0.5644,0.3664
0.5644,0.3364"/><polyline points="0.7420,0.3664
0.7420,0.3364"/></g></g><g class="ticktext"><g stroke-width="0.0" stroke="none" fill="rgb(5%, 5%, 5%)" fill-opacity="1.0" font-size="0.0400" text-anchor="end"><text x="-0.5700" y="0.3897" transform="rotate(-45.0, -0.5700, 0.3897)">06 Dec</text><text x="-0.2320" y="0.3897" transform="rotate(-45.0, -0.2320, 0.3897)">31 Dec</text><text x="0.1872" y="0.3897" transform="rotate(-45.0, 0.1872, 0.3897)">31 Jan</text><text x="0.5657" y="0.3897" transform="rotate(-45.0, 0.5657, 0.3897)">28 Feb</text><text x="0.7415" y="0.3897" transform="rotate(-45.0, 0.7415, 0.3897)">13 Mar</text></g></g><g class="ticklines"><g stroke-width="0.0050" stroke="rgb(5%, 5%, 5%)" stroke-opacity="0.05" fill="none"><polyline points="-0.5835,0.3282 -0.5835,-0.4825"/><polyline points="-0.2419,0.3282 -0.2419,-0.4825"/><polyline points="0.1818,0.3282 0.1818,-0.4825"/><polyline points="0.5645,0.3282 0.5645,-0.4825"/><polyline points="0.7422,0.3282 0.7422,-0.4825"/></g></g></g></g><g class="axis"><g class="axisbar"><g stroke-width="0" stroke="rgb(0%, 0%, 0%)" stroke-opacity="0" fill="rgb(5%, 5%, 5%)" fill-opacity="0.4"><rect width="0.0035" height="0.8147" x="-0.5962" y="-0.4846"/></g></g><g class="ticks"><g class="tickglyph"><g stroke-width="0.0040" stroke="rgb(5%, 5%, 5%)" stroke-opacity="0.4" fill="rgb(5%, 5%, 5%)" fill-opacity="0.4"><polyline points="-0.6245,0.3280
-0.5945,0.3280"/><polyline points="-0.6245,0.2267
-0.5945,0.2267"/><polyline points="-0.6245,0.1255
-0.5945,0.1255"/><polyline points="-0.6245,0.0242
-0.5945,0.0242"/><polyline points="-0.6245,-0.0771
-0.5945,-0.0771"/><polyline points="-0.6245,-0.1784
-0.5945,-0.1784"/><polyline points="-0.6245,-0.2797
-0.5945,-0.2797"/><polyline points="-0.6245,-0.3809
-0.5945,-0.3809"/><polyline points="-0.6245,-0.4822
-0.5945,-0.4822"/></g></g><g class="ticktext"><g stroke-width="0.0" stroke="none" fill="rgb(5%, 5%, 5%)" fill-opacity="1.0" font-size="0.0400" text-anchor="end"><text x="-0.63" y="0.3365">00:00</text><text x="-0.63" y="0.2359">03:00</text><text x="-0.63" y="0.1354">06:00</text><text x="-0.63" y="0.0348">09:00</text><text x="-0.63" y="-0.0657">12:00</text><text x="-0.63" y="-0.1663">15:00</text><text x="-0.63" y="-0.2669">18:00</text><text x="-0.63" y="-0.3674">21:00</text><text x="-0.63" y="-0.4680">00:00</text></g></g><g class="ticklines"><g stroke-width="0.0050" stroke="rgb(5%, 5%, 5%)" stroke-opacity="0.05" fill="none"><polyline points="-0.5835,0.3282 0.7422,0.3282"/><polyline points="-0.5835,0.2269 0.7422,0.2269"/><polyline points="-0.5835,0.1255 0.7422,0.1255"/><polyline points="-0.5835,0.0242 0.7422,0.0242"/><polyline points="-0.5835,-0.0771 0.7422,-0.0771"/><polyline points="-0.5835,-0.1785 0.7422,-0.1785"/><polyline points="-0.5835,-0.2798 0.7422,-0.2798"/><polyline points="-0.5835,-0.3812 0.7422,-0.3812"/><polyline points="-0.5835,-0.4825 0.7422,-0.4825"/></g></g></g></g></g></svg>