<svg xmlns="http://www.w3.org/2000/svg" xmlns:xlink="http://www.w3.org/1999/xlink" width="450" height="300" viewBox="-0.75 -0.5 1.5 1.0"><style>svg {
  color-scheme: light dark;
}
{
  .canvas g, .title g, .axisbar g, .ticktext g, .tickglyph g, .ticklines g, .legendContent g text {
    fill: rgb(5%, 5%, 5%);
  }
  .ticklines g, .tickglyph g, .legendBorder g {
    stroke: rgb(5%, 5%, 5%);
  }
  .legendBorder g {
    fill: rgb(94%, 94%, 94%);
  }
}
@media (prefers-color-scheme:dark) {
  .canvas g, .title g, .axisbar g, .ticktext g, .tickglyph g, .ticklines g, .legendContent g text {
    fill: rgb(94%, 94%, 94%);
  }
  .ticklines g, .tickglyph g, .legendBorder g {
    stroke: rgb(94%, 94%, 94%);
  }
  .legendBorder g {
    fill: rgb(5%, 5%, 5%);
  }
}
svg { font-family: system-ui,-apple-system,"Segoe UI",Roboto,"Helvetica Neue",Arial,"Noto Sans","Liberation Sans",sans-serif,"Apple Color Emoji","Segoe UI Emoji","Segoe UI Symbol","Noto Color Emoji";
}

ticktext { font-family: SFMono-Regular,Menlo,Monaco,Consolas,"Liberation Mono","Courier New",monospace;
}

</style><g class="chart"><g class="chart"><g class="line"><g stroke-width="0.0116" stroke="rgb(2%, 73%, 80%)" stroke-opacity="1.0" fill="none"><polyline points="-0.6300,0.1899 -0.2048,0.1899 0.2204,-0.3629"/></g><g stroke-width="0.0116" stroke="rgb(2%, 29%, 48%)" stroke-opacity="1.0" fill="none"><polyline points="-0.6300,0.3281 0.5606,-0.0865"/></g><g stroke-width="0.0116" stroke="rgb(66%, 7%, 55%)" stroke-opacity="1.0" fill="none"><polyline points="-0.4174,-0.2247 -0.4174,0.3281"/></g></g><g class="datapadding"></g></g><g class="hud"><g class="frame"><g stroke-width="0" stroke="rgb(0%, 0%, 0%)" stroke-opacity="0" fill="rgb(100%, 100%, 100%)" fill-opacity="0.02"><rect width="1.2853" height="0.7015" x="-0.6365" y="-0.3681"/></g></g><g class="axis"><g class="axisbar"><g stroke-width="0" stroke="rgb(0%, 0%, 0%)" stroke-opacity="0" fill="rgb(5%, 5%, 5%)" fill-opacity="0.4"><rect width="0.0034" height="0.7022" x="-0.6485" y="-0.3685"/></g></g><g class="ticks"><g class="tickglyph"><g stroke-width="0.0031" stroke="rgb(5%, 5%, 5%)" stroke-opacity="0.4" fill="rgb(5%, 5%, 5%)" fill-opacity="0.4"><polyline points="-0.6747,0.3323
-0.6514,0.3323"/><polyline points="-0.6747,0.1925
-0.6514,0.1925"/><polyline points="-0.6747,0.0526
-0.6514,0.0526"/><polyline points="-0.6747,-0.0873
-0.6514,-0.0873"/><polyline points="-0.6747,-0.2272
-0.6514,-0.2272"/><polyline points="-0.6747,-0.3671
-0.6514,-0.3671"/></g></g><g class="ticktext"><g stroke-width="0.0" stroke="none" fill="rgb(5%, 5%, 5%)" fill-opacity="1.0" font-size="0.0310" text-anchor="end"><text x="-0.6947" y="0.3401">0</text><text x="-0.6947" y="0.2002">1</text><text x="-0.6947" y="0.0603">2</text><text x="-0.6947" y="-0.0796">3</text><text x="-0.6947" y="-0.2195">4</text><text x="-0.6947" y="-0.3593">5</text></g></g><g class="ticklines"><g stroke-width="0.0039" stroke="rgb(5%, 5%, 5%)" stroke-opacity="0.05" fill="none"><polyline points="-0.6333,0.3323 0.6489,0.3323"/><polyline points="-0.6333,0.1925 0.6489,0.1925"/><polyline points="-0.6333,0.0526 0.6489,0.0526"/><polyline points="-0.6333,-0.0873 0.6489,-0.0873"/><polyline points="-0.6333,-0.2272 0.6489,-0.2272"/><polyline points="-0.6333,-0.3671 0.6489,-0.3671"/></g></g></g></g><g class="axis"><g class="axisbar"><g stroke-width="0" stroke="rgb(0%, 0%, 0%)" stroke-opacity="0" fill="rgb(5%, 5%, 5%)" fill-opacity="0.4"><rect width="1.2856" height="0.0028" x="-0.6350" y="0.3404"/></g></g><g class="ticks"><g class="tickglyph"><g stroke-width="0.0031" stroke="rgb(5%, 5%, 5%)" stroke-opacity="0.4" fill="rgb(5%, 5%, 5%)" fill-opacity="0.4"><polyline points="-0.6333,0.3668
-0.6333,0.3435"/><polyline points="-0.4196,0.3668
-0.4196,0.3435"/><polyline points="-0.2059,0.3668
-0.2059,0.3435"/><polyline points="0.0078,0.3668
0.0078,0.3435"/><polyline points="0.2215,0.3668
0.2215,0.3435"/><polyline points="0.4352,0.3668
0.4352,0.3435"/><polyline points="0.6489,0.3668
0.6489,0.3435"/></g></g><g class="ticktext"><g stroke-width="0.0" stroke="none" fill="rgb(5%, 5%, 5%)" fill-opacity="1.0" font-size="0.0310" text-anchor="middle"><text x="-0.6333" y="0.4042">0.0</text><text x="-0.4196" y="0.4042">0.5</text><text x="-0.2059" y="0.4042">1.0</text><text x="0.0078" y="0.4042">1.5</text><text x="0.2215" y="0.4042">2.0</text><text x="0.4352" y="0.4042">2.5</text><text x="0.6489" y="0.4042">3.0</text></g></g><g class="ticklines"><g stroke-width="0.0039" stroke="rgb(5%, 5%, 5%)" stroke-opacity="0.05" fill="none"><polyline points="-0.6333,0.3323 -0.6333,-0.3671"/><polyline points="-0.4196,0.3323 -0.4196,-0.3671"/><polyline points="-0.2059,0.3323 -0.2059,-0.3671"/><polyline points="0.0078,0.3323 0.0078,-0.3671"/><polyline points="0.2215,0.3323 0.2215,-0.3671"/><polyline points="0.4352,0.3323 0.4352,-0.3671"/><polyline points="0.6489,0.3323 0.6489,-0.3671"/></g></g></g></g><g class="title"><g stroke-width="0.0" stroke="none" fill="rgb(5%, 5%, 5%)" fill-opacity="1.0" font-size="0.0620" text-anchor="middle"><text x="-0.0178" y="-0.4267">Line Chart</text></g></g><g class="legend"><g class="padding"></g><g class="padding"></g><g class="frame"><g stroke-width="0.0010" stroke="rgb(5%, 5%, 5%)" stroke-opacity="1.0" fill="rgb(5%, 5%, 5%)" fill-opacity="0"><rect width="0.4263" height="0.1627" x="0.2847" y="0.0984"/></g></g><g class="legendContent"><g stroke-width="0.0" stroke="none" fill="rgb(5%, 5%, 5%)" fill-opacity="1.0" font-size="0.0310" text-anchor="start"><text x="0.3061" y="0.2352">palette #2</text></g><g stroke-width="0.0116" stroke="rgb(66%, 7%, 55%)" stroke-opacity="1.0" fill="none"><polyline points="0.5546,0.2282 0.6832,0.2282"/></g><g stroke-width="0.0" stroke="none" fill="rgb(5%, 5%, 5%)" fill-opacity="1.0" font-size="0.0310" text-anchor="start"><text x="0.3061" y="0.1868">palette #1</text></g><g stroke-width="0.0116" stroke="rgb(2%, 29%, 48%)" stroke-opacity="1.0" fill="none"><polyline points="0.5546,0.1798 0.6832,0.1798"/></g><g stroke-width="0.0" stroke="none" fill="rgb(5%, 5%, 5%)" fill-opacity="1.0" font-size="0.0310" text-anchor="start"><text x="0.3061" y="0.1384">palette #0</text></g><g stroke-width="0.0116" stroke="rgb(2%, 73%, 80%)" stroke-opacity="1.0" fill="none"><polyline points="0.5546,0.1314 0.6832,0.1314"/></g></g></g><g class="title"><g stroke-width="0.0" stroke="none" fill="rgb(5%, 5%, 5%)" fill-opacity="1.0" font-size="0.0310" text-anchor="end"><text x="0.7153" y="0.4632">Made with 🧡 and chart-svg</text></g></g><g class="frame"><g stroke-width="0" stroke="rgb(0%, 0%, 0%)" stroke-opacity="0" fill="rgb(0%, 0%, 0%)" fill-opacity="0"><rect width="1.4991" height="0.9993" x="-0.7496" y="-0.4996"/></g></g></g><g class="glyphize"><g class="chart"><g class="line"><g stroke-width="0.0030" stroke="rgb(2%, 29%, 48%)" stroke-opacity="1.0" fill="rgb(2%, 73%, 80%)" fill-opacity="0.2"><circle cx="-0.6292" cy="0.1892" r="0.0050"/><circle cx="-0.2046" cy="0.1892" r="0.0050"/><circle cx="0.2201" cy="-0.3614" r="0.0050"/></g><g stroke-width="0.0030" stroke="rgb(2%, 29%, 48%)" stroke-opacity="1.0" fill="rgb(2%, 73%, 80%)" fill-opacity="0.2"><circle cx="-0.6292" cy="0.3268" r="0.0050"/><circle cx="0.5599" cy="-0.0861" r="0.0050"/></g><g stroke-width="0.0030" stroke="rgb(2%, 29%, 48%)" stroke-opacity="1.0" fill="rgb(2%, 73%, 80%)" fill-opacity="0.2"><circle cx="-0.4169" cy="-0.2238" r="0.0050"/><circle cx="-0.4169" cy="0.3268" r="0.0050"/></g></g><g class="datapadding"><g stroke-width="0.0030" stroke="rgb(2%, 29%, 48%)" stroke-opacity="1.0" fill="rgb(2%, 73%, 80%)" fill-opacity="0.2"><circle cx="0.0078" cy="-0.0173" r="0.0050"/></g></g></g><g class="hud"><g class="frame"><g stroke-width="0.0030" stroke="rgb(2%, 29%, 48%)" stroke-opacity="1.0" fill="rgb(2%, 73%, 80%)" fill-opacity="0.2"><circle cx="0.0062" cy="-0.0173" r="0.0050"/></g></g><g class="axis"><g class="axisbar"><g stroke-width="0.0030" stroke="rgb(2%, 29%, 48%)" stroke-opacity="1.0" fill="rgb(2%, 73%, 80%)" fill-opacity="0.2"><circle cx="-0.6459" cy="-0.0173" r="0.0050"/></g></g><g class="ticks"><g class="tickglyph"><g stroke-width="0.0030" stroke="rgb(2%, 29%, 48%)" stroke-opacity="1.0" fill="rgb(2%, 73%, 80%)" fill-opacity="0.2"><circle cx="-0.6622" cy="0.3310" r="0.0050"/><circle cx="-0.6622" cy="0.1917" r="0.0050"/><circle cx="-0.6622" cy="0.0524" r="0.0050"/><circle cx="-0.6622" cy="-0.0870" r="0.0050"/><circle cx="-0.6622" cy="-0.2263" r="0.0050"/><circle cx="-0.6622" cy="-0.3656" r="0.0050"/></g></g><g class="ticktext"><g stroke-width="0.0030" stroke="rgb(2%, 29%, 48%)" stroke-opacity="1.0" fill="rgb(2%, 73%, 80%)" fill-opacity="0.2"><circle cx="-0.6939" cy="0.3387" r="0.0050"/><circle cx="-0.6939" cy="0.1994" r="0.0050"/><circle cx="-0.6939" cy="0.0601" r="0.0050"/><circle cx="-0.6939" cy="-0.0793" r="0.0050"/><circle cx="-0.6939" cy="-0.2186" r="0.0050"/><circle cx="-0.6939" cy="-0.3579" r="0.0050"/></g></g><g class="ticklines"><g stroke-width="0.0030" stroke="rgb(2%, 29%, 48%)" stroke-opacity="1.0" fill="rgb(2%, 73%, 80%)" fill-opacity="0.2"><circle cx="-0.6325" cy="0.3310" r="0.0050"/><circle cx="0.6481" cy="0.3310" r="0.0050"/><circle cx="-0.6325" cy="0.1917" r="0.0050"/><circle cx="0.6481" cy="0.1917" r="0.0050"/><circle cx="-0.6325" cy="0.0524" r="0.0050"/><circle cx="0.6481" cy="0.0524" r="0.0050"/><circle cx="-0.6325" cy="-0.0870" r="0.0050"/><circle cx="0.6481" cy="-0.0870" r="0.0050"/><circle cx="-0.6325" cy="-0.2263" r="0.0050"/><circle cx="0.6481" cy="-0.2263" r="0.0050"/><circle cx="-0.6325" cy="-0.3656" r="0.0050"/><circle cx="0.6481" cy="-0.3656" r="0.0050"/></g></g></g></g><g class="axis"><g class="axisbar"><g stroke-width="0.0030" stroke="rgb(2%, 29%, 48%)" stroke-opacity="1.0" fill="rgb(2%, 73%, 80%)" fill-opacity="0.2"><circle cx="0.0078" cy="0.3405" r="0.0050"/></g></g><g class="ticks"><g class="tickglyph"><g stroke-width="0.0030" stroke="rgb(2%, 29%, 48%)" stroke-opacity="1.0" fill="rgb(2%, 73%, 80%)" fill-opacity="0.2"><circle cx="-0.6325" cy="0.3537" r="0.0050"/><circle cx="-0.4190" cy="0.3537" r="0.0050"/><circle cx="-0.2056" cy="0.3537" r="0.0050"/><circle cx="0.0078" cy="0.3537" r="0.0050"/><circle cx="0.2212" cy="0.3537" r="0.0050"/><circle cx="0.4347" cy="0.3537" r="0.0050"/><circle cx="0.6481" cy="0.3537" r="0.0050"/></g></g><g class="ticktext"><g stroke-width="0.0030" stroke="rgb(2%, 29%, 48%)" stroke-opacity="1.0" fill="rgb(2%, 73%, 80%)" fill-opacity="0.2"><circle cx="-0.6325" cy="0.4027" r="0.0050"/><circle cx="-0.4190" cy="0.4027" r="0.0050"/><circle cx="-0.2056" cy="0.4027" r="0.0050"/><circle cx="0.0078" cy="0.4027" r="0.0050"/><circle cx="0.2212" cy="0.4027" r="0.0050"/><circle cx="0.4347" cy="0.4027" r="0.0050"/><circle cx="0.6481" cy="0.4027" r="0.0050"/></g></g><g class="ticklines"><g stroke-width="0.0030" stroke="rgb(2%, 29%, 48%)" stroke-opacity="1.0" fill="rgb(2%, 73%, 80%)" fill-opacity="0.2"><circle cx="-0.6325" cy="0.3310" r="0.0050"/><circle cx="-0.6325" cy="-0.3656" r="0.0050"/><circle cx="-0.4190" cy="0.3310" r="0.0050"/><circle cx="-0.4190" cy="-0.3656" r="0.0050"/><circle cx="-0.2056" cy="0.3310" r="0.0050"/><circle cx="-0.2056" cy="-0.3656" r="0.0050"/><circle cx="0.0078" cy="0.3310" r="0.0050"/><circle cx="0.0078" cy="-0.3656" r="0.0050"/><circle cx="0.2212" cy="0.3310" r="0.0050"/><circle cx="0.2212" cy="-0.3656" r="0.0050"/><circle cx="0.4347" cy="0.3310" r="0.0050"/><circle cx="0.4347" cy="-0.3656" r="0.0050"/><circle cx="0.6481" cy="0.3310" r="0.0050"/><circle cx="0.6481" cy="-0.3656" r="0.0050"/></g></g></g></g><g class="title"><g stroke-width="0.0030" stroke="rgb(2%, 29%, 48%)" stroke-opacity="1.0" fill="rgb(2%, 73%, 80%)" fill-opacity="0.2"><circle cx="-0.0178" cy="-0.4250" r="0.0050"/></g></g><g class="legend"><g class="padding"><g stroke-width="0.0030" stroke="rgb(2%, 29%, 48%)" stroke-opacity="1.0" fill="rgb(2%, 73%, 80%)" fill-opacity="0.2"><circle cx="0.4972" cy="0.1791" r="0.0050"/></g></g><g class="padding"><g stroke-width="0.0030" stroke="rgb(2%, 29%, 48%)" stroke-opacity="1.0" fill="rgb(2%, 73%, 80%)" fill-opacity="0.2"><circle cx="0.4972" cy="0.1791" r="0.0050"/></g></g><g class="frame"><g stroke-width="0.0030" stroke="rgb(2%, 29%, 48%)" stroke-opacity="1.0" fill="rgb(2%, 73%, 80%)" fill-opacity="0.2"><circle cx="0.4972" cy="0.1791" r="0.0050"/></g></g><g class="legendContent"><g stroke-width="0.0030" stroke="rgb(2%, 29%, 48%)" stroke-opacity="1.0" fill="rgb(2%, 73%, 80%)" fill-opacity="0.2"><circle cx="0.3057" cy="0.2343" r="0.0050"/></g><g stroke-width="0.0030" stroke="rgb(2%, 29%, 48%)" stroke-opacity="1.0" fill="rgb(2%, 73%, 80%)" fill-opacity="0.2"><circle cx="0.5539" cy="0.2273" r="0.0050"/><circle cx="0.6823" cy="0.2273" r="0.0050"/></g><g stroke-width="0.0030" stroke="rgb(2%, 29%, 48%)" stroke-opacity="1.0" fill="rgb(2%, 73%, 80%)" fill-opacity="0.2"><circle cx="0.3057" cy="0.1860" r="0.0050"/></g><g stroke-width="0.0030" stroke="rgb(2%, 29%, 48%)" stroke-opacity="1.0" fill="rgb(2%, 73%, 80%)" fill-opacity="0.2"><circle cx="0.5539" cy="0.1791" r="0.0050"/><circle cx="0.6823" cy="0.1791" r="0.0050"/></g><g stroke-width="0.0030" stroke="rgb(2%, 29%, 48%)" stroke-opacity="1.0" fill="rgb(2%, 73%, 80%)" fill-opacity="0.2"><circle cx="0.3057" cy="0.1378" r="0.0050"/></g><g stroke-width="0.0030" stroke="rgb(2%, 29%, 48%)" stroke-opacity="1.0" fill="rgb(2%, 73%, 80%)" fill-opacity="0.2"><circle cx="0.5539" cy="0.1308" r="0.0050"/><circle cx="0.6823" cy="0.1308" r="0.0050"/></g></g></g><g class="title"><g stroke-width="0.0030" stroke="rgb(2%, 29%, 48%)" stroke-opacity="1.0" fill="rgb(2%, 73%, 80%)" fill-opacity="0.2"><circle cx="0.7144" cy="0.4614" r="0.0050"/></g></g><g class="frame"><g stroke-width="0.0030" stroke="rgb(2%, 29%, 48%)" stroke-opacity="1.0" fill="rgb(2%, 73%, 80%)" fill-opacity="0.2"><circle cx="0" cy="0" r="0.0050"/></g></g></g></g><g class="rectangularize"><g class="chart"><g class="line"><g stroke-width="0.0010" stroke="rgb(5%, 5%, 5%)" stroke-opacity="1.0" fill="rgb(2%, 73%, 80%)" fill-opacity="0.05"><rect width="0.8632" height="0.5631" x="-0.6364" y="-0.3680"/></g><g stroke-width="0.0010" stroke="rgb(5%, 5%, 5%)" stroke-opacity="1.0" fill="rgb(2%, 73%, 80%)" fill-opacity="0.05"><rect width="1.2034" height="0.4250" x="-0.6364" y="-0.0917"/></g><g stroke-width="0.0010" stroke="rgb(5%, 5%, 5%)" stroke-opacity="1.0" fill="rgb(2%, 73%, 80%)" fill-opacity="0.05"><rect width="0.0129" height="0.5631" x="-0.4238" y="-0.2298"/></g></g><g class="datapadding"><g stroke-width="0.0010" stroke="rgb(5%, 5%, 5%)" stroke-opacity="1.0" fill="rgb(2%, 73%, 80%)" fill-opacity="0.05"><rect width="1.2820" height="0.6992" x="-0.6332" y="-0.3670"/></g></g></g><g class="hud"><g class="frame"><g stroke-width="0.0010" stroke="rgb(5%, 5%, 5%)" stroke-opacity="1.0" fill="rgb(2%, 73%, 80%)" fill-opacity="0.05"><rect width="1.2852" height="0.7013" x="-0.6364" y="-0.3680"/></g></g><g class="axis"><g class="axisbar"><g stroke-width="0.0010" stroke="rgb(5%, 5%, 5%)" stroke-opacity="1.0" fill="rgb(2%, 73%, 80%)" fill-opacity="0.05"><rect width="0.0034" height="0.7020" x="-0.6484" y="-0.3684"/></g></g><g class="ticks"><g class="tickglyph"><g stroke-width="0.0010" stroke="rgb(5%, 5%, 5%)" stroke-opacity="1.0" fill="rgb(2%, 73%, 80%)" fill-opacity="0.05"><rect width="0.0291" height="0.7048" x="-0.6775" y="-0.3698"/></g></g><g class="ticktext"><g stroke-width="0.0010" stroke="rgb(5%, 5%, 5%)" stroke-opacity="1.0" fill="rgb(2%, 73%, 80%)" fill-opacity="0.05"><rect width="0.0206" height="0.7301" x="-0.7152" y="-0.3817"/></g></g><g class="ticklines"><g stroke-width="0.0010" stroke="rgb(5%, 5%, 5%)" stroke-opacity="1.0" fill="rgb(2%, 73%, 80%)" fill-opacity="0.05"><rect width="1.2863" height="0.7027" x="-0.6353" y="-0.3687"/></g></g></g></g><g class="axis"><g class="axisbar"><g stroke-width="0.0010" stroke="rgb(5%, 5%, 5%)" stroke-opacity="1.0" fill="rgb(2%, 73%, 80%)" fill-opacity="0.05"><rect width="1.2854" height="0.0028" x="-0.6349" y="0.3403"/></g></g><g class="ticks"><g class="tickglyph"><g stroke-width="0.0010" stroke="rgb(5%, 5%, 5%)" stroke-opacity="1.0" fill="rgb(2%, 73%, 80%)" fill-opacity="0.05"><rect width="1.2889" height="0.0238" x="-0.6366" y="0.3431"/></g></g><g class="ticktext"><g stroke-width="0.0010" stroke="rgb(5%, 5%, 5%)" stroke-opacity="1.0" fill="rgb(2%, 73%, 80%)" fill-opacity="0.05"><rect width="1.3437" height="0.0309" x="-0.6640" y="0.3817"/></g></g><g class="ticklines"><g stroke-width="0.0010" stroke="rgb(5%, 5%, 5%)" stroke-opacity="1.0" fill="rgb(2%, 73%, 80%)" fill-opacity="0.05"><rect width="1.2863" height="0.7027" x="-0.6353" y="-0.3687"/></g></g></g></g><g class="title"><g stroke-width="0.0010" stroke="rgb(5%, 5%, 5%)" stroke-opacity="1.0" fill="rgb(2%, 73%, 80%)" fill-opacity="0.05"><rect width="0.4113" height="0.0617" x="-0.2234" y="-0.4714"/></g></g><g class="legend"><g class="padding"><g stroke-width="0.0010" stroke="rgb(5%, 5%, 5%)" stroke-opacity="1.0" fill="rgb(2%, 73%, 80%)" fill-opacity="0.05"><rect width="0.4348" height="0.1697" x="0.2804" y="0.0949"/></g></g><g class="padding"><g stroke-width="0.0010" stroke="rgb(5%, 5%, 5%)" stroke-opacity="1.0" fill="rgb(2%, 73%, 80%)" fill-opacity="0.05"><rect width="0.4263" height="0.1627" x="0.2847" y="0.0984"/></g></g><g class="frame"><g stroke-width="0.0010" stroke="rgb(5%, 5%, 5%)" stroke-opacity="1.0" fill="rgb(2%, 73%, 80%)" fill-opacity="0.05"><rect width="0.4273" height="0.1636" x="0.2841" y="0.0979"/></g></g><g class="legendContent"><g stroke-width="0.0010" stroke="rgb(5%, 5%, 5%)" stroke-opacity="1.0" fill="rgb(2%, 73%, 80%)" fill-opacity="0.05"><rect width="0.2056" height="0.0309" x="0.3061" y="0.2127"/></g><g stroke-width="0.0010" stroke="rgb(5%, 5%, 5%)" stroke-opacity="1.0" fill="rgb(2%, 73%, 80%)" fill-opacity="0.05"><rect width="0.1414" height="0.0105" x="0.5481" y="0.2228"/></g><g stroke-width="0.0010" stroke="rgb(5%, 5%, 5%)" stroke-opacity="1.0" fill="rgb(2%, 73%, 80%)" fill-opacity="0.05"><rect width="0.2056" height="0.0309" x="0.3061" y="0.1643"/></g><g stroke-width="0.0010" stroke="rgb(5%, 5%, 5%)" stroke-opacity="1.0" fill="rgb(2%, 73%, 80%)" fill-opacity="0.05"><rect width="0.1414" height="0.0105" x="0.5481" y="0.1744"/></g><g stroke-width="0.0010" stroke="rgb(5%, 5%, 5%)" stroke-opacity="1.0" fill="rgb(2%, 73%, 80%)" fill-opacity="0.05"><rect width="0.2056" height="0.0309" x="0.3061" y="0.1159"/></g><g stroke-width="0.0010" stroke="rgb(5%, 5%, 5%)" stroke-opacity="1.0" fill="rgb(2%, 73%, 80%)" fill-opacity="0.05"><rect width="0.1414" height="0.0105" x="0.5481" y="0.1261"/></g></g></g><g class="title"><g stroke-width="0.0010" stroke="rgb(5%, 5%, 5%)" stroke-opacity="1.0" fill="rgb(2%, 73%, 80%)" fill-opacity="0.05"><rect width="0.5141" height="0.0309" x="0.2011" y="0.4406"/></g></g><g class="frame"><g stroke-width="0.0010" stroke="rgb(5%, 5%, 5%)" stroke-opacity="1.0" fill="rgb(2%, 73%, 80%)" fill-opacity="0.05"><rect width="1.499" height="0.9990" x="-0.7495" y="-0.4995"/></g></g></g></g></g><g class="hud"></g></svg>