<svg xmlns="http://www.w3.org/2000/svg" xmlns:xlink="http://www.w3.org/1999/xlink" width="450" height="300" viewBox="-0.75 -0.5 1.5 1.0"><style>svg {
  color-scheme: light dark;
}
{
  .canvas g, .title g, .axisbar g, .ticktext g, .tickglyph g, .ticklines g, .legendContent g text {
    fill: rgb(5%, 5%, 5%);
  }
  .ticklines g, .tickglyph g, .legendBorder g {
    stroke: rgb(5%, 5%, 5%);
  }
  .legendBorder g {
    fill: rgb(94%, 94%, 94%);
  }
}
@media (prefers-color-scheme:dark) {
  .canvas g, .title g, .axisbar g, .ticktext g, .tickglyph g, .ticklines g, .legendContent g text {
    fill: rgb(94%, 94%, 94%);
  }
  .ticklines g, .tickglyph g, .legendBorder g {
    stroke: rgb(94%, 94%, 94%);
  }
  .legendBorder g {
    fill: rgb(5%, 5%, 5%);
  }
}</style><g class="chart"><g class="chart"><g class="line"><g stroke-width="0.0043" stroke="rgb(2%, 73%, 80%)" stroke-opacity="1.0" fill="none"><polyline points="-0.6571,0.2447 -0.2010,0.2447 0.2550,-0.4604"/></g><g stroke-width="0.0043" stroke="rgb(2%, 29%, 48%)" stroke-opacity="1.0" fill="none"><polyline points="-0.6571,0.4210 0.6199,-0.1078"/></g><g stroke-width="0.0043" stroke="rgb(66%, 7%, 55%)" stroke-opacity="1.0" fill="none"><polyline points="-0.4290,-0.2841 -0.4290,0.4210"/></g></g></g><g class="hud"><g class="frame"><g stroke-width="0" stroke="rgb(0%, 0%, 0%)" stroke-opacity="0" fill="rgb(100%, 100%, 100%)" fill-opacity="0.02"><rect width="1.3716" height="0.8840" x="-0.6605" y="-0.4617"/></g></g><g class="axis"><g class="ticks"><g class="tickglyph"><g stroke-width="0.0011" stroke="rgb(5%, 5%, 5%)" stroke-opacity="0.4" fill="rgb(5%, 5%, 5%)" fill-opacity="0.4"><polyline points="-0.6784,0.4210
-0.6699,0.4210"/><polyline points="-0.6784,0.3328
-0.6699,0.3328"/><polyline points="-0.6784,0.2447
-0.6699,0.2447"/><polyline points="-0.6784,0.1566
-0.6699,0.1566"/><polyline points="-0.6784,0.0684
-0.6699,0.0684"/><polyline points="-0.6784,-0.0197
-0.6699,-0.0197"/><polyline points="-0.6784,-0.1078
-0.6699,-0.1078"/><polyline points="-0.6784,-0.1960
-0.6699,-0.1960"/><polyline points="-0.6784,-0.2841
-0.6699,-0.2841"/><polyline points="-0.6784,-0.3722
-0.6699,-0.3722"/><polyline points="-0.6784,-0.4604
-0.6699,-0.4604"/></g></g><g class="ticktext"><g stroke-width="0.0" stroke="none" fill="rgb(5%, 5%, 5%)" fill-opacity="1.0" font-size="0.0142" text-anchor="end"><text x="-0.6906" y="0.4234">0.0</text><text x="-0.6906" y="0.3353">0.5</text><text x="-0.6906" y="0.2471">1.0</text><text x="-0.6906" y="0.1590">1.5</text><text x="-0.6906" y="0.0709">2.0</text><text x="-0.6906" y="-0.0173">2.5</text><text x="-0.6906" y="-0.1054">3.0</text><text x="-0.6906" y="-0.1935">3.5</text><text x="-0.6906" y="-0.2817">4.0</text><text x="-0.6906" y="-0.3698">4.5</text><text x="-0.6906" y="-0.4579">5.0</text></g></g><g class="ticklines"><g stroke-width="0.0014" stroke="rgb(5%, 5%, 5%)" stroke-opacity="0.05" fill="none"><polyline points="-0.6571,0.4210 0.7111,0.4210"/><polyline points="-0.6571,0.3328 0.7111,0.3328"/><polyline points="-0.6571,0.2447 0.7111,0.2447"/><polyline points="-0.6571,0.1566 0.7111,0.1566"/><polyline points="-0.6571,0.0684 0.7111,0.0684"/><polyline points="-0.6571,-0.0197 0.7111,-0.0197"/><polyline points="-0.6571,-0.1078 0.7111,-0.1078"/><polyline points="-0.6571,-0.1960 0.7111,-0.1960"/><polyline points="-0.6571,-0.2841 0.7111,-0.2841"/><polyline points="-0.6571,-0.3722 0.7111,-0.3722"/><polyline points="-0.6571,-0.4604 0.7111,-0.4604"/></g></g></g><g class="axisbar"><g stroke-width="0" stroke="rgb(0%, 0%, 0%)" stroke-opacity="0" fill="rgb(5%, 5%, 5%)" fill-opacity="0.4"><rect width="0.0018" height="0.8820" x="-0.6669" y="-0.4607"/></g></g></g><g class="axis"><g class="ticks"><g class="tickglyph"><g stroke-width="0.0011" stroke="rgb(5%, 5%, 5%)" stroke-opacity="0.4" fill="rgb(5%, 5%, 5%)" fill-opacity="0.4"><polyline points="-0.6571,0.4318
-0.6571,0.4233"/><polyline points="-0.4290,0.4318
-0.4290,0.4233"/><polyline points="-0.2010,0.4318
-0.2010,0.4233"/><polyline points="0.0270,0.4318
0.0270,0.4233"/><polyline points="0.2550,0.4318
0.2550,0.4233"/><polyline points="0.4831,0.4318
0.4831,0.4233"/><polyline points="0.7111,0.4318
0.7111,0.4233"/></g></g><g class="ticktext"><g stroke-width="0.0" stroke="none" fill="rgb(5%, 5%, 5%)" fill-opacity="1.0" font-size="0.0142" text-anchor="middle"><text x="-0.6571" y="0.4388">0.0</text><text x="-0.4290" y="0.4388">0.5</text><text x="-0.2010" y="0.4388">1.0</text><text x="0.0270" y="0.4388">1.5</text><text x="0.2550" y="0.4388">2.0</text><text x="0.4831" y="0.4388">2.5</text><text x="0.7111" y="0.4388">3.0</text></g></g><g class="ticklines"><g stroke-width="0.0014" stroke="rgb(5%, 5%, 5%)" stroke-opacity="0.05" fill="none"><polyline points="-0.6571,0.4210 -0.6571,-0.4604"/><polyline points="-0.4290,0.4210 -0.4290,-0.4604"/><polyline points="-0.2010,0.4210 -0.2010,-0.4604"/><polyline points="0.0270,0.4210 0.0270,-0.4604"/><polyline points="0.2550,0.4210 0.2550,-0.4604"/><polyline points="0.4831,0.4210 0.4831,-0.4604"/><polyline points="0.7111,0.4210 0.7111,-0.4604"/></g></g></g><g class="axisbar"><g stroke-width="0" stroke="rgb(0%, 0%, 0%)" stroke-opacity="0" fill="rgb(5%, 5%, 5%)" fill-opacity="0.4"><rect width="1.3700" height="0.0007" x="-0.6580" y="0.4241"/></g></g></g><g class="title"><g stroke-width="0.0" stroke="none" fill="rgb(5%, 5%, 5%)" fill-opacity="1.0" font-size="0.0284" text-anchor="middle"><text x="0" y="-0.4773">Line Chart</text></g></g><g class="title"><g stroke-width="0.0" stroke="none" fill="rgb(5%, 5%, 5%)" fill-opacity="1.0" font-size="0.0170" text-anchor="end"><text x="0.7316" y="0.4569">Made with love and chart-svg</text></g></g><g class="legend"><g class="legendBorder"><g stroke-width="0.0007" stroke="rgb(5%, 5%, 5%)" stroke-opacity="1.0" fill="rgb(99%, 99%, 99%)" fill-opacity="1.0"><rect width="0.2542" height="0.0467" x="-0.5316" y="0.4452"/></g></g><g class="legendContent"><g stroke-width="0.0" stroke="none" fill="rgb(5%, 5%, 5%)" fill-opacity="1.0" font-size="0.0142" text-anchor="start"><text x="-0.5202" y="0.4849">palette1 2</text></g><g stroke-width="0.0043" stroke="rgb(66%, 7%, 55%)" stroke-opacity="1.0" fill="none"><polyline points="-0.3606,0.4827 -0.2922,0.4827"/></g><g stroke-width="0.0" stroke="none" fill="rgb(5%, 5%, 5%)" fill-opacity="1.0" font-size="0.0142" text-anchor="start"><text x="-0.5202" y="0.4708">palette1 1</text></g><g stroke-width="0.0043" stroke="rgb(2%, 29%, 48%)" stroke-opacity="1.0" fill="none"><polyline points="-0.3606,0.4686 -0.2922,0.4686"/></g><g stroke-width="0.0" stroke="none" fill="rgb(5%, 5%, 5%)" fill-opacity="1.0" font-size="0.0142" text-anchor="start"><text x="-0.5202" y="0.4567">palette1 0</text></g><g stroke-width="0.0043" stroke="rgb(2%, 73%, 80%)" stroke-opacity="1.0" fill="none"><polyline points="-0.3606,0.4545 -0.2922,0.4545"/></g></g></g><g class="frame"><g stroke-width="0" stroke="rgb(0%, 0%, 0%)" stroke-opacity="0" fill="rgb(0%, 0%, 0%)" fill-opacity="0"><rect width="1.4997" height="0.9983" x="-0.7499" y="-0.4985"/></g></g></g><g class="glyphize"><g class="chart"><g class="line"><g stroke-width="0.0009" stroke="rgb(2%, 29%, 48%)" stroke-opacity="1.0" fill="rgb(2%, 73%, 80%)" fill-opacity="0.2"><circle cx="-0.6571" cy="0.2447" r="0.0014"/><circle cx="-0.2010" cy="0.2447" r="0.0014"/><circle cx="0.2550" cy="-0.4604" r="0.0014"/></g><g stroke-width="0.0009" stroke="rgb(2%, 29%, 48%)" stroke-opacity="1.0" fill="rgb(2%, 73%, 80%)" fill-opacity="0.2"><circle cx="-0.6571" cy="0.4210" r="0.0014"/><circle cx="0.6199" cy="-0.1078" r="0.0014"/></g><g stroke-width="0.0009" stroke="rgb(2%, 29%, 48%)" stroke-opacity="1.0" fill="rgb(2%, 73%, 80%)" fill-opacity="0.2"><circle cx="-0.4290" cy="-0.2841" r="0.0014"/><circle cx="-0.4290" cy="0.4210" r="0.0014"/></g></g><g stroke-width="0.0009" stroke="rgb(2%, 29%, 48%)" stroke-opacity="1.0" fill="rgb(2%, 73%, 80%)" fill-opacity="0.2"><circle cx="0.0270" cy="-0.0197" r="0.0014"/></g></g><g class="hud"><g class="frame"><g stroke-width="0.0009" stroke="rgb(2%, 29%, 48%)" stroke-opacity="1.0" fill="rgb(2%, 73%, 80%)" fill-opacity="0.2"><circle cx="0.0253" cy="-0.0197" r="0.0014"/></g></g><g class="axis"><g class="ticks"><g class="tickglyph"><g stroke-width="0.0009" stroke="rgb(2%, 29%, 48%)" stroke-opacity="1.0" fill="rgb(2%, 73%, 80%)" fill-opacity="0.2"><circle cx="-0.6742" cy="0.4210" r="0.0014"/><circle cx="-0.6742" cy="0.3328" r="0.0014"/><circle cx="-0.6742" cy="0.2447" r="0.0014"/><circle cx="-0.6742" cy="0.1566" r="0.0014"/><circle cx="-0.6742" cy="0.0684" r="0.0014"/><circle cx="-0.6742" cy="-0.0197" r="0.0014"/><circle cx="-0.6742" cy="-0.1078" r="0.0014"/><circle cx="-0.6742" cy="-0.1960" r="0.0014"/><circle cx="-0.6742" cy="-0.2841" r="0.0014"/><circle cx="-0.6742" cy="-0.3722" r="0.0014"/><circle cx="-0.6742" cy="-0.4604" r="0.0014"/></g></g><g class="ticktext"><g stroke-width="0.0009" stroke="rgb(2%, 29%, 48%)" stroke-opacity="1.0" fill="rgb(2%, 73%, 80%)" fill-opacity="0.2"><circle cx="-0.6906" cy="0.4234" r="0.0014"/><circle cx="-0.6906" cy="0.3353" r="0.0014"/><circle cx="-0.6906" cy="0.2471" r="0.0014"/><circle cx="-0.6906" cy="0.1590" r="0.0014"/><circle cx="-0.6906" cy="0.0709" r="0.0014"/><circle cx="-0.6906" cy="-0.0173" r="0.0014"/><circle cx="-0.6906" cy="-0.1054" r="0.0014"/><circle cx="-0.6906" cy="-0.1935" r="0.0014"/><circle cx="-0.6906" cy="-0.2817" r="0.0014"/><circle cx="-0.6906" cy="-0.3698" r="0.0014"/><circle cx="-0.6906" cy="-0.4579" r="0.0014"/></g></g><g class="ticklines"><g stroke-width="0.0009" stroke="rgb(2%, 29%, 48%)" stroke-opacity="1.0" fill="rgb(2%, 73%, 80%)" fill-opacity="0.2"><circle cx="-0.6571" cy="0.4210" r="0.0014"/><circle cx="0.7111" cy="0.4210" r="0.0014"/><circle cx="-0.6571" cy="0.3328" r="0.0014"/><circle cx="0.7111" cy="0.3328" r="0.0014"/><circle cx="-0.6571" cy="0.2447" r="0.0014"/><circle cx="0.7111" cy="0.2447" r="0.0014"/><circle cx="-0.6571" cy="0.1566" r="0.0014"/><circle cx="0.7111" cy="0.1566" r="0.0014"/><circle cx="-0.6571" cy="0.0684" r="0.0014"/><circle cx="0.7111" cy="0.0684" r="0.0014"/><circle cx="-0.6571" cy="-0.0197" r="0.0014"/><circle cx="0.7111" cy="-0.0197" r="0.0014"/><circle cx="-0.6571" cy="-0.1078" r="0.0014"/><circle cx="0.7111" cy="-0.1078" r="0.0014"/><circle cx="-0.6571" cy="-0.1960" r="0.0014"/><circle cx="0.7111" cy="-0.1960" r="0.0014"/><circle cx="-0.6571" cy="-0.2841" r="0.0014"/><circle cx="0.7111" cy="-0.2841" r="0.0014"/><circle cx="-0.6571" cy="-0.3722" r="0.0014"/><circle cx="0.7111" cy="-0.3722" r="0.0014"/><circle cx="-0.6571" cy="-0.4604" r="0.0014"/><circle cx="0.7111" cy="-0.4604" r="0.0014"/></g></g></g><g class="axisbar"><g stroke-width="0.0009" stroke="rgb(2%, 29%, 48%)" stroke-opacity="1.0" fill="rgb(2%, 73%, 80%)" fill-opacity="0.2"><circle cx="-0.6659" cy="-0.0197" r="0.0014"/></g></g></g><g class="axis"><g class="ticks"><g class="tickglyph"><g stroke-width="0.0009" stroke="rgb(2%, 29%, 48%)" stroke-opacity="1.0" fill="rgb(2%, 73%, 80%)" fill-opacity="0.2"><circle cx="-0.6571" cy="0.4276" r="0.0014"/><circle cx="-0.4290" cy="0.4276" r="0.0014"/><circle cx="-0.2010" cy="0.4276" r="0.0014"/><circle cx="0.0270" cy="0.4276" r="0.0014"/><circle cx="0.2550" cy="0.4276" r="0.0014"/><circle cx="0.4831" cy="0.4276" r="0.0014"/><circle cx="0.7111" cy="0.4276" r="0.0014"/></g></g><g class="ticktext"><g stroke-width="0.0009" stroke="rgb(2%, 29%, 48%)" stroke-opacity="1.0" fill="rgb(2%, 73%, 80%)" fill-opacity="0.2"><circle cx="-0.6571" cy="0.4388" r="0.0014"/><circle cx="-0.4290" cy="0.4388" r="0.0014"/><circle cx="-0.2010" cy="0.4388" r="0.0014"/><circle cx="0.0270" cy="0.4388" r="0.0014"/><circle cx="0.2550" cy="0.4388" r="0.0014"/><circle cx="0.4831" cy="0.4388" r="0.0014"/><circle cx="0.7111" cy="0.4388" r="0.0014"/></g></g><g class="ticklines"><g stroke-width="0.0009" stroke="rgb(2%, 29%, 48%)" stroke-opacity="1.0" fill="rgb(2%, 73%, 80%)" fill-opacity="0.2"><circle cx="-0.6571" cy="0.4210" r="0.0014"/><circle cx="-0.6571" cy="-0.4604" r="0.0014"/><circle cx="-0.4290" cy="0.4210" r="0.0014"/><circle cx="-0.4290" cy="-0.4604" r="0.0014"/><circle cx="-0.2010" cy="0.4210" r="0.0014"/><circle cx="-0.2010" cy="-0.4604" r="0.0014"/><circle cx="0.0270" cy="0.4210" r="0.0014"/><circle cx="0.0270" cy="-0.4604" r="0.0014"/><circle cx="0.2550" cy="0.4210" r="0.0014"/><circle cx="0.2550" cy="-0.4604" r="0.0014"/><circle cx="0.4831" cy="0.4210" r="0.0014"/><circle cx="0.4831" cy="-0.4604" r="0.0014"/><circle cx="0.7111" cy="0.4210" r="0.0014"/><circle cx="0.7111" cy="-0.4604" r="0.0014"/></g></g></g><g class="axisbar"><g stroke-width="0.0009" stroke="rgb(2%, 29%, 48%)" stroke-opacity="1.0" fill="rgb(2%, 73%, 80%)" fill-opacity="0.2"><circle cx="0.0270" cy="0.4244" r="0.0014"/></g></g></g><g class="title"><g stroke-width="0.0009" stroke="rgb(2%, 29%, 48%)" stroke-opacity="1.0" fill="rgb(2%, 73%, 80%)" fill-opacity="0.2"><circle cx="0" cy="-0.4773" r="0.0014"/></g></g><g class="title"><g stroke-width="0.0009" stroke="rgb(2%, 29%, 48%)" stroke-opacity="1.0" fill="rgb(2%, 73%, 80%)" fill-opacity="0.2"><circle cx="0.7316" cy="0.4569" r="0.0014"/></g></g><g class="legend"><g class="legendBorder"><g stroke-width="0.0009" stroke="rgb(2%, 29%, 48%)" stroke-opacity="1.0" fill="rgb(2%, 73%, 80%)" fill-opacity="0.2"><circle cx="-0.4045" cy="0.4686" r="0.0014"/></g><g stroke-width="0.0009" stroke="rgb(2%, 29%, 48%)" stroke-opacity="1.0" fill="rgb(2%, 73%, 80%)" fill-opacity="0.2"><circle cx="-0.4045" cy="0.4686" r="0.0014"/></g><g stroke-width="0.0009" stroke="rgb(2%, 29%, 48%)" stroke-opacity="1.0" fill="rgb(2%, 73%, 80%)" fill-opacity="0.2"><circle cx="-0.4045" cy="0.4686" r="0.0014"/></g></g><g class="legendContent"><g stroke-width="0.0009" stroke="rgb(2%, 29%, 48%)" stroke-opacity="1.0" fill="rgb(2%, 73%, 80%)" fill-opacity="0.2"><circle cx="-0.5202" cy="0.4849" r="0.0014"/></g><g stroke-width="0.0009" stroke="rgb(2%, 29%, 48%)" stroke-opacity="1.0" fill="rgb(2%, 73%, 80%)" fill-opacity="0.2"><circle cx="-0.3606" cy="0.4827" r="0.0014"/><circle cx="-0.2922" cy="0.4827" r="0.0014"/></g><g stroke-width="0.0009" stroke="rgb(2%, 29%, 48%)" stroke-opacity="1.0" fill="rgb(2%, 73%, 80%)" fill-opacity="0.2"><circle cx="-0.5202" cy="0.4708" r="0.0014"/></g><g stroke-width="0.0009" stroke="rgb(2%, 29%, 48%)" stroke-opacity="1.0" fill="rgb(2%, 73%, 80%)" fill-opacity="0.2"><circle cx="-0.3606" cy="0.4686" r="0.0014"/><circle cx="-0.2922" cy="0.4686" r="0.0014"/></g><g stroke-width="0.0009" stroke="rgb(2%, 29%, 48%)" stroke-opacity="1.0" fill="rgb(2%, 73%, 80%)" fill-opacity="0.2"><circle cx="-0.5202" cy="0.4567" r="0.0014"/></g><g stroke-width="0.0009" stroke="rgb(2%, 29%, 48%)" stroke-opacity="1.0" fill="rgb(2%, 73%, 80%)" fill-opacity="0.2"><circle cx="-0.3606" cy="0.4545" r="0.0014"/><circle cx="-0.2922" cy="0.4545" r="0.0014"/></g></g></g><g class="frame"><g stroke-width="0.0009" stroke="rgb(2%, 29%, 48%)" stroke-opacity="1.0" fill="rgb(2%, 73%, 80%)" fill-opacity="0.2"><circle cx="0" cy="0.0007" r="0.0014"/></g></g></g></g><g class="rectangularize"><g class="chart"><g class="line"><g stroke-width="0.0003" stroke="rgb(5%, 5%, 5%)" stroke-opacity="1.0" fill="rgb(2%, 73%, 80%)" fill-opacity="0.05"><rect width="0.9189" height="0.7077" x="-0.6605" y="-0.4617"/></g><g stroke-width="0.0003" stroke="rgb(5%, 5%, 5%)" stroke-opacity="1.0" fill="rgb(2%, 73%, 80%)" fill-opacity="0.05"><rect width="1.2838" height="0.5314" x="-0.6605" y="-0.1091"/></g><g stroke-width="0.0003" stroke="rgb(5%, 5%, 5%)" stroke-opacity="1.0" fill="rgb(2%, 73%, 80%)" fill-opacity="0.05"><rect width="0.0068" height="0.7077" x="-0.4324" y="-0.2854"/></g></g><g stroke-width="0.0003" stroke="rgb(5%, 5%, 5%)" stroke-opacity="1.0" fill="rgb(2%, 73%, 80%)" fill-opacity="0.05"><rect width="1.3681" height="0.8813" x="-0.6571" y="-0.4604"/></g></g><g class="hud"><g class="frame"><g stroke-width="0.0003" stroke="rgb(5%, 5%, 5%)" stroke-opacity="1.0" fill="rgb(2%, 73%, 80%)" fill-opacity="0.05"><rect width="1.3716" height="0.8840" x="-0.6605" y="-0.4617"/></g></g><g class="axis"><g class="ticks"><g class="tickglyph"><g stroke-width="0.0003" stroke="rgb(5%, 5%, 5%)" stroke-opacity="1.0" fill="rgb(2%, 73%, 80%)" fill-opacity="0.05"><rect width="0.0036" height="0.8873" x="-0.6760" y="-0.4633"/></g></g><g class="ticktext"><g stroke-width="0.0003" stroke="rgb(5%, 5%, 5%)" stroke-opacity="1.0" fill="rgb(2%, 73%, 80%)" fill-opacity="0.05"><rect width="0.0410" height="0.8910" x="-0.7316" y="-0.4650"/></g></g><g class="ticklines"><g stroke-width="0.0003" stroke="rgb(5%, 5%, 5%)" stroke-opacity="1.0" fill="rgb(2%, 73%, 80%)" fill-opacity="0.05"><rect width="1.3704" height="0.8822" x="-0.6582" y="-0.4608"/></g></g></g><g class="axisbar"><g stroke-width="0.0003" stroke="rgb(5%, 5%, 5%)" stroke-opacity="1.0" fill="rgb(2%, 73%, 80%)" fill-opacity="0.05"><rect width="0.0018" height="0.8820" x="-0.6669" y="-0.4607"/></g></g></g><g class="axis"><g class="ticks"><g class="tickglyph"><g stroke-width="0.0003" stroke="rgb(5%, 5%, 5%)" stroke-opacity="1.0" fill="rgb(2%, 73%, 80%)" fill-opacity="0.05"><rect width="1.3718" height="0.0060" x="-0.6589" y="0.4246"/></g></g><g class="ticktext"><g stroke-width="0.0003" stroke="rgb(5%, 5%, 5%)" stroke-opacity="1.0" fill="rgb(2%, 73%, 80%)" fill-opacity="0.05"><rect width="1.4092" height="0.0097" x="-0.6776" y="0.4317"/></g></g><g class="ticklines"><g stroke-width="0.0003" stroke="rgb(5%, 5%, 5%)" stroke-opacity="1.0" fill="rgb(2%, 73%, 80%)" fill-opacity="0.05"><rect width="1.3704" height="0.8822" x="-0.6582" y="-0.4608"/></g></g></g><g class="axisbar"><g stroke-width="0.0003" stroke="rgb(5%, 5%, 5%)" stroke-opacity="1.0" fill="rgb(2%, 73%, 80%)" fill-opacity="0.05"><rect width="1.3700" height="0.0007" x="-0.6580" y="0.4241"/></g></g></g><g class="title"><g stroke-width="0.0003" stroke="rgb(5%, 5%, 5%)" stroke-opacity="1.0" fill="rgb(2%, 73%, 80%)" fill-opacity="0.05"><rect width="0.2736" height="0.0194" x="-0.1368" y="-0.4914"/></g></g><g class="title"><g stroke-width="0.0003" stroke="rgb(5%, 5%, 5%)" stroke-opacity="1.0" fill="rgb(2%, 73%, 80%)" fill-opacity="0.05"><rect width="0.4597" height="0.0116" x="0.2719" y="0.4485"/></g></g><g class="legend"><g class="legendBorder"><g stroke-width="0.0003" stroke="rgb(5%, 5%, 5%)" stroke-opacity="1.0" fill="rgb(2%, 73%, 80%)" fill-opacity="0.05"><rect width="0.2588" height="0.0485" x="-0.5339" y="0.4443"/></g><g stroke-width="0.0003" stroke="rgb(5%, 5%, 5%)" stroke-opacity="1.0" fill="rgb(2%, 73%, 80%)" fill-opacity="0.05"><rect width="0.2542" height="0.0467" x="-0.5316" y="0.4452"/></g><g stroke-width="0.0003" stroke="rgb(5%, 5%, 5%)" stroke-opacity="1.0" fill="rgb(2%, 73%, 80%)" fill-opacity="0.05"><rect width="0.2554" height="0.0472" x="-0.5322" y="0.4450"/></g></g><g class="legendContent"><g stroke-width="0.0003" stroke="rgb(5%, 5%, 5%)" stroke-opacity="1.0" fill="rgb(2%, 73%, 80%)" fill-opacity="0.05"><rect width="0.1368" height="0.0097" x="-0.5202" y="0.4778"/></g><g stroke-width="0.0003" stroke="rgb(5%, 5%, 5%)" stroke-opacity="1.0" fill="rgb(2%, 73%, 80%)" fill-opacity="0.05"><rect width="0.0752" height="0.0026" x="-0.3640" y="0.4814"/></g><g stroke-width="0.0003" stroke="rgb(5%, 5%, 5%)" stroke-opacity="1.0" fill="rgb(2%, 73%, 80%)" fill-opacity="0.05"><rect width="0.1368" height="0.0097" x="-0.5202" y="0.4637"/></g><g stroke-width="0.0003" stroke="rgb(5%, 5%, 5%)" stroke-opacity="1.0" fill="rgb(2%, 73%, 80%)" fill-opacity="0.05"><rect width="0.0752" height="0.0026" x="-0.3640" y="0.4672"/></g><g stroke-width="0.0003" stroke="rgb(5%, 5%, 5%)" stroke-opacity="1.0" fill="rgb(2%, 73%, 80%)" fill-opacity="0.05"><rect width="0.1368" height="0.0097" x="-0.5202" y="0.4496"/></g><g stroke-width="0.0003" stroke="rgb(5%, 5%, 5%)" stroke-opacity="1.0" fill="rgb(2%, 73%, 80%)" fill-opacity="0.05"><rect width="0.0752" height="0.0026" x="-0.3640" y="0.4531"/></g></g></g><g class="frame"><g stroke-width="0.0003" stroke="rgb(5%, 5%, 5%)" stroke-opacity="1.0" fill="rgb(2%, 73%, 80%)" fill-opacity="0.05"><rect width="1.4997" height="0.9983" x="-0.7499" y="-0.4985"/></g></g></g></g></g><g class="hud"></g></svg>