<svg xmlns="http://www.w3.org/2000/svg" xmlns:xlink="http://www.w3.org/1999/xlink" width="450" height="300" viewBox="-0.75 -0.5 1.5 1.0"><style>svg {
  color-scheme: light dark;
}
{
  .canvas g, .title g, .axisbar g, .ticktext g, .tickglyph g, .ticklines g, .legendContent g text {
    fill: rgb(5%, 5%, 5%);
  }
  .ticklines g, .tickglyph g, .legendBorder g {
    stroke: rgb(5%, 5%, 5%);
  }
  .legendBorder g {
    fill: rgb(94%, 94%, 94%);
  }
}
@media (prefers-color-scheme:dark) {
  .canvas g, .title g, .axisbar g, .ticktext g, .tickglyph g, .ticklines g, .legendContent g text {
    fill: rgb(94%, 94%, 94%);
  }
  .ticklines g, .tickglyph g, .legendBorder g {
    stroke: rgb(94%, 94%, 94%);
  }
  .legendBorder g {
    fill: rgb(5%, 5%, 5%);
  }
}
svg { font-family: system-ui,-apple-system,"Segoe UI",Roboto,"Helvetica Neue",Arial,"Noto Sans","Liberation Sans",sans-serif,"Apple Color Emoji","Segoe UI Emoji","Segoe UI Symbol","Noto Color Emoji";
}

ticktext { font-family: SFMono-Regular,Menlo,Monaco,Consolas,"Liberation Mono","Courier New",monospace;
}

</style><g class="chart"><g class="ellipse"><g stroke-width="0.0050" stroke="rgb(66%, 7%, 55%)" stroke-opacity="1.0" fill="none"><polyline points="0.1712,-0.0617 0.1694,-0.0475 0.1668,-0.0332 0.1635,-0.0187 0.1594,-0.0042 0.1545,0.0104 0.1490,0.0249 0.1426,0.0395 0.1356,0.0540 0.1279,0.0685 0.1195,0.0828 0.1104,0.0969 0.1007,0.1109 0.0904,0.1247 0.0795,0.1382 0.0680,0.1515 0.0560,0.1645 0.0434,0.1771 0.0304,0.1893 0.0169,0.2012 0.0030,0.2127 -0.0113,0.2237 -0.0260,0.2343 -0.0410,0.2443 -0.0563,0.2539 -0.0719,0.2629 -0.0877,0.2714 -0.1037,0.2793 -0.1198,0.2866 -0.1361,0.2933 -0.1525,0.2993 -0.1689,0.3048 -0.1853,0.3096 -0.2016,0.3137 -0.2180,0.3171 -0.2342,0.3199 -0.2502,0.3220 -0.2661,0.3234 -0.2818,0.3242 -0.2973,0.3242 -0.3124,0.3235 -0.3273,0.3222 -0.3418,0.3201 -0.3559,0.3174 -0.3696,0.3140 -0.3829,0.3099 -0.3957,0.3052 -0.4080,0.2998 -0.4197,0.2938 -0.4309,0.2872 -0.4416,0.2799 -0.4516,0.2721 -0.4610,0.2636 -0.4697,0.2547 -0.4778,0.2452 -0.4852,0.2351 -0.4918,0.2246 -0.4978,0.2136 -0.5030,0.2022 -0.5075,0.1904 -0.5112,0.1781 -0.5142,0.1655 -0.5164,0.1526 -0.5178,0.1394 -0.5184,0.1259 -0.5183,0.1121 -0.5174,0.0981 -0.5157,0.0840 -0.5132,0.0697 -0.5100,0.0553 -0.5060,0.0407 -0.5013,0.0262 -0.4958,0.0116 -0.4896,-0.0030 -0.4826,-0.0175 -0.4750,-0.0319 -0.4667,-0.0463 -0.4577,-0.0605 -0.4481,-0.0745 -0.4379,-0.0883 -0.4271,-0.1019 -0.4156,-0.1152 -0.4037,-0.1282 -0.3912,-0.1408 -0.3783,-0.1532 -0.3648,-0.1651 -0.3510,-0.1766 -0.3367,-0.1877 -0.3221,-0.1983 -0.3071,-0.2085 -0.2919,-0.2181 -0.2763,-0.2272 -0.2606,-0.2357 -0.2446,-0.2437 -0.2285,-0.2511 -0.2122,-0.2579 -0.1959,-0.2640 -0.1795,-0.2696 -0.1631,-0.2745 -0.1467,-0.2787 -0.1303,-0.2822"/></g><g stroke-width="0.0020" stroke="rgb(2%, 29%, 48%)" stroke-opacity="1.0" fill="none"><polyline points="0.0534,-0.2701 0.0366,-0.2764 0.0189,-0.2817 0.0004,-0.2857 -0.0188,-0.2885 -0.0385,-0.2902 -0.0588,-0.2906 -0.0795,-0.2898 -0.1006,-0.2878 -0.1220,-0.2846 -0.1436,-0.2802 -0.1653,-0.2746 -0.1871,-0.2679 -0.2088,-0.2600 -0.2303,-0.2511 -0.2516,-0.2411 -0.2727,-0.2301 -0.2933,-0.2181 -0.3134,-0.2051 -0.3330,-0.1913 -0.3520,-0.1767 -0.3702,-0.1613 -0.3877,-0.1452 -0.4043,-0.1285 -0.4201,-0.1111 -0.4348,-0.0933 -0.4485,-0.0751 -0.4611,-0.0564 -0.4726,-0.0375 -0.4829,-0.0184 -0.4920,0.0009 -0.4998,0.0202 -0.5064,0.0396 -0.5116,0.0588 -0.5155,0.0779 -0.5180,0.0967 -0.5192,0.1152 -0.5190,0.1334 -0.5174,0.1510 -0.5145,0.1682 -0.5103,0.1848 -0.5047,0.2006 -0.4978,0.2158 -0.4896,0.2302 -0.4802,0.2437 -0.4695,0.2564 -0.4577,0.2681 -0.4448,0.2788 -0.4308,0.2885 -0.4157,0.2971 -0.3997,0.3046 -0.3829,0.3110 -0.3652,0.3162 -0.3467,0.3203 -0.3276,0.3231 -0.3078,0.3248 -0.2875,0.3252 -0.2668,0.3244 -0.2457,0.3224 -0.2243,0.3192 -0.2027,0.3148 -0.1810,0.3092 -0.1592,0.3025 -0.1375,0.2946 -0.1160,0.2857 -0.0947,0.2757 -0.0737,0.2646 -0.0530,0.2526 -0.0329,0.2397 -0.0133,0.2259 0.0057,0.2113 0.0239,0.1959 0.0414,0.1798 0.0580,0.1630 0.0737,0.1457 0.0885,0.1279 0.1022,0.1096 0.1148,0.0910 0.1263,0.0721 0.1366,0.0530 0.1457,0.0337 0.1535,0.0143 0.1601,-0.0050 0.1653,-0.0242 0.1692,-0.0433 0.1717,-0.0621 0.1729,-0.0807 0.1727,-0.0988 0.1711,-0.1165 0.1682,-0.1336 0.1639,-0.1502 0.1584,-0.1661 0.1514,-0.1812 0.1433,-0.1956 0.1338,-0.2092 0.1232,-0.2218 0.1114,-0.2335 0.0984,-0.2443 0.0844,-0.2539 0.0694,-0.2626 0.0534,-0.2701"/></g><g stroke-width="0.0030" stroke="rgb(2%, 29%, 48%)" stroke-opacity="1.0" fill="rgb(2%, 73%, 80%)" fill-opacity="0.2"><circle cx="-0.1713" cy="0.0166" r="0.0150"/></g><g stroke-width="0.0030" stroke="rgb(2%, 29%, 48%)" stroke-opacity="1.0" fill="rgb(100%, 71%, 35%)" fill-opacity="0.2"><circle cx="0.1671" cy="-0.0601" r="0.0150"/><circle cx="-0.1294" cy="-0.2748" r="0.0150"/></g><g stroke-width="0.0020" stroke="rgb(50%, 50%, 50%)" stroke-opacity="1.0" fill="rgb(53%, 51%, 28%)" fill-opacity="0.00"><rect width="0.6909" height="0.6082" x="-0.5193" y="-0.2830"/></g><g stroke-width="0.0050" stroke="rgb(21%, 29%, 7%)" stroke-opacity="1.0" fill="none" stroke-linecap="round" stroke-dasharray="0.0300 0.0100"><polyline points="0.0532,-0.2693 -0.3992,0.3038"/></g><g stroke-width="0.0050" stroke="rgb(73%, 34%, 1%)" stroke-opacity="1.0" fill="none" stroke-linecap="round" stroke-dasharray="0.0300 0.0100"><polyline points="-0.4342,-0.0931 0.0882,0.1275"/></g></g><g class="datapadding"></g></g><g class="hud"><g class="frame"><g stroke-width="0" stroke="rgb(0%, 0%, 0%)" stroke-opacity="0" fill="rgb(100%, 100%, 100%)" fill-opacity="0.02"><rect width="0.9074" height="0.7757" x="-0.5842" y="-0.3944"/></g></g><g class="axis"><g class="axisbar"><g stroke-width="0" stroke="rgb(0%, 0%, 0%)" stroke-opacity="0" fill="rgb(5%, 5%, 5%)" fill-opacity="0.4"><rect width="0.0024" height="0.7788" x="-0.5927" y="-0.3959"/></g></g><g class="ticks"><g class="tickglyph"><g stroke-width="0.0040" stroke="rgb(5%, 5%, 5%)" stroke-opacity="0.4" fill="rgb(5%, 5%, 5%)" fill-opacity="0.4"><polyline points="-0.6185,0.3806
-0.5885,0.3806"/><polyline points="-0.6185,0.2700
-0.5885,0.2700"/><polyline points="-0.6185,0.1594
-0.5885,0.1594"/><polyline points="-0.6185,0.0488
-0.5885,0.0488"/><polyline points="-0.6185,-0.0618
-0.5885,-0.0618"/><polyline points="-0.6185,-0.1724
-0.5885,-0.1724"/><polyline points="-0.6185,-0.2830
-0.5885,-0.2830"/><polyline points="-0.6185,-0.3936
-0.5885,-0.3936"/></g></g><g class="ticktext"><g stroke-width="0.0" stroke="none" fill="rgb(5%, 5%, 5%)" fill-opacity="1.0" font-size="0.0400" text-anchor="end"><text x="-0.6304" y="0.3882">-2.0</text><text x="-0.6304" y="0.2785">-1.5</text><text x="-0.6304" y="0.1688">-1.0</text><text x="-0.6304" y="0.0592">-0.5</text><text x="-0.6304" y="-0.0505"> 0.0</text><text x="-0.6304" y="-0.1602"> 0.5</text><text x="-0.6304" y="-0.2699"> 1.0</text><text x="-0.6304" y="-0.3796"> 1.5</text></g></g><g class="ticklines"><g stroke-width="0.0050" stroke="rgb(5%, 5%, 5%)" stroke-opacity="0.05" fill="none"><polyline points="-0.5835,0.3809 0.3228,0.3809"/><polyline points="-0.5835,0.2702 0.3228,0.2702"/><polyline points="-0.5835,0.1595 0.3228,0.1595"/><polyline points="-0.5835,0.0488 0.3228,0.0488"/><polyline points="-0.5835,-0.0619 0.3228,-0.0619"/><polyline points="-0.5835,-0.1725 0.3228,-0.1725"/><polyline points="-0.5835,-0.2832 0.3228,-0.2832"/><polyline points="-0.5835,-0.3939 0.3228,-0.3939"/></g></g></g></g><g class="axis"><g class="axisbar"><g stroke-width="0" stroke="rgb(0%, 0%, 0%)" stroke-opacity="0" fill="rgb(5%, 5%, 5%)" fill-opacity="0.4"><rect width="0.9099" height="0.0031" x="-0.5855" y="0.3891"/></g></g><g class="ticks"><g class="tickglyph"><g stroke-width="0.0040" stroke="rgb(5%, 5%, 5%)" stroke-opacity="0.4" fill="rgb(5%, 5%, 5%)" fill-opacity="0.4"><polyline points="-0.5830,0.4172
-0.5830,0.3872"/><polyline points="-0.4321,0.4172
-0.4321,0.3872"/><polyline points="-0.2812,0.4172
-0.2812,0.3872"/><polyline points="-0.1302,0.4172
-0.1302,0.3872"/><polyline points="0.0207,0.4172
0.0207,0.3872"/><polyline points="0.1716,0.4172
0.1716,0.3872"/><polyline points="0.3225,0.4172
0.3225,0.3872"/></g></g><g class="ticktext"><g stroke-width="0.0" stroke="none" fill="rgb(5%, 5%, 5%)" fill-opacity="1.0" font-size="0.0400" text-anchor="middle"><text x="-0.5689" y="0.4573">-2.0</text><text x="-0.4216" y="0.4573">-1.0</text><text x="-0.2743" y="0.4573">-0.5</text><text x="-0.1271" y="0.4573"> 0.0</text><text x="0.0202" y="0.4573"> 0.5</text><text x="0.1674" y="0.4573"> 1.0</text><text x="0.3147" y="0.4573"> 2.0</text></g></g><g class="ticklines"><g stroke-width="0.0050" stroke="rgb(5%, 5%, 5%)" stroke-opacity="0.05" fill="none"><polyline points="-0.5835,0.3809 -0.5835,-0.3939"/><polyline points="-0.4324,0.3809 -0.4324,-0.3939"/><polyline points="-0.2814,0.3809 -0.2814,-0.3939"/><polyline points="-0.1303,0.3809 -0.1303,-0.3939"/><polyline points="0.0207,0.3809 0.0207,-0.3939"/><polyline points="0.1717,0.3809 0.1717,-0.3939"/><polyline points="0.3228,0.3809 0.3228,-0.3939"/></g></g></g></g><g class="legend"><g class="padding"></g><g class="padding"></g><g class="frame"><g stroke-width="0.0009" stroke="rgb(5%, 5%, 5%)" stroke-opacity="1.0" fill="rgb(5%, 5%, 5%)" fill-opacity="0"><rect width="0.3252" height="0.4538" x="0.3976" y="-0.3839"/></g></g><g class="legendContent"><g stroke-width="0.0" stroke="none" fill="rgb(5%, 5%, 5%)" fill-opacity="1.0" font-size="0.0343" text-anchor="start"><text x="0.4127" y="0.0389">Bounding Box</text></g><g stroke-width="0.0017" stroke="rgb(50%, 50%, 50%)" stroke-opacity="1.0" fill="rgb(53%, 51%, 28%)" fill-opacity="0.00"><rect width="0.0151" height="0.0194" x="0.6759" y="0.0195"/></g><g stroke-width="0.0" stroke="none" fill="rgb(5%, 5%, 5%)" fill-opacity="1.0" font-size="0.0343" text-anchor="start"><text x="0.4127" y="-0.0232">Endpoints</text></g><g stroke-width="0.0005" stroke="rgb(2%, 29%, 48%)" stroke-opacity="1.0" fill="rgb(100%, 71%, 35%)" fill-opacity="0.2"><rect width="0.0171" height="0.0171" x="0.6749" y="-0.0415"/></g><g stroke-width="0.0" stroke="none" fill="rgb(5%, 5%, 5%)" fill-opacity="1.0" font-size="0.0343" text-anchor="start"><text x="0.4127" y="-0.0852">Centroid</text></g><g stroke-width="0.0005" stroke="rgb(2%, 29%, 48%)" stroke-opacity="1.0" fill="rgb(2%, 73%, 80%)" fill-opacity="0.2"><rect width="0.0171" height="0.0171" x="0.6749" y="-0.1035"/></g><g stroke-width="0.0" stroke="none" fill="rgb(5%, 5%, 5%)" fill-opacity="1.0" font-size="0.0343" text-anchor="start"><text x="0.4127" y="-0.1473">Arc</text></g><g stroke-width="0.0034" stroke="rgb(66%, 7%, 55%)" stroke-opacity="1.0" fill="none"><polyline points="0.6759,-0.1570 0.7061,-0.1570"/></g><g stroke-width="0.0" stroke="none" fill="rgb(5%, 5%, 5%)" fill-opacity="1.0" font-size="0.0343" text-anchor="start"><text x="0.4127" y="-0.2094">Full Ellipse</text></g><g stroke-width="0.0014" stroke="rgb(2%, 29%, 48%)" stroke-opacity="1.0" fill="none"><polyline points="0.6759,-0.2191 0.7061,-0.2191"/></g><g stroke-width="0.0" stroke="none" fill="rgb(5%, 5%, 5%)" fill-opacity="1.0" font-size="0.0343" text-anchor="start"><text x="0.4127" y="-0.2714">Minor Axis</text></g><g stroke-width="0.0034" stroke="rgb(73%, 34%, 1%)" stroke-opacity="1.0" fill="none" stroke-linecap="round" stroke-dasharray="0.0300 0.0100"><polyline points="0.6759,-0.2811 0.7061,-0.2811"/></g><g stroke-width="0.0" stroke="none" fill="rgb(5%, 5%, 5%)" fill-opacity="1.0" font-size="0.0343" text-anchor="start"><text x="0.4127" y="-0.3335">Major Axis</text></g><g stroke-width="0.0034" stroke="rgb(21%, 29%, 7%)" stroke-opacity="1.0" fill="none" stroke-linecap="round" stroke-dasharray="0.0300 0.0100"><polyline points="0.6759,-0.3432 0.7061,-0.3432"/></g></g></g><g class="title"><g stroke-width="0.0" stroke="none" fill="rgb(5%, 5%, 5%)" fill-opacity="1.0" font-size="0.0320" text-anchor="middle"><text x="0" y="-0.4436">ArcPosition (Point 1 0) (Point 0 1) (ArcInfo (Point 1.5 1) (pi / 3) True True)</text></g></g><g class="frame"><g stroke-width="0" stroke="rgb(0%, 0%, 0%)" stroke-opacity="0" fill="rgb(0%, 0%, 0%)" fill-opacity="0"><rect width="1.5" height="1.0" x="-0.75" y="-0.5"/></g></g></g></svg>