<svg xmlns="http://www.w3.org/2000/svg" xmlns:xlink="http://www.w3.org/1999/xlink" width="600" height="300" viewBox="-1.0 -0.5 2.0 1.0"><style>svg {
  color-scheme: light dark;
}
{
  .canvas g, .title g, .axisbar g, .ticktext g, .tickglyph g, .ticklines g, .legendContent g text {
    fill: rgb(5%, 5%, 5%);
  }
  .ticklines g, .tickglyph g, .legendBorder g {
    stroke: rgb(5%, 5%, 5%);
  }
  .legendBorder g {
    fill: rgb(94%, 94%, 94%);
  }
}
@media (prefers-color-scheme:dark) {
  .canvas g, .title g, .axisbar g, .ticktext g, .tickglyph g, .ticklines g, .legendContent g text {
    fill: rgb(94%, 94%, 94%);
  }
  .ticklines g, .tickglyph g, .legendBorder g {
    stroke: rgb(94%, 94%, 94%);
  }
  .legendBorder g {
    fill: rgb(5%, 5%, 5%);
  }
}
svg { font-family: system-ui,-apple-system,"Segoe UI",Roboto,"Helvetica Neue",Arial,"Noto Sans","Liberation Sans",sans-serif,"Apple Color Emoji","Segoe UI Emoji","Segoe UI Symbol","Noto Color Emoji";
}

ticktext { font-family: SFMono-Regular,Menlo,Monaco,Consolas,"Liberation Mono","Courier New",monospace;
}

</style><g class="chart"><g class="ellipse"><g stroke-width="0.0050" stroke="rgb(66%, 7%, 55%)" stroke-opacity="1.0" fill="none"><polyline points="0.3021,-0.0617 0.2994,-0.0475 0.2956,-0.0332 0.2906,-0.0187 0.2845,-0.0042 0.2773,0.0104 0.2691,0.0249 0.2597,0.0395 0.2493,0.0540 0.2378,0.0685 0.2254,0.0828 0.2120,0.0969 0.1976,0.1109 0.1823,0.1247 0.1661,0.1382 0.1491,0.1515 0.1313,0.1645 0.1127,0.1771 0.0934,0.1893 0.0734,0.2012 0.0528,0.2127 0.0316,0.2237 0.0099,0.2343 -0.0124,0.2443 -0.0350,0.2539 -0.0581,0.2629 -0.0815,0.2714 -0.1052,0.2793 -0.1291,0.2866 -0.1532,0.2933 -0.1775,0.2993 -0.2018,0.3048 -0.2261,0.3096 -0.2503,0.3137 -0.2745,0.3171 -0.2985,0.3199 -0.3223,0.3220 -0.3459,0.3234 -0.3691,0.3242 -0.3920,0.3242 -0.4145,0.3235 -0.4365,0.3222 -0.4580,0.3201 -0.4789,0.3174 -0.4992,0.3140 -0.5188,0.3099 -0.5378,0.3052 -0.5560,0.2998 -0.5734,0.2938 -0.5900,0.2872 -0.6057,0.2799 -0.6206,0.2721 -0.6345,0.2636 -0.6474,0.2547 -0.6594,0.2452 -0.6703,0.2351 -0.6802,0.2246 -0.6890,0.2136 -0.6968,0.2022 -0.7034,0.1904 -0.7089,0.1781 -0.7133,0.1655 -0.7166,0.1526 -0.7187,0.1394 -0.7196,0.1259 -0.7194,0.1121 -0.7181,0.0981 -0.7156,0.0840 -0.7119,0.0697 -0.7071,0.0553 -0.7012,0.0407 -0.6942,0.0262 -0.6860,0.0116 -0.6768,-0.0030 -0.6666,-0.0175 -0.6553,-0.0319 -0.6430,-0.0463 -0.6297,-0.0605 -0.6154,-0.0745 -0.6003,-0.0883 -0.5842,-0.1019 -0.5674,-0.1152 -0.5496,-0.1282 -0.5312,-0.1408 -0.5120,-0.1532 -0.4921,-0.1651 -0.4716,-0.1766 -0.4504,-0.1877 -0.4288,-0.1983 -0.4066,-0.2085 -0.3840,-0.2181 -0.3610,-0.2272 -0.3376,-0.2357 -0.3139,-0.2437 -0.2900,-0.2511 -0.2660,-0.2579 -0.2418,-0.2640 -0.2175,-0.2696 -0.1932,-0.2745 -0.1689,-0.2787 -0.1447,-0.2822"/></g><g stroke-width="0.0020" stroke="rgb(2%, 29%, 48%)" stroke-opacity="1.0" fill="none"><polyline points="0.1274,-0.2701 0.1024,-0.2764 0.0762,-0.2817 0.0489,-0.2857 0.0206,-0.2885 -0.0087,-0.2902 -0.0387,-0.2906 -0.0694,-0.2898 -0.1007,-0.2878 -0.1323,-0.2846 -0.1643,-0.2802 -0.1964,-0.2746 -0.2286,-0.2679 -0.2607,-0.2600 -0.2926,-0.2511 -0.3242,-0.2411 -0.3553,-0.2301 -0.3858,-0.2181 -0.4156,-0.2051 -0.4446,-0.1913 -0.4727,-0.1767 -0.4997,-0.1613 -0.5256,-0.1452 -0.5502,-0.1285 -0.5735,-0.1111 -0.5953,-0.0933 -0.6156,-0.0751 -0.6343,-0.0564 -0.6513,-0.0375 -0.6665,-0.0184 -0.6800,0.0009 -0.6916,0.0202 -0.7012,0.0396 -0.7090,0.0588 -0.7147,0.0779 -0.7185,0.0967 -0.7202,0.1152 -0.7199,0.1334 -0.7176,0.1510 -0.7133,0.1682 -0.7070,0.1848 -0.6987,0.2006 -0.6885,0.2158 -0.6764,0.2302 -0.6624,0.2437 -0.6467,0.2564 -0.6292,0.2681 -0.6100,0.2788 -0.5893,0.2885 -0.5671,0.2971 -0.5434,0.3046 -0.5184,0.3110 -0.4922,0.3162 -0.4649,0.3203 -0.4365,0.3231 -0.4073,0.3248 -0.3773,0.3252 -0.3466,0.3244 -0.3153,0.3224 -0.2837,0.3192 -0.2517,0.3148 -0.2196,0.3092 -0.1874,0.3025 -0.1553,0.2946 -0.1234,0.2857 -0.0918,0.2757 -0.0607,0.2646 -0.0302,0.2526 -0.0004,0.2397 0.0286,0.2259 0.0567,0.2113 0.0837,0.1959 0.1096,0.1798 0.1342,0.1630 0.1575,0.1457 0.1793,0.1279 0.1996,0.1096 0.2183,0.0910 0.2353,0.0721 0.2505,0.0530 0.2640,0.0337 0.2756,0.0143 0.2852,-0.0050 0.2930,-0.0242 0.2987,-0.0433 0.3025,-0.0621 0.3042,-0.0807 0.3039,-0.0988 0.3016,-0.1165 0.2973,-0.1336 0.2910,-0.1502 0.2827,-0.1661 0.2725,-0.1812 0.2604,-0.1956 0.2464,-0.2092 0.2307,-0.2218 0.2132,-0.2335 0.1940,-0.2443 0.1733,-0.2539 0.1511,-0.2626 0.1274,-0.2701"/></g><g stroke-width="0.0030" stroke="rgb(2%, 29%, 48%)" stroke-opacity="1.0" fill="rgb(2%, 73%, 80%)" fill-opacity="0.2"><circle cx="-0.2066" cy="0.0166" r="0.0150"/></g><g stroke-width="0.0030" stroke="rgb(2%, 29%, 48%)" stroke-opacity="1.0" fill="rgb(100%, 71%, 35%)" fill-opacity="0.2"><circle cx="0.2985" cy="-0.0601" r="0.0150"/><circle cx="-0.1440" cy="-0.2748" r="0.0150"/></g><g stroke-width="0.0020" stroke="rgb(50%, 50%, 50%)" stroke-opacity="1.0" fill="rgb(53%, 51%, 28%)" fill-opacity="0.00"><rect width="1.0228" height="0.6082" x="-0.7203" y="-0.2830"/></g><g stroke-width="0.0050" stroke="rgb(21%, 29%, 7%)" stroke-opacity="1.0" fill="none" stroke-linecap="round" stroke-dasharray="0.0300 0.0100"><polyline points="0.1272,-0.2693 -0.5429,0.3038"/></g><g stroke-width="0.0050" stroke="rgb(73%, 34%, 1%)" stroke-opacity="1.0" fill="none" stroke-linecap="round" stroke-dasharray="0.0300 0.0100"><polyline points="-0.5948,-0.0931 0.1790,0.1275"/></g></g><g class="datapadding"></g></g><g class="hud"><g class="frame"><g stroke-width="0" stroke="rgb(0%, 0%, 0%)" stroke-opacity="0" fill="rgb(100%, 100%, 100%)" fill-opacity="0.02"><rect width="1.3425" height="0.7757" x="-0.8161" y="-0.3944"/></g></g><g class="axis"><g class="axisbar"><g stroke-width="0" stroke="rgb(0%, 0%, 0%)" stroke-opacity="0" fill="rgb(5%, 5%, 5%)" fill-opacity="0.4"><rect width="0.0027" height="0.7788" x="-0.8255" y="-0.3959"/></g></g><g class="ticks"><g class="tickglyph"><g stroke-width="0.0040" stroke="rgb(5%, 5%, 5%)" stroke-opacity="0.4" fill="rgb(5%, 5%, 5%)" fill-opacity="0.4"><polyline points="-0.8538,0.3806
-0.8238,0.3806"/><polyline points="-0.8538,0.2700
-0.8238,0.2700"/><polyline points="-0.8538,0.1594
-0.8238,0.1594"/><polyline points="-0.8538,0.0488
-0.8238,0.0488"/><polyline points="-0.8538,-0.0618
-0.8238,-0.0618"/><polyline points="-0.8538,-0.1724
-0.8238,-0.1724"/><polyline points="-0.8538,-0.2830
-0.8238,-0.2830"/><polyline points="-0.8538,-0.3936
-0.8238,-0.3936"/></g></g><g class="ticktext"><g stroke-width="0.0" stroke="none" fill="rgb(5%, 5%, 5%)" fill-opacity="1.0" font-size="0.0400" text-anchor="end"><text x="-0.8776" y="0.3882">-2.0</text><text x="-0.8776" y="0.2785">-1.5</text><text x="-0.8776" y="0.1688">-1.0</text><text x="-0.8776" y="0.0592">-0.5</text><text x="-0.8776" y="-0.0505"> 0.0</text><text x="-0.8776" y="-0.1602"> 0.5</text><text x="-0.8776" y="-0.2699"> 1.0</text><text x="-0.8776" y="-0.3796"> 1.5</text></g></g><g class="ticklines"><g stroke-width="0.0050" stroke="rgb(5%, 5%, 5%)" stroke-opacity="0.05" fill="none"><polyline points="-0.8154,0.3809 0.5260,0.3809"/><polyline points="-0.8154,0.2702 0.5260,0.2702"/><polyline points="-0.8154,0.1595 0.5260,0.1595"/><polyline points="-0.8154,0.0488 0.5260,0.0488"/><polyline points="-0.8154,-0.0619 0.5260,-0.0619"/><polyline points="-0.8154,-0.1725 0.5260,-0.1725"/><polyline points="-0.8154,-0.2832 0.5260,-0.2832"/><polyline points="-0.8154,-0.3939 0.5260,-0.3939"/></g></g></g></g><g class="axis"><g class="axisbar"><g stroke-width="0" stroke="rgb(0%, 0%, 0%)" stroke-opacity="0" fill="rgb(5%, 5%, 5%)" fill-opacity="0.4"><rect width="1.3452" height="0.0031" x="-0.8174" y="0.3891"/></g></g><g class="ticks"><g class="tickglyph"><g stroke-width="0.0040" stroke="rgb(5%, 5%, 5%)" stroke-opacity="0.4" fill="rgb(5%, 5%, 5%)" fill-opacity="0.4"><polyline points="-0.8150,0.4172
-0.8150,0.3872"/><polyline points="-0.5915,0.4172
-0.5915,0.3872"/><polyline points="-0.3681,0.4172
-0.3681,0.3872"/><polyline points="-0.1446,0.4172
-0.1446,0.3872"/><polyline points="0.0788,0.4172
0.0788,0.3872"/><polyline points="0.3023,0.4172
0.3023,0.3872"/><polyline points="0.5257,0.4172
0.5257,0.3872"/></g></g><g class="ticktext"><g stroke-width="0.0" stroke="none" fill="rgb(5%, 5%, 5%)" fill-opacity="1.0" font-size="0.0400" text-anchor="middle"><text x="-0.8028" y="0.4573">-2.0</text><text x="-0.5827" y="0.4573">-1.0</text><text x="-0.3626" y="0.4573">-0.5</text><text x="-0.1425" y="0.4573"> 0.0</text><text x="0.0776" y="0.4573"> 0.5</text><text x="0.2977" y="0.4573"> 1.0</text><text x="0.5178" y="0.4573"> 2.0</text></g></g><g class="ticklines"><g stroke-width="0.0050" stroke="rgb(5%, 5%, 5%)" stroke-opacity="0.05" fill="none"><polyline points="-0.8154,0.3809 -0.8154,-0.3939"/><polyline points="-0.5918,0.3809 -0.5918,-0.3939"/><polyline points="-0.3683,0.3809 -0.3683,-0.3939"/><polyline points="-0.1447,0.3809 -0.1447,-0.3939"/><polyline points="0.0789,0.3809 0.0789,-0.3939"/><polyline points="0.3024,0.3809 0.3024,-0.3939"/><polyline points="0.5260,0.3809 0.5260,-0.3939"/></g></g></g></g><g class="legend"><g class="padding"></g><g class="padding"></g><g class="frame"><g stroke-width="0.0009" stroke="rgb(5%, 5%, 5%)" stroke-opacity="1.0" fill="rgb(5%, 5%, 5%)" fill-opacity="0"><rect width="0.3608" height="0.4538" x="0.6090" y="-0.3839"/></g></g><g class="legendContent"><g stroke-width="0.0" stroke="none" fill="rgb(5%, 5%, 5%)" fill-opacity="1.0" font-size="0.0361" text-anchor="start"><text x="0.6258" y="0.0389">Bounding Box</text></g><g stroke-width="0.0018" stroke="rgb(50%, 50%, 50%)" stroke-opacity="1.0" fill="rgb(53%, 51%, 28%)" fill-opacity="0.00"><rect width="0.0168" height="0.0194" x="0.9178" y="0.0195"/></g><g stroke-width="0.0" stroke="none" fill="rgb(5%, 5%, 5%)" fill-opacity="1.0" font-size="0.0361" text-anchor="start"><text x="0.6258" y="-0.0232">Endpoints</text></g><g stroke-width="0.0005" stroke="rgb(2%, 29%, 48%)" stroke-opacity="1.0" fill="rgb(100%, 71%, 35%)" fill-opacity="0.2"><rect width="0.0180" height="0.0180" x="0.9171" y="-0.0419"/></g><g stroke-width="0.0" stroke="none" fill="rgb(5%, 5%, 5%)" fill-opacity="1.0" font-size="0.0361" text-anchor="start"><text x="0.6258" y="-0.0852">Centroid</text></g><g stroke-width="0.0005" stroke="rgb(2%, 29%, 48%)" stroke-opacity="1.0" fill="rgb(2%, 73%, 80%)" fill-opacity="0.2"><rect width="0.0180" height="0.0180" x="0.9171" y="-0.1040"/></g><g stroke-width="0.0" stroke="none" fill="rgb(5%, 5%, 5%)" fill-opacity="1.0" font-size="0.0361" text-anchor="start"><text x="0.6258" y="-0.1473">Arc</text></g><g stroke-width="0.0036" stroke="rgb(66%, 7%, 55%)" stroke-opacity="1.0" fill="none"><polyline points="0.9178,-0.1570 0.9513,-0.1570"/></g><g stroke-width="0.0" stroke="none" fill="rgb(5%, 5%, 5%)" fill-opacity="1.0" font-size="0.0361" text-anchor="start"><text x="0.6258" y="-0.2094">Full Ellipse</text></g><g stroke-width="0.0014" stroke="rgb(2%, 29%, 48%)" stroke-opacity="1.0" fill="none"><polyline points="0.9178,-0.2191 0.9513,-0.2191"/></g><g stroke-width="0.0" stroke="none" fill="rgb(5%, 5%, 5%)" fill-opacity="1.0" font-size="0.0361" text-anchor="start"><text x="0.6258" y="-0.2714">Minor Axis</text></g><g stroke-width="0.0036" stroke="rgb(73%, 34%, 1%)" stroke-opacity="1.0" fill="none" stroke-linecap="round" stroke-dasharray="0.0300 0.0100"><polyline points="0.9178,-0.2811 0.9513,-0.2811"/></g><g stroke-width="0.0" stroke="none" fill="rgb(5%, 5%, 5%)" fill-opacity="1.0" font-size="0.0361" text-anchor="start"><text x="0.6258" y="-0.3335">Major Axis</text></g><g stroke-width="0.0036" stroke="rgb(21%, 29%, 7%)" stroke-opacity="1.0" fill="none" stroke-linecap="round" stroke-dasharray="0.0300 0.0100"><polyline points="0.9178,-0.3432 0.9513,-0.3432"/></g></g></g><g class="title"><g stroke-width="0.0" stroke="none" fill="rgb(5%, 5%, 5%)" fill-opacity="1.0" font-size="0.0320" text-anchor="middle"><text x="0" y="-0.4436">ArcPosition (Point 1 0) (Point 0 1) (ArcInfo (Point 1.5 1) (pi / 3) True True)</text></g></g><g class="frame"><g stroke-width="0" stroke="rgb(0%, 0%, 0%)" stroke-opacity="0" fill="rgb(0%, 0%, 0%)" fill-opacity="0"><rect width="2.0" height="1.0" x="-1.0" y="-0.5"/></g></g></g></svg>