<svg xmlns="http://www.w3.org/2000/svg" xmlns:xlink="http://www.w3.org/1999/xlink" width="510" height="300" viewBox="-0.85 -0.5 1.7 1.0"><style>svg {
  color-scheme: light dark;
}
{
  .canvas g, .title g, .axisbar g, .ticktext g, .tickglyph g, .ticklines g, .legendContent g text {
    fill: rgb(5%, 5%, 5%);
  }
  .ticklines g, .tickglyph g, .legendBorder g {
    stroke: rgb(5%, 5%, 5%);
  }
  .legendBorder g {
    fill: rgb(94%, 94%, 94%);
  }
}
@media (prefers-color-scheme:dark) {
  .canvas g, .title g, .axisbar g, .ticktext g, .tickglyph g, .ticklines g, .legendContent g text {
    fill: rgb(94%, 94%, 94%);
  }
  .ticklines g, .tickglyph g, .legendBorder g {
    stroke: rgb(94%, 94%, 94%);
  }
  .legendBorder g {
    fill: rgb(5%, 5%, 5%);
  }
}</style><g class="chart"><g class="ellipse"><g stroke-width="0.0017" stroke="rgb(66%, 7%, 55%)" stroke-opacity="1.0" fill="none"><polyline points="0.3326,-0.0591 0.3300,-0.0424 0.3263,-0.0255 0.3215,-0.0084 0.3156,0.0087 0.3086,0.0259 0.3006,0.0431 0.2915,0.0602 0.2814,0.0774 0.2703,0.0944 0.2582,0.1113 0.2452,0.1280 0.2312,0.1445 0.2164,0.1608 0.2007,0.1767 0.1841,0.1924 0.1668,0.2077 0.1488,0.2225 0.1301,0.2370 0.1106,0.2510 0.0906,0.2646 0.0700,0.2776 0.0489,0.2900 0.0273,0.3019 0.0053,0.3132 -0.0171,0.3238 -0.0398,0.3338 -0.0628,0.3431 -0.0861,0.3517 -0.1095,0.3596 -0.1330,0.3668 -0.1566,0.3732 -0.1802,0.3788 -0.2038,0.3837 -0.2272,0.3878 -0.2506,0.3911 -0.2737,0.3935 -0.2966,0.3952 -0.3191,0.3961 -0.3413,0.3961 -0.3632,0.3953 -0.3845,0.3937 -0.4054,0.3913 -0.4257,0.3881 -0.4454,0.3841 -0.4645,0.3793 -0.4829,0.3737 -0.5006,0.3673 -0.5175,0.3602 -0.5336,0.3524 -0.5489,0.3439 -0.5633,0.3346 -0.5768,0.3247 -0.5894,0.3141 -0.6010,0.3029 -0.6116,0.2910 -0.6212,0.2786 -0.6298,0.2657 -0.6373,0.2522 -0.6437,0.2382 -0.6491,0.2238 -0.6534,0.2089 -0.6565,0.1937 -0.6586,0.1781 -0.6595,0.1621 -0.6593,0.1459 -0.6580,0.1294 -0.6555,0.1127 -0.6520,0.0958 -0.6473,0.0788 -0.6416,0.0617 -0.6348,0.0445 -0.6269,0.0273 -0.6179,0.0101 -0.6080,-0.0070 -0.5970,-0.0240 -0.5850,-0.0410 -0.5721,-0.0577 -0.5583,-0.0742 -0.5436,-0.0905 -0.5280,-0.1065 -0.5116,-0.1222 -0.4944,-0.1376 -0.4765,-0.1525 -0.4578,-0.1671 -0.4385,-0.1811 -0.4186,-0.1947 -0.3981,-0.2078 -0.3770,-0.2203 -0.3555,-0.2323 -0.3335,-0.2437 -0.3112,-0.2544 -0.2885,-0.2645 -0.2655,-0.2739 -0.2423,-0.2826 -0.2189,-0.2906 -0.1954,-0.2979 -0.1719,-0.3044 -0.1483,-0.3102 -0.1247,-0.3151 -0.1012,-0.3193"/></g><g stroke-width="0.0007" stroke="rgb(2%, 29%, 48%)" stroke-opacity="1.0" fill="none"><polyline points="0.1629,-0.3041 0.1386,-0.3116 0.1132,-0.3177 0.0867,-0.3225 0.0592,-0.3258 0.0308,-0.3278 0.0017,-0.3283 -0.0281,-0.3273 -0.0584,-0.3250 -0.0891,-0.3212 -0.1201,-0.3160 -0.1513,-0.3095 -0.1825,-0.3015 -0.2137,-0.2923 -0.2446,-0.2818 -0.2752,-0.2700 -0.3054,-0.2570 -0.3350,-0.2429 -0.3639,-0.2277 -0.3921,-0.2115 -0.4193,-0.1943 -0.4455,-0.1761 -0.4706,-0.1572 -0.4945,-0.1375 -0.5171,-0.1171 -0.5382,-0.0962 -0.5579,-0.0747 -0.5761,-0.0528 -0.5926,-0.0305 -0.6074,-0.0080 -0.6204,0.0147 -0.6316,0.0374 -0.6410,0.0602 -0.6485,0.0828 -0.6541,0.1052 -0.6577,0.1274 -0.6594,0.1492 -0.6591,0.1705 -0.6569,0.1913 -0.6527,0.2115 -0.6466,0.2310 -0.6386,0.2497 -0.6287,0.2675 -0.6169,0.2844 -0.6034,0.3004 -0.5881,0.3152 -0.5711,0.3290 -0.5525,0.3416 -0.5324,0.3530 -0.5109,0.3632 -0.4879,0.3720 -0.4637,0.3795 -0.4382,0.3856 -0.4117,0.3904 -0.3842,0.3937 -0.3559,0.3957 -0.3267,0.3962 -0.2970,0.3952 -0.2667,0.3929 -0.2359,0.3891 -0.2049,0.3839 -0.1737,0.3774 -0.1425,0.3695 -0.1114,0.3602 -0.0804,0.3497 -0.0498,0.3379 -0.0196,0.3249 0.0100,0.3108 0.0389,0.2956 0.0670,0.2794 0.0943,0.2622 0.1205,0.2440 0.1456,0.2251 0.1695,0.2054 0.1920,0.1850 0.2132,0.1641 0.2329,0.1426 0.2510,0.1207 0.2675,0.0984 0.2823,0.0759 0.2954,0.0532 0.3066,0.0305 0.3160,0.0078 0.3235,-0.0149 0.3291,-0.0373 0.3327,-0.0595 0.3344,-0.0813 0.3341,-0.1026 0.3319,-0.1234 0.3277,-0.1436 0.3216,-0.1631 0.3135,-0.1818 0.3036,-0.1996 0.2919,-0.2165 0.2783,-0.2325 0.2630,-0.2473 0.2461,-0.2611 0.2275,-0.2737 0.2074,-0.2851 0.1858,-0.2953 0.1629,-0.3041"/></g><g stroke-width="0.0010" stroke="rgb(2%, 29%, 48%)" stroke-opacity="1.0" fill="rgb(2%, 73%, 80%)" fill-opacity="0.2"><circle cx="-0.1625" cy="0.0340" r="0.0050"/></g><g stroke-width="0.0010" stroke="rgb(2%, 29%, 48%)" stroke-opacity="1.0" fill="rgb(100%, 71%, 35%)" fill-opacity="0.2"><circle cx="0.3326" cy="-0.0591" r="0.0050"/><circle cx="-0.1012" cy="-0.3193" r="0.0050"/></g><g stroke-width="0.0007" stroke="rgb(50%, 50%, 50%)" stroke-opacity="1.0" fill="rgb(53%, 51%, 28%)" fill-opacity="0.00"><rect width="0.9922" height="0.7155" x="-0.6595" y="-0.3193"/></g><g stroke-width="0.0017" stroke="rgb(21%, 29%, 7%)" stroke-opacity="1.0" fill="none" stroke-linecap="round" stroke-dasharray="0.0300 0.0100"><polyline points="0.1629,-0.3041 -0.4879,0.3720"/></g><g stroke-width="0.0017" stroke="rgb(73%, 34%, 1%)" stroke-opacity="1.0" fill="none" stroke-linecap="round" stroke-dasharray="0.0300 0.0100"><polyline points="-0.5382,-0.0962 0.2132,0.1641"/></g></g></g><g class="hud"><g class="frame"><g stroke-width="0" stroke="rgb(0%, 0%, 0%)" stroke-opacity="0" fill="rgb(100%, 100%, 100%)" fill-opacity="0.02"><rect width="1.3015" height="0.9108" x="-0.7520" y="-0.4495"/></g></g><g class="axis"><g class="ticks"><g class="tickglyph"><g stroke-width="0.0013" stroke="rgb(5%, 5%, 5%)" stroke-opacity="0.4" fill="rgb(5%, 5%, 5%)" fill-opacity="0.4"><polyline points="-0.7700,0.4614
-0.7599,0.4614"/><polyline points="-0.7700,0.3312
-0.7599,0.3312"/><polyline points="-0.7700,0.2011
-0.7599,0.2011"/><polyline points="-0.7700,0.0710
-0.7599,0.0710"/><polyline points="-0.7700,-0.0591
-0.7599,-0.0591"/><polyline points="-0.7700,-0.1892
-0.7599,-0.1892"/><polyline points="-0.7700,-0.3193
-0.7599,-0.3193"/><polyline points="-0.7700,-0.4495
-0.7599,-0.4495"/></g></g><g class="ticktext"><g stroke-width="0.0" stroke="none" fill="rgb(5%, 5%, 5%)" fill-opacity="1.0" font-size="0.0168" text-anchor="end"><text x="-0.7806" y="0.4649">-2.0</text><text x="-0.7806" y="0.3348">-1.5</text><text x="-0.7806" y="0.2047">-1.0</text><text x="-0.7806" y="0.0746">-0.5</text><text x="-0.7806" y="-0.0555"> 0.0</text><text x="-0.7806" y="-0.1856"> 0.5</text><text x="-0.7806" y="-0.3158"> 1.0</text><text x="-0.7806" y="-0.4459"> 1.5</text></g></g><g class="ticklines"><g stroke-width="0.0017" stroke="rgb(5%, 5%, 5%)" stroke-opacity="0.05" fill="none"><polyline points="-0.7520,0.4614 0.5496,0.4614"/><polyline points="-0.7520,0.3312 0.5496,0.3312"/><polyline points="-0.7520,0.2011 0.5496,0.2011"/><polyline points="-0.7520,0.0710 0.5496,0.0710"/><polyline points="-0.7520,-0.0591 0.5496,-0.0591"/><polyline points="-0.7520,-0.1892 0.5496,-0.1892"/><polyline points="-0.7520,-0.3193 0.5496,-0.3193"/><polyline points="-0.7520,-0.4495 0.5496,-0.4495"/></g></g></g><g class="axisbar"><g stroke-width="0" stroke="rgb(0%, 0%, 0%)" stroke-opacity="0" fill="rgb(5%, 5%, 5%)" fill-opacity="0.4"><rect width="0.0017" height="0.9118" x="-0.7580" y="-0.4500"/></g></g></g><g class="axis"><g class="ticks"><g class="tickglyph"><g stroke-width="0.0013" stroke="rgb(5%, 5%, 5%)" stroke-opacity="0.4" fill="rgb(5%, 5%, 5%)" fill-opacity="0.4"><polyline points="-0.7520,0.4742
-0.7520,0.4641"/><polyline points="-0.5350,0.4742
-0.5350,0.4641"/><polyline points="-0.3181,0.4742
-0.3181,0.4641"/><polyline points="-0.1012,0.4742
-0.1012,0.4641"/><polyline points="0.1157,0.4742
0.1157,0.4641"/><polyline points="0.3326,0.4742
0.3326,0.4641"/><polyline points="0.5496,0.4742
0.5496,0.4641"/></g></g><g class="ticktext"><g stroke-width="0.0" stroke="none" fill="rgb(5%, 5%, 5%)" fill-opacity="1.0" font-size="0.0168" text-anchor="middle"><text x="-0.7520" y="0.4857">-2.0</text><text x="-0.5350" y="0.4857">-1.0</text><text x="-0.3181" y="0.4857">-0.5</text><text x="-0.1012" y="0.4857"> 0.0</text><text x="0.1157" y="0.4857"> 0.5</text><text x="0.3326" y="0.4857"> 1.0</text><text x="0.5496" y="0.4857"> 2.0</text></g></g><g class="ticklines"><g stroke-width="0.0017" stroke="rgb(5%, 5%, 5%)" stroke-opacity="0.05" fill="none"><polyline points="-0.7520,0.4614 -0.7520,-0.4495"/><polyline points="-0.5350,0.4614 -0.5350,-0.4495"/><polyline points="-0.3181,0.4614 -0.3181,-0.4495"/><polyline points="-0.1012,0.4614 -0.1012,-0.4495"/><polyline points="0.1157,0.4614 0.1157,-0.4495"/><polyline points="0.3326,0.4614 0.3326,-0.4495"/><polyline points="0.5496,0.4614 0.5496,-0.4495"/></g></g></g><g class="axisbar"><g stroke-width="0" stroke="rgb(0%, 0%, 0%)" stroke-opacity="0" fill="rgb(5%, 5%, 5%)" fill-opacity="0.4"><rect width="1.3033" height="0.0010" x="-0.7528" y="0.4640"/></g></g></g><g class="legend"><g class="legendBorder"><g stroke-width="0.0008" stroke="rgb(5%, 5%, 5%)" stroke-opacity="1.0" fill="rgb(5%, 5%, 5%)" fill-opacity="0"><rect width="0.2223" height="0.1522" x="0.6081" y="-0.1219"/></g></g><g class="legendContent"><g stroke-width="0.0" stroke="none" fill="rgb(5%, 5%, 5%)" fill-opacity="1.0" font-size="0.0168" text-anchor="start"><text x="0.6190" y="0.0199">Bounding Box</text></g><g stroke-width="0.0008" stroke="rgb(50%, 50%, 50%)" stroke-opacity="1.0" fill="rgb(53%, 51%, 28%)" fill-opacity="0.00"><rect width="0.0108" height="0.0065" x="0.7969" y="0.0134"/></g><g stroke-width="0.0" stroke="none" fill="rgb(5%, 5%, 5%)" fill-opacity="1.0" font-size="0.0168" text-anchor="start"><text x="0.6190" y="-0.0009">Endpoints</text></g><g stroke-width="0.0003" stroke="rgb(2%, 29%, 48%)" stroke-opacity="1.0" fill="rgb(100%, 71%, 35%)" fill-opacity="0.2"><rect width="0.0084" height="0.0084" x="0.7981" y="-0.0084"/></g><g stroke-width="0.0" stroke="none" fill="rgb(5%, 5%, 5%)" fill-opacity="1.0" font-size="0.0168" text-anchor="start"><text x="0.6190" y="-0.0217">Centroid</text></g><g stroke-width="0.0003" stroke="rgb(2%, 29%, 48%)" stroke-opacity="1.0" fill="rgb(2%, 73%, 80%)" fill-opacity="0.2"><rect width="0.0084" height="0.0084" x="0.7981" y="-0.0292"/></g><g stroke-width="0.0" stroke="none" fill="rgb(5%, 5%, 5%)" fill-opacity="1.0" font-size="0.0168" text-anchor="start"><text x="0.6190" y="-0.0425">Arc</text></g><g stroke-width="0.0017" stroke="rgb(66%, 7%, 55%)" stroke-opacity="1.0" fill="none"><polyline points="0.7969,-0.0458 0.8185,-0.0458"/></g><g stroke-width="0.0" stroke="none" fill="rgb(5%, 5%, 5%)" fill-opacity="1.0" font-size="0.0168" text-anchor="start"><text x="0.6190" y="-0.0634">Full Ellipse</text></g><g stroke-width="0.0007" stroke="rgb(2%, 29%, 48%)" stroke-opacity="1.0" fill="none"><polyline points="0.7969,-0.0666 0.8185,-0.0666"/></g><g stroke-width="0.0" stroke="none" fill="rgb(5%, 5%, 5%)" fill-opacity="1.0" font-size="0.0168" text-anchor="start"><text x="0.6190" y="-0.0842">Minor Axis</text></g><g stroke-width="0.0017" stroke="rgb(73%, 34%, 1%)" stroke-opacity="1.0" fill="none" stroke-linecap="round" stroke-dasharray="0.0300 0.0100"><polyline points="0.7969,-0.0874 0.8185,-0.0874"/></g><g stroke-width="0.0" stroke="none" fill="rgb(5%, 5%, 5%)" fill-opacity="1.0" font-size="0.0168" text-anchor="start"><text x="0.6190" y="-0.1050">Major Axis</text></g><g stroke-width="0.0017" stroke="rgb(21%, 29%, 7%)" stroke-opacity="1.0" fill="none" stroke-linecap="round" stroke-dasharray="0.0300 0.0100"><polyline points="0.7969,-0.1083 0.8185,-0.1083"/></g></g></g><g class="title"><g stroke-width="0.0" stroke="none" fill="rgb(5%, 5%, 5%)" fill-opacity="1.0" font-size="0.0269" text-anchor="middle"><text x="0" y="-0.4729">ArcPosition (Point 1 0) (Point 0 1) (ArcInfo (Point 1.5 1) (pi / 3) True True)</text></g></g><g class="frame"><g stroke-width="0" stroke="rgb(0%, 0%, 0%)" stroke-opacity="0" fill="rgb(0%, 0%, 0%)" fill-opacity="0"><rect width="1.7" height="1.0" x="-0.85" y="-0.5"/></g></g></g></svg>