<svg xmlns="http://www.w3.org/2000/svg" xmlns:xlink="http://www.w3.org/1999/xlink" width="600" height="300" viewBox="-1.0 -0.5 2.0 1.0"><style>svg {
  color-scheme: light dark;
}
{
  .canvas g, .title g, .axisbar g, .ticktext g, .tickglyph g, .ticklines g, .legendContent g text {
    fill: rgb(5%, 5%, 5%);
  }
  .ticklines g, .tickglyph g, .legendBorder g {
    stroke: rgb(5%, 5%, 5%);
  }
  .legendBorder g {
    fill: rgb(94%, 94%, 94%);
  }
}
@media (prefers-color-scheme:dark) {
  .canvas g, .title g, .axisbar g, .ticktext g, .tickglyph g, .ticklines g, .legendContent g text {
    fill: rgb(94%, 94%, 94%);
  }
  .ticklines g, .tickglyph g, .legendBorder g {
    stroke: rgb(94%, 94%, 94%);
  }
  .legendBorder g {
    fill: rgb(5%, 5%, 5%);
  }
}</style><g class="chart"><g class="ellipse"><g stroke-width="0.0018" stroke="rgb(66%, 7%, 55%)" stroke-opacity="1.0" fill="none"><polyline points="0.3913,-0.0591 0.3883,-0.0424 0.3839,-0.0255 0.3783,-0.0084 0.3713,0.0087 0.3631,0.0259 0.3537,0.0431 0.3430,0.0602 0.3311,0.0774 0.3180,0.0944 0.3038,0.1113 0.2884,0.1280 0.2720,0.1445 0.2545,0.1608 0.2361,0.1767 0.2166,0.1924 0.1963,0.2077 0.1751,0.2225 0.1530,0.2370 0.1302,0.2510 0.1066,0.2646 0.0824,0.2776 0.0575,0.2900 0.0321,0.3019 0.0062,0.3132 -0.0201,0.3238 -0.0469,0.3338 -0.0739,0.3431 -0.1013,0.3517 -0.1288,0.3596 -0.1565,0.3668 -0.1842,0.3732 -0.2120,0.3788 -0.2397,0.3837 -0.2673,0.3878 -0.2948,0.3911 -0.3220,0.3935 -0.3489,0.3952 -0.3754,0.3961 -0.4016,0.3961 -0.4272,0.3953 -0.4524,0.3937 -0.4769,0.3913 -0.5008,0.3881 -0.5240,0.3841 -0.5465,0.3793 -0.5681,0.3737 -0.5889,0.3673 -0.6088,0.3602 -0.6278,0.3524 -0.6458,0.3439 -0.6627,0.3346 -0.6786,0.3247 -0.6934,0.3141 -0.7070,0.3029 -0.7195,0.2910 -0.7308,0.2786 -0.7409,0.2657 -0.7498,0.2522 -0.7573,0.2382 -0.7637,0.2238 -0.7687,0.2089 -0.7724,0.1937 -0.7748,0.1781 -0.7759,0.1621 -0.7756,0.1459 -0.7741,0.1294 -0.7712,0.1127 -0.7670,0.0958 -0.7616,0.0788 -0.7548,0.0617 -0.7468,0.0445 -0.7375,0.0273 -0.7270,0.0101 -0.7153,-0.0070 -0.7024,-0.0240 -0.6883,-0.0410 -0.6731,-0.0577 -0.6568,-0.0742 -0.6395,-0.0905 -0.6212,-0.1065 -0.6019,-0.1222 -0.5817,-0.1376 -0.5606,-0.1525 -0.5386,-0.1671 -0.5159,-0.1811 -0.4925,-0.1947 -0.4683,-0.2078 -0.4436,-0.2203 -0.4182,-0.2323 -0.3924,-0.2437 -0.3661,-0.2544 -0.3394,-0.2645 -0.3124,-0.2739 -0.2851,-0.2826 -0.2576,-0.2906 -0.2299,-0.2979 -0.2022,-0.3044 -0.1744,-0.3102 -0.1467,-0.3151 -0.1191,-0.3193"/></g><g stroke-width="0.0007" stroke="rgb(2%, 29%, 48%)" stroke-opacity="1.0" fill="none"><polyline points="0.1916,-0.3041 0.1631,-0.3116 0.1332,-0.3177 0.1020,-0.3225 0.0696,-0.3258 0.0363,-0.3278 0.0020,-0.3283 -0.0330,-0.3273 -0.0687,-0.3250 -0.1048,-0.3212 -0.1413,-0.3160 -0.1780,-0.3095 -0.2147,-0.3015 -0.2514,-0.2923 -0.2878,-0.2818 -0.3238,-0.2700 -0.3593,-0.2570 -0.3941,-0.2429 -0.4282,-0.2277 -0.4613,-0.2115 -0.4933,-0.1943 -0.5241,-0.1761 -0.5537,-0.1572 -0.5818,-0.1375 -0.6083,-0.1171 -0.6332,-0.0962 -0.6564,-0.0747 -0.6777,-0.0528 -0.6971,-0.0305 -0.7145,-0.0080 -0.7299,0.0147 -0.7431,0.0374 -0.7541,0.0602 -0.7630,0.0828 -0.7695,0.1052 -0.7738,0.1274 -0.7758,0.1492 -0.7755,0.1705 -0.7728,0.1913 -0.7679,0.2115 -0.7607,0.2310 -0.7513,0.2497 -0.7396,0.2675 -0.7258,0.2844 -0.7098,0.3004 -0.6919,0.3152 -0.6719,0.3290 -0.6500,0.3416 -0.6264,0.3530 -0.6010,0.3632 -0.5740,0.3720 -0.5455,0.3795 -0.5156,0.3856 -0.4844,0.3904 -0.4520,0.3937 -0.4187,0.3957 -0.3844,0.3962 -0.3494,0.3952 -0.3137,0.3929 -0.2776,0.3891 -0.2411,0.3839 -0.2044,0.3774 -0.1677,0.3695 -0.1310,0.3602 -0.0946,0.3497 -0.0586,0.3379 -0.0231,0.3249 0.0117,0.3108 0.0458,0.2956 0.0789,0.2794 0.1109,0.2622 0.1417,0.2440 0.1713,0.2251 0.1994,0.2054 0.2259,0.1850 0.2508,0.1641 0.2740,0.1426 0.2953,0.1207 0.3147,0.0984 0.3321,0.0759 0.3475,0.0532 0.3607,0.0305 0.3717,0.0078 0.3806,-0.0149 0.3871,-0.0373 0.3914,-0.0595 0.3934,-0.0813 0.3931,-0.1026 0.3904,-0.1234 0.3855,-0.1436 0.3783,-0.1631 0.3689,-0.1818 0.3572,-0.1996 0.3434,-0.2165 0.3274,-0.2325 0.3095,-0.2473 0.2895,-0.2611 0.2676,-0.2737 0.2440,-0.2851 0.2186,-0.2953 0.1916,-0.3041"/></g><g stroke-width="0.0011" stroke="rgb(2%, 29%, 48%)" stroke-opacity="1.0" fill="rgb(2%, 73%, 80%)" fill-opacity="0.2"><circle cx="-0.1912" cy="0.0340" r="0.0055"/></g><g stroke-width="0.0011" stroke="rgb(2%, 29%, 48%)" stroke-opacity="1.0" fill="rgb(100%, 71%, 35%)" fill-opacity="0.2"><circle cx="0.3913" cy="-0.0591" r="0.0055"/><circle cx="-0.1191" cy="-0.3193" r="0.0055"/></g><g stroke-width="0.0007" stroke="rgb(50%, 50%, 50%)" stroke-opacity="1.0" fill="rgb(53%, 51%, 28%)" fill-opacity="0.00"><rect width="1.1673" height="0.7155" x="-0.7759" y="-0.3193"/></g><g stroke-width="0.0018" stroke="rgb(21%, 29%, 7%)" stroke-opacity="1.0" fill="none" stroke-linecap="round" stroke-dasharray="0.0300 0.0100"><polyline points="0.1916,-0.3041 -0.5740,0.3720"/></g><g stroke-width="0.0018" stroke="rgb(73%, 34%, 1%)" stroke-opacity="1.0" fill="none" stroke-linecap="round" stroke-dasharray="0.0300 0.0100"><polyline points="-0.6332,-0.0962 0.2508,0.1641"/></g></g></g><g class="hud"><g class="frame"><g stroke-width="0" stroke="rgb(0%, 0%, 0%)" stroke-opacity="0" fill="rgb(100%, 100%, 100%)" fill-opacity="0.02"><rect width="1.5312" height="0.9108" x="-0.8846" y="-0.4495"/></g></g><g class="axis"><g class="ticks"><g class="tickglyph"><g stroke-width="0.0015" stroke="rgb(5%, 5%, 5%)" stroke-opacity="0.4" fill="rgb(5%, 5%, 5%)" fill-opacity="0.4"><polyline points="-0.9054,0.4614
-0.8945,0.4614"/><polyline points="-0.9054,0.3312
-0.8945,0.3312"/><polyline points="-0.9054,0.2011
-0.8945,0.2011"/><polyline points="-0.9054,0.0710
-0.8945,0.0710"/><polyline points="-0.9054,-0.0591
-0.8945,-0.0591"/><polyline points="-0.9054,-0.1892
-0.8945,-0.1892"/><polyline points="-0.9054,-0.3193
-0.8945,-0.3193"/><polyline points="-0.9054,-0.4495
-0.8945,-0.4495"/></g></g><g class="ticktext"><g stroke-width="0.0" stroke="none" fill="rgb(5%, 5%, 5%)" fill-opacity="1.0" font-size="0.0182" text-anchor="end"><text x="-0.9183" y="0.4649">-2.0</text><text x="-0.9183" y="0.3348">-1.5</text><text x="-0.9183" y="0.2047">-1.0</text><text x="-0.9183" y="0.0746">-0.5</text><text x="-0.9183" y="-0.0555"> 0.0</text><text x="-0.9183" y="-0.1856"> 0.5</text><text x="-0.9183" y="-0.3158"> 1.0</text><text x="-0.9183" y="-0.4459"> 1.5</text></g></g><g class="ticklines"><g stroke-width="0.0018" stroke="rgb(5%, 5%, 5%)" stroke-opacity="0.05" fill="none"><polyline points="-0.8846,0.4614 0.6465,0.4614"/><polyline points="-0.8846,0.3312 0.6465,0.3312"/><polyline points="-0.8846,0.2011 0.6465,0.2011"/><polyline points="-0.8846,0.0710 0.6465,0.0710"/><polyline points="-0.8846,-0.0591 0.6465,-0.0591"/><polyline points="-0.8846,-0.1892 0.6465,-0.1892"/><polyline points="-0.8846,-0.3193 0.6465,-0.3193"/><polyline points="-0.8846,-0.4495 0.6465,-0.4495"/></g></g></g><g class="axisbar"><g stroke-width="0" stroke="rgb(0%, 0%, 0%)" stroke-opacity="0" fill="rgb(5%, 5%, 5%)" fill-opacity="0.4"><rect width="0.0020" height="0.9118" x="-0.8918" y="-0.4500"/></g></g></g><g class="axis"><g class="ticks"><g class="tickglyph"><g stroke-width="0.0015" stroke="rgb(5%, 5%, 5%)" stroke-opacity="0.4" fill="rgb(5%, 5%, 5%)" fill-opacity="0.4"><polyline points="-0.8846,0.4746
-0.8846,0.4637"/><polyline points="-0.6295,0.4746
-0.6295,0.4637"/><polyline points="-0.3743,0.4746
-0.3743,0.4637"/><polyline points="-0.1191,0.4746
-0.1191,0.4637"/><polyline points="0.1361,0.4746
0.1361,0.4637"/><polyline points="0.3913,0.4746
0.3913,0.4637"/><polyline points="0.6465,0.4746
0.6465,0.4637"/></g></g><g class="ticktext"><g stroke-width="0.0" stroke="none" fill="rgb(5%, 5%, 5%)" fill-opacity="1.0" font-size="0.0182" text-anchor="middle"><text x="-0.8846" y="0.4857">-2.0</text><text x="-0.6295" y="0.4857">-1.0</text><text x="-0.3743" y="0.4857">-0.5</text><text x="-0.1191" y="0.4857"> 0.0</text><text x="0.1361" y="0.4857"> 0.5</text><text x="0.3913" y="0.4857"> 1.0</text><text x="0.6465" y="0.4857"> 2.0</text></g></g><g class="ticklines"><g stroke-width="0.0018" stroke="rgb(5%, 5%, 5%)" stroke-opacity="0.05" fill="none"><polyline points="-0.8846,0.4614 -0.8846,-0.4495"/><polyline points="-0.6295,0.4614 -0.6295,-0.4495"/><polyline points="-0.3743,0.4614 -0.3743,-0.4495"/><polyline points="-0.1191,0.4614 -0.1191,-0.4495"/><polyline points="0.1361,0.4614 0.1361,-0.4495"/><polyline points="0.3913,0.4614 0.3913,-0.4495"/><polyline points="0.6465,0.4614 0.6465,-0.4495"/></g></g></g><g class="axisbar"><g stroke-width="0" stroke="rgb(0%, 0%, 0%)" stroke-opacity="0" fill="rgb(5%, 5%, 5%)" fill-opacity="0.4"><rect width="1.5332" height="0.0010" x="-0.8857" y="0.4640"/></g></g></g><g class="legend"><g class="legendBorder"><g stroke-width="0.0009" stroke="rgb(5%, 5%, 5%)" stroke-opacity="1.0" fill="rgb(5%, 5%, 5%)" fill-opacity="0"><rect width="0.2616" height="0.1522" x="0.7155" y="-0.1219"/></g></g><g class="legendContent"><g stroke-width="0.0" stroke="none" fill="rgb(5%, 5%, 5%)" fill-opacity="1.0" font-size="0.0182" text-anchor="start"><text x="0.7282" y="0.0199">Bounding Box</text></g><g stroke-width="0.0009" stroke="rgb(50%, 50%, 50%)" stroke-opacity="1.0" fill="rgb(53%, 51%, 28%)" fill-opacity="0.00"><rect width="0.0128" height="0.0065" x="0.9375" y="0.0134"/></g><g stroke-width="0.0" stroke="none" fill="rgb(5%, 5%, 5%)" fill-opacity="1.0" font-size="0.0182" text-anchor="start"><text x="0.7282" y="-0.0009">Endpoints</text></g><g stroke-width="0.0003" stroke="rgb(2%, 29%, 48%)" stroke-opacity="1.0" fill="rgb(100%, 71%, 35%)" fill-opacity="0.2"><rect width="0.0091" height="0.0091" x="0.9393" y="-0.0087"/></g><g stroke-width="0.0" stroke="none" fill="rgb(5%, 5%, 5%)" fill-opacity="1.0" font-size="0.0182" text-anchor="start"><text x="0.7282" y="-0.0217">Centroid</text></g><g stroke-width="0.0003" stroke="rgb(2%, 29%, 48%)" stroke-opacity="1.0" fill="rgb(2%, 73%, 80%)" fill-opacity="0.2"><rect width="0.0091" height="0.0091" x="0.9393" y="-0.0295"/></g><g stroke-width="0.0" stroke="none" fill="rgb(5%, 5%, 5%)" fill-opacity="1.0" font-size="0.0182" text-anchor="start"><text x="0.7282" y="-0.0425">Arc</text></g><g stroke-width="0.0018" stroke="rgb(66%, 7%, 55%)" stroke-opacity="1.0" fill="none"><polyline points="0.9375,-0.0458 0.9630,-0.0458"/></g><g stroke-width="0.0" stroke="none" fill="rgb(5%, 5%, 5%)" fill-opacity="1.0" font-size="0.0182" text-anchor="start"><text x="0.7282" y="-0.0634">Full Ellipse</text></g><g stroke-width="0.0007" stroke="rgb(2%, 29%, 48%)" stroke-opacity="1.0" fill="none"><polyline points="0.9375,-0.0666 0.9630,-0.0666"/></g><g stroke-width="0.0" stroke="none" fill="rgb(5%, 5%, 5%)" fill-opacity="1.0" font-size="0.0182" text-anchor="start"><text x="0.7282" y="-0.0842">Minor Axis</text></g><g stroke-width="0.0018" stroke="rgb(73%, 34%, 1%)" stroke-opacity="1.0" fill="none" stroke-linecap="round" stroke-dasharray="0.0300 0.0100"><polyline points="0.9375,-0.0874 0.9630,-0.0874"/></g><g stroke-width="0.0" stroke="none" fill="rgb(5%, 5%, 5%)" fill-opacity="1.0" font-size="0.0182" text-anchor="start"><text x="0.7282" y="-0.1050">Major Axis</text></g><g stroke-width="0.0018" stroke="rgb(21%, 29%, 7%)" stroke-opacity="1.0" fill="none" stroke-linecap="round" stroke-dasharray="0.0300 0.0100"><polyline points="0.9375,-0.1083 0.9630,-0.1083"/></g></g></g><g class="title"><g stroke-width="0.0" stroke="none" fill="rgb(5%, 5%, 5%)" fill-opacity="1.0" font-size="0.0292" text-anchor="middle"><text x="0" y="-0.4729">ArcPosition (Point 1 0) (Point 0 1) (ArcInfo (Point 1.5 1) (pi / 3) True True)</text></g></g><g class="frame"><g stroke-width="0" stroke="rgb(0%, 0%, 0%)" stroke-opacity="0" fill="rgb(0%, 0%, 0%)" fill-opacity="0"><rect width="2.0" height="1.0" x="-1.0" y="-0.5"/></g></g></g></svg>