<svg xmlns="http://www.w3.org/2000/svg" xmlns:xlink="http://www.w3.org/1999/xlink" width="600" height="50" viewBox="-6.0 -0.5 12.0 1.0"><style>svg {
  color-scheme: light dark;
}
{
  .canvas g, .title g, .axisbar g, .ticktext g, .tickglyph g, .ticklines g, .legendContent g text {
    fill: rgb(5%, 5%, 5%);
  }
  .ticklines g, .tickglyph g, .legendBorder g {
    stroke: rgb(5%, 5%, 5%);
  }
  .legendBorder g {
    fill: rgb(94%, 94%, 94%);
  }
}
@media (prefers-color-scheme:dark) {
  .canvas g, .title g, .axisbar g, .ticktext g, .tickglyph g, .ticklines g, .legendContent g text {
    fill: rgb(94%, 94%, 94%);
  }
  .ticklines g, .tickglyph g, .legendBorder g {
    stroke: rgb(94%, 94%, 94%);
  }
  .legendBorder g {
    fill: rgb(5%, 5%, 5%);
  }
}</style><g class="chart"><g class="glyphs"><g stroke-width="0.0244" stroke="rgb(2%, 29%, 48%)" stroke-opacity="1.0" fill="rgb(2%, 73%, 80%)" fill-opacity="0.2"><circle cx="-5.4998" cy="0" r="0.4879"/></g><g stroke-width="0.0244" stroke="rgb(2%, 29%, 48%)" stroke-opacity="1.0" fill="rgb(2%, 73%, 80%)" fill-opacity="0.2"><rect width="0.9758" height="0.9758" x="-4.6127" y="-0.4879"/></g><g stroke-width="0.0244" stroke="rgb(2%, 29%, 48%)" stroke-opacity="1.0" fill="rgb(2%, 73%, 80%)" fill-opacity="0.2"><rect width="0.9758" height="0.7319" x="-3.2378" y="-0.3659"/></g><g stroke-width="0.0244" stroke="rgb(2%, 29%, 48%)" stroke-opacity="1.0" fill="rgb(2%, 73%, 80%)" fill-opacity="0.2"><rect width="0.9758" height="0.7319" x="-1.8629" y="-0.3659" rx="0.0100" ry="0.0100"/></g><g stroke-width="0.0244" stroke="rgb(2%, 29%, 48%)" stroke-opacity="1.0" fill="rgb(2%, 73%, 80%)" fill-opacity="0.2"><ellipse cx="2.6645352591003757e-15" cy="-0.0" rx="0.48791360474925954" ry="0.36593520356194464"/></g><g stroke-width="0.0244" stroke="rgb(2%, 29%, 48%)" stroke-opacity="1.0" fill="rgb(2%, 73%, 80%)" fill-opacity="0.2"><polyline points="1.3749,0.4879
1.3749,-0.4879"/></g><g stroke-width="0.0244" stroke="rgb(2%, 29%, 48%)" stroke-opacity="1.0" fill="rgb(2%, 73%, 80%)" fill-opacity="0.2"><polyline points="2.2620,0
3.2378,0"/></g><g stroke-width="0.0244" stroke="rgb(2%, 29%, 48%)" stroke-opacity="1.0" fill="rgb(2%, 73%, 80%)" fill-opacity="0.2"><polygon transform="translate(4.1248, 0)" points="0,-0.6900 -0.4879,0.4225 0.4879,0.4225"/></g><g stroke-width="0.0244" stroke="rgb(2%, 29%, 48%)" stroke-opacity="1.0" fill="rgb(2%, 73%, 80%)" fill-opacity="0.2"><path d="M 0.5,-0.3660 A 1.0 1.0 -0.0 0 1 0,0.5 A 1.0 1.0 -0.0 0 1 -0.5,-0.3660 A 1.0 1.0 -0.0 0 1 0.5,-0.3660 L 0.5,-0.3660 Z" transform="translate(5.4998, 0) scale(0.9758)"/></g></g></g><g class="hud"></g></svg>