<svg xmlns="http://www.w3.org/2000/svg" xmlns:xlink="http://www.w3.org/1999/xlink" width="450" height="300" viewBox="-0.75 -0.5 1.5 1.0"><style>svg {
  color-scheme: light dark;
}
{
  .canvas g, .title g, .axisbar g, .ticktext g, .tickglyph g, .ticklines g, .legendContent g text {
    fill: rgb(5%, 5%, 5%);
  }
  .ticklines g, .tickglyph g, .legendBorder g {
    stroke: rgb(5%, 5%, 5%);
  }
  .legendBorder g {
    fill: rgb(94%, 94%, 94%);
  }
}
@media (prefers-color-scheme:dark) {
  .canvas g, .title g, .axisbar g, .ticktext g, .tickglyph g, .ticklines g, .legendContent g text {
    fill: rgb(94%, 94%, 94%);
  }
  .ticklines g, .tickglyph g, .legendBorder g {
    stroke: rgb(94%, 94%, 94%);
  }
  .legendBorder g {
    fill: rgb(5%, 5%, 5%);
  }
}</style><g class="chart"></g><g class="hud"><g class="frame"><g stroke-width="0" stroke="rgb(0%, 0%, 0%)" stroke-opacity="0" fill="rgb(100%, 100%, 100%)" fill-opacity="0.02"><rect width="1.1750" height="0.7721" x="-0.4845" y="-0.4488"/></g></g><g class="axis"><g class="ticks"><g class="tickglyph"><g stroke-width="0.0038" stroke="rgb(5%, 5%, 5%)" stroke-opacity="0.4" fill="rgb(5%, 5%, 5%)" fill-opacity="0.4"><polyline points="-0.5340,0.3232
-0.5054,0.3232"/><polyline points="-0.5340,0.2460
-0.5054,0.2460"/><polyline points="-0.5340,0.1688
-0.5054,0.1688"/><polyline points="-0.5340,0.0916
-0.5054,0.0916"/><polyline points="-0.5340,0.0144
-0.5054,0.0144"/><polyline points="-0.5340,-0.0628
-0.5054,-0.0628"/><polyline points="-0.5340,-0.1400
-0.5054,-0.1400"/><polyline points="-0.5340,-0.2172
-0.5054,-0.2172"/><polyline points="-0.5340,-0.2944
-0.5054,-0.2944"/><polyline points="-0.5340,-0.3716
-0.5054,-0.3716"/><polyline points="-0.5340,-0.4488
-0.5054,-0.4488"/></g></g><g class="ticktext"><g stroke-width="0.0" stroke="none" fill="rgb(5%, 5%, 5%)" fill-opacity="1.0" font-size="0.0476" text-anchor="end"><text x="-0.5620" y="0.3338">-0.5</text><text x="-0.5620" y="0.2566">-0.4</text><text x="-0.5620" y="0.1794">-0.3</text><text x="-0.5620" y="0.1022">-0.2</text><text x="-0.5620" y="0.0250">-0.1</text><text x="-0.5620" y="-0.0522"> 0.0</text><text x="-0.5620" y="-0.1294"> 0.1</text><text x="-0.5620" y="-0.2066"> 0.2</text><text x="-0.5620" y="-0.2838"> 0.3</text><text x="-0.5620" y="-0.3610"> 0.4</text><text x="-0.5620" y="-0.4382"> 0.5</text></g></g><g class="ticklines"><g stroke-width="0.0048" stroke="rgb(5%, 5%, 5%)" stroke-opacity="0.05" fill="none"><polyline points="-0.4845,0.3232 0.6905,0.3232"/><polyline points="-0.4845,0.2460 0.6905,0.2460"/><polyline points="-0.4845,0.1688 0.6905,0.1688"/><polyline points="-0.4845,0.0916 0.6905,0.0916"/><polyline points="-0.4845,0.0144 0.6905,0.0144"/><polyline points="-0.4845,-0.0628 0.6905,-0.0628"/><polyline points="-0.4845,-0.1400 0.6905,-0.1400"/><polyline points="-0.4845,-0.2172 0.6905,-0.2172"/><polyline points="-0.4845,-0.2944 0.6905,-0.2944"/><polyline points="-0.4845,-0.3716 0.6905,-0.3716"/><polyline points="-0.4845,-0.4488 0.6905,-0.4488"/></g></g></g><g class="axisbar"><g stroke-width="0" stroke="rgb(0%, 0%, 0%)" stroke-opacity="0" fill="rgb(5%, 5%, 5%)" fill-opacity="0.4"><rect width="0.0047" height="0.7752" x="-0.5009" y="-0.4504"/></g></g></g><g class="axis"><g class="ticks"><g class="tickglyph"><g stroke-width="0.0038" stroke="rgb(5%, 5%, 5%)" stroke-opacity="0.4" fill="rgb(5%, 5%, 5%)" fill-opacity="0.4"><polyline points="-0.4845,0.3607
-0.4845,0.3321"/><polyline points="-0.3670,0.3607
-0.3670,0.3321"/><polyline points="-0.2495,0.3607
-0.2495,0.3321"/><polyline points="-0.1320,0.3607
-0.1320,0.3321"/><polyline points="-0.0145,0.3607
-0.0145,0.3321"/><polyline points="0.1030,0.3607
0.1030,0.3321"/><polyline points="0.2205,0.3607
0.2205,0.3321"/><polyline points="0.3380,0.3607
0.3380,0.3321"/><polyline points="0.4555,0.3607
0.4555,0.3321"/><polyline points="0.5730,0.3607
0.5730,0.3321"/><polyline points="0.6905,0.3607
0.6905,0.3321"/></g></g><g class="ticktext"><g stroke-width="0.0" stroke="none" fill="rgb(5%, 5%, 5%)" fill-opacity="1.0" font-size="0.0476" text-anchor="end"><text x="-0.4845" y="0.3954" transform="rotate(-45.0, -0.4845, 0.3954)">-0.5</text><text x="-0.3670" y="0.3954" transform="rotate(-45.0, -0.3670, 0.3954)">-0.4</text><text x="-0.2495" y="0.3954" transform="rotate(-45.0, -0.2495, 0.3954)">-0.3</text><text x="-0.1320" y="0.3954" transform="rotate(-45.0, -0.1320, 0.3954)">-0.2</text><text x="-0.0145" y="0.3954" transform="rotate(-45.0, -0.0145, 0.3954)">-0.1</text><text x="0.1030" y="0.3954" transform="rotate(-45.0, 0.1030, 0.3954)"> 0.0</text><text x="0.2205" y="0.3954" transform="rotate(-45.0, 0.2205, 0.3954)"> 0.1</text><text x="0.3380" y="0.3954" transform="rotate(-45.0, 0.3380, 0.3954)"> 0.2</text><text x="0.4555" y="0.3954" transform="rotate(-45.0, 0.4555, 0.3954)"> 0.3</text><text x="0.5730" y="0.3954" transform="rotate(-45.0, 0.5730, 0.3954)"> 0.4</text><text x="0.6905" y="0.3954" transform="rotate(-45.0, 0.6905, 0.3954)"> 0.5</text></g></g><g class="ticklines"><g stroke-width="0.0048" stroke="rgb(5%, 5%, 5%)" stroke-opacity="0.05" fill="none"><polyline points="-0.4845,0.3232 -0.4845,-0.4488"/><polyline points="-0.3670,0.3232 -0.3670,-0.4488"/><polyline points="-0.2495,0.3232 -0.2495,-0.4488"/><polyline points="-0.1320,0.3232 -0.1320,-0.4488"/><polyline points="-0.0145,0.3232 -0.0145,-0.4488"/><polyline points="0.1030,0.3232 0.1030,-0.4488"/><polyline points="0.2205,0.3232 0.2205,-0.4488"/><polyline points="0.3380,0.3232 0.3380,-0.4488"/><polyline points="0.4555,0.3232 0.4555,-0.4488"/><polyline points="0.5730,0.3232 0.5730,-0.4488"/><polyline points="0.6905,0.3232 0.6905,-0.4488"/></g></g></g><g class="axisbar"><g stroke-width="0" stroke="rgb(0%, 0%, 0%)" stroke-opacity="0" fill="rgb(5%, 5%, 5%)" fill-opacity="0.4"><rect width="1.1797" height="0.0031" x="-0.4868" y="0.3309"/></g></g></g><g class="frame"><g stroke-width="0" stroke="rgb(0%, 0%, 0%)" stroke-opacity="0" fill="rgb(0%, 0%, 0%)" fill-opacity="0"><rect width="1.5" height="1.0" x="-0.75" y="-0.5"/></g></g></g></svg>