<svg xmlns="http://www.w3.org/2000/svg" xmlns:xlink="http://www.w3.org/1999/xlink" width="450" height="300" viewBox="-0.75 -0.5 1.5 1.0"><style>svg {
  color-scheme: light dark;
}
{
  .canvas g, .title g, .axisbar g, .ticktext g, .tickglyph g, .ticklines g, .legendContent g text {
    fill: rgb(5%, 5%, 5%);
  }
  .ticklines g, .tickglyph g, .legendBorder g {
    stroke: rgb(5%, 5%, 5%);
  }
  .legendBorder g {
    fill: rgb(94%, 94%, 94%);
  }
}
@media (prefers-color-scheme:dark) {
  .canvas g, .title g, .axisbar g, .ticktext g, .tickglyph g, .ticklines g, .legendContent g text {
    fill: rgb(94%, 94%, 94%);
  }
  .ticklines g, .tickglyph g, .legendBorder g {
    stroke: rgb(94%, 94%, 94%);
  }
  .legendBorder g {
    fill: rgb(5%, 5%, 5%);
  }
}
svg { font-family: system-ui,-apple-system,"Segoe UI",Roboto,"Helvetica Neue",Arial,"Noto Sans","Liberation Sans",sans-serif,"Apple Color Emoji","Segoe UI Emoji","Segoe UI Symbol","Noto Color Emoji";
}

ticktext { font-family: SFMono-Regular,Menlo,Monaco,Consolas,"Liberation Mono","Courier New",monospace;
}

</style><g class="chart"><g class="line"><g stroke-width="0.0150" stroke="rgb(2%, 73%, 80%)" stroke-opacity="1.0" fill="none"><polyline points="-0.6295,0.1892 -0.2046,0.1892 0.2202,-0.3615"/></g><g stroke-width="0.0150" stroke="rgb(2%, 29%, 48%)" stroke-opacity="1.0" fill="none"><polyline points="-0.6295,0.3269 0.5601,-0.0861"/></g><g stroke-width="0.0150" stroke="rgb(66%, 7%, 55%)" stroke-opacity="1.0" fill="none"><polyline points="-0.4171,-0.2238 -0.4171,0.3269"/></g></g><g class="datapadding"></g></g><g class="hud"><g class="frame"><g stroke-width="0" stroke="rgb(0%, 0%, 0%)" stroke-opacity="0" fill="rgb(100%, 100%, 100%)" fill-opacity="0.02"><rect width="1.2861" height="0.7020" x="-0.6368" y="-0.3684"/></g></g><g class="axis"><g class="axisbar"><g stroke-width="0" stroke="rgb(0%, 0%, 0%)" stroke-opacity="0" fill="rgb(5%, 5%, 5%)" fill-opacity="0.4"><rect width="0.0034" height="0.7027" x="-0.6488" y="-0.3687"/></g></g><g class="ticks"><g class="tickglyph"><g stroke-width="0.0040" stroke="rgb(5%, 5%, 5%)" stroke-opacity="0.4" fill="rgb(5%, 5%, 5%)" fill-opacity="0.4"><polyline points="-0.6762,0.3318
-0.6462,0.3318"/><polyline points="-0.6762,0.1921
-0.6462,0.1921"/><polyline points="-0.6762,0.0525
-0.6462,0.0525"/><polyline points="-0.6762,-0.0872
-0.6462,-0.0872"/><polyline points="-0.6762,-0.2268
-0.6462,-0.2268"/><polyline points="-0.6762,-0.3664
-0.6462,-0.3664"/></g></g><g class="ticktext"><g stroke-width="0.0" stroke="none" fill="rgb(5%, 5%, 5%)" fill-opacity="1.0" font-size="0.0400" text-anchor="end"><text x="-0.6918" y="0.3388">0</text><text x="-0.6918" y="0.2007">1</text><text x="-0.6918" y="0.0626">2</text><text x="-0.6918" y="-0.0755">3</text><text x="-0.6918" y="-0.2136">4</text><text x="-0.6918" y="-0.3517">5</text></g></g><g class="ticklines"><g stroke-width="0.0050" stroke="rgb(5%, 5%, 5%)" stroke-opacity="0.05" fill="none"><polyline points="-0.6333,0.3321 0.6489,0.3321"/><polyline points="-0.6333,0.1923 0.6489,0.1923"/><polyline points="-0.6333,0.0525 0.6489,0.0525"/><polyline points="-0.6333,-0.0872 0.6489,-0.0872"/><polyline points="-0.6333,-0.2270 0.6489,-0.2270"/><polyline points="-0.6333,-0.3668 0.6489,-0.3668"/></g></g></g></g><g class="axis"><g class="axisbar"><g stroke-width="0" stroke="rgb(0%, 0%, 0%)" stroke-opacity="0" fill="rgb(5%, 5%, 5%)" fill-opacity="0.4"><rect width="1.2863" height="0.0028" x="-0.6353" y="0.3406"/></g></g><g class="ticks"><g class="tickglyph"><g stroke-width="0.0040" stroke="rgb(5%, 5%, 5%)" stroke-opacity="0.4" fill="rgb(5%, 5%, 5%)" fill-opacity="0.4"><polyline points="-0.6331,0.3667
-0.6331,0.3367"/><polyline points="-0.4195,0.3667
-0.4195,0.3367"/><polyline points="-0.2058,0.3667
-0.2058,0.3367"/><polyline points="0.0078,0.3667
0.0078,0.3367"/><polyline points="0.2215,0.3667
0.2215,0.3367"/><polyline points="0.4351,0.3667
0.4351,0.3367"/><polyline points="0.6488,0.3667
0.6488,0.3367"/></g></g><g class="ticktext"><g stroke-width="0.0" stroke="none" fill="rgb(5%, 5%, 5%)" fill-opacity="1.0" font-size="0.0400" text-anchor="middle"><text x="-0.6291" y="0.4021">0.0</text><text x="-0.4168" y="0.4021">0.5</text><text x="-0.2045" y="0.4021">1.0</text><text x="0.0078" y="0.4021">1.5</text><text x="0.2200" y="0.4021">2.0</text><text x="0.4323" y="0.4021">2.5</text><text x="0.6446" y="0.4021">3.0</text></g></g><g class="ticklines"><g stroke-width="0.0050" stroke="rgb(5%, 5%, 5%)" stroke-opacity="0.05" fill="none"><polyline points="-0.6333,0.3321 -0.6333,-0.3668"/><polyline points="-0.4196,0.3321 -0.4196,-0.3668"/><polyline points="-0.2059,0.3321 -0.2059,-0.3668"/><polyline points="0.0078,0.3321 0.0078,-0.3668"/><polyline points="0.2215,0.3321 0.2215,-0.3668"/><polyline points="0.4352,0.3321 0.4352,-0.3668"/><polyline points="0.6489,0.3321 0.6489,-0.3668"/></g></g></g></g><g class="title"><g stroke-width="0.0" stroke="none" fill="rgb(5%, 5%, 5%)" fill-opacity="1.0" font-size="0.0800" text-anchor="middle"><text x="-0.0167" y="-0.4087">Line Chart</text></g></g><g class="legend"><g class="padding"></g><g class="padding"></g><g class="frame"><g stroke-width="0.0011" stroke="rgb(5%, 5%, 5%)" stroke-opacity="1.0" fill="rgb(5%, 5%, 5%)" fill-opacity="0"><rect width="0.4266" height="0.1629" x="0.2849" y="0.0985"/></g></g><g class="legendContent"><g stroke-width="0.0" stroke="none" fill="rgb(5%, 5%, 5%)" fill-opacity="1.0" font-size="0.0343" text-anchor="start"><text x="0.3063" y="0.2353">palette #2</text></g><g stroke-width="0.0129" stroke="rgb(66%, 7%, 55%)" stroke-opacity="1.0" fill="none"><polyline points="0.5549,0.2283 0.6836,0.2283"/></g><g stroke-width="0.0" stroke="none" fill="rgb(5%, 5%, 5%)" fill-opacity="1.0" font-size="0.0343" text-anchor="start"><text x="0.3063" y="0.1869">palette #1</text></g><g stroke-width="0.0129" stroke="rgb(2%, 29%, 48%)" stroke-opacity="1.0" fill="none"><polyline points="0.5549,0.1799 0.6836,0.1799"/></g><g stroke-width="0.0" stroke="none" fill="rgb(5%, 5%, 5%)" fill-opacity="1.0" font-size="0.0343" text-anchor="start"><text x="0.3063" y="0.1385">palette #0</text></g><g stroke-width="0.0129" stroke="rgb(2%, 73%, 80%)" stroke-opacity="1.0" fill="none"><polyline points="0.5549,0.1315 0.6836,0.1315"/></g></g></g><g class="title"><g stroke-width="0.0" stroke="none" fill="rgb(5%, 5%, 5%)" fill-opacity="1.0" font-size="0.0400" text-anchor="end"><text x="0.7187" y="0.4603">Made with 🧡 and chart-svg</text></g></g><g class="frame"><g stroke-width="0" stroke="rgb(0%, 0%, 0%)" stroke-opacity="0" fill="rgb(0%, 0%, 0%)" fill-opacity="0"><rect width="1.5" height="1.0" x="-0.75" y="-0.5"/></g></g></g></svg>