<svg xmlns="http://www.w3.org/2000/svg" xmlns:xlink="http://www.w3.org/1999/xlink" width="450" height="300" viewBox="-0.75 -0.5 1.5 1.0"><style>svg {
  color-scheme: light dark;
}
{
  .canvas g, .title g, .axisbar g, .ticktext g, .tickglyph g, .ticklines g, .legendContent g text {
    fill: rgb(5%, 5%, 5%);
  }
  .ticklines g, .tickglyph g, .legendBorder g {
    stroke: rgb(5%, 5%, 5%);
  }
  .legendBorder g {
    fill: rgb(94%, 94%, 94%);
  }
}
@media (prefers-color-scheme:dark) {
  .canvas g, .title g, .axisbar g, .ticktext g, .tickglyph g, .ticklines g, .legendContent g text {
    fill: rgb(94%, 94%, 94%);
  }
  .ticklines g, .tickglyph g, .legendBorder g {
    stroke: rgb(94%, 94%, 94%);
  }
  .legendBorder g {
    fill: rgb(5%, 5%, 5%);
  }
}</style><g class="chart"><g class="line"><g stroke-width="0.0043" stroke="rgb(2%, 73%, 80%)" stroke-opacity="1.0" fill="none"><polyline points="-0.6572,0.2448 -0.2010,0.2448 0.2551,-0.4603"/></g><g stroke-width="0.0043" stroke="rgb(2%, 29%, 48%)" stroke-opacity="1.0" fill="none"><polyline points="-0.6572,0.4211 0.6200,-0.1078"/></g><g stroke-width="0.0043" stroke="rgb(66%, 7%, 55%)" stroke-opacity="1.0" fill="none"><polyline points="-0.4291,-0.2841 -0.4291,0.4211"/></g></g></g><g class="hud"><g class="frame"><g stroke-width="0" stroke="rgb(0%, 0%, 0%)" stroke-opacity="0" fill="rgb(100%, 100%, 100%)" fill-opacity="0.02"><rect width="1.3718" height="0.8841" x="-0.6606" y="-0.4617"/></g></g><g class="axis"><g class="ticks"><g class="tickglyph"><g stroke-width="0.0011" stroke="rgb(5%, 5%, 5%)" stroke-opacity="0.4" fill="rgb(5%, 5%, 5%)" fill-opacity="0.4"><polyline points="-0.6785,0.4211
-0.6700,0.4211"/><polyline points="-0.6785,0.3330
-0.6700,0.3330"/><polyline points="-0.6785,0.2448
-0.6700,0.2448"/><polyline points="-0.6785,0.1567
-0.6700,0.1567"/><polyline points="-0.6785,0.0685
-0.6700,0.0685"/><polyline points="-0.6785,-0.0196
-0.6700,-0.0196"/><polyline points="-0.6785,-0.1078
-0.6700,-0.1078"/><polyline points="-0.6785,-0.1959
-0.6700,-0.1959"/><polyline points="-0.6785,-0.2841
-0.6700,-0.2841"/><polyline points="-0.6785,-0.3722
-0.6700,-0.3722"/><polyline points="-0.6785,-0.4603
-0.6700,-0.4603"/></g></g><g class="ticktext"><g stroke-width="0.0" stroke="none" fill="rgb(5%, 5%, 5%)" fill-opacity="1.0" font-size="0.0142" text-anchor="end"><text x="-0.6907" y="0.4235">0.0</text><text x="-0.6907" y="0.3354">0.5</text><text x="-0.6907" y="0.2472">1.0</text><text x="-0.6907" y="0.1591">1.5</text><text x="-0.6907" y="0.0710">2.0</text><text x="-0.6907" y="-0.0172">2.5</text><text x="-0.6907" y="-0.1053">3.0</text><text x="-0.6907" y="-0.1935">3.5</text><text x="-0.6907" y="-0.2816">4.0</text><text x="-0.6907" y="-0.3698">4.5</text><text x="-0.6907" y="-0.4579">5.0</text></g></g><g class="ticklines"><g stroke-width="0.0014" stroke="rgb(5%, 5%, 5%)" stroke-opacity="0.05" fill="none"><polyline points="-0.6572,0.4211 0.7112,0.4211"/><polyline points="-0.6572,0.3330 0.7112,0.3330"/><polyline points="-0.6572,0.2448 0.7112,0.2448"/><polyline points="-0.6572,0.1567 0.7112,0.1567"/><polyline points="-0.6572,0.0685 0.7112,0.0685"/><polyline points="-0.6572,-0.0196 0.7112,-0.0196"/><polyline points="-0.6572,-0.1078 0.7112,-0.1078"/><polyline points="-0.6572,-0.1959 0.7112,-0.1959"/><polyline points="-0.6572,-0.2841 0.7112,-0.2841"/><polyline points="-0.6572,-0.3722 0.7112,-0.3722"/><polyline points="-0.6572,-0.4603 0.7112,-0.4603"/></g></g></g><g class="axisbar"><g stroke-width="0" stroke="rgb(0%, 0%, 0%)" stroke-opacity="0" fill="rgb(5%, 5%, 5%)" fill-opacity="0.4"><rect width="0.0018" height="0.8822" x="-0.6670" y="-0.4607"/></g></g></g><g class="axis"><g class="ticks"><g class="tickglyph"><g stroke-width="0.0011" stroke="rgb(5%, 5%, 5%)" stroke-opacity="0.4" fill="rgb(5%, 5%, 5%)" fill-opacity="0.4"><polyline points="-0.6572,0.4320
-0.6572,0.4235"/><polyline points="-0.4291,0.4320
-0.4291,0.4235"/><polyline points="-0.2010,0.4320
-0.2010,0.4235"/><polyline points="0.0270,0.4320
0.0270,0.4235"/><polyline points="0.2551,0.4320
0.2551,0.4235"/><polyline points="0.4832,0.4320
0.4832,0.4235"/><polyline points="0.7112,0.4320
0.7112,0.4235"/></g></g><g class="ticktext"><g stroke-width="0.0" stroke="none" fill="rgb(5%, 5%, 5%)" fill-opacity="1.0" font-size="0.0142" text-anchor="middle"><text x="-0.6572" y="0.4389">0.0</text><text x="-0.4291" y="0.4389">0.5</text><text x="-0.2010" y="0.4389">1.0</text><text x="0.0270" y="0.4389">1.5</text><text x="0.2551" y="0.4389">2.0</text><text x="0.4832" y="0.4389">2.5</text><text x="0.7112" y="0.4389">3.0</text></g></g><g class="ticklines"><g stroke-width="0.0014" stroke="rgb(5%, 5%, 5%)" stroke-opacity="0.05" fill="none"><polyline points="-0.6572,0.4211 -0.6572,-0.4603"/><polyline points="-0.4291,0.4211 -0.4291,-0.4603"/><polyline points="-0.2010,0.4211 -0.2010,-0.4603"/><polyline points="0.0270,0.4211 0.0270,-0.4603"/><polyline points="0.2551,0.4211 0.2551,-0.4603"/><polyline points="0.4832,0.4211 0.4832,-0.4603"/><polyline points="0.7112,0.4211 0.7112,-0.4603"/></g></g></g><g class="axisbar"><g stroke-width="0" stroke="rgb(0%, 0%, 0%)" stroke-opacity="0" fill="rgb(5%, 5%, 5%)" fill-opacity="0.4"><rect width="1.3702" height="0.0007" x="-0.6581" y="0.4242"/></g></g></g><g class="title"><g stroke-width="0.0" stroke="none" fill="rgb(5%, 5%, 5%)" fill-opacity="1.0" font-size="0.0284" text-anchor="middle"><text x="0" y="-0.4773">Line Chart</text></g></g><g class="title"><g stroke-width="0.0" stroke="none" fill="rgb(5%, 5%, 5%)" fill-opacity="1.0" font-size="0.0170" text-anchor="end"><text x="0.7318" y="0.4571">Made with love and chart-svg</text></g></g><g class="legend"><g class="legendBorder"><g stroke-width="0.0007" stroke="rgb(5%, 5%, 5%)" stroke-opacity="1.0" fill="rgb(99%, 99%, 99%)" fill-opacity="1.0"><rect width="0.2543" height="0.0467" x="-0.5317" y="0.4453"/></g></g><g class="legendContent"><g stroke-width="0.0" stroke="none" fill="rgb(5%, 5%, 5%)" fill-opacity="1.0" font-size="0.0142" text-anchor="start"><text x="-0.5203" y="0.4850">palette1 2</text></g><g stroke-width="0.0043" stroke="rgb(66%, 7%, 55%)" stroke-opacity="1.0" fill="none"><polyline points="-0.3607,0.4828 -0.2923,0.4828"/></g><g stroke-width="0.0" stroke="none" fill="rgb(5%, 5%, 5%)" fill-opacity="1.0" font-size="0.0142" text-anchor="start"><text x="-0.5203" y="0.4709">palette1 1</text></g><g stroke-width="0.0043" stroke="rgb(2%, 29%, 48%)" stroke-opacity="1.0" fill="none"><polyline points="-0.3607,0.4687 -0.2923,0.4687"/></g><g stroke-width="0.0" stroke="none" fill="rgb(5%, 5%, 5%)" fill-opacity="1.0" font-size="0.0142" text-anchor="start"><text x="-0.5203" y="0.4568">palette1 0</text></g><g stroke-width="0.0043" stroke="rgb(2%, 73%, 80%)" stroke-opacity="1.0" fill="none"><polyline points="-0.3607,0.4546 -0.2923,0.4546"/></g></g></g><g class="frame"><g stroke-width="0" stroke="rgb(0%, 0%, 0%)" stroke-opacity="0" fill="rgb(0%, 0%, 0%)" fill-opacity="0"><rect width="1.5" height="0.9985" x="-0.75" y="-0.4985"/></g></g></g></svg>