<svg xmlns="http://www.w3.org/2000/svg" xmlns:xlink="http://www.w3.org/1999/xlink" width="432" height="300" viewBox="-1.096 -1.6663 2.641 1.8313"><style>svg {
  color-scheme: light dark;
}
{
  .canvas g, .title g, .axisbar g, .ticktext g, .tickglyph g, .ticklines g, .legendContent g text {
    fill: rgb(5%, 5%, 5%);
  }
  .ticklines g, .tickglyph g, .legendBorder g {
    stroke: rgb(5%, 5%, 5%);
  }
  .legendBorder g {
    fill: rgb(94%, 94%, 94%);
  }
}
@media (prefers-color-scheme:dark) {
  .canvas g, .title g, .axisbar g, .ticktext g, .tickglyph g, .ticklines g, .legendContent g text {
    fill: rgb(94%, 94%, 94%);
  }
  .ticklines g, .tickglyph g, .legendBorder g {
    stroke: rgb(94%, 94%, 94%);
  }
  .legendBorder g {
    fill: rgb(5%, 5%, 5%);
  }
}
{
  .pathtext g {
    fill: rgb(5%, 5%, 5%);
  }
}
@media (prefers-color-scheme:dark) {
  .pathtext g {
    fill: rgb(94%, 94%, 94%);
  }
}
</style><g class="chart"><g class="path"><g stroke-width="0.0100" stroke="rgb(2%, 29%, 48%)" stroke-opacity="1.0" fill="rgb(2%, 73%, 80%)" fill-opacity="0.1"><path d="M 0,0 L 1.0,0 C 0.2000,0 0.25,-1.0 1.0,-1.0 Q -1.0,-2.0 0,-1.0 A 1.0 1.0000 30.0 0 0 0,0"/></g><g stroke-width="0.0030" stroke="rgb(2%, 29%, 48%)" stroke-opacity="1.0" fill="rgb(2%, 73%, 80%)" fill-opacity="0.2"><rect width="0.0300" height="0.0300" x="-0.0150" y="-0.0150"/><rect width="0.0300" height="0.0300" x="0.985" y="-0.0150"/><rect width="0.0300" height="0.0300" x="0.985" y="-1.015"/><rect width="0.0300" height="0.0300" x="-0.0150" y="-1.015"/><rect width="0.0300" height="0.0300" x="-0.0150" y="-0.0150"/></g></g><g class="pathtext"><g stroke-width="0.0" stroke="none" fill="rgb(5%, 5%, 5%)" fill-opacity="1.0" font-size="0.0500" text-anchor="middle"><text x="0" y="-0.0500">StartP (Point 0 0)</text><text x="0.5" y="0">LineP (Point 1 0)</text><text x="0.8000" y="-0.5">CubicP (Point 0.2 0) (Point 0.25 1) (Point 1 1)</text><text x="0.4000" y="-1.1">QuadP (Point (-1) 2) (Point 0 1)</text><text x="0" y="-0.4">ArcP (ArcInfo (Point 1 1) (-pi / 6) False False) (Point 0 0)</text></g></g></g><g class="hud"><g class="frame"><g stroke-width="0" stroke="rgb(0%, 0%, 0%)" stroke-opacity="0" fill="rgb(100%, 100%, 100%)" fill-opacity="0.02"><rect width="2.405" height="1.6165" x="-0.9000" y="-1.6"/></g></g><g class="axis"><g class="ticks"><g class="tickglyph"><g stroke-width="0.0040" stroke="rgb(5%, 5%, 5%)" stroke-opacity="0.4" fill="rgb(5%, 5%, 5%)" fill-opacity="0.4"><polyline points="-0.945,0
-0.9150,0"/><polyline points="-0.945,-0.2000
-0.9150,-0.2000"/><polyline points="-0.945,-0.4000
-0.9150,-0.4000"/><polyline points="-0.945,-0.6000
-0.9150,-0.6000"/><polyline points="-0.945,-0.8000
-0.9150,-0.8000"/><polyline points="-0.945,-1.0
-0.9150,-1.0"/><polyline points="-0.945,-1.2000
-0.9150,-1.2000"/><polyline points="-0.945,-1.4000
-0.9150,-1.4000"/><polyline points="-0.945,-1.6
-0.9150,-1.6"/></g></g><g class="ticktext"><g stroke-width="0.0" stroke="none" fill="rgb(5%, 5%, 5%)" fill-opacity="1.0" font-size="0.0500" text-anchor="end"><text x="-0.966" y="0.0138">0.0</text><text x="-0.966" y="-0.1862">0.2</text><text x="-0.966" y="-0.3862">0.4</text><text x="-0.966" y="-0.5862">0.6</text><text x="-0.966" y="-0.7862">0.8</text><text x="-0.966" y="-0.9863">1.0</text><text x="-0.966" y="-1.1863">1.2</text><text x="-0.966" y="-1.3863">1.4</text><text x="-0.966" y="-1.5863">1.6</text></g></g><g class="ticklines"><g stroke-width="0.0050" stroke="rgb(5%, 5%, 5%)" stroke-opacity="0.05" fill="none"><polyline points="-0.4,0 1.0,0"/><polyline points="-0.4,-0.2000 1.0,-0.2000"/><polyline points="-0.4,-0.4000 1.0,-0.4000"/><polyline points="-0.4,-0.6000 1.0,-0.6000"/><polyline points="-0.4,-0.8000 1.0,-0.8000"/><polyline points="-0.4,-1.0 1.0,-1.0"/><polyline points="-0.4,-1.2000 1.0,-1.2000"/><polyline points="-0.4,-1.4000 1.0,-1.4000"/><polyline points="-0.4,-1.6 1.0,-1.6"/></g></g></g><g class="axisbar"><g stroke-width="0" stroke="rgb(0%, 0%, 0%)" stroke-opacity="0" fill="rgb(5%, 5%, 5%)" fill-opacity="0.4"><rect width="0.0040" height="1.6040" x="-0.9140" y="-1.602"/></g></g></g><g class="axis"><g class="ticks"><g class="tickglyph"><g stroke-width="0.0040" stroke="rgb(5%, 5%, 5%)" stroke-opacity="0.4" fill="rgb(5%, 5%, 5%)" fill-opacity="0.4"><polyline points="-0.4,0.0615
-0.4,0.0315"/><polyline points="-0.2000,0.0615
-0.2000,0.0315"/><polyline points="0,0.0615
0,0.0315"/><polyline points="0.2000,0.0615
0.2000,0.0315"/><polyline points="0.4000,0.0615
0.4000,0.0315"/><polyline points="0.6000,0.0615
0.6000,0.0315"/><polyline points="0.8000,0.0615
0.8000,0.0315"/><polyline points="1.0,0.0615
1.0,0.0315"/></g></g><g class="ticktext"><g stroke-width="0.0" stroke="none" fill="rgb(5%, 5%, 5%)" fill-opacity="1.0" font-size="0.0500" text-anchor="middle"><text x="-0.4" y="0.1100">-0.4</text><text x="-0.2000" y="0.1100">-0.2</text><text x="0" y="0.1100"> 0.0</text><text x="0.2000" y="0.1100"> 0.2</text><text x="0.4000" y="0.1100"> 0.4</text><text x="0.6000" y="0.1100"> 0.6</text><text x="0.8000" y="0.1100"> 0.8</text><text x="1.0" y="0.1100"> 1.0</text></g></g><g class="ticklines"><g stroke-width="0.0050" stroke="rgb(5%, 5%, 5%)" stroke-opacity="0.05" fill="none"><polyline points="-0.4,0 -0.4,-1.6"/><polyline points="-0.2000,0 -0.2000,-1.6"/><polyline points="0,0 0,-1.6"/><polyline points="0.2000,0 0.2000,-1.6"/><polyline points="0.4000,0 0.4000,-1.6"/><polyline points="0.6000,0 0.6000,-1.6"/><polyline points="0.8000,0 0.8000,-1.6"/><polyline points="1.0,0 1.0,-1.6"/></g></g></g><g class="axisbar"><g stroke-width="0" stroke="rgb(0%, 0%, 0%)" stroke-opacity="0" fill="rgb(5%, 5%, 5%)" fill-opacity="0.4"><rect width="1.404" height="0.0040" x="-0.402" y="0.0265"/></g></g></g><g class="frame"><g stroke-width="0" stroke="rgb(0%, 0%, 0%)" stroke-opacity="0" fill="rgb(0%, 0%, 0%)" fill-opacity="0"><rect width="2.641" height="1.8313" x="-1.096" y="-1.6663"/></g></g></g></svg>