<svg xmlns="http://www.w3.org/2000/svg" xmlns:xlink="http://www.w3.org/1999/xlink" width="354" height="300" viewBox="-0.5914 -0.5 1.1828 1.0"><style>svg {
  color-scheme: light dark;
}
{
  .canvas g, .title g, .axisbar g, .ticktext g, .tickglyph g, .ticklines g, .legendContent g text {
    fill: rgb(5%, 5%, 5%);
  }
  .ticklines g, .tickglyph g, .legendBorder g {
    stroke: rgb(5%, 5%, 5%);
  }
  .legendBorder g {
    fill: rgb(94%, 94%, 94%);
  }
}
@media (prefers-color-scheme:dark) {
  .canvas g, .title g, .axisbar g, .ticktext g, .tickglyph g, .ticklines g, .legendContent g text {
    fill: rgb(94%, 94%, 94%);
  }
  .ticklines g, .tickglyph g, .legendBorder g {
    stroke: rgb(94%, 94%, 94%);
  }
  .legendBorder g {
    fill: rgb(5%, 5%, 5%);
  }
}
svg { font-family: system-ui,-apple-system,"Segoe UI",Roboto,"Helvetica Neue",Arial,"Noto Sans","Liberation Sans",sans-serif,"Apple Color Emoji","Segoe UI Emoji","Segoe UI Symbol","Noto Color Emoji";
}

ticktext { font-family: SFMono-Regular,Menlo,Monaco,Consolas,"Liberation Mono","Courier New",monospace;
}


{
  .pathtext g {
    fill: rgb(5%, 5%, 5%);
  }
}
@media (prefers-color-scheme:dark) {
  .pathtext g {
    fill: rgb(94%, 94%, 94%);
  }
}
</style><g class="chart"><g class="path"><g stroke-width="0.0100" stroke="rgb(2%, 29%, 48%)" stroke-opacity="1.0" fill="rgb(2%, 73%, 80%)" fill-opacity="0.1"><path d="M -0.0666,0.3626 L 0.4737,0.3626 C 0.0415,0.3626 0.0685,-0.1774 0.4737,-0.1774 Q -0.6069,-0.7174 -0.0666,-0.1774 A 0.5402 0.5401 30.0 0 0 -0.0666,0.3626"/></g><g stroke-width="0.0030" stroke="rgb(2%, 29%, 48%)" stroke-opacity="1.0" fill="rgb(2%, 73%, 80%)" fill-opacity="0.2"><rect width="0.0300" height="0.0300" x="-0.0800" y="0.3429"/><rect width="0.0300" height="0.0300" x="0.4544" y="0.3429"/><rect width="0.0300" height="0.0300" x="0.4544" y="-0.1905"/><rect width="0.0300" height="0.0300" x="-0.0800" y="-0.1905"/><rect width="0.0300" height="0.0300" x="-0.0800" y="0.3429"/></g></g><g class="pathtext"><g stroke-width="0.0" stroke="none" fill="rgb(5%, 5%, 5%)" fill-opacity="1.0" font-size="0.0250" text-anchor="middle"><text x="-0.1961" y="0.3352">StartP (Point 0 0)</text><text x="0.1050" y="0.3352">LineP (Point 1 0)</text><text x="0.2112" y="0.0944">CubicP (Point 0.2 0) (Point 0.25 1) (Point 1 1)</text><text x="0.0696" y="-0.2266">QuadP (Point (-1) 2) (Point 0 1)</text><text x="-0.0721" y="0.1479">ArcP (ArcInfo (Point 1 1) (-pi / 6) False False) (Point 0 0)</text></g></g><g class="datapadding"></g></g><g class="hud"><g class="frame"><g stroke-width="0" stroke="rgb(0%, 0%, 0%)" stroke-opacity="0" fill="rgb(100%, 100%, 100%)" fill-opacity="0.02"><rect width="1.0011" height="0.8260" x="-0.4427" y="-0.4523"/></g></g><g class="axis"><g class="axisbar"><g stroke-width="0" stroke="rgb(0%, 0%, 0%)" stroke-opacity="0" fill="rgb(5%, 5%, 5%)" fill-opacity="0.4"><rect width="0.0033" height="0.8176" x="-0.4543" y="-0.4513"/></g></g><g class="ticks"><g class="tickglyph"><g stroke-width="0.0040" stroke="rgb(5%, 5%, 5%)" stroke-opacity="0.4" fill="rgb(5%, 5%, 5%)" fill-opacity="0.4"><polyline points="-0.4809,0.3642
-0.4509,0.3642"/><polyline points="-0.4809,0.0931
-0.4509,0.0931"/><polyline points="-0.4809,-0.1779
-0.4509,-0.1779"/><polyline points="-0.4809,-0.4490
-0.4509,-0.4490"/></g></g><g class="ticktext"><g stroke-width="0.0" stroke="none" fill="rgb(5%, 5%, 5%)" fill-opacity="1.0" font-size="0.0400" text-anchor="end"><text x="-0.4867" y="0.3726">0.0</text><text x="-0.4867" y="0.1033">0.5</text><text x="-0.4867" y="-0.1660">1.0</text><text x="-0.4867" y="-0.4352">2.0</text></g></g><g class="ticklines"><g stroke-width="0.0050" stroke="rgb(5%, 5%, 5%)" stroke-opacity="0.05" fill="none"><polyline points="-0.2842,0.3644 0.4752,0.3644"/><polyline points="-0.2842,0.0932 0.4752,0.0932"/><polyline points="-0.2842,-0.1780 0.4752,-0.1780"/><polyline points="-0.2842,-0.4492 0.4752,-0.4492"/></g></g></g></g><g class="axis"><g class="axisbar"><g stroke-width="0" stroke="rgb(0%, 0%, 0%)" stroke-opacity="0" fill="rgb(5%, 5%, 5%)" fill-opacity="0.4"><rect width="0.7633" height="0.0033" x="-0.2861" y="0.3819"/></g></g><g class="ticks"><g class="tickglyph"><g stroke-width="0.0040" stroke="rgb(5%, 5%, 5%)" stroke-opacity="0.4" fill="rgb(5%, 5%, 5%)" fill-opacity="0.4"><polyline points="-0.2841,0.4118
-0.2841,0.3818"/><polyline points="-0.1756,0.4118
-0.1756,0.3818"/><polyline points="-0.0672,0.4118
-0.0672,0.3818"/><polyline points="0.0413,0.4118
0.0413,0.3818"/><polyline points="0.1497,0.4118
0.1497,0.3818"/><polyline points="0.2581,0.4118
0.2581,0.3818"/><polyline points="0.3666,0.4118
0.3666,0.3818"/><polyline points="0.4750,0.4118
0.4750,0.3818"/></g></g><g class="ticktext"><g stroke-width="0.0" stroke="none" fill="rgb(5%, 5%, 5%)" fill-opacity="1.0" font-size="0.0400" text-anchor="middle"><text x="-0.2801" y="0.4552">-0.4</text><text x="-0.1732" y="0.4552">-0.2</text><text x="-0.0663" y="0.4552"> 0.0</text><text x="0.0407" y="0.4552"> 0.2</text><text x="0.1476" y="0.4552"> 0.4</text><text x="0.2545" y="0.4552"> 0.6</text><text x="0.3615" y="0.4552"> 0.8</text><text x="0.4684" y="0.4552"> 1.0</text></g></g><g class="ticklines"><g stroke-width="0.0050" stroke="rgb(5%, 5%, 5%)" stroke-opacity="0.05" fill="none"><polyline points="-0.2842,0.3644 -0.2842,-0.4492"/><polyline points="-0.1757,0.3644 -0.1757,-0.4492"/><polyline points="-0.0672,0.3644 -0.0672,-0.4492"/><polyline points="0.0413,0.3644 0.0413,-0.4492"/><polyline points="0.1498,0.3644 0.1498,-0.4492"/><polyline points="0.2583,0.3644 0.2583,-0.4492"/><polyline points="0.3667,0.3644 0.3667,-0.4492"/><polyline points="0.4752,0.3644 0.4752,-0.4492"/></g></g></g></g><g class="frame"><g stroke-width="0" stroke="rgb(0%, 0%, 0%)" stroke-opacity="0" fill="rgb(0%, 0%, 0%)" fill-opacity="0"><rect width="1.1828" height="1.0" x="-0.5914" y="-0.5"/></g></g></g></svg>