<svg xmlns="http://www.w3.org/2000/svg" xmlns:xlink="http://www.w3.org/1999/xlink" width="280" height="300" viewBox="-0.4682 -0.5 0.9364 1.0"><style>svg {
  color-scheme: light dark;
}
{
  .canvas g, .title g, .axisbar g, .ticktext g, .tickglyph g, .ticklines g, .legendContent g text {
    fill: rgb(5%, 5%, 5%);
  }
  .ticklines g, .tickglyph g, .legendBorder g {
    stroke: rgb(5%, 5%, 5%);
  }
  .legendBorder g {
    fill: rgb(94%, 94%, 94%);
  }
}
@media (prefers-color-scheme:dark) {
  .canvas g, .title g, .axisbar g, .ticktext g, .tickglyph g, .ticklines g, .legendContent g text {
    fill: rgb(94%, 94%, 94%);
  }
  .ticklines g, .tickglyph g, .legendBorder g {
    stroke: rgb(94%, 94%, 94%);
  }
  .legendBorder g {
    fill: rgb(5%, 5%, 5%);
  }
}
svg { font-family: system-ui,-apple-system,"Segoe UI",Roboto,"Helvetica Neue",Arial,"Noto Sans","Liberation Sans",sans-serif,"Apple Color Emoji","Segoe UI Emoji","Segoe UI Symbol","Noto Color Emoji";
}

ticktext { font-family: SFMono-Regular,Menlo,Monaco,Consolas,"Liberation Mono","Courier New",monospace;
}


{
  .pathtext g {
    fill: rgb(5%, 5%, 5%);
  }
}
@media (prefers-color-scheme:dark) {
  .pathtext g {
    fill: rgb(94%, 94%, 94%);
  }
}
</style><g class="chart"><g class="path"><g stroke-width="0.0100" stroke="rgb(2%, 29%, 48%)" stroke-opacity="1.0" fill="rgb(2%, 73%, 80%)" fill-opacity="0.1"><path d="M -0.1200,0.3190 L 0.3925,0.3190 C -0.0175,0.3190 0.0081,-0.1936 0.3925,-0.1936 Q -0.6324,-0.7061 -0.1200,-0.1936 A 0.5125 0.5125 30.0 0 0 -0.1200,0.3190"/></g><g stroke-width="0.0030" stroke="rgb(2%, 29%, 48%)" stroke-opacity="1.0" fill="rgb(2%, 73%, 80%)" fill-opacity="0.2"><rect width="0.0300" height="0.0300" x="-0.1329" y="0.2993"/><rect width="0.0300" height="0.0300" x="0.3725" y="0.2993"/><rect width="0.0300" height="0.0300" x="0.3725" y="-0.2065"/><rect width="0.0300" height="0.0300" x="-0.1329" y="-0.2065"/><rect width="0.0300" height="0.0300" x="-0.1329" y="0.2993"/></g></g><g class="pathtext"><g stroke-width="0.0" stroke="none" fill="rgb(5%, 5%, 5%)" fill-opacity="1.0" font-size="0.0200" text-anchor="middle"><text x="-0.0038" y="0.2936">StartP (Point 0 0)</text><text x="0.1016" y="0.3190">LineP (Point 1 0)</text><text x="0.1649" y="0.0645">CubicP (Point 0.2 0) (Point 0.25 1) (Point 1 1)</text><text x="0.0806" y="-0.2409">QuadP (Point (-1) 2) (Point 0 1)</text><text x="-0.0038" y="0.1154">ArcP (ArcInfo (Point 1 1) (-pi / 6) False False) (Point 0 0)</text></g></g><g class="datapadding"></g></g><g class="hud"><g class="frame"><g stroke-width="0" stroke="rgb(0%, 0%, 0%)" stroke-opacity="0" fill="rgb(100%, 100%, 100%)" fill-opacity="0.02"><rect width="0.7639" height="0.7843" x="-0.3271" y="-0.4547"/></g></g><g class="axis"><g class="axisbar"><g stroke-width="0" stroke="rgb(0%, 0%, 0%)" stroke-opacity="0" fill="rgb(5%, 5%, 5%)" fill-opacity="0.4"><rect width="0.0031" height="0.7763" x="-0.3380" y="-0.4537"/></g></g><g class="ticks"><g class="tickglyph"><g stroke-width="0.0040" stroke="rgb(5%, 5%, 5%)" stroke-opacity="0.4" fill="rgb(5%, 5%, 5%)" fill-opacity="0.4"><polyline points="-0.3635,0.3205
-0.3335,0.3205"/><polyline points="-0.3635,0.0632
-0.3335,0.0632"/><polyline points="-0.3635,-0.1941
-0.3335,-0.1941"/><polyline points="-0.3635,-0.4514
-0.3335,-0.4514"/></g></g><g class="ticktext"><g stroke-width="0.0" stroke="none" fill="rgb(5%, 5%, 5%)" fill-opacity="1.0" font-size="0.0400" text-anchor="end"><text x="-0.3654" y="0.3286">0.0</text><text x="-0.3654" y="0.0734">0.5</text><text x="-0.3654" y="-0.1817">1.0</text><text x="-0.3654" y="-0.4369">2.0</text></g></g><g class="ticklines"><g stroke-width="0.0050" stroke="rgb(5%, 5%, 5%)" stroke-opacity="0.05" fill="none"><polyline points="-0.3267,0.3207 0.3941,0.3207"/><polyline points="-0.3267,0.0632 0.3941,0.0632"/><polyline points="-0.3267,-0.1942 0.3941,-0.1942"/><polyline points="-0.3267,-0.4517 0.3941,-0.4517"/></g></g></g></g><g class="axis"><g class="axisbar"><g stroke-width="0" stroke="rgb(0%, 0%, 0%)" stroke-opacity="0" fill="rgb(5%, 5%, 5%)" fill-opacity="0.4"><rect width="0.7248" height="0.0031" x="-0.3286" y="0.3374"/></g></g><g class="ticks"><g class="tickglyph"><g stroke-width="0.0040" stroke="rgb(5%, 5%, 5%)" stroke-opacity="0.4" fill="rgb(5%, 5%, 5%)" fill-opacity="0.4"><polyline points="-0.3264,0.3662
-0.3264,0.3362"/><polyline points="-0.2235,0.3662
-0.2235,0.3362"/><polyline points="-0.1206,0.3662
-0.1206,0.3362"/><polyline points="-0.0177,0.3662
-0.0177,0.3362"/><polyline points="0.0852,0.3662
0.0852,0.3362"/><polyline points="0.1881,0.3662
0.1881,0.3362"/><polyline points="0.2910,0.3662
0.2910,0.3362"/><polyline points="0.3939,0.3662
0.3939,0.3362"/></g></g><g class="ticktext"><g stroke-width="0.0" stroke="none" fill="rgb(5%, 5%, 5%)" fill-opacity="1.0" font-size="0.0400" text-anchor="end"><text x="-0.3093" y="0.3930" transform="rotate(-45.0, -0.3093, 0.3930)">-0.4</text><text x="-0.2087" y="0.3930" transform="rotate(-45.0, -0.2087, 0.3930)">-0.2</text><text x="-0.1082" y="0.3930" transform="rotate(-45.0, -0.1082, 0.3930)"> 0.0</text><text x="-0.0077" y="0.3930" transform="rotate(-45.0, -0.0077, 0.3930)"> 0.2</text><text x="0.0928" y="0.3930" transform="rotate(-45.0, 0.0928, 0.3930)"> 0.4</text><text x="0.1934" y="0.3930" transform="rotate(-45.0, 0.1934, 0.3930)"> 0.6</text><text x="0.2939" y="0.3930" transform="rotate(-45.0, 0.2939, 0.3930)"> 0.8</text><text x="0.3944" y="0.3930" transform="rotate(-45.0, 0.3944, 0.3930)"> 1.0</text></g></g><g class="ticklines"><g stroke-width="0.0050" stroke="rgb(5%, 5%, 5%)" stroke-opacity="0.05" fill="none"><polyline points="-0.3267,0.3207 -0.3267,-0.4517"/><polyline points="-0.2237,0.3207 -0.2237,-0.4517"/><polyline points="-0.1207,0.3207 -0.1207,-0.4517"/><polyline points="-0.0178,0.3207 -0.0178,-0.4517"/><polyline points="0.0852,0.3207 0.0852,-0.4517"/><polyline points="0.1882,0.3207 0.1882,-0.4517"/><polyline points="0.2912,0.3207 0.2912,-0.4517"/><polyline points="0.3941,0.3207 0.3941,-0.4517"/></g></g></g></g><g class="frame"><g stroke-width="0" stroke="rgb(0%, 0%, 0%)" stroke-opacity="0" fill="rgb(0%, 0%, 0%)" fill-opacity="0"><rect width="0.9364" height="1.0" x="-0.4682" y="-0.5"/></g></g></g></svg>