<svg xmlns="http://www.w3.org/2000/svg" xmlns:xlink="http://www.w3.org/1999/xlink" width="450" height="300" viewBox="-0.75 -0.5 1.5000 1.0"><style>svg {
  color-scheme: light dark;
}
{
  .canvas g, .title g, .axisbar g, .ticktext g, .tickglyph g, .ticklines g, .legendContent g text {
    fill: rgb(5%, 5%, 5%);
  }
  .ticklines g, .tickglyph g, .legendBorder g {
    stroke: rgb(5%, 5%, 5%);
  }
  .legendBorder g {
    fill: rgb(94%, 94%, 94%);
  }
}
@media (prefers-color-scheme:dark) {
  .canvas g, .title g, .axisbar g, .ticktext g, .tickglyph g, .ticklines g, .legendContent g text {
    fill: rgb(94%, 94%, 94%);
  }
  .ticklines g, .tickglyph g, .legendBorder g {
    stroke: rgb(94%, 94%, 94%);
  }
  .legendBorder g {
    fill: rgb(5%, 5%, 5%);
  }
}
svg { font-family: system-ui,-apple-system,"Segoe UI",Roboto,"Helvetica Neue",Arial,"Noto Sans","Liberation Sans",sans-serif,"Apple Color Emoji","Segoe UI Emoji","Segoe UI Symbol","Noto Color Emoji";
}

ticktext { font-family: SFMono-Regular,Menlo,Monaco,Consolas,"Liberation Mono","Courier New",monospace;
}

</style><g class="chart"><g class="line"><g stroke-width="0.0150" stroke="rgb(2%, 73%, 80%)" stroke-opacity="1.0" fill="none"><polyline points="-0.6178,0.1711 -0.3115,0.1711 -0.0051,-0.3315"/></g><g stroke-width="0.0150" stroke="rgb(2%, 29%, 48%)" stroke-opacity="1.0" fill="none"><polyline points="-0.6178,0.2967 0.2400,-0.0802"/></g><g stroke-width="0.0150" stroke="rgb(66%, 7%, 55%)" stroke-opacity="1.0" fill="none"><polyline points="-0.4646,-0.2058 -0.4646,0.2967"/></g></g><g class="datapadding"></g></g><g class="hud"><g class="frame"><g stroke-width="0.0100" stroke="rgb(2%, 29%, 48%)" stroke-opacity="1.0" fill="rgb(2%, 73%, 80%)" fill-opacity="0.1"><rect width="0.9272" height="0.6389" x="-0.6232" y="-0.3369"/></g></g><g class="axis"><g class="axisbar"><g stroke-width="0" stroke="rgb(0%, 0%, 0%)" stroke-opacity="0" fill="rgb(5%, 5%, 5%)" fill-opacity="0.4"><rect width="0.0025" height="0.6419" x="-0.6366" y="-0.3384"/></g></g><g class="ticks"><g class="tickglyph"><g stroke-width="0.0040" stroke="rgb(5%, 5%, 5%)" stroke-opacity="0.4" fill="rgb(5%, 5%, 5%)" fill-opacity="0.4"><polyline points="-0.6565,0.3013
-0.6265,0.3013"/><polyline points="-0.6565,0.1738
-0.6265,0.1738"/><polyline points="-0.6565,0.0463
-0.6265,0.0463"/><polyline points="-0.6565,-0.0812
-0.6265,-0.0812"/><polyline points="-0.6565,-0.2087
-0.6265,-0.2087"/><polyline points="-0.6565,-0.3362
-0.6265,-0.3362"/></g></g><g class="ticktext"><g stroke-width="0.0" stroke="none" fill="rgb(5%, 5%, 5%)" fill-opacity="1.0" font-size="0.0400" text-anchor="end"><text x="-0.6613" y="0.3079">0</text><text x="-0.6613" y="0.1821">1</text><text x="-0.6613" y="0.0563">2</text><text x="-0.6613" y="-0.0695">3</text><text x="-0.6613" y="-0.1952">4</text><text x="-0.6613" y="-0.3210">5</text></g></g><g class="ticklines"><g stroke-width="0.0050" stroke="rgb(5%, 5%, 5%)" stroke-opacity="0.05" fill="none"><polyline points="-0.6217,0.3016 0.3044,0.3016"/><polyline points="-0.6217,0.1740 0.3044,0.1740"/><polyline points="-0.6217,0.0464 0.3044,0.0464"/><polyline points="-0.6217,-0.0813 0.3044,-0.0813"/><polyline points="-0.6217,-0.2089 0.3044,-0.2089"/><polyline points="-0.6217,-0.3365 0.3044,-0.3365"/></g></g></g></g><g class="axis"><g class="axisbar"><g stroke-width="0" stroke="rgb(0%, 0%, 0%)" stroke-opacity="0" fill="rgb(5%, 5%, 5%)" fill-opacity="0.4"><rect width="0.9297" height="0.0026" x="-0.6237" y="0.3128"/></g></g><g class="ticks"><g class="tickglyph"><g stroke-width="0.0040" stroke="rgb(5%, 5%, 5%)" stroke-opacity="0.4" fill="rgb(5%, 5%, 5%)" fill-opacity="0.4"><polyline points="-0.6212,0.3372
-0.6212,0.3072"/><polyline points="-0.4670,0.3372
-0.4670,0.3072"/><polyline points="-0.3128,0.3372
-0.3128,0.3072"/><polyline points="-0.1586,0.3372
-0.1586,0.3072"/><polyline points="-0.0043,0.3372
-0.0043,0.3072"/><polyline points="0.1499,0.3372
0.1499,0.3072"/><polyline points="0.3041,0.3372
0.3041,0.3072"/></g></g><g class="ticktext"><g stroke-width="0.0" stroke="none" fill="rgb(5%, 5%, 5%)" fill-opacity="1.0" font-size="0.0400" text-anchor="middle"><text x="-0.6108" y="0.3688">0.0</text><text x="-0.4592" y="0.3688">0.5</text><text x="-0.3075" y="0.3688">1.0</text><text x="-0.1559" y="0.3688">1.5</text><text x="-0.0043" y="0.3688">2.0</text><text x="0.1474" y="0.3688">2.5</text><text x="0.2990" y="0.3688">3.0</text></g></g><g class="ticklines"><g stroke-width="0.0050" stroke="rgb(5%, 5%, 5%)" stroke-opacity="0.05" fill="none"><polyline points="-0.6217,0.3016 -0.6217,-0.3365"/><polyline points="-0.4674,0.3016 -0.4674,-0.3365"/><polyline points="-0.3130,0.3016 -0.3130,-0.3365"/><polyline points="-0.1587,0.3016 -0.1587,-0.3365"/><polyline points="-0.0043,0.3016 -0.0043,-0.3365"/><polyline points="0.1500,0.3016 0.1500,-0.3365"/><polyline points="0.3044,0.3016 0.3044,-0.3365"/></g></g></g></g><g class="legend"><g class="padding"></g><g class="padding"></g><g class="frame"><g stroke-width="0.0008" stroke="rgb(5%, 5%, 5%)" stroke-opacity="1.0" fill="rgb(5%, 5%, 5%)" fill-opacity="0"><rect width="0.3083" height="0.1488" x="0.3735" y="-0.1045"/></g></g><g class="legendContent"><g stroke-width="0.0" stroke="none" fill="rgb(5%, 5%, 5%)" fill-opacity="1.0" font-size="0.0248" text-anchor="start"><text x="0.3890" y="0.0205">palette #2</text></g><g stroke-width="0.0093" stroke="rgb(66%, 7%, 55%)" stroke-opacity="1.0" fill="none"><polyline points="0.5687,0.0141 0.6617,0.0141"/></g><g stroke-width="0.0" stroke="none" fill="rgb(5%, 5%, 5%)" fill-opacity="1.0" font-size="0.0248" text-anchor="start"><text x="0.3890" y="-0.0237">palette #1</text></g><g stroke-width="0.0093" stroke="rgb(2%, 29%, 48%)" stroke-opacity="1.0" fill="none"><polyline points="0.5687,-0.0301 0.6617,-0.0301"/></g><g stroke-width="0.0" stroke="none" fill="rgb(5%, 5%, 5%)" fill-opacity="1.0" font-size="0.0248" text-anchor="start"><text x="0.3890" y="-0.0680">palette #0</text></g><g stroke-width="0.0093" stroke="rgb(2%, 73%, 80%)" stroke-opacity="1.0" fill="none"><polyline points="0.5687,-0.0744 0.6617,-0.0744"/></g></g></g><g class="title"><g stroke-width="0.0" stroke="none" fill="rgb(5%, 5%, 5%)" fill-opacity="1.0" font-size="0.0800" text-anchor="middle"><text x="0" y="-0.3709">Line Chart</text></g></g><g class="title"><g stroke-width="0.0" stroke="none" fill="rgb(5%, 5%, 5%)" fill-opacity="1.0" font-size="0.0400" text-anchor="end"><text x="0.6981" y="0.4218">Made with 🧡 and chart-svg</text></g></g><g class="frame"><g stroke-width="0.0100" stroke="rgb(100%, 71%, 35%)" stroke-opacity="1.0" fill="rgb(100%, 71%, 35%)" fill-opacity="0.05"><rect width="1.4900" height="0.99" x="-0.745" y="-0.495"/></g></g></g></svg>