<svg xmlns="http://www.w3.org/2000/svg" xmlns:xlink="http://www.w3.org/1999/xlink" width="450" height="300" viewBox="-0.75 -0.5 1.5 1.0"><style>svg {
  color-scheme: light dark;
}
{
  .canvas g, .title g, .axisbar g, .ticktext g, .tickglyph g, .ticklines g, .legendContent g text {
    fill: rgb(5%, 5%, 5%);
  }
  .ticklines g, .tickglyph g, .legendBorder g {
    stroke: rgb(5%, 5%, 5%);
  }
  .legendBorder g {
    fill: rgb(94%, 94%, 94%);
  }
}
@media (prefers-color-scheme:dark) {
  .canvas g, .title g, .axisbar g, .ticktext g, .tickglyph g, .ticklines g, .legendContent g text {
    fill: rgb(94%, 94%, 94%);
  }
  .ticklines g, .tickglyph g, .legendBorder g {
    stroke: rgb(94%, 94%, 94%);
  }
  .legendBorder g {
    fill: rgb(5%, 5%, 5%);
  }
}</style><g class="chart"><g class="line"><g stroke-width="0.0039" stroke="rgb(2%, 73%, 80%)" stroke-opacity="1.0" fill="none"><polyline points="-0.6512,0.2632 -0.2811,0.2632 0.0890,-0.4495"/></g><g stroke-width="0.0039" stroke="rgb(2%, 29%, 48%)" stroke-opacity="1.0" fill="none"><polyline points="-0.6512,0.4413 0.3851,-0.0932"/></g><g stroke-width="0.0039" stroke="rgb(66%, 7%, 55%)" stroke-opacity="1.0" fill="none"><polyline points="-0.4661,-0.2713 -0.4661,0.4413"/></g></g></g><g class="hud"><g class="frame"><g stroke-width="0.0026" stroke="rgb(2%, 29%, 48%)" stroke-opacity="1.0" fill="rgb(2%, 73%, 80%)" fill-opacity="0.1"><rect width="1.1131" height="0.8935" x="-0.6540" y="-0.4508"/></g></g><g class="axis"><g class="ticks"><g class="tickglyph"><g stroke-width="0.0010" stroke="rgb(5%, 5%, 5%)" stroke-opacity="0.4" fill="rgb(5%, 5%, 5%)" fill-opacity="0.4"><polyline points="-0.6689,0.4413
-0.6612,0.4413"/><polyline points="-0.6689,0.3523
-0.6612,0.3523"/><polyline points="-0.6689,0.2632
-0.6612,0.2632"/><polyline points="-0.6689,0.1741
-0.6612,0.1741"/><polyline points="-0.6689,0.0850
-0.6612,0.0850"/><polyline points="-0.6689,-0.0041
-0.6612,-0.0041"/><polyline points="-0.6689,-0.0932
-0.6612,-0.0932"/><polyline points="-0.6689,-0.1822
-0.6612,-0.1822"/><polyline points="-0.6689,-0.2713
-0.6612,-0.2713"/><polyline points="-0.6689,-0.3604
-0.6612,-0.3604"/><polyline points="-0.6689,-0.4495
-0.6612,-0.4495"/></g></g><g class="ticktext"><g stroke-width="0.0" stroke="none" fill="rgb(5%, 5%, 5%)" fill-opacity="1.0" font-size="0.0128" text-anchor="end"><text x="-0.6784" y="0.4438">0.0</text><text x="-0.6784" y="0.3547">0.5</text><text x="-0.6784" y="0.2656">1.0</text><text x="-0.6784" y="0.1765">1.5</text><text x="-0.6784" y="0.0875">2.0</text><text x="-0.6784" y="-0.0016">2.5</text><text x="-0.6784" y="-0.0907">3.0</text><text x="-0.6784" y="-0.1798">3.5</text><text x="-0.6784" y="-0.2689">4.0</text><text x="-0.6784" y="-0.3580">4.5</text><text x="-0.6784" y="-0.4470">5.0</text></g></g><g class="ticklines"><g stroke-width="0.0013" stroke="rgb(5%, 5%, 5%)" stroke-opacity="0.05" fill="none"><polyline points="-0.6512,0.4413 0.4591,0.4413"/><polyline points="-0.6512,0.3523 0.4591,0.3523"/><polyline points="-0.6512,0.2632 0.4591,0.2632"/><polyline points="-0.6512,0.1741 0.4591,0.1741"/><polyline points="-0.6512,0.0850 0.4591,0.0850"/><polyline points="-0.6512,-0.0041 0.4591,-0.0041"/><polyline points="-0.6512,-0.0932 0.4591,-0.0932"/><polyline points="-0.6512,-0.1822 0.4591,-0.1822"/><polyline points="-0.6512,-0.2713 0.4591,-0.2713"/><polyline points="-0.6512,-0.3604 0.4591,-0.3604"/><polyline points="-0.6512,-0.4495 0.4591,-0.4495"/></g></g></g><g class="axisbar"><g stroke-width="0" stroke="rgb(0%, 0%, 0%)" stroke-opacity="0" fill="rgb(5%, 5%, 5%)" fill-opacity="0.4"><rect width="0.0015" height="0.8916" x="-0.6610" y="-0.4499"/></g></g></g><g class="axis"><g class="ticks"><g class="tickglyph"><g stroke-width="0.0010" stroke="rgb(5%, 5%, 5%)" stroke-opacity="0.4" fill="rgb(5%, 5%, 5%)" fill-opacity="0.4"><polyline points="-0.6512,0.4519
-0.6512,0.4442"/><polyline points="-0.4661,0.4519
-0.4661,0.4442"/><polyline points="-0.2811,0.4519
-0.2811,0.4442"/><polyline points="-0.0960,0.4519
-0.0960,0.4442"/><polyline points="0.0890,0.4519
0.0890,0.4442"/><polyline points="0.2741,0.4519
0.2741,0.4442"/><polyline points="0.4591,0.4519
0.4591,0.4442"/></g></g><g class="ticktext"><g stroke-width="0.0" stroke="none" fill="rgb(5%, 5%, 5%)" fill-opacity="1.0" font-size="0.0128" text-anchor="middle"><text x="-0.6512" y="0.4593">0.0</text><text x="-0.4661" y="0.4593">0.5</text><text x="-0.2811" y="0.4593">1.0</text><text x="-0.0960" y="0.4593">1.5</text><text x="0.0890" y="0.4593">2.0</text><text x="0.2741" y="0.4593">2.5</text><text x="0.4591" y="0.4593">3.0</text></g></g><g class="ticklines"><g stroke-width="0.0013" stroke="rgb(5%, 5%, 5%)" stroke-opacity="0.05" fill="none"><polyline points="-0.6512,0.4413 -0.6512,-0.4495"/><polyline points="-0.4661,0.4413 -0.4661,-0.4495"/><polyline points="-0.2811,0.4413 -0.2811,-0.4495"/><polyline points="-0.0960,0.4413 -0.0960,-0.4495"/><polyline points="0.0890,0.4413 0.0890,-0.4495"/><polyline points="0.2741,0.4413 0.2741,-0.4495"/><polyline points="0.4591,0.4413 0.4591,-0.4495"/></g></g></g><g class="axisbar"><g stroke-width="0" stroke="rgb(0%, 0%, 0%)" stroke-opacity="0" fill="rgb(5%, 5%, 5%)" fill-opacity="0.4"><rect width="1.1118" height="0.0007" x="-0.6519" y="0.4454"/></g></g></g><g class="title"><g stroke-width="0.0" stroke="none" fill="rgb(5%, 5%, 5%)" fill-opacity="1.0" font-size="0.0257" text-anchor="middle"><text x="-0.1180" y="-0.4666">Line Chart</text></g></g><g class="title"><g stroke-width="0.0" stroke="none" fill="rgb(5%, 5%, 5%)" fill-opacity="1.0" font-size="0.0154" text-anchor="end"><text x="0.4758" y="0.4777">Made with love and chart-svg</text></g></g><g class="legend"><g class="legendBorder"><g stroke-width="0.0006" stroke="rgb(5%, 5%, 5%)" stroke-opacity="1.0" fill="rgb(99%, 99%, 99%)" fill-opacity="1.0"><rect width="0.2063" height="0.0472" x="0.5035" y="-0.0379"/></g></g><g class="legendContent"><g stroke-width="0.0" stroke="none" fill="rgb(5%, 5%, 5%)" fill-opacity="1.0" font-size="0.0128" text-anchor="start"><text x="0.5128" y="0.0022">palette1 2</text></g><g stroke-width="0.0039" stroke="rgb(66%, 7%, 55%)" stroke-opacity="1.0" fill="none"><polyline points="0.6423,0 0.6978,0"/></g><g stroke-width="0.0" stroke="none" fill="rgb(5%, 5%, 5%)" fill-opacity="1.0" font-size="0.0128" text-anchor="start"><text x="0.5128" y="-0.0120">palette1 1</text></g><g stroke-width="0.0039" stroke="rgb(2%, 29%, 48%)" stroke-opacity="1.0" fill="none"><polyline points="0.6423,-0.0143 0.6978,-0.0143"/></g><g stroke-width="0.0" stroke="none" fill="rgb(5%, 5%, 5%)" fill-opacity="1.0" font-size="0.0128" text-anchor="start"><text x="0.5128" y="-0.0263">palette1 0</text></g><g stroke-width="0.0039" stroke="rgb(2%, 73%, 80%)" stroke-opacity="1.0" fill="none"><polyline points="0.6423,-0.0285 0.6978,-0.0285"/></g></g></g><g class="frame"><g stroke-width="0.0026" stroke="rgb(100%, 71%, 35%)" stroke-opacity="1.0" fill="rgb(100%, 71%, 35%)" fill-opacity="0.05"><rect width="1.4974" height="0.9974" x="-0.7487" y="-0.4987"/></g></g></g></svg>