<svg xmlns="http://www.w3.org/2000/svg" xmlns:xlink="http://www.w3.org/1999/xlink" width="450" height="300" viewBox="-0.75 -0.5 1.5 1.0"><style>svg {
  color-scheme: light dark;
}
{
  .canvas g, .title g, .axisbar g, .ticktext g, .tickglyph g, .ticklines g, .legendContent g text {
    fill: rgb(5%, 5%, 5%);
  }
  .ticklines g, .tickglyph g, .legendBorder g {
    stroke: rgb(5%, 5%, 5%);
  }
  .legendBorder g {
    fill: rgb(94%, 94%, 94%);
  }
}
@media (prefers-color-scheme:dark) {
  .canvas g, .title g, .axisbar g, .ticktext g, .tickglyph g, .ticklines g, .legendContent g text {
    fill: rgb(94%, 94%, 94%);
  }
  .ticklines g, .tickglyph g, .legendBorder g {
    stroke: rgb(94%, 94%, 94%);
  }
  .legendBorder g {
    fill: rgb(5%, 5%, 5%);
  }
}</style><g class="chart"><g class="quad"><g stroke-width="0.0045" stroke="rgb(0%, 0%, 0%)" stroke-opacity="0" fill="rgb(66%, 7%, 55%)" fill-opacity="0.2"><path d="M -0.6345,0.0062 Q 0.3184,0.4301 -0.1581,-0.4177"/></g><g stroke-width="0.0009" stroke="rgb(2%, 29%, 48%)" stroke-opacity="1.0" fill="none"><polyline points="-0.6345,0.0062 -0.6156,0.0145 -0.5969,0.0226 -0.5786,0.0305 -0.5605,0.0381 -0.5428,0.0454 -0.5253,0.0525 -0.5081,0.0593 -0.4912,0.0659 -0.4745,0.0722 -0.4582,0.0783 -0.4421,0.0841 -0.4264,0.0896 -0.4109,0.0949 -0.3957,0.1000 -0.3808,0.1047 -0.3662,0.1093 -0.3518,0.1136 -0.3378,0.1176 -0.3240,0.1214 -0.3105,0.1249 -0.2973,0.1281 -0.2844,0.1312 -0.2718,0.1339 -0.2594,0.1364 -0.2474,0.1387 -0.2356,0.1406 -0.2241,0.1424 -0.2129,0.1439 -0.2020,0.1451 -0.1914,0.1461 -0.1811,0.1468 -0.1710,0.1473 -0.1612,0.1475 -0.1518,0.1474 -0.1426,0.1471 -0.1337,0.1466 -0.1250,0.1458 -0.1167,0.1447 -0.1086,0.1434 -0.1009,0.1418 -0.0934,0.1400 -0.0862,0.1379 -0.0793,0.1356 -0.0727,0.1330 -0.0663,0.1302 -0.0603,0.1271 -0.0545,0.1237 -0.0490,0.1201 -0.0439,0.1163 -0.0389,0.1122 -0.0343,0.1078 -0.0300,0.1032 -0.0259,0.0983 -0.0222,0.0932 -0.0187,0.0878 -0.0155,0.0822 -0.0126,0.0763 -0.0100,0.0701 -0.0076,0.0637 -0.0056,0.0571 -0.0038,0.0502 -0.0024,0.0430 -0.0012,0.0356 -0.0003,0.0279 0.0004,0.0200 0.0007,0.0118 0.0007,0.0034 0.0005,-0.0053 -0.0000,-0.0143 -0.0008,-0.0235 -0.0019,-0.0329 -0.0033,-0.0426 -0.0050,-0.0526 -0.0069,-0.0628 -0.0092,-0.0733 -0.0117,-0.0840 -0.0145,-0.0950 -0.0176,-0.1062 -0.0210,-0.1177 -0.0247,-0.1294 -0.0286,-0.1414 -0.0328,-0.1537 -0.0374,-0.1662 -0.0422,-0.1789 -0.0473,-0.1920 -0.0527,-0.2052 -0.0583,-0.2187 -0.0643,-0.2325 -0.0705,-0.2466 -0.0771,-0.2608 -0.0839,-0.2754 -0.0910,-0.2902 -0.0984,-0.3052 -0.1060,-0.3205 -0.1140,-0.3361 -0.1222,-0.3519 -0.1308,-0.3679 -0.1396,-0.3843 -0.1487,-0.4008 -0.1581,-0.4177"/></g><g stroke-width="0.0013" stroke="rgb(2%, 29%, 48%)" stroke-opacity="1.0" fill="rgb(2%, 73%, 80%)" fill-opacity="0.2"><rect width="0.0135" height="0.0135" x="-0.6412" y="-0.0005"/><rect width="0.0135" height="0.0135" x="-0.1648" y="-0.4244"/></g><g stroke-width="0.0013" stroke="rgb(2%, 29%, 48%)" stroke-opacity="1.0" fill="rgb(2%, 73%, 80%)" fill-opacity="0.2"><circle cx="0.3184" cy="0.4301" r="0.0067"/></g><g stroke-width="0.0009" stroke="rgb(40%, 40%, 40%)" stroke-opacity="1.0" fill="rgb(2%, 73%, 80%)" fill-opacity="0.05"><rect width="0.6352" height="0.5652" x="-0.6345" y="-0.4177"/></g></g></g><g class="hud"><g class="frame"><g stroke-width="0" stroke="rgb(0%, 0%, 0%)" stroke-opacity="0" fill="rgb(100%, 100%, 100%)" fill-opacity="0.02"><rect width="0.9686" height="0.8617" x="-0.6423" y="-0.4247"/></g></g><g class="axis"><g class="ticks"><g class="tickglyph"><g stroke-width="0.0018" stroke="rgb(5%, 5%, 5%)" stroke-opacity="0.4" fill="rgb(5%, 5%, 5%)" fill-opacity="0.4"><polyline points="-0.6634,0.4301
-0.6499,0.4301"/><polyline points="-0.6634,0.3453
-0.6499,0.3453"/><polyline points="-0.6634,0.2605
-0.6499,0.2605"/><polyline points="-0.6634,0.1757
-0.6499,0.1757"/><polyline points="-0.6634,0.0910
-0.6499,0.0910"/><polyline points="-0.6634,0.0062
-0.6499,0.0062"/><polyline points="-0.6634,-0.0786
-0.6499,-0.0786"/><polyline points="-0.6634,-0.1633
-0.6499,-0.1633"/><polyline points="-0.6634,-0.2481
-0.6499,-0.2481"/><polyline points="-0.6634,-0.3329
-0.6499,-0.3329"/><polyline points="-0.6634,-0.4177
-0.6499,-0.4177"/></g></g><g class="ticktext"><g stroke-width="0.0" stroke="none" fill="rgb(5%, 5%, 5%)" fill-opacity="1.0" font-size="0.0225" text-anchor="end"><text x="-0.6738" y="0.4359">-1.0</text><text x="-0.6738" y="0.3511">-0.8</text><text x="-0.6738" y="0.2663">-0.6</text><text x="-0.6738" y="0.1816">-0.4</text><text x="-0.6738" y="0.0968">-0.2</text><text x="-0.6738" y="0.0120"> 0.0</text><text x="-0.6738" y="-0.0727"> 0.2</text><text x="-0.6738" y="-0.1575"> 0.4</text><text x="-0.6738" y="-0.2423"> 0.6</text><text x="-0.6738" y="-0.3271"> 0.8</text><text x="-0.6738" y="-0.4118"> 1.0</text></g></g><g class="ticklines"><g stroke-width="0.0022" stroke="rgb(5%, 5%, 5%)" stroke-opacity="0.05" fill="none"><polyline points="-0.6345,0.4301 0.3184,0.4301"/><polyline points="-0.6345,0.3453 0.3184,0.3453"/><polyline points="-0.6345,0.2605 0.3184,0.2605"/><polyline points="-0.6345,0.1757 0.3184,0.1757"/><polyline points="-0.6345,0.0910 0.3184,0.0910"/><polyline points="-0.6345,0.0062 0.3184,0.0062"/><polyline points="-0.6345,-0.0786 0.3184,-0.0786"/><polyline points="-0.6345,-0.1633 0.3184,-0.1633"/><polyline points="-0.6345,-0.2481 0.3184,-0.2481"/><polyline points="-0.6345,-0.3329 0.3184,-0.3329"/><polyline points="-0.6345,-0.4177 0.3184,-0.4177"/></g></g></g><g class="axisbar"><g stroke-width="0" stroke="rgb(0%, 0%, 0%)" stroke-opacity="0" fill="rgb(5%, 5%, 5%)" fill-opacity="0.4"><rect width="0.0019" height="0.8494" x="-0.6490" y="-0.4185"/></g></g></g><g class="axis"><g class="ticks"><g class="tickglyph"><g stroke-width="0.0018" stroke="rgb(5%, 5%, 5%)" stroke-opacity="0.4" fill="rgb(5%, 5%, 5%)" fill-opacity="0.4"><polyline points="-0.6345,0.4565
-0.6345,0.4430"/><polyline points="-0.5392,0.4565
-0.5392,0.4430"/><polyline points="-0.4439,0.4565
-0.4439,0.4430"/><polyline points="-0.3486,0.4565
-0.3486,0.4430"/><polyline points="-0.2533,0.4565
-0.2533,0.4430"/><polyline points="-0.1581,0.4565
-0.1581,0.4430"/><polyline points="-0.0628,0.4565
-0.0628,0.4430"/><polyline points="0.0325,0.4565
0.0325,0.4430"/><polyline points="0.1278,0.4565
0.1278,0.4430"/><polyline points="0.2231,0.4565
0.2231,0.4430"/><polyline points="0.3184,0.4565
0.3184,0.4430"/></g></g><g class="ticktext"><g stroke-width="0.0" stroke="none" fill="rgb(5%, 5%, 5%)" fill-opacity="1.0" font-size="0.0225" text-anchor="middle"><text x="-0.6345" y="0.4767">0.0</text><text x="-0.5392" y="0.4767">0.2</text><text x="-0.4439" y="0.4767">0.4</text><text x="-0.3486" y="0.4767">0.6</text><text x="-0.2533" y="0.4767">0.8</text><text x="-0.1581" y="0.4767">1.0</text><text x="-0.0628" y="0.4767">1.2</text><text x="0.0325" y="0.4767">1.4</text><text x="0.1278" y="0.4767">1.6</text><text x="0.2231" y="0.4767">1.8</text><text x="0.3184" y="0.4767">2.0</text></g></g><g class="ticklines"><g stroke-width="0.0022" stroke="rgb(5%, 5%, 5%)" stroke-opacity="0.05" fill="none"><polyline points="-0.6345,0.4301 -0.6345,-0.4177"/><polyline points="-0.5392,0.4301 -0.5392,-0.4177"/><polyline points="-0.4439,0.4301 -0.4439,-0.4177"/><polyline points="-0.3486,0.4301 -0.3486,-0.4177"/><polyline points="-0.2533,0.4301 -0.2533,-0.4177"/><polyline points="-0.1581,0.4301 -0.1581,-0.4177"/><polyline points="-0.0628,0.4301 -0.0628,-0.4177"/><polyline points="0.0325,0.4301 0.0325,-0.4177"/><polyline points="0.1278,0.4301 0.1278,-0.4177"/><polyline points="0.2231,0.4301 0.2231,-0.4177"/><polyline points="0.3184,0.4301 0.3184,-0.4177"/></g></g></g><g class="axisbar"><g stroke-width="0" stroke="rgb(0%, 0%, 0%)" stroke-opacity="0" fill="rgb(5%, 5%, 5%)" fill-opacity="0.4"><rect width="0.9547" height="0.0017" x="-0.6354" y="0.4413"/></g></g></g><g class="legend"><g class="legendBorder"><g stroke-width="0.0011" stroke="rgb(5%, 5%, 5%)" stroke-opacity="1.0" fill="rgb(5%, 5%, 5%)" fill-opacity="0"><rect width="0.3530" height="0.1932" x="0.3755" y="-0.1438"/></g></g><g class="legendContent"><g stroke-width="0.0" stroke="none" fill="rgb(5%, 5%, 5%)" fill-opacity="1.0" font-size="0.0225" text-anchor="start"><text x="0.3874" y="0.0324">Bounding Box</text></g><g stroke-width="0.0011" stroke="rgb(40%, 40%, 40%)" stroke-opacity="1.0" fill="rgb(2%, 73%, 80%)" fill-opacity="0.05"><rect width="0.0238" height="0.0212" x="0.6685" y="0.0165"/></g><g stroke-width="0.0" stroke="none" fill="rgb(5%, 5%, 5%)" fill-opacity="1.0" font-size="0.0225" text-anchor="start"><text x="0.3874" y="-0.0015">Path Control Point</text></g><g stroke-width="0.0003" stroke="rgb(2%, 29%, 48%)" stroke-opacity="1.0" fill="rgb(2%, 73%, 80%)" fill-opacity="0.2"><circle cx="0.6804" cy="-0.0068" r="0.0112"/></g><g stroke-width="0.0" stroke="none" fill="rgb(5%, 5%, 5%)" fill-opacity="1.0" font-size="0.0225" text-anchor="start"><text x="0.3874" y="-0.0354">Path Endpoints</text></g><g stroke-width="0.0003" stroke="rgb(2%, 29%, 48%)" stroke-opacity="1.0" fill="rgb(2%, 73%, 80%)" fill-opacity="0.2"><circle cx="0.6804" cy="-0.0407" r="0.0112"/></g><g stroke-width="0.0" stroke="none" fill="rgb(5%, 5%, 5%)" fill-opacity="1.0" font-size="0.0225" text-anchor="start"><text x="0.3874" y="-0.0693">Path Chord</text></g><g stroke-width="0.0009" stroke="rgb(2%, 29%, 48%)" stroke-opacity="1.0" fill="none"><polyline points="0.6685,-0.0746 0.7162,-0.0746"/></g><g stroke-width="0.0" stroke="none" fill="rgb(5%, 5%, 5%)" fill-opacity="1.0" font-size="0.0225" text-anchor="start"><text x="0.3874" y="-0.1032">Path Fill</text></g><g stroke-width="0.0225" stroke="rgb(0%, 0%, 0%)" stroke-opacity="0" fill="rgb(66%, 7%, 55%)" fill-opacity="0.2"><path d="M 0.6685,-0.1014 Q 0.7162,-0.0803 0.6924,-0.1226"/></g></g></g><g class="title"><g stroke-width="0.0" stroke="none" fill="rgb(5%, 5%, 5%)" fill-opacity="1.0" font-size="0.0359" text-anchor="middle"><text x="0" y="-0.4559">QuadPosition (Point 0 0) (Point 1 1) (Point 2 (-1))</text></g></g><g class="frame"><g stroke-width="0" stroke="rgb(0%, 0%, 0%)" stroke-opacity="0" fill="rgb(0%, 0%, 0%)" fill-opacity="0"><rect width="1.5" height="1.0" x="-0.75" y="-0.5"/></g></g></g></svg>