<svg xmlns="http://www.w3.org/2000/svg" xmlns:xlink="http://www.w3.org/1999/xlink" width="449" height="300" viewBox="-0.75 -0.5 1.5000 1.0"><style>svg {
  color-scheme: light dark;
}
{
  .canvas g, .title g, .axisbar g, .ticktext g, .tickglyph g, .ticklines g, .legendContent g text {
    fill: rgb(5%, 5%, 5%);
  }
  .ticklines g, .tickglyph g, .legendBorder g {
    stroke: rgb(5%, 5%, 5%);
  }
  .legendBorder g {
    fill: rgb(94%, 94%, 94%);
  }
}
@media (prefers-color-scheme:dark) {
  .canvas g, .title g, .axisbar g, .ticktext g, .tickglyph g, .ticklines g, .legendContent g text {
    fill: rgb(94%, 94%, 94%);
  }
  .ticklines g, .tickglyph g, .legendBorder g {
    stroke: rgb(94%, 94%, 94%);
  }
  .legendBorder g {
    fill: rgb(5%, 5%, 5%);
  }
}
svg { font-family: system-ui,-apple-system,"Segoe UI",Roboto,"Helvetica Neue",Arial,"Noto Sans","Liberation Sans",sans-serif,"Apple Color Emoji","Segoe UI Emoji","Segoe UI Symbol","Noto Color Emoji";
}

ticktext { font-family: SFMono-Regular,Menlo,Monaco,Consolas,"Liberation Mono","Courier New",monospace;
}

</style><g class="chart"><g class="quad"><g stroke-width="0.0100" stroke="rgb(0%, 0%, 0%)" stroke-opacity="0" fill="rgb(66%, 7%, 55%)" fill-opacity="0.2"><path d="M -0.5873,-0.0108 Q 0.2349,0.3712 -0.1762,-0.3927"/></g><g stroke-width="0.0020" stroke="rgb(2%, 29%, 48%)" stroke-opacity="1.0" fill="none"><polyline points="-0.5893,-0.0108 -0.5729,-0.0032 -0.5568,0.0041 -0.5409,0.0112 -0.5253,0.0181 -0.5099,0.0247 -0.4947,0.0312 -0.4798,0.0373 -0.4652,0.0433 -0.4508,0.0490 -0.4366,0.0545 -0.4227,0.0598 -0.4091,0.0648 -0.3956,0.0696 -0.3825,0.0742 -0.3696,0.0785 -0.3569,0.0826 -0.3445,0.0865 -0.3323,0.0902 -0.3204,0.0936 -0.3087,0.0968 -0.2973,0.0997 -0.2861,0.1025 -0.2752,0.1050 -0.2645,0.1072 -0.2540,0.1093 -0.2438,0.1111 -0.2339,0.1127 -0.2242,0.1140 -0.2147,0.1151 -0.2055,0.1160 -0.1966,0.1166 -0.1879,0.1171 -0.1794,0.1173 -0.1712,0.1172 -0.1632,0.1170 -0.1555,0.1165 -0.1481,0.1157 -0.1408,0.1148 -0.1339,0.1136 -0.1271,0.1122 -0.1207,0.1105 -0.1144,0.1086 -0.1084,0.1065 -0.1027,0.1042 -0.0972,0.1016 -0.0920,0.0988 -0.0870,0.0957 -0.0822,0.0925 -0.0777,0.0890 -0.0735,0.0853 -0.0695,0.0813 -0.0657,0.0771 -0.0622,0.0727 -0.0590,0.0680 -0.0560,0.0632 -0.0532,0.0581 -0.0507,0.0527 -0.0484,0.0471 -0.0464,0.0413 -0.0446,0.0353 -0.0431,0.0290 -0.0418,0.0226 -0.0408,0.0158 -0.0400,0.0089 -0.0394,0.0017 -0.0392,-0.0057 -0.0391,-0.0134 -0.0393,-0.0212 -0.0398,-0.0294 -0.0405,-0.0377 -0.0414,-0.0463 -0.0426,-0.0551 -0.0441,-0.0641 -0.0458,-0.0733 -0.0477,-0.0828 -0.0499,-0.0926 -0.0523,-0.1025 -0.0550,-0.1127 -0.0579,-0.1231 -0.0611,-0.1337 -0.0645,-0.1446 -0.0682,-0.1557 -0.0721,-0.1671 -0.0763,-0.1786 -0.0807,-0.1904 -0.0854,-0.2024 -0.0903,-0.2147 -0.0954,-0.2272 -0.1009,-0.2399 -0.1065,-0.2528 -0.1124,-0.2660 -0.1186,-0.2794 -0.1249,-0.2931 -0.1316,-0.3069 -0.1385,-0.3210 -0.1456,-0.3354 -0.1530,-0.3499 -0.1606,-0.3647 -0.1685,-0.3798 -0.1767,-0.3950"/></g><g stroke-width="0.0030" stroke="rgb(2%, 29%, 48%)" stroke-opacity="1.0" fill="rgb(2%, 73%, 80%)" fill-opacity="0.2"><rect width="0.0300" height="0.0300" x="-0.5966" y="-0.0257"/><rect width="0.0300" height="0.0300" x="-0.1900" y="-0.4011"/></g><g stroke-width="0.0030" stroke="rgb(2%, 29%, 48%)" stroke-opacity="1.0" fill="rgb(2%, 73%, 80%)" fill-opacity="0.2"><circle cx="0.2316" cy="0.3647" r="0.0150"/></g><g stroke-width="0.0020" stroke="rgb(40%, 40%, 40%)" stroke-opacity="1.0" fill="rgb(2%, 73%, 80%)" fill-opacity="0.05"><rect width="0.5502" height="0.5123" x="-0.5893" y="-0.3950"/></g></g></g><g class="hud"><g class="frame"><g stroke-width="0" stroke="rgb(0%, 0%, 0%)" stroke-opacity="0" fill="rgb(100%, 100%, 100%)" fill-opacity="0.02"><rect width="0.8397" height="0.7822" x="-0.5966" y="-0.4019"/></g></g><g class="axis"><g class="axisbar"><g stroke-width="0" stroke="rgb(0%, 0%, 0%)" stroke-opacity="0" fill="rgb(5%, 5%, 5%)" fill-opacity="0.4"><rect width="0.0022" height="0.7657" x="-0.6045" y="-0.3967"/></g></g><g class="ticks"><g class="tickglyph"><g stroke-width="0.0040" stroke="rgb(5%, 5%, 5%)" stroke-opacity="0.4" fill="rgb(5%, 5%, 5%)" fill-opacity="0.4"><polyline points="-0.6283,0.3668
-0.5983,0.3668"/><polyline points="-0.6283,0.1765
-0.5983,0.1765"/><polyline points="-0.6283,-0.0139
-0.5983,-0.0139"/><polyline points="-0.6283,-0.2042
-0.5983,-0.2042"/><polyline points="-0.6283,-0.3945
-0.5983,-0.3945"/></g></g><g class="ticktext"><g stroke-width="0.0" stroke="none" fill="rgb(5%, 5%, 5%)" fill-opacity="1.0" font-size="0.0400" text-anchor="end"><text x="-0.6323" y="0.3745">-1.0</text><text x="-0.6323" y="0.1858">-0.5</text><text x="-0.6323" y="-0.0030"> 0.0</text><text x="-0.6323" y="-0.1917"> 0.5</text><text x="-0.6323" y="-0.3805"> 1.0</text></g></g><g class="ticklines"><g stroke-width="0.0050" stroke="rgb(5%, 5%, 5%)" stroke-opacity="0.05" fill="none"><polyline points="-0.5888,0.3670 0.2335,0.3670"/><polyline points="-0.5888,0.1766 0.2335,0.1766"/><polyline points="-0.5888,-0.0139 0.2335,-0.0139"/><polyline points="-0.5888,-0.2043 0.2335,-0.2043"/><polyline points="-0.5888,-0.3947 0.2335,-0.3947"/></g></g></g></g><g class="axis"><g class="axisbar"><g stroke-width="0" stroke="rgb(0%, 0%, 0%)" stroke-opacity="0" fill="rgb(5%, 5%, 5%)" fill-opacity="0.4"><rect width="0.8258" height="0.0031" x="-0.5908" y="0.3881"/></g></g><g class="ticks"><g class="tickglyph"><g stroke-width="0.0040" stroke="rgb(5%, 5%, 5%)" stroke-opacity="0.4" fill="rgb(5%, 5%, 5%)" fill-opacity="0.4"><polyline points="-0.5883,0.4165
-0.5883,0.3865"/><polyline points="-0.3829,0.4165
-0.3829,0.3865"/><polyline points="-0.1775,0.4165
-0.1775,0.3865"/><polyline points="0.0279,0.4165
0.0279,0.3865"/><polyline points="0.2333,0.4165
0.2333,0.3865"/></g></g><g class="ticktext"><g stroke-width="0.0" stroke="none" fill="rgb(5%, 5%, 5%)" fill-opacity="1.0" font-size="0.0400" text-anchor="middle"><text x="-0.5769" y="0.4570">0.0</text><text x="-0.3754" y="0.4570">0.5</text><text x="-0.1740" y="0.4570">1.0</text><text x="0.0274" y="0.4570">1.5</text><text x="0.2288" y="0.4570">2.0</text></g></g><g class="ticklines"><g stroke-width="0.0050" stroke="rgb(5%, 5%, 5%)" stroke-opacity="0.05" fill="none"><polyline points="-0.5888,0.3670 -0.5888,-0.3947"/><polyline points="-0.3832,0.3670 -0.3832,-0.3947"/><polyline points="-0.1776,0.3670 -0.1776,-0.3947"/><polyline points="0.0279,0.3670 0.0279,-0.3947"/><polyline points="0.2335,0.3670 0.2335,-0.3947"/></g></g></g></g><g class="legend"><g class="padding"></g><g class="padding"></g><g class="frame"><g stroke-width="0.0007" stroke="rgb(5%, 5%, 5%)" stroke-opacity="1.0" fill="rgb(5%, 5%, 5%)" fill-opacity="0"><rect width="0.4288" height="0.3566" x="0.2960" y="-0.2870"/></g></g><g class="legendContent"><g stroke-width="0.0" stroke="none" fill="rgb(5%, 5%, 5%)" fill-opacity="1.0" font-size="0.0280" text-anchor="start"><text x="0.3100" y="0.0383">Bounding Box</text></g><g stroke-width="0.0014" stroke="rgb(40%, 40%, 40%)" stroke-opacity="1.0" fill="rgb(2%, 73%, 80%)" fill-opacity="0.05"><rect width="0.0280" height="0.0391" x="0.6543" y="0.0090"/></g><g stroke-width="0.0" stroke="none" fill="rgb(5%, 5%, 5%)" fill-opacity="1.0" font-size="0.0280" text-anchor="start"><text x="0.3100" y="-0.0242">Path Control Point</text></g><g stroke-width="0.0004" stroke="rgb(2%, 29%, 48%)" stroke-opacity="1.0" fill="rgb(2%, 73%, 80%)" fill-opacity="0.2"><circle cx="0.6683" cy="-0.0340" r="0.0140"/></g><g stroke-width="0.0" stroke="none" fill="rgb(5%, 5%, 5%)" fill-opacity="1.0" font-size="0.0280" text-anchor="start"><text x="0.3100" y="-0.0868">Path Endpoints</text></g><g stroke-width="0.0004" stroke="rgb(2%, 29%, 48%)" stroke-opacity="1.0" fill="rgb(2%, 73%, 80%)" fill-opacity="0.2"><rect width="0.0280" height="0.0280" x="0.6543" y="-0.1106"/></g><g stroke-width="0.0" stroke="none" fill="rgb(5%, 5%, 5%)" fill-opacity="1.0" font-size="0.0280" text-anchor="start"><text x="0.3100" y="-0.1494">Path Chord</text></g><g stroke-width="0.0011" stroke="rgb(2%, 29%, 48%)" stroke-opacity="1.0" fill="none"><polyline points="0.6543,-0.1592 0.7103,-0.1592"/></g><g stroke-width="0.0" stroke="none" fill="rgb(5%, 5%, 5%)" fill-opacity="1.0" font-size="0.0280" text-anchor="start"><text x="0.3100" y="-0.2120">Path Fill</text></g><g stroke-width="0.0280" stroke="rgb(0%, 0%, 0%)" stroke-opacity="0" fill="rgb(66%, 7%, 55%)" fill-opacity="0.2"><path d="M 0.6543,-0.2087 Q 0.7103,-0.1696 0.6823,-0.2478"/></g></g></g><g class="title"><g stroke-width="0.0" stroke="none" fill="rgb(5%, 5%, 5%)" fill-opacity="1.0" font-size="0.0300" text-anchor="middle"><text x="0" y="-0.4449">QuadPosition (Point 0 0) (Point 1 1) (Point 2 (-1))</text></g></g><g class="frame"><g stroke-width="0" stroke="rgb(0%, 0%, 0%)" stroke-opacity="0" fill="rgb(0%, 0%, 0%)" fill-opacity="0"><rect width="1.5000" height="1.0" x="-0.75" y="-0.5"/></g></g></g></svg>