<svg xmlns="http://www.w3.org/2000/svg" xmlns:xlink="http://www.w3.org/1999/xlink" width="450" height="300" viewBox="-0.75 -0.5 1.5 1.0"><style>svg {
  color-scheme: light dark;
}
{
  .canvas g, .title g, .axisbar g, .ticktext g, .tickglyph g, .ticklines g, .legendContent g text {
    fill: rgb(5%, 5%, 5%);
  }
  .ticklines g, .tickglyph g, .legendBorder g {
    stroke: rgb(5%, 5%, 5%);
  }
  .legendBorder g {
    fill: rgb(94%, 94%, 94%);
  }
}
@media (prefers-color-scheme:dark) {
  .canvas g, .title g, .axisbar g, .ticktext g, .tickglyph g, .ticklines g, .legendContent g text {
    fill: rgb(94%, 94%, 94%);
  }
  .ticklines g, .tickglyph g, .legendBorder g {
    stroke: rgb(94%, 94%, 94%);
  }
  .legendBorder g {
    fill: rgb(5%, 5%, 5%);
  }
}</style><g class="chart"><g class="rect"><g stroke-width="0" stroke="rgb(0%, 0%, 0%)" stroke-opacity="0" fill="rgb(2%, 29%, 48%)" fill-opacity="0.4"><rect width="0.0296" height="0.0000" x="-0.7390" y="0.4091"/><rect width="0.0296" height="0.0000" x="-0.7094" y="0.4090"/><rect width="0.0296" height="0.0000" x="-0.6799" y="0.4090"/><rect width="0.0296" height="0.0001" x="-0.6503" y="0.4090"/><rect width="0.0296" height="0.0002" x="-0.6207" y="0.4089"/><rect width="0.0296" height="0.0005" x="-0.5912" y="0.4086"/><rect width="0.0296" height="0.0010" x="-0.5616" y="0.4081"/><rect width="0.0296" height="0.0020" x="-0.5321" y="0.4071"/><rect width="0.0296" height="0.0039" x="-0.5025" y="0.4051"/><rect width="0.0296" height="0.0075" x="-0.4729" y="0.4016"/><rect width="0.0296" height="0.0136" x="-0.4434" y="0.3954"/><rect width="0.0296" height="0.0239" x="-0.4138" y="0.3852"/><rect width="0.0296" height="0.0401" x="-0.3843" y="0.3689"/><rect width="0.0296" height="0.0649" x="-0.3547" y="0.3442"/><rect width="0.0296" height="0.1007" x="-0.3251" y="0.3083"/><rect width="0.0296" height="0.1503" x="-0.2956" y="0.2588"/><rect width="0.0296" height="0.2154" x="-0.2660" y="0.1937"/><rect width="0.0296" height="0.2966" x="-0.2365" y="0.1125"/><rect width="0.0296" height="0.3925" x="-0.2069" y="0.0166"/><rect width="0.0296" height="0.4989" x="-0.1774" y="-0.0898"/><rect width="0.0296" height="0.6094" x="-0.1478" y="-0.2003"/><rect width="0.0296" height="0.7151" x="-0.1182" y="-0.3060"/><rect width="0.0296" height="0.8063" x="-0.0887" y="-0.3972"/><rect width="0.0296" height="0.8734" x="-0.0591" y="-0.4644"/><rect width="0.0296" height="0.9091" x="-0.0296" y="-0.5"/><rect width="0.0296" height="0.9091" x="0" y="-0.5000"/><rect width="0.0296" height="0.8734" x="0.0296" y="-0.4644"/><rect width="0.0296" height="0.8063" x="0.0591" y="-0.3972"/><rect width="0.0296" height="0.7151" x="0.0887" y="-0.3060"/><rect width="0.0296" height="0.6094" x="0.1182" y="-0.2003"/><rect width="0.0296" height="0.4989" x="0.1478" y="-0.0898"/><rect width="0.0296" height="0.3925" x="0.1774" y="0.0166"/><rect width="0.0296" height="0.2966" x="0.2069" y="0.1125"/><rect width="0.0296" height="0.2154" x="0.2365" y="0.1937"/><rect width="0.0296" height="0.1503" x="0.2660" y="0.2588"/><rect width="0.0296" height="0.1007" x="0.2956" y="0.3083"/><rect width="0.0296" height="0.0649" x="0.3251" y="0.3442"/><rect width="0.0296" height="0.0401" x="0.3547" y="0.3689"/><rect width="0.0296" height="0.0239" x="0.3843" y="0.3852"/><rect width="0.0296" height="0.0136" x="0.4138" y="0.3954"/><rect width="0.0296" height="0.0075" x="0.4434" y="0.4016"/><rect width="0.0296" height="0.0039" x="0.4729" y="0.4051"/><rect width="0.0296" height="0.0020" x="0.5025" y="0.4071"/><rect width="0.0296" height="0.0010" x="0.5321" y="0.4081"/><rect width="0.0296" height="0.0005" x="0.5616" y="0.4086"/><rect width="0.0296" height="0.0002" x="0.5912" y="0.4089"/><rect width="0.0296" height="0.0001" x="0.6207" y="0.4090"/><rect width="0.0296" height="0.0000" x="0.6503" y="0.4090"/><rect width="0.0296" height="0.0000" x="0.6799" y="0.4090"/><rect width="0.0296" height="0.0000" x="0.7094" y="0.4091"/></g><g stroke-width="0" stroke="rgb(0%, 0%, 0%)" stroke-opacity="0" fill="rgb(66%, 7%, 55%)" fill-opacity="0.4"><rect width="0.0296" height="0.0227" x="-0.7390" y="0.3863"/><rect width="0.0296" height="0.0289" x="-0.7094" y="0.3802"/><rect width="0.0296" height="0.0363" x="-0.6799" y="0.3727"/><rect width="0.0296" height="0.0453" x="-0.6503" y="0.3638"/><rect width="0.0296" height="0.0559" x="-0.6207" y="0.3532"/><rect width="0.0296" height="0.0682" x="-0.5912" y="0.3408"/><rect width="0.0296" height="0.0825" x="-0.5616" y="0.3265"/><rect width="0.0296" height="0.0988" x="-0.5321" y="0.3103"/><rect width="0.0296" height="0.1171" x="-0.5025" y="0.2920"/><rect width="0.0296" height="0.1374" x="-0.4729" y="0.2716"/><rect width="0.0296" height="0.1597" x="-0.4434" y="0.2494"/><rect width="0.0296" height="0.1836" x="-0.4138" y="0.2254"/><rect width="0.0296" height="0.2091" x="-0.3843" y="0.1999"/><rect width="0.0296" height="0.2358" x="-0.3547" y="0.1733"/><rect width="0.0296" height="0.2632" x="-0.3251" y="0.1458"/><rect width="0.0296" height="0.2909" x="-0.2956" y="0.1182"/><rect width="0.0296" height="0.3183" x="-0.2660" y="0.0908"/><rect width="0.0296" height="0.3448" x="-0.2365" y="0.0642"/><rect width="0.0296" height="0.3698" x="-0.2069" y="0.0392"/><rect width="0.0296" height="0.3927" x="-0.1774" y="0.0164"/><rect width="0.0296" height="0.4128" x="-0.1478" y="-0.0038"/><rect width="0.0296" height="0.4297" x="-0.1182" y="-0.0206"/><rect width="0.0296" height="0.4428" x="-0.0887" y="-0.0337"/><rect width="0.0296" height="0.4517" x="-0.0591" y="-0.0426"/><rect width="0.0296" height="0.4562" x="-0.0296" y="-0.0472"/><rect width="0.0296" height="0.4562" x="0" y="-0.0472"/><rect width="0.0296" height="0.4517" x="0.0296" y="-0.0426"/><rect width="0.0296" height="0.4428" x="0.0591" y="-0.0337"/><rect width="0.0296" height="0.4297" x="0.0887" y="-0.0206"/><rect width="0.0296" height="0.4128" x="0.1182" y="-0.0038"/><rect width="0.0296" height="0.3927" x="0.1478" y="0.0164"/><rect width="0.0296" height="0.3698" x="0.1774" y="0.0392"/><rect width="0.0296" height="0.3448" x="0.2069" y="0.0642"/><rect width="0.0296" height="0.3183" x="0.2365" y="0.0908"/><rect width="0.0296" height="0.2909" x="0.2660" y="0.1182"/><rect width="0.0296" height="0.2632" x="0.2956" y="0.1458"/><rect width="0.0296" height="0.2358" x="0.3251" y="0.1733"/><rect width="0.0296" height="0.2091" x="0.3547" y="0.1999"/><rect width="0.0296" height="0.1836" x="0.3843" y="0.2254"/><rect width="0.0296" height="0.1597" x="0.4138" y="0.2494"/><rect width="0.0296" height="0.1374" x="0.4434" y="0.2716"/><rect width="0.0296" height="0.1171" x="0.4729" y="0.2920"/><rect width="0.0296" height="0.0988" x="0.5025" y="0.3103"/><rect width="0.0296" height="0.0825" x="0.5321" y="0.3265"/><rect width="0.0296" height="0.0682" x="0.5616" y="0.3408"/><rect width="0.0296" height="0.0559" x="0.5912" y="0.3532"/><rect width="0.0296" height="0.0453" x="0.6207" y="0.3638"/><rect width="0.0296" height="0.0363" x="0.6503" y="0.3727"/><rect width="0.0296" height="0.0289" x="0.6799" y="0.3802"/><rect width="0.0296" height="0.0227" x="0.7094" y="0.3863"/></g></g></g><g class="hud"><g class="axis"><g class="ticks"><g class="tickglyph"><g stroke-width="0.0015" stroke="rgb(5%, 5%, 5%)" stroke-opacity="0.4" fill="rgb(5%, 5%, 5%)" fill-opacity="0.4"><polyline points="-0.7390,0.4420
-0.7390,0.4310"/><polyline points="-0.5912,0.4420
-0.5912,0.4310"/><polyline points="-0.4434,0.4420
-0.4434,0.4310"/><polyline points="-0.2956,0.4420
-0.2956,0.4310"/><polyline points="-0.1478,0.4420
-0.1478,0.4310"/><polyline points="0,0.4420
0,0.4310"/><polyline points="0.1478,0.4420
0.1478,0.4310"/><polyline points="0.2956,0.4420
0.2956,0.4310"/><polyline points="0.4434,0.4420
0.4434,0.4310"/><polyline points="0.5912,0.4420
0.5912,0.4310"/><polyline points="0.7390,0.4420
0.7390,0.4310"/></g></g><g class="ticktext"><g stroke-width="0.0" stroke="none" fill="rgb(5%, 5%, 5%)" fill-opacity="1.0" font-size="0.0184" text-anchor="middle"><text x="-0.7390" y="0.4945">-5</text><text x="-0.5912" y="0.4945">-4</text><text x="-0.4434" y="0.4945">-3</text><text x="-0.2956" y="0.4945">-2</text><text x="-0.1478" y="0.4945">-1</text><text x="0" y="0.4945"> 0</text><text x="0.1478" y="0.4945"> 1</text><text x="0.2956" y="0.4945"> 2</text><text x="0.4434" y="0.4945"> 3</text><text x="0.5912" y="0.4945"> 4</text><text x="0.7390" y="0.4945"> 5</text></g></g></g><g class="axisbar"><g stroke-width="0" stroke="rgb(0%, 0%, 0%)" stroke-opacity="0" fill="rgb(5%, 5%, 5%)" fill-opacity="0.4"><rect width="1.4785" height="0.0037" x="-0.7393" y="0.4182"/></g></g></g></g></svg>