<svg xmlns="http://www.w3.org/2000/svg" xmlns:xlink="http://www.w3.org/1999/xlink" width="450" height="300" viewBox="-0.75 -0.5 1.5 1.0"><style>svg {
  color-scheme: light dark;
}
{
  .canvas g, .title g, .axisbar g, .ticktext g, .tickglyph g, .ticklines g, .legendContent g text {
    fill: rgb(5%, 5%, 5%);
  }
  .ticklines g, .tickglyph g, .legendBorder g {
    stroke: rgb(5%, 5%, 5%);
  }
  .legendBorder g {
    fill: rgb(94%, 94%, 94%);
  }
}
@media (prefers-color-scheme:dark) {
  .canvas g, .title g, .axisbar g, .ticktext g, .tickglyph g, .ticklines g, .legendContent g text {
    fill: rgb(94%, 94%, 94%);
  }
  .ticklines g, .tickglyph g, .legendBorder g {
    stroke: rgb(94%, 94%, 94%);
  }
  .legendBorder g {
    fill: rgb(5%, 5%, 5%);
  }
}
svg { font-family: system-ui,-apple-system,"Segoe UI",Roboto,"Helvetica Neue",Arial,"Noto Sans","Liberation Sans",sans-serif,"Apple Color Emoji","Segoe UI Emoji","Segoe UI Symbol","Noto Color Emoji";
}

ticktext { font-family: SFMono-Regular,Menlo,Monaco,Consolas,"Liberation Mono","Courier New",monospace;
}

</style><g class="chart"><g class="rect"><g stroke-width="0" stroke="rgb(0%, 0%, 0%)" stroke-opacity="0" fill="rgb(2%, 29%, 48%)" fill-opacity="0.4"><rect width="0.0242" height="0.0000" x="-0.6056" y="0.3985"/><rect width="0.0242" height="0.0000" x="-0.5814" y="0.3985"/><rect width="0.0242" height="0.0000" x="-0.5572" y="0.3984"/><rect width="0.0242" height="0.0001" x="-0.5329" y="0.3984"/><rect width="0.0242" height="0.0002" x="-0.5087" y="0.3983"/><rect width="0.0242" height="0.0004" x="-0.4845" y="0.3980"/><rect width="0.0242" height="0.0010" x="-0.4603" y="0.3975"/><rect width="0.0242" height="0.0020" x="-0.4360" y="0.3965"/><rect width="0.0242" height="0.0039" x="-0.4118" y="0.3946"/><rect width="0.0242" height="0.0074" x="-0.3876" y="0.3911"/><rect width="0.0242" height="0.0135" x="-0.3634" y="0.3850"/><rect width="0.0242" height="0.0236" x="-0.3391" y="0.3749"/><rect width="0.0242" height="0.0397" x="-0.3149" y="0.3588"/><rect width="0.0242" height="0.0641" x="-0.2907" y="0.3344"/><rect width="0.0242" height="0.0996" x="-0.2665" y="0.2989"/><rect width="0.0242" height="0.1485" x="-0.2422" y="0.2500"/><rect width="0.0242" height="0.2129" x="-0.2180" y="0.1856"/><rect width="0.0242" height="0.2932" x="-0.1938" y="0.1053"/><rect width="0.0242" height="0.3879" x="-0.1696" y="0.0106"/><rect width="0.0242" height="0.4931" x="-0.1453" y="-0.0946"/><rect width="0.0242" height="0.6023" x="-0.1211" y="-0.2038"/><rect width="0.0242" height="0.7068" x="-0.0969" y="-0.3083"/><rect width="0.0242" height="0.7969" x="-0.0727" y="-0.3984"/><rect width="0.0242" height="0.8632" x="-0.0484" y="-0.4648"/><rect width="0.0242" height="0.8985" x="-0.0242" y="-0.5"/><rect width="0.0242" height="0.8985" x="0" y="-0.5"/><rect width="0.0242" height="0.8632" x="0.0242" y="-0.4648"/><rect width="0.0242" height="0.7969" x="0.0484" y="-0.3984"/><rect width="0.0242" height="0.7068" x="0.0727" y="-0.3083"/><rect width="0.0242" height="0.6023" x="0.0969" y="-0.2038"/><rect width="0.0242" height="0.4931" x="0.1211" y="-0.0946"/><rect width="0.0242" height="0.3879" x="0.1453" y="0.0106"/><rect width="0.0242" height="0.2932" x="0.1696" y="0.1053"/><rect width="0.0242" height="0.2129" x="0.1938" y="0.1856"/><rect width="0.0242" height="0.1485" x="0.2180" y="0.2500"/><rect width="0.0242" height="0.0996" x="0.2422" y="0.2989"/><rect width="0.0242" height="0.0641" x="0.2665" y="0.3344"/><rect width="0.0242" height="0.0397" x="0.2907" y="0.3588"/><rect width="0.0242" height="0.0236" x="0.3149" y="0.3749"/><rect width="0.0242" height="0.0135" x="0.3391" y="0.3850"/><rect width="0.0242" height="0.0074" x="0.3634" y="0.3911"/><rect width="0.0242" height="0.0039" x="0.3876" y="0.3946"/><rect width="0.0242" height="0.0020" x="0.4118" y="0.3965"/><rect width="0.0242" height="0.0010" x="0.4360" y="0.3975"/><rect width="0.0242" height="0.0004" x="0.4603" y="0.3980"/><rect width="0.0242" height="0.0002" x="0.4845" y="0.3983"/><rect width="0.0242" height="0.0001" x="0.5087" y="0.3984"/><rect width="0.0242" height="0.0000" x="0.5329" y="0.3984"/><rect width="0.0242" height="0.0000" x="0.5572" y="0.3985"/><rect width="0.0242" height="0.0000" x="0.5814" y="0.3985"/></g><g stroke-width="0" stroke="rgb(0%, 0%, 0%)" stroke-opacity="0" fill="rgb(66%, 7%, 55%)" fill-opacity="0.4"><rect width="0.0242" height="0.0225" x="-0.6056" y="0.3760"/><rect width="0.0242" height="0.0285" x="-0.5814" y="0.3699"/><rect width="0.0242" height="0.0359" x="-0.5572" y="0.3626"/><rect width="0.0242" height="0.0448" x="-0.5329" y="0.3537"/><rect width="0.0242" height="0.0552" x="-0.5087" y="0.3433"/><rect width="0.0242" height="0.0674" x="-0.4845" y="0.3310"/><rect width="0.0242" height="0.0816" x="-0.4603" y="0.3169"/><rect width="0.0242" height="0.0976" x="-0.4360" y="0.3008"/><rect width="0.0242" height="0.1157" x="-0.4118" y="0.2827"/><rect width="0.0242" height="0.1358" x="-0.3876" y="0.2627"/><rect width="0.0242" height="0.1578" x="-0.3634" y="0.2407"/><rect width="0.0242" height="0.1815" x="-0.3391" y="0.2170"/><rect width="0.0242" height="0.2067" x="-0.3149" y="0.1918"/><rect width="0.0242" height="0.2331" x="-0.2907" y="0.1654"/><rect width="0.0242" height="0.2602" x="-0.2665" y="0.1383"/><rect width="0.0242" height="0.2875" x="-0.2422" y="0.1110"/><rect width="0.0242" height="0.3146" x="-0.2180" y="0.0839"/><rect width="0.0242" height="0.3408" x="-0.1938" y="0.0577"/><rect width="0.0242" height="0.3655" x="-0.1696" y="0.0330"/><rect width="0.0242" height="0.3881" x="-0.1453" y="0.0104"/><rect width="0.0242" height="0.4080" x="-0.1211" y="-0.0095"/><rect width="0.0242" height="0.4247" x="-0.0969" y="-0.0262"/><rect width="0.0242" height="0.4376" x="-0.0727" y="-0.0391"/><rect width="0.0242" height="0.4464" x="-0.0484" y="-0.0480"/><rect width="0.0242" height="0.4509" x="-0.0242" y="-0.0525"/><rect width="0.0242" height="0.4509" x="0" y="-0.0525"/><rect width="0.0242" height="0.4464" x="0.0242" y="-0.0480"/><rect width="0.0242" height="0.4376" x="0.0484" y="-0.0391"/><rect width="0.0242" height="0.4247" x="0.0727" y="-0.0262"/><rect width="0.0242" height="0.4080" x="0.0969" y="-0.0095"/><rect width="0.0242" height="0.3881" x="0.1211" y="0.0104"/><rect width="0.0242" height="0.3655" x="0.1453" y="0.0330"/><rect width="0.0242" height="0.3408" x="0.1696" y="0.0577"/><rect width="0.0242" height="0.3146" x="0.1938" y="0.0839"/><rect width="0.0242" height="0.2875" x="0.2180" y="0.1110"/><rect width="0.0242" height="0.2602" x="0.2422" y="0.1383"/><rect width="0.0242" height="0.2331" x="0.2665" y="0.1654"/><rect width="0.0242" height="0.2067" x="0.2907" y="0.1918"/><rect width="0.0242" height="0.1815" x="0.3149" y="0.2170"/><rect width="0.0242" height="0.1578" x="0.3391" y="0.2407"/><rect width="0.0242" height="0.1358" x="0.3634" y="0.2627"/><rect width="0.0242" height="0.1157" x="0.3876" y="0.2827"/><rect width="0.0242" height="0.0976" x="0.4118" y="0.3008"/><rect width="0.0242" height="0.0816" x="0.4360" y="0.3169"/><rect width="0.0242" height="0.0674" x="0.4603" y="0.3310"/><rect width="0.0242" height="0.0552" x="0.4845" y="0.3433"/><rect width="0.0242" height="0.0448" x="0.5087" y="0.3537"/><rect width="0.0242" height="0.0359" x="0.5329" y="0.3626"/><rect width="0.0242" height="0.0285" x="0.5572" y="0.3699"/><rect width="0.0242" height="0.0225" x="0.5814" y="0.3760"/></g></g><g class="datapadding"></g></g><g class="hud"><g class="axis"><g class="axisbar"><g stroke-width="0" stroke="rgb(0%, 0%, 0%)" stroke-opacity="0" fill="rgb(5%, 5%, 5%)" fill-opacity="0.4"><rect width="1.4574" height="0.0036" x="-0.7287" y="0.4075"/></g></g><g class="ticks"><g class="tickglyph"><g stroke-width="0.0040" stroke="rgb(5%, 5%, 5%)" stroke-opacity="0.4" fill="rgb(5%, 5%, 5%)" fill-opacity="0.4"><polyline points="-0.7266,0.4398
-0.7266,0.4098"/><polyline points="-0.4844,0.4398
-0.4844,0.4098"/><polyline points="-0.2422,0.4398
-0.2422,0.4098"/><polyline points="0,0.4398
0,0.4098"/><polyline points="0.2422,0.4398
0.2422,0.4098"/><polyline points="0.4844,0.4398
0.4844,0.4098"/><polyline points="0.7266,0.4398
0.7266,0.4098"/></g></g><g class="ticktext"><g stroke-width="0.0" stroke="none" fill="rgb(5%, 5%, 5%)" fill-opacity="1.0" font-size="0.0400" text-anchor="middle"><text x="-0.726" y="0.488">-6</text><text x="-0.484" y="0.488">-4</text><text x="-0.2420" y="0.488">-2</text><text x="0" y="0.488"> 0</text><text x="0.2420" y="0.488"> 2</text><text x="0.484" y="0.488"> 4</text><text x="0.726" y="0.488"> 6</text></g></g></g></g></g></svg>