<svg xmlns="http://www.w3.org/2000/svg" xmlns:xlink="http://www.w3.org/1999/xlink" width="450" height="300" viewBox="-0.75 -0.5 1.5 1.0"><style>svg {
  color-scheme: light dark;
}
{
  .canvas g, .title g, .axisbar g, .ticktext g, .tickglyph g, .ticklines g, .legendContent g text {
    fill: rgb(5%, 5%, 5%);
  }
  .ticklines g, .tickglyph g, .legendBorder g {
    stroke: rgb(5%, 5%, 5%);
  }
  .legendBorder g {
    fill: rgb(94%, 94%, 94%);
  }
}
@media (prefers-color-scheme:dark) {
  .canvas g, .title g, .axisbar g, .ticktext g, .tickglyph g, .ticklines g, .legendContent g text {
    fill: rgb(94%, 94%, 94%);
  }
  .ticklines g, .tickglyph g, .legendBorder g {
    stroke: rgb(94%, 94%, 94%);
  }
  .legendBorder g {
    fill: rgb(5%, 5%, 5%);
  }
}
svg { font-family: system-ui,-apple-system,"Segoe UI",Roboto,"Helvetica Neue",Arial,"Noto Sans","Liberation Sans",sans-serif,"Apple Color Emoji","Segoe UI Emoji","Segoe UI Symbol","Noto Color Emoji";
}

ticktext { font-family: SFMono-Regular,Menlo,Monaco,Consolas,"Liberation Mono","Courier New",monospace;
}

</style><g class="chart"><g class="barchart"><g stroke-width="0" stroke="rgb(2%, 29%, 48%)" stroke-opacity="1.0" fill="rgb(2%, 29%, 48%)" fill-opacity="0.7"><rect width="0.1032" height="0.0435" x="-0.7254" y="0.2387"/><rect width="0.1032" height="0.0869" x="-0.6107" y="0.1518"/><rect width="0.1032" height="0.1304" x="-0.4960" y="0.0649"/><rect width="0.1032" height="0.2173" x="-0.3813" y="-0.0655"/><rect width="0.1032" height="0.3476" x="-0.2666" y="-0.2393"/><rect width="0.1032" height="0" x="-0.1519" y="0.0649"/><rect width="0.1032" height="0.0869" x="-0.0372" y="0.0214"/><rect width="0.1032" height="0.4780" x="0.0775" y="-0.5"/><rect width="0.1032" height="0.0869" x="0.1922" y="-0.1524"/><rect width="0.1032" height="0.0435" x="0.3069" y="-0.1524"/></g><g stroke-width="0" stroke="rgb(66%, 7%, 55%)" stroke-opacity="1.0" fill="rgb(66%, 7%, 55%)" fill-opacity="0.7"><rect width="0.1032" height="0.0435" x="-0.7254" y="0.2821"/><rect width="0.1032" height="0.0869" x="-0.6107" y="0.2387"/><rect width="0.1032" height="0.1304" x="-0.4960" y="0.1952"/><rect width="0.1032" height="0.1738" x="-0.3813" y="0.1518"/><rect width="0.1032" height="0.2173" x="-0.2666" y="0.1083"/><rect width="0.1032" height="0.2607" x="-0.1519" y="0.0649"/><rect width="0.1032" height="0.3042" x="-0.0372" y="0.0214"/><rect width="0.1032" height="0.3476" x="0.0775" y="-0.0220"/><rect width="0.1032" height="0.3911" x="0.1922" y="-0.0655"/><rect width="0.1032" height="0.4345" x="0.3069" y="-0.1089"/></g></g></g><g class="hud"><g class="axis"><g class="axisbar"><g stroke-width="0" stroke="rgb(0%, 0%, 0%)" stroke-opacity="0" fill="rgb(5%, 5%, 5%)" fill-opacity="0.4"><rect width="1.1385" height="0.0033" x="-0.7269" y="0.3338"/></g></g><g class="ticks"><g class="tickglyph"><g stroke-width="0.0040" stroke="rgb(5%, 5%, 5%)" stroke-opacity="0.4" fill="rgb(5%, 5%, 5%)" fill-opacity="0.4"><polyline points="-0.6678,0.3640
-0.6678,0.3340"/><polyline points="-0.5544,0.3640
-0.5544,0.3340"/><polyline points="-0.4410,0.3640
-0.4410,0.3340"/><polyline points="-0.3276,0.3640
-0.3276,0.3340"/><polyline points="-0.2142,0.3640
-0.2142,0.3340"/><polyline points="-0.1007,0.3640
-0.1007,0.3340"/><polyline points="0.0127,0.3640
0.0127,0.3340"/><polyline points="0.1261,0.3640
0.1261,0.3340"/><polyline points="0.2395,0.3640
0.2395,0.3340"/><polyline points="0.3529,0.3640
0.3529,0.3340"/></g></g><g class="ticktext"><g stroke-width="0.0" stroke="none" fill="rgb(5%, 5%, 5%)" fill-opacity="1.0" font-size="0.0400" text-anchor="end"><text x="-0.6425" y="0.3897" transform="rotate(-45.0, -0.6425, 0.3897)">row 1</text><text x="-0.5312" y="0.3897" transform="rotate(-45.0, -0.5312, 0.3897)">row 2</text><text x="-0.4199" y="0.3897" transform="rotate(-45.0, -0.4199, 0.3897)">row 3</text><text x="-0.3087" y="0.3897" transform="rotate(-45.0, -0.3087, 0.3897)">row 4</text><text x="-0.1974" y="0.3897" transform="rotate(-45.0, -0.1974, 0.3897)">row 5</text><text x="-0.0861" y="0.3897" transform="rotate(-45.0, -0.0861, 0.3897)">row 6</text><text x="0.0252" y="0.3897" transform="rotate(-45.0, 0.0252, 0.3897)">row 7</text><text x="0.1365" y="0.3897" transform="rotate(-45.0, 0.1365, 0.3897)">row 8</text><text x="0.2478" y="0.3897" transform="rotate(-45.0, 0.2478, 0.3897)">row 9</text><text x="0.3591" y="0.3897" transform="rotate(-45.0, 0.3591, 0.3897)">row 10</text></g></g></g></g><g class="legend"><g class="padding"></g><g class="padding"></g><g class="frame"><g stroke-width="0.0010" stroke="rgb(5%, 5%, 5%)" stroke-opacity="1.0" fill="rgb(5%, 5%, 5%)" fill-opacity="0"><rect width="0.2778" height="0.1857" x="0.4684" y="-0.1342"/></g></g><g class="legendContent"><g stroke-width="0.0" stroke="none" fill="rgb(5%, 5%, 5%)" fill-opacity="1.0" font-size="0.0316" text-anchor="start"><text x="0.4873" y="0.0083">column 2</text></g><g stroke-width="0" stroke="rgb(66%, 7%, 55%)" stroke-opacity="1.0" fill="rgb(66%, 7%, 55%)" fill-opacity="0.7"><rect width="0.0568" height="0.0619" x="0.6705" y="-0.0310"/></g><g stroke-width="0.0" stroke="none" fill="rgb(5%, 5%, 5%)" fill-opacity="1.0" font-size="0.0316" text-anchor="start"><text x="0.4873" y="-0.0743">column 1</text></g><g stroke-width="0" stroke="rgb(2%, 29%, 48%)" stroke-opacity="1.0" fill="rgb(2%, 29%, 48%)" fill-opacity="0.7"><rect width="0.0568" height="0.0619" x="0.6705" y="-0.1135"/></g></g></g></g></svg>