<svg xmlns="http://www.w3.org/2000/svg" xmlns:xlink="http://www.w3.org/1999/xlink" width="450" height="300" viewBox="-0.75 -0.5 1.5 1.0"><style>svg {
  color-scheme: light dark;
}
{
  .canvas g, .title g, .axisbar g, .ticktext g, .tickglyph g, .ticklines g, .legendContent g text {
    fill: rgb(5%, 5%, 5%);
  }
  .ticklines g, .tickglyph g, .legendBorder g {
    stroke: rgb(5%, 5%, 5%);
  }
  .legendBorder g {
    fill: rgb(94%, 94%, 94%);
  }
}
@media (prefers-color-scheme:dark) {
  .canvas g, .title g, .axisbar g, .ticktext g, .tickglyph g, .ticklines g, .legendContent g text {
    fill: rgb(94%, 94%, 94%);
  }
  .ticklines g, .tickglyph g, .legendBorder g {
    stroke: rgb(94%, 94%, 94%);
  }
  .legendBorder g {
    fill: rgb(5%, 5%, 5%);
  }
}</style><g class="chart"><g class="barchart"><g stroke-width="0" stroke="rgb(2%, 29%, 48%)" stroke-opacity="1.0" fill="rgb(2%, 29%, 48%)" fill-opacity="0.7"><rect width="0.1277" height="0.0757" x="-0.7355" y="0.2609"/><rect width="0.1277" height="0.1514" x="-0.5937" y="0.1852"/><rect width="0.1277" height="0.2271" x="-0.4519" y="0.1095"/><rect width="0.1277" height="0.3785" x="-0.3100" y="-0.0420"/><rect width="0.1277" height="0.6057" x="-0.1682" y="-0.2691"/><rect width="0.1277" height="0" x="-0.0264" y="0.3366"/><rect width="0.1277" height="0.1514" x="0.1155" y="0.3366"/><rect width="0.1277" height="0.8328" x="0.2573" y="-0.4962"/><rect width="0.1277" height="0.1514" x="0.3991" y="0.1852"/><rect width="0.1277" height="0.0757" x="0.5410" y="0.2609"/></g></g></g><g class="hud"><g class="axis"><g class="ticks"><g class="tickglyph"><g stroke-width="0.0004" stroke="rgb(5%, 5%, 5%)" stroke-opacity="0.4" fill="rgb(5%, 5%, 5%)" fill-opacity="0.4"><polyline points="-0.6717,0.4918
-0.6717,0.4887"/><polyline points="-0.5299,0.4918
-0.5299,0.4887"/><polyline points="-0.3880,0.4918
-0.3880,0.4887"/><polyline points="-0.2462,0.4918
-0.2462,0.4887"/><polyline points="-0.1044,0.4918
-0.1044,0.4887"/><polyline points="0.0375,0.4918
0.0375,0.4887"/><polyline points="0.1793,0.4918
0.1793,0.4887"/><polyline points="0.3211,0.4918
0.3211,0.4887"/><polyline points="0.4630,0.4918
0.4630,0.4887"/><polyline points="0.6048,0.4918
0.6048,0.4887"/></g></g><g class="ticktext"><g stroke-width="0.0" stroke="none" fill="rgb(5%, 5%, 5%)" fill-opacity="1.0" font-size="0.0052" text-anchor="middle"><text x="-0.6717" y="0.4951">row 1</text><text x="-0.5299" y="0.4951">row 2</text><text x="-0.3880" y="0.4951">row 3</text><text x="-0.2462" y="0.4951">row 4</text><text x="-0.1044" y="0.4951">row 5</text><text x="0.0375" y="0.4951">row 6</text><text x="0.1793" y="0.4951">row 7</text><text x="0.3211" y="0.4951">row 8</text><text x="0.4630" y="0.4951">row 9</text><text x="0.6048" y="0.4951">row 10</text></g></g></g><g class="axisbar"><g stroke-width="0" stroke="rgb(0%, 0%, 0%)" stroke-opacity="0" fill="rgb(5%, 5%, 5%)" fill-opacity="0.4"><rect width="1.4189" height="0.0003" x="-0.7429" y="0.4888"/></g></g></g><g class="legend"><g class="legendBorder"><g stroke-width="0.0003" stroke="rgb(5%, 5%, 5%)" stroke-opacity="1.0" fill="rgb(5%, 5%, 5%)" fill-opacity="0"><rect width="0.0556" height="0.0170" x="0.6866" y="-0.0123"/></g></g><g class="legendContent"><g stroke-width="0.0" stroke="none" fill="rgb(5%, 5%, 5%)" fill-opacity="1.0" font-size="0.0047" text-anchor="start"><g stroke-width="0.0000" stroke="rgb(2%, 29%, 48%)" stroke-opacity="1.0" fill="rgb(2%, 73%, 80%)" fill-opacity="0.1"><rect width="0.0224" height="0.0051" x="0.6902" y="-0.0029"/></g><text x="0.6902" y="0.0009">column 2</text></g><g stroke-width="0" stroke="rgb(66%, 7%, 55%)" stroke-opacity="1.0" fill="rgb(66%, 7%, 55%)" fill-opacity="0.7"><rect width="0.0106" height="0.0057" x="0.7280" y="-0.0028"/></g><g stroke-width="0.0" stroke="none" fill="rgb(5%, 5%, 5%)" fill-opacity="1.0" font-size="0.0047" text-anchor="start"><g stroke-width="0.0000" stroke="rgb(2%, 29%, 48%)" stroke-opacity="1.0" fill="rgb(2%, 73%, 80%)" fill-opacity="0.1"><rect width="0.0224" height="0.0051" x="0.6902" y="-0.0105"/></g><text x="0.6902" y="-0.0067">column 1</text></g><g stroke-width="0" stroke="rgb(2%, 29%, 48%)" stroke-opacity="1.0" fill="rgb(2%, 29%, 48%)" fill-opacity="0.7"><rect width="0.0106" height="0.0057" x="0.7280" y="-0.0104"/></g></g></g><g class="frame"><g stroke-width="0" stroke="rgb(0%, 0%, 0%)" stroke-opacity="0" fill="rgb(100%, 100%, 100%)" fill-opacity="0.02"><rect width="1.5" height="1.0" x="-0.75" y="-0.5"/></g></g></g></svg>