<svg xmlns="http://www.w3.org/2000/svg" xmlns:xlink="http://www.w3.org/1999/xlink" width="449" height="300" viewBox="-0.75 -0.5 1.5000 1.0"><style>svg {
  color-scheme: light dark;
}
{
  .canvas g, .title g, .axisbar g, .ticktext g, .tickglyph g, .ticklines g, .legendContent g text {
    fill: rgb(5%, 5%, 5%);
  }
  .ticklines g, .tickglyph g, .legendBorder g {
    stroke: rgb(5%, 5%, 5%);
  }
  .legendBorder g {
    fill: rgb(94%, 94%, 94%);
  }
}
@media (prefers-color-scheme:dark) {
  .canvas g, .title g, .axisbar g, .ticktext g, .tickglyph g, .ticklines g, .legendContent g text {
    fill: rgb(94%, 94%, 94%);
  }
  .ticklines g, .tickglyph g, .legendBorder g {
    stroke: rgb(94%, 94%, 94%);
  }
  .legendBorder g {
    fill: rgb(5%, 5%, 5%);
  }
}
svg { font-family: system-ui,-apple-system,"Segoe UI",Roboto,"Helvetica Neue",Arial,"Noto Sans","Liberation Sans",sans-serif,"Apple Color Emoji","Segoe UI Emoji","Segoe UI Symbol","Noto Color Emoji";
}

ticktext { font-family: SFMono-Regular,Menlo,Monaco,Consolas,"Liberation Mono","Courier New",monospace;
}


{
  .text g {
    fill: rgb(5%, 5%, 5%);
  }
}
@media (prefers-color-scheme:dark) {
  .text g {
    fill: rgb(94%, 94%, 94%);
  }
}
</style><g class="chart"><g class="text"><g stroke-width="0.0" stroke="none" fill="rgb(5%, 5%, 5%)" fill-opacity="1.0" font-size="0.1" text-anchor="middle"><text x="-0.5832" y="0.3463">a</text><text x="-0.4571" y="0.3175">b</text><text x="-0.3322" y="0.2887">c</text><text x="-0.2098" y="0.2600">d</text><text x="-0.0912" y="0.2312">e</text><text x="0.0225" y="0.2024">f</text><text x="0.1302" y="0.1736">g</text><text x="0.2307" y="0.1448">h</text><text x="0.3231" y="0.1160">i</text><text x="0.4065" y="0.0873">j</text><text x="0.4799" y="0.0585">k</text><text x="0.5428" y="0.0297">l</text><text x="0.5943" y="0.0009">m</text><text x="0.6342" y="-0.0279">n</text><text x="0.6618" y="-0.0567">o</text><text x="0.6770" y="-0.0854">p</text><text x="0.6797" y="-0.1142">q</text><text x="0.6697" y="-0.1430">r</text><text x="0.6472" y="-0.1718">s</text><text x="0.6124" y="-0.2006">t</text><text x="0.5656" y="-0.2293">u</text><text x="0.5074" y="-0.2581">v</text><text x="0.4383" y="-0.2869">w</text><text x="0.3589" y="-0.3157">x</text><text x="0.2702" y="-0.3445">y</text><text x="0.1729" y="-0.3733">z</text></g></g><g class="datapadding"></g></g><g class="hud"><g class="frame"><g stroke-width="0" stroke="rgb(0%, 0%, 0%)" stroke-opacity="0" fill="rgb(100%, 100%, 100%)" fill-opacity="0.02"><rect width="1.3220" height="0.8259" x="-0.6125" y="-0.4523"/></g></g><g class="axis"><g class="axisbar"><g stroke-width="0" stroke="rgb(0%, 0%, 0%)" stroke-opacity="0" fill="rgb(5%, 5%, 5%)" fill-opacity="0.4"><rect width="0.0035" height="0.8256" x="-0.6249" y="-0.4513"/></g></g><g class="ticks"><g class="tickglyph"><g stroke-width="0.0040" stroke="rgb(5%, 5%, 5%)" stroke-opacity="0.4" fill="rgb(5%, 5%, 5%)" fill-opacity="0.4"><polyline points="-0.6531,0.3721
-0.6231,0.3721"/><polyline points="-0.6531,0.2079
-0.6231,0.2079"/><polyline points="-0.6531,0.0437
-0.6231,0.0437"/><polyline points="-0.6531,-0.1205
-0.6231,-0.1205"/><polyline points="-0.6531,-0.2848
-0.6231,-0.2848"/><polyline points="-0.6531,-0.4490
-0.6231,-0.4490"/></g></g><g class="ticktext"><g stroke-width="0.0" stroke="none" fill="rgb(5%, 5%, 5%)" fill-opacity="1.0" font-size="0.0400" text-anchor="end"><text x="-0.6669" y="0.3805"> 0</text><text x="-0.6669" y="0.2174"> 5</text><text x="-0.6669" y="0.0542">10</text><text x="-0.6669" y="-0.1089">15</text><text x="-0.6669" y="-0.2721">20</text><text x="-0.6669" y="-0.4352">25</text></g></g><g class="ticklines"><g stroke-width="0.0050" stroke="rgb(5%, 5%, 5%)" stroke-opacity="0.05" fill="none"><polyline points="-0.5858,0.3723 0.6827,0.3723"/><polyline points="-0.5858,0.2080 0.6827,0.2080"/><polyline points="-0.5858,0.0437 0.6827,0.0437"/><polyline points="-0.5858,-0.1206 0.6827,-0.1206"/><polyline points="-0.5858,-0.2849 0.6827,-0.2849"/><polyline points="-0.5858,-0.4492 0.6827,-0.4492"/></g></g></g></g><g class="axis"><g class="axisbar"><g stroke-width="0" stroke="rgb(0%, 0%, 0%)" stroke-opacity="0" fill="rgb(5%, 5%, 5%)" fill-opacity="0.4"><rect width="1.2726" height="0.0033" x="-0.5878" y="0.3819"/></g></g><g class="ticks"><g class="tickglyph"><g stroke-width="0.0040" stroke="rgb(5%, 5%, 5%)" stroke-opacity="0.4" fill="rgb(5%, 5%, 5%)" fill-opacity="0.4"><polyline points="-0.5857,0.4118
-0.5857,0.3818"/><polyline points="-0.3320,0.4118
-0.3320,0.3818"/><polyline points="-0.0784,0.4118
-0.0784,0.3818"/><polyline points="0.1753,0.4118
0.1753,0.3818"/><polyline points="0.4289,0.4118
0.4289,0.3818"/><polyline points="0.6826,0.4118
0.6826,0.3818"/></g></g><g class="ticktext"><g stroke-width="0.0" stroke="none" fill="rgb(5%, 5%, 5%)" fill-opacity="1.0" font-size="0.0400" text-anchor="middle"><text x="-0.5826" y="0.4552">0.0</text><text x="-0.3303" y="0.4552">0.2</text><text x="-0.0780" y="0.4552">0.4</text><text x="0.1743" y="0.4552">0.6</text><text x="0.4266" y="0.4552">0.8</text><text x="0.6790" y="0.4552">1.0</text></g></g><g class="ticklines"><g stroke-width="0.0050" stroke="rgb(5%, 5%, 5%)" stroke-opacity="0.05" fill="none"><polyline points="-0.5858,0.3723 -0.5858,-0.4492"/><polyline points="-0.3321,0.3723 -0.3321,-0.4492"/><polyline points="-0.0784,0.3723 -0.0784,-0.4492"/><polyline points="0.1753,0.3723 0.1753,-0.4492"/><polyline points="0.4290,0.3723 0.4290,-0.4492"/><polyline points="0.6827,0.3723 0.6827,-0.4492"/></g></g></g></g><g class="frame"><g stroke-width="0" stroke="rgb(0%, 0%, 0%)" stroke-opacity="0" fill="rgb(0%, 0%, 0%)" fill-opacity="0"><rect width="1.5000" height="1.0" x="-0.75" y="-0.5"/></g></g></g></svg>