<svg xmlns="http://www.w3.org/2000/svg" xmlns:xlink="http://www.w3.org/1999/xlink" width="450" height="300" viewBox="-0.75 -0.5 1.5 1.0"><style>svg {
  color-scheme: light dark;
}
{
  .canvas g, .title g, .axisbar g, .ticktext g, .tickglyph g, .ticklines g, .legendContent g text {
    fill: rgb(5%, 5%, 5%);
  }
  .ticklines g, .tickglyph g, .legendBorder g {
    stroke: rgb(5%, 5%, 5%);
  }
  .legendBorder g {
    fill: rgb(94%, 94%, 94%);
  }
}
@media (prefers-color-scheme:dark) {
  .canvas g, .title g, .axisbar g, .ticktext g, .tickglyph g, .ticklines g, .legendContent g text {
    fill: rgb(94%, 94%, 94%);
  }
  .ticklines g, .tickglyph g, .legendBorder g {
    stroke: rgb(94%, 94%, 94%);
  }
  .legendBorder g {
    fill: rgb(5%, 5%, 5%);
  }
}
{
  .text g {
    fill: rgb(5%, 5%, 5%);
  }
}
@media (prefers-color-scheme:dark) {
  .text g {
    fill: rgb(94%, 94%, 94%);
  }
}
</style><g class="chart"><g class="text"><g stroke-width="0.0" stroke="none" fill="rgb(5%, 5%, 5%)" fill-opacity="1.0" font-size="0.0511" text-anchor="middle"><text x="-0.4833" y="0.4719">a</text><text x="-0.3729" y="0.4341">b</text><text x="-0.2635" y="0.3964">c</text><text x="-0.1563" y="0.3586">d</text><text x="-0.0524" y="0.3209">e</text><text x="0.0472" y="0.2831">f</text><text x="0.1415" y="0.2454">g</text><text x="0.2295" y="0.2076">h</text><text x="0.3105" y="0.1699">i</text><text x="0.3835" y="0.1321">j</text><text x="0.4478" y="0.0944">k</text><text x="0.5028" y="0.0566">l</text><text x="0.5480" y="0.0189">m</text><text x="0.5829" y="-0.0189">n</text><text x="0.6071" y="-0.0566">o</text><text x="0.6204" y="-0.0944">p</text><text x="0.6227" y="-0.1321">q</text><text x="0.6140" y="-0.1699">r</text><text x="0.5943" y="-0.2076">s</text><text x="0.5638" y="-0.2454">t</text><text x="0.5229" y="-0.2831">u</text><text x="0.4719" y="-0.3209">v</text><text x="0.4113" y="-0.3586">w</text><text x="0.3418" y="-0.3964">x</text><text x="0.2641" y="-0.4341">y</text><text x="0.1789" y="-0.4719">z</text></g></g></g><g class="hud"><g class="frame"><g stroke-width="0" stroke="rgb(0%, 0%, 0%)" stroke-opacity="0" fill="rgb(100%, 100%, 100%)" fill-opacity="0.02"><rect width="1.2721" height="0.9542" x="-0.5663" y="-0.4771"/></g></g><g class="axis"><g class="ticks"><g class="tickglyph"><g stroke-width="0.0008" stroke="rgb(5%, 5%, 5%)" stroke-opacity="0.4" fill="rgb(5%, 5%, 5%)" fill-opacity="0.4"><polyline points="-0.6026,0.4719
-0.5964,0.4719"/><polyline points="-0.6026,0.2831
-0.5964,0.2831"/><polyline points="-0.6026,0.0944
-0.5964,0.0944"/><polyline points="-0.6026,-0.0944
-0.5964,-0.0944"/><polyline points="-0.6026,-0.2831
-0.5964,-0.2831"/><polyline points="-0.6026,-0.4719
-0.5964,-0.4719"/></g></g><g class="ticktext"><g stroke-width="0.0" stroke="none" fill="rgb(5%, 5%, 5%)" fill-opacity="1.0" font-size="0.0102" text-anchor="end"><text x="-0.6393" y="0.4724"> 0</text><text x="-0.6393" y="0.2837"> 5</text><text x="-0.6393" y="0.0949">10</text><text x="-0.6393" y="-0.0939">15</text><text x="-0.6393" y="-0.2826">20</text><text x="-0.6393" y="-0.4714">25</text></g></g><g class="ticklines"><g stroke-width="0.0010" stroke="rgb(5%, 5%, 5%)" stroke-opacity="0.05" fill="none"><polyline points="-0.4833,0.4719 0.6232,0.4719"/><polyline points="-0.4833,0.2831 0.6232,0.2831"/><polyline points="-0.4833,0.0944 0.6232,0.0944"/><polyline points="-0.4833,-0.0944 0.6232,-0.0944"/><polyline points="-0.4833,-0.2831 0.6232,-0.2831"/><polyline points="-0.4833,-0.4719 0.6232,-0.4719"/></g></g></g><g class="axisbar"><g stroke-width="0" stroke="rgb(0%, 0%, 0%)" stroke-opacity="0" fill="rgb(5%, 5%, 5%)" fill-opacity="0.4"><rect width="0.0044" height="0.9439" x="-0.5818" y="-0.4720"/></g></g></g><g class="axis"><g class="ticks"><g class="tickglyph"><g stroke-width="0.0008" stroke="rgb(5%, 5%, 5%)" stroke-opacity="0.4" fill="rgb(5%, 5%, 5%)" fill-opacity="0.4"><polyline points="-0.4833,0.4813
-0.4833,0.4752"/><polyline points="-0.3727,0.4813
-0.3727,0.4752"/><polyline points="-0.2620,0.4813
-0.2620,0.4752"/><polyline points="-0.1514,0.4813
-0.1514,0.4752"/><polyline points="-0.0407,0.4813
-0.0407,0.4752"/><polyline points="0.0699,0.4813
0.0699,0.4752"/><polyline points="0.1806,0.4813
0.1806,0.4752"/><polyline points="0.2913,0.4813
0.2913,0.4752"/><polyline points="0.4019,0.4813
0.4019,0.4752"/><polyline points="0.5126,0.4813
0.5126,0.4752"/><polyline points="0.6232,0.4813
0.6232,0.4752"/></g></g><g class="ticktext"><g stroke-width="0.0" stroke="none" fill="rgb(5%, 5%, 5%)" fill-opacity="1.0" font-size="0.0102" text-anchor="middle"><text x="-0.4833" y="0.4806">0.0</text><text x="-0.3727" y="0.4806">0.1</text><text x="-0.2620" y="0.4806">0.2</text><text x="-0.1514" y="0.4806">0.3</text><text x="-0.0407" y="0.4806">0.4</text><text x="0.0699" y="0.4806">0.5</text><text x="0.1806" y="0.4806">0.6</text><text x="0.2913" y="0.4806">0.7</text><text x="0.4019" y="0.4806">0.8</text><text x="0.5126" y="0.4806">0.9</text><text x="0.6232" y="0.4806">1.0</text></g></g><g class="ticklines"><g stroke-width="0.0010" stroke="rgb(5%, 5%, 5%)" stroke-opacity="0.05" fill="none"><polyline points="-0.4833,0.4719 -0.4833,-0.4719"/><polyline points="-0.3727,0.4719 -0.3727,-0.4719"/><polyline points="-0.2620,0.4719 -0.2620,-0.4719"/><polyline points="-0.1514,0.4719 -0.1514,-0.4719"/><polyline points="-0.0407,0.4719 -0.0407,-0.4719"/><polyline points="0.0699,0.4719 0.0699,-0.4719"/><polyline points="0.1806,0.4719 0.1806,-0.4719"/><polyline points="0.2913,0.4719 0.2913,-0.4719"/><polyline points="0.4019,0.4719 0.4019,-0.4719"/><polyline points="0.5126,0.4719 0.5126,-0.4719"/><polyline points="0.6232,0.4719 0.6232,-0.4719"/></g></g></g><g class="axisbar"><g stroke-width="0" stroke="rgb(0%, 0%, 0%)" stroke-opacity="0" fill="rgb(5%, 5%, 5%)" fill-opacity="0.4"><rect width="1.1110" height="0.0002" x="-0.4855" y="0.4775"/></g></g></g><g class="frame"><g stroke-width="0" stroke="rgb(0%, 0%, 0%)" stroke-opacity="0" fill="rgb(0%, 0%, 0%)" fill-opacity="0"><rect width="1.5" height="0.9613" x="-0.75" y="-0.4786"/></g></g></g></svg>