<svg xmlns="http://www.w3.org/2000/svg" xmlns:xlink="http://www.w3.org/1999/xlink" width="450" height="300" viewBox="-0.75 -0.5 1.5 1.0"><style>svg {
  color-scheme: light dark;
}
{
  .canvas g, .title g, .axisbar g, .ticktext g, .tickglyph g, .ticklines g, .legendContent g text {
    fill: rgb(5%, 5%, 5%);
  }
  .ticklines g, .tickglyph g, .legendBorder g {
    stroke: rgb(5%, 5%, 5%);
  }
  .legendBorder g {
    fill: rgb(94%, 94%, 94%);
  }
}
@media (prefers-color-scheme:dark) {
  .canvas g, .title g, .axisbar g, .ticktext g, .tickglyph g, .ticklines g, .legendContent g text {
    fill: rgb(94%, 94%, 94%);
  }
  .ticklines g, .tickglyph g, .legendBorder g {
    stroke: rgb(94%, 94%, 94%);
  }
  .legendBorder g {
    fill: rgb(5%, 5%, 5%);
  }
}
svg { font-family: system-ui,-apple-system,"Segoe UI",Roboto,"Helvetica Neue",Arial,"Noto Sans","Liberation Sans",sans-serif,"Apple Color Emoji","Segoe UI Emoji","Segoe UI Symbol","Noto Color Emoji";
}

ticktext { font-family: SFMono-Regular,Menlo,Monaco,Consolas,"Liberation Mono","Courier New",monospace;
}

</style><g class="chart"><g class="unit"><g stroke-width="0.0100" stroke="rgb(2%, 29%, 48%)" stroke-opacity="1.0" fill="rgb(2%, 73%, 80%)" fill-opacity="0.1"><rect width="1.0469" height="0.6841" x="-0.4750" y="-0.3799"/></g></g><g class="datapadding"></g></g><g class="hud"><g class="frame"><g stroke-width="0" stroke="rgb(0%, 0%, 0%)" stroke-opacity="0" fill="rgb(100%, 100%, 100%)" fill-opacity="0.02"><rect width="1.2556" height="0.8237" x="-0.5792" y="-0.4498"/></g></g><g class="axis"><g class="axisbar"><g stroke-width="0" stroke="rgb(0%, 0%, 0%)" stroke-opacity="0" fill="rgb(5%, 5%, 5%)" fill-opacity="0.4"><rect width="0.0033" height="0.8270" x="-0.5910" y="-0.4514"/></g></g><g class="ticks"><g class="tickglyph"><g stroke-width="0.0040" stroke="rgb(5%, 5%, 5%)" stroke-opacity="0.4" fill="rgb(5%, 5%, 5%)" fill-opacity="0.4"><polyline points="-0.6179,0.3734
-0.5879,0.3734"/><polyline points="-0.6179,0.2363
-0.5879,0.2363"/><polyline points="-0.6179,0.0993
-0.5879,0.0993"/><polyline points="-0.6179,-0.0378
-0.5879,-0.0378"/><polyline points="-0.6179,-0.1749
-0.5879,-0.1749"/><polyline points="-0.6179,-0.3120
-0.5879,-0.3120"/><polyline points="-0.6179,-0.4491
-0.5879,-0.4491"/></g></g><g class="ticktext"><g stroke-width="0.0" stroke="none" fill="rgb(5%, 5%, 5%)" fill-opacity="1.0" font-size="0.0400" text-anchor="end"><text x="-0.6209" y="0.3818">-0.6</text><text x="-0.6209" y="0.2456">-0.4</text><text x="-0.6209" y="0.1094">-0.2</text><text x="-0.6209" y="-0.0268"> 0.0</text><text x="-0.6209" y="-0.1630"> 0.2</text><text x="-0.6209" y="-0.2991"> 0.4</text><text x="-0.6209" y="-0.4353"> 0.6</text></g></g><g class="ticklines"><g stroke-width="0.0050" stroke="rgb(5%, 5%, 5%)" stroke-opacity="0.05" fill="none"><polyline points="-0.5789,0.3736 0.6760,0.3736"/><polyline points="-0.5789,0.2365 0.6760,0.2365"/><polyline points="-0.5789,0.0993 0.6760,0.0993"/><polyline points="-0.5789,-0.0379 0.6760,-0.0379"/><polyline points="-0.5789,-0.1750 0.6760,-0.1750"/><polyline points="-0.5789,-0.3122 0.6760,-0.3122"/><polyline points="-0.5789,-0.4494 0.6760,-0.4494"/></g></g></g></g><g class="axis"><g class="axisbar"><g stroke-width="0" stroke="rgb(0%, 0%, 0%)" stroke-opacity="0" fill="rgb(5%, 5%, 5%)" fill-opacity="0.4"><rect width="1.2589" height="0.0033" x="-0.5809" y="0.3822"/></g></g><g class="ticks"><g class="tickglyph"><g stroke-width="0.0040" stroke="rgb(5%, 5%, 5%)" stroke-opacity="0.4" fill="rgb(5%, 5%, 5%)" fill-opacity="0.4"><polyline points="-0.5787,0.4120
-0.5787,0.3820"/><polyline points="-0.3697,0.4120
-0.3697,0.3820"/><polyline points="-0.1606,0.4120
-0.1606,0.3820"/><polyline points="0.0485,0.4120
0.0485,0.3820"/><polyline points="0.2576,0.4120
0.2576,0.3820"/><polyline points="0.4667,0.4120
0.4667,0.3820"/><polyline points="0.6757,0.4120
0.6757,0.3820"/></g></g><g class="ticktext"><g stroke-width="0.0" stroke="none" fill="rgb(5%, 5%, 5%)" fill-opacity="1.0" font-size="0.0400" text-anchor="middle"><text x="-0.5729" y="0.4553">-0.6</text><text x="-0.3659" y="0.4553">-0.4</text><text x="-0.1589" y="0.4553">-0.2</text><text x="0.0480" y="0.4553"> 0.0</text><text x="0.2550" y="0.4553"> 0.2</text><text x="0.4619" y="0.4553"> 0.4</text><text x="0.6689" y="0.4553"> 0.6</text></g></g><g class="ticklines"><g stroke-width="0.0050" stroke="rgb(5%, 5%, 5%)" stroke-opacity="0.05" fill="none"><polyline points="-0.5789,0.3736 -0.5789,-0.4494"/><polyline points="-0.3698,0.3736 -0.3698,-0.4494"/><polyline points="-0.1606,0.3736 -0.1606,-0.4494"/><polyline points="0.0485,0.3736 0.0485,-0.4494"/><polyline points="0.2577,0.3736 0.2577,-0.4494"/><polyline points="0.4668,0.3736 0.4668,-0.4494"/><polyline points="0.6760,0.3736 0.6760,-0.4494"/></g></g></g></g><g class="frame"><g stroke-width="0" stroke="rgb(0%, 0%, 0%)" stroke-opacity="0" fill="rgb(0%, 0%, 0%)" fill-opacity="0"><rect width="1.5" height="1.0" x="-0.75" y="-0.5"/></g></g></g></svg>