<svg xmlns="http://www.w3.org/2000/svg" xmlns:xlink="http://www.w3.org/1999/xlink" width="450" height="300" viewBox="-0.75 -0.5 1.5 1.0"><style>svg {
  color-scheme: light dark;
}
{
  .canvas g, .title g, .axisbar g, .ticktext g, .tickglyph g, .ticklines g, .legendContent g text {
    fill: rgb(5%, 5%, 5%);
  }
  .ticklines g, .tickglyph g, .legendBorder g {
    stroke: rgb(5%, 5%, 5%);
  }
  .legendBorder g {
    fill: rgb(94%, 94%, 94%);
  }
}
@media (prefers-color-scheme:dark) {
  .canvas g, .title g, .axisbar g, .ticktext g, .tickglyph g, .ticklines g, .legendContent g text {
    fill: rgb(94%, 94%, 94%);
  }
  .ticklines g, .tickglyph g, .legendBorder g {
    stroke: rgb(94%, 94%, 94%);
  }
  .legendBorder g {
    fill: rgb(5%, 5%, 5%);
  }
}</style><g class="chart"><g class="unit"><g stroke-width="0.0095" stroke="rgb(2%, 29%, 48%)" stroke-opacity="1.0" fill="rgb(2%, 73%, 80%)" fill-opacity="0.1"><rect width="1.1704" height="0.7691" x="-0.4796" y="-0.4490"/></g></g></g><g class="hud"><g class="frame"><g stroke-width="0" stroke="rgb(0%, 0%, 0%)" stroke-opacity="0" fill="rgb(100%, 100%, 100%)" fill-opacity="0.02"><rect width="1.1821" height="0.7768" x="-0.4855" y="-0.4529"/></g></g><g class="axis"><g class="ticks"><g class="tickglyph"><g stroke-width="0.0038" stroke="rgb(5%, 5%, 5%)" stroke-opacity="0.4" fill="rgb(5%, 5%, 5%)" fill-opacity="0.4"><polyline points="-0.5348,0.3201
-0.5064,0.3201"/><polyline points="-0.5348,0.2431
-0.5064,0.2431"/><polyline points="-0.5348,0.1662
-0.5064,0.1662"/><polyline points="-0.5348,0.0893
-0.5064,0.0893"/><polyline points="-0.5348,0.0124
-0.5064,0.0124"/><polyline points="-0.5348,-0.0645
-0.5064,-0.0645"/><polyline points="-0.5348,-0.1414
-0.5064,-0.1414"/><polyline points="-0.5348,-0.2183
-0.5064,-0.2183"/><polyline points="-0.5348,-0.2952
-0.5064,-0.2952"/><polyline points="-0.5348,-0.3721
-0.5064,-0.3721"/><polyline points="-0.5348,-0.4490
-0.5064,-0.4490"/></g></g><g class="ticktext"><g stroke-width="0.0" stroke="none" fill="rgb(5%, 5%, 5%)" fill-opacity="1.0" font-size="0.0474" text-anchor="end"><text x="-0.5627" y="0.3306">-0.5</text><text x="-0.5627" y="0.2537">-0.4</text><text x="-0.5627" y="0.1768">-0.3</text><text x="-0.5627" y="0.0999">-0.2</text><text x="-0.5627" y="0.0230">-0.1</text><text x="-0.5627" y="-0.0539"> 0.0</text><text x="-0.5627" y="-0.1308"> 0.1</text><text x="-0.5627" y="-0.2077"> 0.2</text><text x="-0.5627" y="-0.2847"> 0.3</text><text x="-0.5627" y="-0.3616"> 0.4</text><text x="-0.5627" y="-0.4385"> 0.5</text></g></g><g class="ticklines"><g stroke-width="0.0047" stroke="rgb(5%, 5%, 5%)" stroke-opacity="0.05" fill="none"><polyline points="-0.4796,0.3201 0.6908,0.3201"/><polyline points="-0.4796,0.2431 0.6908,0.2431"/><polyline points="-0.4796,0.1662 0.6908,0.1662"/><polyline points="-0.4796,0.0893 0.6908,0.0893"/><polyline points="-0.4796,0.0124 0.6908,0.0124"/><polyline points="-0.4796,-0.0645 0.6908,-0.0645"/><polyline points="-0.4796,-0.1414 0.6908,-0.1414"/><polyline points="-0.4796,-0.2183 0.6908,-0.2183"/><polyline points="-0.4796,-0.2952 0.6908,-0.2952"/><polyline points="-0.4796,-0.3721 0.6908,-0.3721"/><polyline points="-0.4796,-0.4490 0.6908,-0.4490"/></g></g></g><g class="axisbar"><g stroke-width="0" stroke="rgb(0%, 0%, 0%)" stroke-opacity="0" fill="rgb(5%, 5%, 5%)" fill-opacity="0.4"><rect width="0.0047" height="0.7722" x="-0.5019" y="-0.4506"/></g></g></g><g class="axis"><g class="ticks"><g class="tickglyph"><g stroke-width="0.0038" stroke="rgb(5%, 5%, 5%)" stroke-opacity="0.4" fill="rgb(5%, 5%, 5%)" fill-opacity="0.4"><polyline points="-0.4796,0.3612
-0.4796,0.3327"/><polyline points="-0.3626,0.3612
-0.3626,0.3327"/><polyline points="-0.2456,0.3612
-0.2456,0.3327"/><polyline points="-0.1285,0.3612
-0.1285,0.3327"/><polyline points="-0.0115,0.3612
-0.0115,0.3327"/><polyline points="0.1056,0.3612
0.1056,0.3327"/><polyline points="0.2226,0.3612
0.2226,0.3327"/><polyline points="0.3396,0.3612
0.3396,0.3327"/><polyline points="0.4567,0.3612
0.4567,0.3327"/><polyline points="0.5737,0.3612
0.5737,0.3327"/><polyline points="0.6908,0.3612
0.6908,0.3327"/></g></g><g class="ticktext"><g stroke-width="0.0" stroke="none" fill="rgb(5%, 5%, 5%)" fill-opacity="1.0" font-size="0.0474" text-anchor="end"><text x="-0.4796" y="0.3958" transform="rotate(-45.0, -0.4796, 0.3958)">-0.5</text><text x="-0.3626" y="0.3958" transform="rotate(-45.0, -0.3626, 0.3958)">-0.4</text><text x="-0.2456" y="0.3958" transform="rotate(-45.0, -0.2456, 0.3958)">-0.3</text><text x="-0.1285" y="0.3958" transform="rotate(-45.0, -0.1285, 0.3958)">-0.2</text><text x="-0.0115" y="0.3958" transform="rotate(-45.0, -0.0115, 0.3958)">-0.1</text><text x="0.1056" y="0.3958" transform="rotate(-45.0, 0.1056, 0.3958)"> 0.0</text><text x="0.2226" y="0.3958" transform="rotate(-45.0, 0.2226, 0.3958)"> 0.1</text><text x="0.3396" y="0.3958" transform="rotate(-45.0, 0.3396, 0.3958)"> 0.2</text><text x="0.4567" y="0.3958" transform="rotate(-45.0, 0.4567, 0.3958)"> 0.3</text><text x="0.5737" y="0.3958" transform="rotate(-45.0, 0.5737, 0.3958)"> 0.4</text><text x="0.6908" y="0.3958" transform="rotate(-45.0, 0.6908, 0.3958)"> 0.5</text></g></g><g class="ticklines"><g stroke-width="0.0047" stroke="rgb(5%, 5%, 5%)" stroke-opacity="0.05" fill="none"><polyline points="-0.4796,0.3201 -0.4796,-0.4490"/><polyline points="-0.3626,0.3201 -0.3626,-0.4490"/><polyline points="-0.2456,0.3201 -0.2456,-0.4490"/><polyline points="-0.1285,0.3201 -0.1285,-0.4490"/><polyline points="-0.0115,0.3201 -0.0115,-0.4490"/><polyline points="0.1056,0.3201 0.1056,-0.4490"/><polyline points="0.2226,0.3201 0.2226,-0.4490"/><polyline points="0.3396,0.3201 0.3396,-0.4490"/><polyline points="0.4567,0.3201 0.4567,-0.4490"/><polyline points="0.5737,0.3201 0.5737,-0.4490"/><polyline points="0.6908,0.3201 0.6908,-0.4490"/></g></g></g><g class="axisbar"><g stroke-width="0" stroke="rgb(0%, 0%, 0%)" stroke-opacity="0" fill="rgb(5%, 5%, 5%)" fill-opacity="0.4"><rect width="1.1751" height="0.0031" x="-0.4820" y="0.3316"/></g></g></g><g class="frame"><g stroke-width="0" stroke="rgb(0%, 0%, 0%)" stroke-opacity="0" fill="rgb(0%, 0%, 0%)" fill-opacity="0"><rect width="1.5" height="1.0" x="-0.75" y="-0.5"/></g></g></g></svg>