<svg xmlns="http://www.w3.org/2000/svg" xmlns:xlink="http://www.w3.org/1999/xlink" width="300" height="300" viewBox="-0.5 -0.5 1.0 1.0"><style>svg {
  color-scheme: light dark;
}
{
  .canvas g, .title g, .axisbar g, .ticktext g, .tickglyph g, .ticklines g, .legendContent g text {
    fill: rgb(5%, 5%, 5%);
  }
  .ticklines g, .tickglyph g, .legendBorder g {
    stroke: rgb(5%, 5%, 5%);
  }
  .legendBorder g {
    fill: rgb(94%, 94%, 94%);
  }
}
@media (prefers-color-scheme:dark) {
  .canvas g, .title g, .axisbar g, .ticktext g, .tickglyph g, .ticklines g, .legendContent g text {
    fill: rgb(94%, 94%, 94%);
  }
  .ticklines g, .tickglyph g, .legendBorder g {
    stroke: rgb(94%, 94%, 94%);
  }
  .legendBorder g {
    fill: rgb(5%, 5%, 5%);
  }
}</style><g class="chart"><g class="venn"><g stroke-width="0.0015" stroke="rgb(2%, 29%, 48%)" stroke-opacity="1.0" fill="rgb(2%, 73%, 80%)" fill-opacity="0.2"><path d="M 0.0193,-0.3961 A 0.1502 0.1554 0 1 1 0.3197,0.1422 A 0.3004 0.3108 0 0 0 0.1695,-0.1269 A 0.3004 0.3108 0 0 0 0.0193,-0.3961 L 0.0193,-0.3961"/></g><g stroke-width="0.0015" stroke="rgb(2%, 29%, 48%)" stroke-opacity="1.0" fill="rgb(2%, 29%, 48%)" fill-opacity="0.2"><path d="M -0.2811,0.1422 A 0.1502 0.1554 0 1 0 0.3197,0.1422 A 0.3004 0.3108 0 0 1 0.0193,0.1422 A 0.3004 0.3108 0 0 1 -0.2811,0.1422 L -0.2811,0.1422"/></g><g stroke-width="0.0015" stroke="rgb(2%, 29%, 48%)" stroke-opacity="1.0" fill="rgb(66%, 7%, 55%)" fill-opacity="0.2"><path d="M -0.2811,0.1422 A 0.1502 0.1554 0 1 1 0.0193,-0.3961 A 0.3004 0.3108 0 0 0 -0.1309,-0.1269 A 0.3004 0.3108 0 0 0 -0.2811,0.1422 L -0.2811,0.1422"/></g><g stroke-width="0.0015" stroke="rgb(2%, 29%, 48%)" stroke-opacity="1.0" fill="rgb(96%, 60%, 92%)" fill-opacity="0.2"><path d="M 0.1695,-0.1269 A 0.3004 0.3108 0 0 1 0.3197,0.1422 A 0.3004 0.3108 0 0 1 0.0193,0.1422 A 0.3004 0.3108 0 0 0 0.1695,-0.1269 L 0.1695,-0.1269"/></g><g stroke-width="0.0015" stroke="rgb(2%, 29%, 48%)" stroke-opacity="1.0" fill="rgb(100%, 71%, 35%)" fill-opacity="0.2"><path d="M 0.0193,0.1422 A 0.3004 0.3108 0 0 1 -0.2811,0.1422 A 0.3004 0.3108 0 0 1 -0.1309,-0.1269 A 0.3004 0.3108 0 0 0 0.0193,0.1422 L 0.0193,0.1422"/></g><g stroke-width="0.0015" stroke="rgb(2%, 29%, 48%)" stroke-opacity="1.0" fill="rgb(73%, 34%, 1%)" fill-opacity="0.2"><path d="M 0.0193,-0.3961 A 0.3004 0.3108 0 0 1 0.1695,-0.1269 A 0.3004 0.3108 0 0 0 -0.1309,-0.1269 A 0.3004 0.3108 0 0 1 0.0193,-0.3961 L 0.0193,-0.3961"/></g><g stroke-width="0.0015" stroke="rgb(2%, 29%, 48%)" stroke-opacity="1.0" fill="rgb(21%, 29%, 7%)" fill-opacity="0.2"><path d="M 0.1695,-0.1269 A 0.3004 0.3108 0 0 1 0.0193,0.1422 A 0.3004 0.3108 0 0 1 -0.1309,-0.1269 A 0.3004 0.3108 0 0 1 0.1695,-0.1269 L 0.1695,-0.1269"/></g></g></g><g class="hud"><g class="frame"><g stroke-width="0" stroke="rgb(0%, 0%, 0%)" stroke-opacity="0" fill="rgb(100%, 100%, 100%)" fill-opacity="0.02"><rect width="0.9028" height="0.9333" x="-0.4321" y="-0.4794"/></g></g><g class="axis"><g class="ticks"><g class="tickglyph"><g stroke-width="0.0012" stroke="rgb(5%, 5%, 5%)" stroke-opacity="0.4" fill="rgb(5%, 5%, 5%)" fill-opacity="0.4"><polyline points="-0.4457,0.4531
-0.4365,0.4531"/><polyline points="-0.4457,0.2977
-0.4365,0.2977"/><polyline points="-0.4457,0.1422
-0.4365,0.1422"/><polyline points="-0.4457,-0.0132
-0.4365,-0.0132"/><polyline points="-0.4457,-0.1686
-0.4365,-0.1686"/><polyline points="-0.4457,-0.3240
-0.4365,-0.3240"/><polyline points="-0.4457,-0.4794
-0.4365,-0.4794"/></g></g><g class="ticktext"><g stroke-width="0.0" stroke="none" fill="rgb(5%, 5%, 5%)" fill-opacity="1.0" font-size="0.0153" text-anchor="end"><text x="-0.4519" y="0.4573">-2.0</text><text x="-0.4519" y="0.3019">-1.0</text><text x="-0.4519" y="0.1465">-0.5</text><text x="-0.4519" y="-0.0089"> 0.0</text><text x="-0.4519" y="-0.1643"> 0.5</text><text x="-0.4519" y="-0.3197"> 1.0</text><text x="-0.4519" y="-0.4751"> 2.0</text></g></g><g class="ticklines"><g stroke-width="0.0015" stroke="rgb(5%, 5%, 5%)" stroke-opacity="0.05" fill="none"><polyline points="-0.4314,0.4531 0.4700,0.4531"/><polyline points="-0.4314,0.2977 0.4700,0.2977"/><polyline points="-0.4314,0.1422 0.4700,0.1422"/><polyline points="-0.4314,-0.0132 0.4700,-0.0132"/><polyline points="-0.4314,-0.1686 0.4700,-0.1686"/><polyline points="-0.4314,-0.3240 0.4700,-0.3240"/><polyline points="-0.4314,-0.4794 0.4700,-0.4794"/></g></g></g><g class="axisbar"><g stroke-width="0" stroke="rgb(0%, 0%, 0%)" stroke-opacity="0" fill="rgb(5%, 5%, 5%)" fill-opacity="0.4"><rect width="0.0012" height="0.9337" x="-0.4363" y="-0.4800"/></g></g></g><g class="axis"><g class="ticks"><g class="tickglyph"><g stroke-width="0.0012" stroke="rgb(5%, 5%, 5%)" stroke-opacity="0.4" fill="rgb(5%, 5%, 5%)" fill-opacity="0.4"><polyline points="-0.4314,0.4678
-0.4314,0.4586"/><polyline points="-0.2811,0.4678
-0.2811,0.4586"/><polyline points="-0.1309,0.4678
-0.1309,0.4586"/><polyline points="0.0193,0.4678
0.0193,0.4586"/><polyline points="0.1695,0.4678
0.1695,0.4586"/><polyline points="0.3197,0.4678
0.3197,0.4586"/><polyline points="0.4700,0.4678
0.4700,0.4586"/></g></g><g class="ticktext"><g stroke-width="0.0" stroke="none" fill="rgb(5%, 5%, 5%)" fill-opacity="1.0" font-size="0.0153" text-anchor="middle"><text x="-0.4314" y="0.4829">-2.0</text><text x="-0.2811" y="0.4829">-1.0</text><text x="-0.1309" y="0.4829">-0.5</text><text x="0.0193" y="0.4829"> 0.0</text><text x="0.1695" y="0.4829"> 0.5</text><text x="0.3197" y="0.4829"> 1.0</text><text x="0.4700" y="0.4829"> 2.0</text></g></g><g class="ticklines"><g stroke-width="0.0015" stroke="rgb(5%, 5%, 5%)" stroke-opacity="0.05" fill="none"><polyline points="-0.4314,0.4531 -0.4314,-0.4794"/><polyline points="-0.2811,0.4531 -0.2811,-0.4794"/><polyline points="-0.1309,0.4531 -0.1309,-0.4794"/><polyline points="0.0193,0.4531 0.0193,-0.4794"/><polyline points="0.1695,0.4531 0.1695,-0.4794"/><polyline points="0.3197,0.4531 0.3197,-0.4794"/><polyline points="0.4700,0.4531 0.4700,-0.4794"/></g></g></g><g class="axisbar"><g stroke-width="0" stroke="rgb(0%, 0%, 0%)" stroke-opacity="0" fill="rgb(5%, 5%, 5%)" fill-opacity="0.4"><rect width="0.9025" height="0.0012" x="-0.4320" y="0.4570"/></g></g></g><g class="frame"><g stroke-width="0" stroke="rgb(0%, 0%, 0%)" stroke-opacity="0" fill="rgb(0%, 0%, 0%)" fill-opacity="0"><rect width="1.0" height="1.0" x="-0.5" y="-0.5"/></g></g></g></svg>