<svg xmlns="http://www.w3.org/2000/svg" xmlns:xlink="http://www.w3.org/1999/xlink" width="300" height="300" viewBox="-0.5 -0.5 1.0 1.0"><style>svg {
  color-scheme: light dark;
}
{
  .canvas g, .title g, .axisbar g, .ticktext g, .tickglyph g, .ticklines g, .legendContent g text {
    fill: rgb(5%, 5%, 5%);
  }
  .ticklines g, .tickglyph g, .legendBorder g {
    stroke: rgb(5%, 5%, 5%);
  }
  .legendBorder g {
    fill: rgb(94%, 94%, 94%);
  }
}
@media (prefers-color-scheme:dark) {
  .canvas g, .title g, .axisbar g, .ticktext g, .tickglyph g, .ticklines g, .legendContent g text {
    fill: rgb(94%, 94%, 94%);
  }
  .ticklines g, .tickglyph g, .legendBorder g {
    stroke: rgb(94%, 94%, 94%);
  }
  .legendBorder g {
    fill: rgb(5%, 5%, 5%);
  }
}
svg { font-family: system-ui,-apple-system,"Segoe UI",Roboto,"Helvetica Neue",Arial,"Noto Sans","Liberation Sans",sans-serif,"Apple Color Emoji","Segoe UI Emoji","Segoe UI Symbol","Noto Color Emoji";
}

ticktext { font-family: SFMono-Regular,Menlo,Monaco,Consolas,"Liberation Mono","Courier New",monospace;
}

</style><g class="chart"><g class="venn"><g stroke-width="0.0050" stroke="rgb(2%, 29%, 48%)" stroke-opacity="1.0" fill="rgb(2%, 73%, 80%)" fill-opacity="0.2"><path d="M 0.0624,-0.3810 A 0.1324 0.1297 0 1 1 0.3271,0.0683 A 0.2647 0.2594 0 0 0 0.1948,-0.1564 A 0.2647 0.2594 0 0 0 0.0624,-0.3810 L 0.0624,-0.3810"/></g><g stroke-width="0.0050" stroke="rgb(2%, 29%, 48%)" stroke-opacity="1.0" fill="rgb(2%, 29%, 48%)" fill-opacity="0.2"><path d="M -0.2023,0.0683 A 0.1324 0.1297 0 1 0 0.3271,0.0683 A 0.2647 0.2594 0 0 1 0.0624,0.0683 A 0.2647 0.2594 0 0 1 -0.2023,0.0683 L -0.2023,0.0683"/></g><g stroke-width="0.0050" stroke="rgb(2%, 29%, 48%)" stroke-opacity="1.0" fill="rgb(66%, 7%, 55%)" fill-opacity="0.2"><path d="M -0.2023,0.0683 A 0.1324 0.1297 0 1 1 0.0624,-0.3810 A 0.2647 0.2594 0 0 0 -0.0700,-0.1564 A 0.2647 0.2594 0 0 0 -0.2023,0.0683 L -0.2023,0.0683"/></g><g stroke-width="0.0050" stroke="rgb(2%, 29%, 48%)" stroke-opacity="1.0" fill="rgb(96%, 60%, 92%)" fill-opacity="0.2"><path d="M 0.1948,-0.1564 A 0.2647 0.2594 0 0 1 0.3271,0.0683 A 0.2647 0.2594 0 0 1 0.0624,0.0683 A 0.2647 0.2594 0 0 0 0.1948,-0.1564 L 0.1948,-0.1564"/></g><g stroke-width="0.0050" stroke="rgb(2%, 29%, 48%)" stroke-opacity="1.0" fill="rgb(100%, 71%, 35%)" fill-opacity="0.2"><path d="M 0.0624,0.0683 A 0.2647 0.2594 0 0 1 -0.2023,0.0683 A 0.2647 0.2594 0 0 1 -0.0700,-0.1564 A 0.2647 0.2594 0 0 0 0.0624,0.0683 L 0.0624,0.0683"/></g><g stroke-width="0.0050" stroke="rgb(2%, 29%, 48%)" stroke-opacity="1.0" fill="rgb(73%, 34%, 1%)" fill-opacity="0.2"><path d="M 0.0624,-0.3810 A 0.2647 0.2594 0 0 1 0.1948,-0.1564 A 0.2647 0.2594 0 0 0 -0.0700,-0.1564 A 0.2647 0.2594 0 0 1 0.0624,-0.3810 L 0.0624,-0.3810"/></g><g stroke-width="0.0050" stroke="rgb(2%, 29%, 48%)" stroke-opacity="1.0" fill="rgb(21%, 29%, 7%)" fill-opacity="0.2"><path d="M 0.1948,-0.1564 A 0.2647 0.2594 0 0 1 0.0624,0.0683 A 0.2647 0.2594 0 0 1 -0.0700,-0.1564 A 0.2647 0.2594 0 0 1 0.1948,-0.1564 L 0.1948,-0.1564"/></g></g><g class="datapadding"></g></g><g class="hud"><g class="frame"><g stroke-width="0" stroke="rgb(0%, 0%, 0%)" stroke-opacity="0" fill="rgb(100%, 100%, 100%)" fill-opacity="0.02"><rect width="0.7989" height="0.7822" x="-0.3370" y="-0.4523"/></g></g><g class="axis"><g class="axisbar"><g stroke-width="0" stroke="rgb(0%, 0%, 0%)" stroke-opacity="0" fill="rgb(5%, 5%, 5%)" fill-opacity="0.4"><rect width="0.0032" height="0.7847" x="-0.3482" y="-0.4538"/></g></g><g class="ticks"><g class="tickglyph"><g stroke-width="0.0040" stroke="rgb(5%, 5%, 5%)" stroke-opacity="0.4" fill="rgb(5%, 5%, 5%)" fill-opacity="0.4"><polyline points="-0.3742,0.3287
-0.3442,0.3287"/><polyline points="-0.3742,0.1987
-0.3442,0.1987"/><polyline points="-0.3742,0.0687
-0.3442,0.0687"/><polyline points="-0.3742,-0.0614
-0.3442,-0.0614"/><polyline points="-0.3742,-0.1914
-0.3442,-0.1914"/><polyline points="-0.3742,-0.3215
-0.3442,-0.3215"/><polyline points="-0.3742,-0.4515
-0.3442,-0.4515"/></g></g><g class="ticktext"><g stroke-width="0.0" stroke="none" fill="rgb(5%, 5%, 5%)" fill-opacity="1.0" font-size="0.0400" text-anchor="end"><text x="-0.3727" y="0.3368">-2.0</text><text x="-0.3727" y="0.2078">-1.0</text><text x="-0.3727" y="0.0789">-0.5</text><text x="-0.3727" y="-0.0501"> 0.0</text><text x="-0.3727" y="-0.1791"> 0.5</text><text x="-0.3727" y="-0.3080"> 1.0</text><text x="-0.3727" y="-0.4370"> 2.0</text></g></g><g class="ticklines"><g stroke-width="0.0050" stroke="rgb(5%, 5%, 5%)" stroke-opacity="0.05" fill="none"><polyline points="-0.3360,0.3290 0.4608,0.3290"/><polyline points="-0.3360,0.1988 0.4608,0.1988"/><polyline points="-0.3360,0.0687 0.4608,0.0687"/><polyline points="-0.3360,-0.0614 0.4608,-0.0614"/><polyline points="-0.3360,-0.1915 0.4608,-0.1915"/><polyline points="-0.3360,-0.3217 0.4608,-0.3217"/><polyline points="-0.3360,-0.4518 0.4608,-0.4518"/></g></g></g></g><g class="axis"><g class="axisbar"><g stroke-width="0" stroke="rgb(0%, 0%, 0%)" stroke-opacity="0" fill="rgb(5%, 5%, 5%)" fill-opacity="0.4"><rect width="0.8008" height="0.0031" x="-0.3379" y="0.3378"/></g></g><g class="ticks"><g class="tickglyph"><g stroke-width="0.0040" stroke="rgb(5%, 5%, 5%)" stroke-opacity="0.4" fill="rgb(5%, 5%, 5%)" fill-opacity="0.4"><polyline points="-0.3358,0.3665
-0.3358,0.3365"/><polyline points="-0.2031,0.3665
-0.2031,0.3365"/><polyline points="-0.0704,0.3665
-0.0704,0.3365"/><polyline points="0.0624,0.3665
0.0624,0.3365"/><polyline points="0.1951,0.3665
0.1951,0.3365"/><polyline points="0.3278,0.3665
0.3278,0.3365"/><polyline points="0.4605,0.3665
0.4605,0.3365"/></g></g><g class="ticktext"><g stroke-width="0.0" stroke="none" fill="rgb(5%, 5%, 5%)" fill-opacity="1.0" font-size="0.0400" text-anchor="end"><text x="-0.3201" y="0.3931" transform="rotate(-45.0, -0.3201, 0.3931)">-2.0</text><text x="-0.1901" y="0.3931" transform="rotate(-45.0, -0.1901, 0.3931)">-1.0</text><text x="-0.0600" y="0.3931" transform="rotate(-45.0, -0.0600, 0.3931)">-0.5</text><text x="0.0701" y="0.3931" transform="rotate(-45.0, 0.0701, 0.3931)"> 0.0</text><text x="0.2001" y="0.3931" transform="rotate(-45.0, 0.2001, 0.3931)"> 0.5</text><text x="0.3302" y="0.3931" transform="rotate(-45.0, 0.3302, 0.3931)"> 1.0</text><text x="0.4602" y="0.3931" transform="rotate(-45.0, 0.4602, 0.3931)"> 2.0</text></g></g><g class="ticklines"><g stroke-width="0.0050" stroke="rgb(5%, 5%, 5%)" stroke-opacity="0.05" fill="none"><polyline points="-0.3360,0.3290 -0.3360,-0.4518"/><polyline points="-0.2032,0.3290 -0.2032,-0.4518"/><polyline points="-0.0704,0.3290 -0.0704,-0.4518"/><polyline points="0.0624,0.3290 0.0624,-0.4518"/><polyline points="0.1952,0.3290 0.1952,-0.4518"/><polyline points="0.3280,0.3290 0.3280,-0.4518"/><polyline points="0.4608,0.3290 0.4608,-0.4518"/></g></g></g></g><g class="frame"><g stroke-width="0" stroke="rgb(0%, 0%, 0%)" stroke-opacity="0" fill="rgb(0%, 0%, 0%)" fill-opacity="0"><rect width="1.0" height="1.0" x="-0.5" y="-0.5"/></g></g></g></svg>