<svg xmlns="http://www.w3.org/2000/svg" xmlns:xlink="http://www.w3.org/1999/xlink" width="449" height="300" viewBox="-0.75 -0.5 1.5000 1.0"><style>svg {
  color-scheme: light dark;
}
{
  .canvas g, .title g, .axisbar g, .ticktext g, .tickglyph g, .ticklines g, .legendContent g text {
    fill: rgb(5%, 5%, 5%);
  }
  .ticklines g, .tickglyph g, .legendBorder g {
    stroke: rgb(5%, 5%, 5%);
  }
  .legendBorder g {
    fill: rgb(94%, 94%, 94%);
  }
}
@media (prefers-color-scheme:dark) {
  .canvas g, .title g, .axisbar g, .ticktext g, .tickglyph g, .ticklines g, .legendContent g text {
    fill: rgb(94%, 94%, 94%);
  }
  .ticklines g, .tickglyph g, .legendBorder g {
    stroke: rgb(94%, 94%, 94%);
  }
  .legendBorder g {
    fill: rgb(5%, 5%, 5%);
  }
}
svg { font-family: system-ui,-apple-system,"Segoe UI",Roboto,"Helvetica Neue",Arial,"Noto Sans","Liberation Sans",sans-serif,"Apple Color Emoji","Segoe UI Emoji","Segoe UI Symbol","Noto Color Emoji";
}

ticktext { font-family: SFMono-Regular,Menlo,Monaco,Consolas,"Liberation Mono","Courier New",monospace;
}

</style><g class="chart"><g class="wave"><g stroke-width="0.0030" stroke="rgb(2%, 29%, 48%)" stroke-opacity="1.0" fill="rgb(2%, 73%, 80%)" fill-opacity="0.2"><rect width="0.0300" height="0.0300" x="-0.5748" y="-0.0551"/><rect width="0.0300" height="0.0300" x="-0.5374" y="-0.1382"/><rect width="0.0300" height="0.0300" x="-0.4999" y="-0.2177"/><rect width="0.0300" height="0.0300" x="-0.4624" y="-0.2901"/><rect width="0.0300" height="0.0300" x="-0.4250" y="-0.3523"/><rect width="0.0300" height="0.0300" x="-0.3875" y="-0.4014"/><rect width="0.0300" height="0.0300" x="-0.3501" y="-0.4354"/><rect width="0.0300" height="0.0300" x="-0.3126" y="-0.4528"/><rect width="0.0300" height="0.0300" x="-0.2751" y="-0.4528"/><rect width="0.0300" height="0.0300" x="-0.2377" y="-0.4354"/><rect width="0.0300" height="0.0300" x="-0.2002" y="-0.4014"/><rect width="0.0300" height="0.0300" x="-0.1628" y="-0.3523"/><rect width="0.0300" height="0.0300" x="-0.1253" y="-0.2901"/><rect width="0.0300" height="0.0300" x="-0.0878" y="-0.2177"/><rect width="0.0300" height="0.0300" x="-0.0504" y="-0.1382"/><rect width="0.0300" height="0.0300" x="-0.0129" y="-0.0551"/><rect width="0.0300" height="0.0300" x="0.0245" y="0.0281"/><rect width="0.0300" height="0.0300" x="0.0620" y="0.1076"/><rect width="0.0300" height="0.0300" x="0.0995" y="0.1800"/><rect width="0.0300" height="0.0300" x="0.1369" y="0.2421"/><rect width="0.0300" height="0.0300" x="0.1744" y="0.2913"/><rect width="0.0300" height="0.0300" x="0.2118" y="0.3253"/><rect width="0.0300" height="0.0300" x="0.2493" y="0.3426"/><rect width="0.0300" height="0.0300" x="0.2868" y="0.3426"/><rect width="0.0300" height="0.0300" x="0.3242" y="0.3253"/><rect width="0.0300" height="0.0300" x="0.3617" y="0.2913"/><rect width="0.0300" height="0.0300" x="0.3991" y="0.2421"/><rect width="0.0300" height="0.0300" x="0.4366" y="0.1800"/><rect width="0.0300" height="0.0300" x="0.4741" y="0.1076"/><rect width="0.0300" height="0.0300" x="0.5115" y="0.0281"/><rect width="0.0300" height="0.0300" x="0.5490" y="-0.0551"/></g></g><g class="datapadding"></g></g><g class="hud"><g class="frame"><g stroke-width="0" stroke="rgb(0%, 0%, 0%)" stroke-opacity="0" fill="rgb(100%, 100%, 100%)" fill-opacity="0.02"><rect width="1.2813" height="0.8274" x="-0.5757" y="-0.4540"/></g></g><g class="axis"><g class="axisbar"><g stroke-width="0" stroke="rgb(0%, 0%, 0%)" stroke-opacity="0" fill="rgb(5%, 5%, 5%)" fill-opacity="0.4"><rect width="0.0034" height="0.8217" x="-0.5877" y="-0.4512"/></g></g><g class="ticks"><g class="tickglyph"><g stroke-width="0.0040" stroke="rgb(5%, 5%, 5%)" stroke-opacity="0.4" fill="rgb(5%, 5%, 5%)" fill-opacity="0.4"><polyline points="-0.6152,0.3684
-0.5852,0.3684"/><polyline points="-0.6152,0.1641
-0.5852,0.1641"/><polyline points="-0.6152,-0.0403
-0.5852,-0.0403"/><polyline points="-0.6152,-0.2446
-0.5852,-0.2446"/><polyline points="-0.6152,-0.4489
-0.5852,-0.4489"/></g></g><g class="ticktext"><g stroke-width="0.0" stroke="none" fill="rgb(5%, 5%, 5%)" fill-opacity="1.0" font-size="0.0400" text-anchor="end"><text x="-0.6202" y="0.3768">-1.0</text><text x="-0.6202" y="0.1738">-0.5</text><text x="-0.6202" y="-0.0292"> 0.0</text><text x="-0.6202" y="-0.2322"> 0.5</text><text x="-0.6202" y="-0.4352"> 1.0</text></g></g><g class="ticklines"><g stroke-width="0.0050" stroke="rgb(5%, 5%, 5%)" stroke-opacity="0.05" fill="none"><polyline points="-0.5724,0.3686 0.7052,0.3686"/><polyline points="-0.5724,0.1641 0.7052,0.1641"/><polyline points="-0.5724,-0.0403 0.7052,-0.0403"/><polyline points="-0.5724,-0.2447 0.7052,-0.2447"/><polyline points="-0.5724,-0.4491 0.7052,-0.4491"/></g></g></g></g><g class="axis"><g class="axisbar"><g stroke-width="0" stroke="rgb(0%, 0%, 0%)" stroke-opacity="0" fill="rgb(5%, 5%, 5%)" fill-opacity="0.4"><rect width="1.2817" height="0.0033" x="-0.5744" y="0.3817"/></g></g><g class="ticks"><g class="tickglyph"><g stroke-width="0.0040" stroke="rgb(5%, 5%, 5%)" stroke-opacity="0.4" fill="rgb(5%, 5%, 5%)" fill-opacity="0.4"><polyline points="-0.5723,0.4116
-0.5723,0.3816"/><polyline points="-0.3898,0.4116
-0.3898,0.3816"/><polyline points="-0.2073,0.4116
-0.2073,0.3816"/><polyline points="-0.0249,0.4116
-0.0249,0.3816"/><polyline points="0.1576,0.4116
0.1576,0.3816"/><polyline points="0.3401,0.4116
0.3401,0.3816"/><polyline points="0.5226,0.4116
0.5226,0.3816"/><polyline points="0.7050,0.4116
0.7050,0.3816"/></g></g><g class="ticktext"><g stroke-width="0.0" stroke="none" fill="rgb(5%, 5%, 5%)" fill-opacity="1.0" font-size="0.0400" text-anchor="middle"><text x="-0.5714" y="0.4552">0</text><text x="-0.3892" y="0.4552">1</text><text x="-0.2070" y="0.4552">2</text><text x="-0.0248" y="0.4552">3</text><text x="0.1574" y="0.4552">4</text><text x="0.3395" y="0.4552">5</text><text x="0.5217" y="0.4552">6</text><text x="0.7039" y="0.4552">7</text></g></g><g class="ticklines"><g stroke-width="0.0050" stroke="rgb(5%, 5%, 5%)" stroke-opacity="0.05" fill="none"><polyline points="-0.5724,0.3686 -0.5724,-0.4491"/><polyline points="-0.3899,0.3686 -0.3899,-0.4491"/><polyline points="-0.2074,0.3686 -0.2074,-0.4491"/><polyline points="-0.0249,0.3686 -0.0249,-0.4491"/><polyline points="0.1577,0.3686 0.1577,-0.4491"/><polyline points="0.3402,0.3686 0.3402,-0.4491"/><polyline points="0.5227,0.3686 0.5227,-0.4491"/><polyline points="0.7052,0.3686 0.7052,-0.4491"/></g></g></g></g><g class="frame"><g stroke-width="0" stroke="rgb(0%, 0%, 0%)" stroke-opacity="0" fill="rgb(0%, 0%, 0%)" fill-opacity="0"><rect width="1.5000" height="1.0" x="-0.75" y="-0.5"/></g></g></g></svg>