<svg xmlns="http://www.w3.org/2000/svg" xmlns:xlink="http://www.w3.org/1999/xlink" width="450" height="300" viewBox="-0.75 -0.5 1.5 1.0"><style>svg {
  color-scheme: light dark;
}
{
  .canvas g, .title g, .axisbar g, .ticktext g, .tickglyph g, .ticklines g, .legendContent g text {
    fill: rgb(5%, 5%, 5%);
  }
  .ticklines g, .tickglyph g, .legendBorder g {
    stroke: rgb(5%, 5%, 5%);
  }
  .legendBorder g {
    fill: rgb(94%, 94%, 94%);
  }
}
@media (prefers-color-scheme:dark) {
  .canvas g, .title g, .axisbar g, .ticktext g, .tickglyph g, .ticklines g, .legendContent g text {
    fill: rgb(94%, 94%, 94%);
  }
  .ticklines g, .tickglyph g, .legendBorder g {
    stroke: rgb(94%, 94%, 94%);
  }
  .legendBorder g {
    fill: rgb(5%, 5%, 5%);
  }
}</style><g class="chart"><g class="wave"><g stroke-width="0.0009" stroke="rgb(2%, 29%, 48%)" stroke-opacity="1.0" fill="rgb(2%, 73%, 80%)" fill-opacity="0.2"><rect width="0.0091" height="0.0091" x="-0.7012" y="-0.0255"/><rect width="0.0091" height="0.0091" x="-0.6583" y="-0.1189"/><rect width="0.0091" height="0.0091" x="-0.6153" y="-0.2082"/><rect width="0.0091" height="0.0091" x="-0.5724" y="-0.2896"/><rect width="0.0091" height="0.0091" x="-0.5294" y="-0.3594"/><rect width="0.0091" height="0.0091" x="-0.4865" y="-0.4146"/><rect width="0.0091" height="0.0091" x="-0.4435" y="-0.4528"/><rect width="0.0091" height="0.0091" x="-0.4006" y="-0.4723"/><rect width="0.0091" height="0.0091" x="-0.3576" y="-0.4723"/><rect width="0.0091" height="0.0091" x="-0.3147" y="-0.4528"/><rect width="0.0091" height="0.0091" x="-0.2717" y="-0.4146"/><rect width="0.0091" height="0.0091" x="-0.2288" y="-0.3594"/><rect width="0.0091" height="0.0091" x="-0.1859" y="-0.2896"/><rect width="0.0091" height="0.0091" x="-0.1429" y="-0.2082"/><rect width="0.0091" height="0.0091" x="-0.1000" y="-0.1189"/><rect width="0.0091" height="0.0091" x="-0.0570" y="-0.0255"/><rect width="0.0091" height="0.0091" x="-0.0141" y="0.0679"/><rect width="0.0091" height="0.0091" x="0.0289" y="0.1572"/><rect width="0.0091" height="0.0091" x="0.0718" y="0.2386"/><rect width="0.0091" height="0.0091" x="0.1148" y="0.3084"/><rect width="0.0091" height="0.0091" x="0.1577" y="0.3636"/><rect width="0.0091" height="0.0091" x="0.2007" y="0.4018"/><rect width="0.0091" height="0.0091" x="0.2436" y="0.4213"/><rect width="0.0091" height="0.0091" x="0.2866" y="0.4213"/><rect width="0.0091" height="0.0091" x="0.3295" y="0.4018"/><rect width="0.0091" height="0.0091" x="0.3725" y="0.3636"/><rect width="0.0091" height="0.0091" x="0.4154" y="0.3084"/><rect width="0.0091" height="0.0091" x="0.4583" y="0.2386"/><rect width="0.0091" height="0.0091" x="0.5013" y="0.1572"/><rect width="0.0091" height="0.0091" x="0.5442" y="0.0679"/><rect width="0.0091" height="0.0091" x="0.5872" y="-0.0255"/></g></g></g><g class="hud"><g class="frame"><g stroke-width="0" stroke="rgb(0%, 0%, 0%)" stroke-opacity="0" fill="rgb(100%, 100%, 100%)" fill-opacity="0.02"><rect width="1.4388" height="0.9085" x="-0.7000" y="-0.4752"/></g></g><g class="axis"><g class="ticks"><g class="tickglyph"><g stroke-width="0.0012" stroke="rgb(5%, 5%, 5%)" stroke-opacity="0.4" fill="rgb(5%, 5%, 5%)" fill-opacity="0.4"><polyline points="-0.7107,0.4283
-0.7016,0.4283"/><polyline points="-0.7107,0.3385
-0.7016,0.3385"/><polyline points="-0.7107,0.2486
-0.7016,0.2486"/><polyline points="-0.7107,0.1588
-0.7016,0.1588"/><polyline points="-0.7107,0.0689
-0.7016,0.0689"/><polyline points="-0.7107,-0.0210
-0.7016,-0.0210"/><polyline points="-0.7107,-0.1108
-0.7016,-0.1108"/><polyline points="-0.7107,-0.2007
-0.7016,-0.2007"/><polyline points="-0.7107,-0.2905
-0.7016,-0.2905"/><polyline points="-0.7107,-0.3804
-0.7016,-0.3804"/><polyline points="-0.7107,-0.4702
-0.7016,-0.4702"/></g></g><g class="ticktext"><g stroke-width="0.0" stroke="none" fill="rgb(5%, 5%, 5%)" fill-opacity="1.0" font-size="0.0152" text-anchor="end"><text x="-0.7136" y="0.4345">-1.0</text><text x="-0.7136" y="0.3447">-0.8</text><text x="-0.7136" y="0.2548">-0.6</text><text x="-0.7136" y="0.1649">-0.4</text><text x="-0.7136" y="0.0751">-0.2</text><text x="-0.7136" y="-0.0148"> 0.0</text><text x="-0.7136" y="-0.1046"> 0.2</text><text x="-0.7136" y="-0.1945"> 0.4</text><text x="-0.7136" y="-0.2843"> 0.6</text><text x="-0.7136" y="-0.3742"> 0.8</text><text x="-0.7136" y="-0.4641"> 1.0</text></g></g><g class="ticklines"><g stroke-width="0.0015" stroke="rgb(5%, 5%, 5%)" stroke-opacity="0.05" fill="none"><polyline points="-0.6967,0.4283 0.7387,0.4283"/><polyline points="-0.6967,0.3385 0.7387,0.3385"/><polyline points="-0.6967,0.2486 0.7387,0.2486"/><polyline points="-0.6967,0.1588 0.7387,0.1588"/><polyline points="-0.6967,0.0689 0.7387,0.0689"/><polyline points="-0.6967,-0.0210 0.7387,-0.0210"/><polyline points="-0.6967,-0.1108 0.7387,-0.1108"/><polyline points="-0.6967,-0.2007 0.7387,-0.2007"/><polyline points="-0.6967,-0.2905 0.7387,-0.2905"/><polyline points="-0.6967,-0.3804 0.7387,-0.3804"/><polyline points="-0.6967,-0.4702 0.7387,-0.4702"/></g></g></g><g class="axisbar"><g stroke-width="0" stroke="rgb(0%, 0%, 0%)" stroke-opacity="0" fill="rgb(5%, 5%, 5%)" fill-opacity="0.4"><rect width="0.0008" height="0.9004" x="-0.7029" y="-0.4711"/></g></g></g><g class="axis"><g class="ticks"><g class="tickglyph"><g stroke-width="0.0012" stroke="rgb(5%, 5%, 5%)" stroke-opacity="0.4" fill="rgb(5%, 5%, 5%)" fill-opacity="0.4"><polyline points="-0.6967,0.4513
-0.6967,0.4422"/><polyline points="-0.4916,0.4513
-0.4916,0.4422"/><polyline points="-0.2866,0.4513
-0.2866,0.4422"/><polyline points="-0.0815,0.4513
-0.0815,0.4422"/><polyline points="0.1236,0.4513
0.1236,0.4422"/><polyline points="0.3286,0.4513
0.3286,0.4422"/><polyline points="0.5337,0.4513
0.5337,0.4422"/><polyline points="0.7387,0.4513
0.7387,0.4422"/></g></g><g class="ticktext"><g stroke-width="0.0" stroke="none" fill="rgb(5%, 5%, 5%)" fill-opacity="1.0" font-size="0.0152" text-anchor="middle"><text x="-0.6967" y="0.4753">0</text><text x="-0.4916" y="0.4753">1</text><text x="-0.2866" y="0.4753">2</text><text x="-0.0815" y="0.4753">3</text><text x="0.1236" y="0.4753">4</text><text x="0.3286" y="0.4753">5</text><text x="0.5337" y="0.4753">6</text><text x="0.7387" y="0.4753">7</text></g></g><g class="ticklines"><g stroke-width="0.0015" stroke="rgb(5%, 5%, 5%)" stroke-opacity="0.05" fill="none"><polyline points="-0.6967,0.4283 -0.6967,-0.4702"/><polyline points="-0.4916,0.4283 -0.4916,-0.4702"/><polyline points="-0.2866,0.4283 -0.2866,-0.4702"/><polyline points="-0.0815,0.4283 -0.0815,-0.4702"/><polyline points="0.1236,0.4283 0.1236,-0.4702"/><polyline points="0.3286,0.4283 0.3286,-0.4702"/><polyline points="0.5337,0.4283 0.5337,-0.4702"/><polyline points="0.7387,0.4283 0.7387,-0.4702"/></g></g></g><g class="axisbar"><g stroke-width="0" stroke="rgb(0%, 0%, 0%)" stroke-opacity="0" fill="rgb(5%, 5%, 5%)" fill-opacity="0.4"><rect width="1.4362" height="0.0018" x="-0.6971" y="0.4378"/></g></g></g><g class="frame"><g stroke-width="0" stroke="rgb(0%, 0%, 0%)" stroke-opacity="0" fill="rgb(0%, 0%, 0%)" fill-opacity="0"><rect width="1.4964" height="1.0" x="-0.7464" y="-0.5"/></g></g></g></svg>